<?xml version="1.0" encoding="UTF-8"?><svg id="Layer_1" xmlns="http://www.w3.org/2000/svg" viewBox="0 0 126.71 47.07"><path d="M.85,26.26c11.17,4.05,23.88,6.8,32.91,14.84,7.62,2.86-6.38-14.06-7.3-16.13,24.5,.28,27.74,.03,52.85-.02,4.81,6.5,7.27,16.36,15.44,19.26,10.12,2.23,21.11,3.48,31.45,2.57,3.18-1.8-9.63-17.75-10.62-21.81,2.37-.6,7.8,1.41,9.02-1.25-1.31-2.68-6.85-.63-9.3-1.24,.95-4.15,14.01-20.35,10.79-22.16-10.34-.94-21.31,.36-31.44,2.57-8.24,2.97-10.77,12.96-15.61,19.56-21.72,.17-28.98-.26-49.21,.02,6.13-3.23,11.74-7.37,17.08-11.79,1.32-1.1-.87-2.08-1.89-1.4-10.63,7.03-22.57,11.45-34.99,13.84-.5-.19-1.05-.04-1.39,.26-2.58,.46-5.18,.85-7.79,1.15-1.22,.14-1.04,1.5,0,1.76Zm102,17.73c-2.28-6.85-6.73-12.98-10.67-18.97,1.99-.01,4.19-.08,6.25-.06,3.69,6.59,6.82,13.81,11.76,19.56-2.08-.17-4.68-.26-7.34-.53ZM110.08,2.56c-5.01,5.86-8.2,13.21-11.94,19.91-2.1,.01-4.32-.08-6.3-.09,4.1-6.05,8.49-12.34,10.9-19.27,2.57-.28,5.13-.38,7.34-.55Zm-9.17,.78c-4.25,6.09-7.26,12.97-11.58,19.02-2.84,0-5.62,.02-8.71,.05,3.44-4.43,6.13-9.23,9.38-13.75,2.4-3.34,6.57-4.68,10.9-5.32Zm11.92,19.13c-2.86,0-5.59,0-8.24,0,4.61-6.13,8.29-13.44,11.34-20.47,6.36-.7,9.9-.64,4.88,6.24-2.78,4.69-5.73,9.26-7.98,14.23Zm3.18,22.55c-2.92-6.93-6.68-13.91-11.01-20.05,2.6,0,5.28,0,8.1,0,.3,3.08,14.61,21.12,9.17,20.41-2.09,.04-4.18-.18-6.26-.36Zm-35.05-20.06c3.16,.03,5.91,.07,8.68,.07,4.25,5.97,7.19,12.77,11.41,18.75-4.48-.62-8.84-1.95-10.93-5.36-2.87-4.68-5.79-9.14-9.16-13.45Z" fill="#424242"/></svg>