<?xml version="1.0" encoding="UTF-8"?><svg id="Layer_1" xmlns="http://www.w3.org/2000/svg" viewBox="0 0 126.71 47.07"><path d="M125.86,24.5c-2.61-.3-5.21-.68-7.79-1.15-.34-.29-.89-.44-1.39-.26-12.42-2.39-24.36-6.81-34.99-13.84-1.02-.67-3.21,.31-1.89,1.4,5.34,4.42,10.95,8.56,17.08,11.79-20.23-.28-27.49,.14-49.21-.02-4.84-6.6-7.37-16.59-15.61-19.56C21.93,.67,10.95-.63,.61,.31c-3.22,1.81,9.83,18.01,10.79,22.16-2.44,.61-7.99-1.44-9.3,1.24,1.23,2.66,6.66,.65,9.02,1.25-.99,4.06-13.8,20.01-10.62,21.81,10.34,.92,21.32-.34,31.45-2.57,8.17-2.9,10.63-12.75,15.44-19.26,25.11,.05,28.35,.3,52.85,.02-.92,2.07-14.92,19-7.3,16.13,9.04-8.03,21.74-10.78,32.91-14.84,1.04-.26,1.22-1.62,0-1.76ZM16.52,44.52c4.94-5.75,8.06-12.97,11.76-19.56,2.06-.02,4.26,.04,6.25,.06-3.94,5.99-8.39,12.13-10.67,18.97-2.66,.27-5.25,.35-7.34,.53ZM23.97,3.11c2.41,6.93,6.8,13.22,10.9,19.27-1.98,0-4.2,.1-6.3,.09-3.74-6.71-6.93-14.05-11.94-19.91,2.21,.18,4.77,.27,7.34,.55Zm12.72,5.55c3.25,4.52,5.94,9.32,9.38,13.75-3.09-.03-5.87-.06-8.71-.05-4.32-6.05-7.33-12.93-11.58-19.02,4.34,.64,8.5,1.98,10.9,5.32Zm-30.8-.43C.87,1.36,4.41,1.3,10.78,2c3.04,7.03,6.73,14.34,11.34,20.47-2.65,0-5.38,0-8.24,0-2.25-4.97-5.2-9.55-7.98-14.23Zm-1.46,37.14c-5.44,.71,8.87-17.33,9.17-20.41,2.82,0,5.5,0,8.1,0-4.33,6.14-8.09,13.13-11.01,20.05-2.08,.18-4.16,.39-6.26,.36Zm32.15-6.96c-2.09,3.41-6.45,4.74-10.93,5.36,4.21-5.98,7.15-12.78,11.41-18.75,2.77,0,5.52-.03,8.68-.07-3.37,4.31-6.29,8.78-9.16,13.45Z" fill="#424242"/></svg>