<?xml version="1.0" encoding="utf-8"?>
<!-- Generator: Adobe Illustrator 27.0.1, SVG Export Plug-In . SVG Version: 6.00 Build 0)  -->
<svg version="1.1" id="Layer_1" xmlns="http://www.w3.org/2000/svg" xmlns:xlink="http://www.w3.org/1999/xlink" x="0px" y="0px"
	 viewBox="0 0 204 217.9" style="enable-background:new 0 0 204 217.9;" xml:space="preserve">
<style type="text/css">
	.st0{fill:#FCFCF7;}
</style>
<rect class="st0" width="204" height="217.9"/>
<path d="M111.8,123.1c0,0,1.3,0.1,2.2,0.9c1.1,1,1.2,2,1.2,2C116.4,123.8,113.7,121.9,111.8,123.1z"/>
<path d="M120.5,158.1c-0.6,0.7-1.1,1.4-1.7,2.1c-0.1,0.1-0.2,0.2-0.3,0.2c-0.2,1.4,1.3,2.9,2.3,3.8c2.7,0.5,0.9-2,0.4-3.2
	c-0.7-1.6,2.3,0.3,1.6-2l0.9-0.1c-0.5-0.4-1-0.8-1.5-1.2C121.6,157.9,121.1,158,120.5,158.1z"/>
<path d="M200.4,150.4c-0.2-0.6-0.4-1.1-0.5-1.7c0,0,0-0.1-0.1-0.1c0-0.1,0.1-0.2,0.1-0.3c0-0.5-0.2-1.1-0.7-1.4
	c-0.2-0.2-0.4-0.3-0.7-0.4c0-0.2,0.1-0.4,0.1-0.6c0-0.4-0.1-0.9-0.3-1.3c0,0,0,0-0.1-0.1c0-0.3-0.2-0.6-0.5-0.8
	c-0.4-0.2-0.8-0.5-1.2-0.7c-0.4-0.3-0.9-0.5-1.4-0.7c-1.1-0.4-2.1,0.3-2.8,0.9c-0.1,0.1-0.2,0.3-0.2,0.5c-0.6,0.8-1.1,1.6-1.3,2.6
	c-0.1,0-0.1,0-0.2,0c-1.2,0.1-2.4,0.9-2.8,2.1c-0.1,0-0.1,0-0.2,0c-0.6,0.1-1.3,0.4-1.8,0.7c-0.6,0.4-1.3,0.8-1.8,1.4
	c-0.1,0.2-0.2,0.4-0.3,0.7c-0.1,0.2-0.2,0.3-0.3,0.5c0,0,0,0,0,0c0,0,0,0,0,0c0,0.1,0,0.1,0,0.2c-0.4,0.4-0.8,0.8-1.2,1.2
	c0.1-0.2,0.2-0.3,0.3-0.5c-0.2,0.1-0.4,0.2-0.7,0.2c-0.2,0-0.5,0-0.7,0c-0.3-0.1-0.6-0.3-0.8-0.6c-0.2-0.2-0.2-0.4-0.3-0.6
	c-0.1-0.2-0.1-0.4-0.1-0.6c0-0.3,0-0.5,0.1-0.8c0,0,0-0.1,0-0.1l0,0c0,0,0-0.1,0-0.1c0,0,0-0.1,0-0.1c0,0-0.1-0.1-0.1-0.1
	c0-1.5,0.8-3,0.7-4.5c0-1.7-0.6-3.3-1-4.9c-0.2-0.7-0.3-1.4-0.4-2c-0.1-0.2-0.2-0.4-0.3-0.7c-0.2-0.8-0.4-1.6-0.6-2.5
	c0,0-0.1,0-0.1,0c-0.3-0.6-0.6-1.2-0.9-1.8l0.1,0c-0.2-0.2-0.3-0.5-0.5-0.7c-0.5-0.7-0.6-1.4-0.4-2.1c-0.1-0.2-0.1-0.3-0.2-0.5
	c0,0,0.1,0,0.1,0c-0.1-0.3-0.3-0.7-0.3-1c0-0.2-0.1-0.8-0.1-1c0,0-0.1,0-0.1-0.1c-0.1-0.3-0.2-0.5-0.3-0.8c-0.1-0.1-0.1-0.2-0.2-0.3
	c-0.4-0.6-0.5-1.2-0.5-1.8c-0.2-0.6-0.5-1.1-0.8-1.6c0.1,0,0.1,0,0.2,0.1c-0.2-0.3-0.4-0.6-0.5-0.9c-0.1,0-0.2-0.1-0.3-0.1
	c-0.2-1.9-0.9-3.8-2.6-4.9c-0.6-0.4-0.8-1-0.8-1.7c0,0,0,0,0,0c-0.1-0.3-0.2-0.6-0.3-0.9c-0.3-0.7-0.9-1.3-1.5-1.8c0,0,0,0,0,0
	c-0.2-0.2-0.4-0.3-0.6-0.5c-0.4-0.4-0.6-0.8-0.8-1.3c0,0,0,0,0-0.1c-0.2-0.3-0.5-0.6-0.7-0.9c0,0,0,0-0.1,0
	c-0.3-0.3-0.6-0.5-0.8-0.8c-0.3-0.3-0.5-0.6-0.8-1c-0.1-0.1-0.1-0.2-0.1-0.3c-0.1-0.1-0.1-0.1-0.2-0.2c0,0,0.1,0,0.1,0
	c-0.1-0.2-0.2-0.3-0.2-0.5c-0.4-0.5-0.9-1-1.2-1.5c-2.7-1.1-5.3-2.3-7.7-4.1c-1.4-0.5-2.8-1-4.3-1.6c-2.5-1.1-4.9-2.3-7.1-3.7
	c-2.1-0.6-4.3-1-6.4-1.6c-1.6-1.4-3.6-1.3-5.4-1.9c-1.8-0.4-3.7-0.8-5.6-0.8c-4.3-1.9-9.1-1.8-13.8-1.5c-0.7,0.2-1.3,0.1-1.9-0.3
	c-1-0.6-2.3-0.1-3.5-0.1c-1.6-2.3-3.2-1.8-5.6-2.4c-0.7,0-10.5-3.2-12.1,0c-3.4-0.5-6-3.8-9.2-4.8c-1.7-0.1-1.4-2.3-3-2.4
	c-1.5,0.1-2-1.4-3.4-1.4c-1.2-0.2-2.2-0.6-2.7-1.8c-0.7-1.4-2.8-2.1-2-4c0.3-1.7-1.5-3-2.3-4.4c-0.6-1.6-0.4-3.6-2.1-4.5
	c-1.1-0.9-1.8-2.4-2.3-3.7c0.1-0.6-0.2-1.1-0.6-1.5c-1.1-2.6,5-7.4,7.4-8.1c1.1-0.1,1.4-1.7,2.6-1.5c2.6,0.1,5-0.9,7.5-1.5
	c6.5-1,11.3-5.2,15.9-9.6c4.8-4.5,7.1-11,11.2-15.9c2-1.5,4.5-2.3,6.2-4.1c1.6-1.8,5.2-3.5,4.1-6.4c-0.8-1.2-2.5-2.7-4-1.9
	c-7.4,3.2-16.1,2-23.1,6.6c-3.8,2.4-8.1,3.5-12.1,5.4c-5.5,3.1-10.9,6.5-15.3,11.1c-3.8,4.4-5.9,10.6-11,13.8
	c-0.8,0.4-1.4,1-1.7,1.8c-0.5,1-1.8,1.1-2.6,1.9c-0.5,0.4-1.1,0.5-1.7,0.1c-1.2-0.6-2.6-0.2-3.8,0.1c-0.8,0.2-1.1,0-1.2-0.8
	c-0.8-2.7-3.6-4.4-5.1-6.7c-1.8-2.3-2.1-5.3-2.6-7.9c-1.2-1.8-2.3-3.7-3.1-5.6c-2.1-2.9-4.5-5.6-6.5-8.6c-0.6-1-2-0.9-2.7-1.9
	c-1.3-1.3-2.6-2.6-3.8-4C12,11.8,10.5,5.2,5.5,1.5c-1-0.5-1.7-2-2.9-1.3C1.3,1,0.4,2.1,0.7,3.8c0.5,1.4,0,2.8,0.7,4.1
	C2,9,1.5,10.2,2.1,11.4c1.6,3.4,0.4,7.2,1.7,10.6c0.2,0.4,0.3,0.7,0.3,1.1c-0.2,1.2,0.8,2.1,0.7,3.3c-0.1,0.9,0.8,1.4,0.8,2.3
	C8,35.6,15,47.3,22.3,49.5c1.4-0.1,7.4,5.9,6.7,7.3c-0.7,2-2.8,3.2-3.1,5.3c-0.4,1.6-1.9,2.7-2.8,4c-1.7,1.6-2.5,3.9-4,5.8
	c-1.7,5.8-2.8,12.3-1,18.2c2.1,4,0.9,8.6,2.2,12.9c0.1,2-2.5,1.4-3.7,1.9c-1.6,1.1-9.9,0.8-8.3,3.4c4.8,0.4,10-3.4,14.7-1.6
	c1.5,0.9,3.8,0.4,4-1.5c-0.3-1.5,2.7-6-0.6-5.2c-1.4,0.5-1.7,2.2-2.5,3.1c-1-0.5-1.1-2.1-1-3.1c0.2-1.2-0.6-2.4-0.2-3.6
	c0.1-4-2-7.7-2.9-11.6C18.7,74.4,26.3,65.9,32.4,58c0.5-0.8,1.1-2.2,2.2-2.2c1.1,0.3,2-0.5,3.1-0.6c0.6-0.1,1-0.3,1.2-0.9
	c0.2-0.6,0.5-0.7,1.2-0.6c1.4,0.3,2.6-0.4,4-0.3c1.9-0.5,1.3,3.3,3.3,1.6c1.9-2.7,5.5-2.5,8.1-4.1c1.1-1.1-1.6-1.9,0.4-3.2
	c3.8-3,5.9-7.5,8.7-11.4c4.7-5.5,10.5-10,17.4-12.5c4.9-2.2,9.6-4.9,14.5-6.7c2.1-0.9,4.4-0.3,6.6-1.1c0.3,0,0.6-0.2,0.8,0.1
	c0.2,0.6-1,0.8-0.6,1.5c3.3-0.3,6.9-3.2,10.5-3.5c0.4,0,0.6,0.3,0.4,0.7c-2.3,4.2-7.6,5-10.2,8.7c-3.1,4.1-5.2,9.1-8.9,12.7
	c-2.8,2.2-4.8,5.7-8.2,7.1c-7,4.5-16.6,2.4-22.4,8.7c-1.1,1.6-3,2.5-4,4.2c-1.2,1.4-4.2,2.7-3.9,4.9c0.2,0.6,0.9,0.6,1.5,0.6
	c1.7,0.3,2.5,2.7,3.6,3.9c0.6,1.3,2.1,2.4,2.3,3.7c-0.1,0.8,0.2,1.3,0.8,1.8c0.3,0.3,0.5,0.6,0.5,1.1c0,0.9,0.9,1.5,1,2.4
	c0,1.5,1.9,3.1,0.7,4.3c-1.1,1.6,2,3.1,3.4,2.9c1.9-0.5,2.8,1.8,4.6,1.4c1.2-0.4,1.7,1,2.5,1.6c0.9,0.6,1.5,1.6,2.5,2
	c1.4,0.6,3.3,0.5,3.9,2.1c0.6,1.7,2.6,2,3.8,3.3c1.2,1,3,3.5,4.5,1.9c0.6-0.9-1.4-2.1,0-2.8c8.8,7.8,12.4,14.5,14.3,28.5
	c-14.6,2.7-43.5,6.9-58,0.9c1-1.4,2.8-2,1.4-3.8c-0.2-3.1,3.2,1.8,3.8-1.2c0.1-0.8,1.1-0.6,1.5-1.2c0.4-0.6,1.3-1.2,1-2.1
	c-0.6-1-2.2-2.3-3.4-1.9c-0.7,0.3-1.5,0.5-2.1,1.1c-0.4,0.3-0.9,0.5-1.2,0c-1.4-1.6,0.8-2.8,1-4.4c0.1-0.5,0.4-0.7,0.8-0.8
	c1.6-0.1,1-1.3,1.7-2.1c1.4-1,2.6-2.3,4.2-3.1c0.5-0.2,0.6-0.7,0.3-1.2c-0.4-0.8-1.2-1-2-1.2c-0.8-0.4,0.1-1.5,0.7-0.8
	c0.6,0.6,1.4,0.6,2.2,0.7c0.8,0.4,3.4-1,2-1.6c-1.5-0.4-3,0-4.4-0.2c-0.3-0.2-0.3-0.6-0.5-0.9c-0.4-0.9-1.5-0.5-1.8,0.2
	c-0.6,0.8-0.3,1.9-0.7,2.8c-0.7,0.9-1.2,2-2,2.8c-1.6,1.4-2.7,5.3-5.2,4.8c-4.2-1.5-8.6-2.7-12.8-4c-4.2,2,9.3,3.7,10.5,4.8
	c1.2,1.7-2.5,1.6-3.4,1.5c-1.7,0.1-3.1-2.4-4.7-1.9c-0.8,1.9,7.1,3.8-2.3,4.1c-2.8,0-4.2-2.9-7.1-2.9c-1-0.4-3,0.7-1.7,1.7
	c0.8,0.7,2,0.8,2.8,1.5c3.1,2.8,8.2,3.3,11.7,1c3.4-2.9,4,1.5,5.2,3.6c3.3,3-0.2,1.7,0.9,4.5c-0.6,1.2,0,2.7-0.1,4.1
	c0.2,3.4-0.3,7.1,3.4,8.2c0.1,1.5-1.2,3.5,0.4,4.6c1.6,1.5,1.6,4,3.1,5.6c1.8,1.3,1.8,3.7,3.5,5.1c0.2,0.3,0.3,0.7,0.1,1.1
	c-0.5,0.9-0.4,1.9-0.3,2.9c0.6,2.2-0.5,4.3-0.2,6.4c0.2,0.8,0.2,1.6-0.1,2.3c-1.1,2.6-0.7,5.7-0.2,8.5c0.5,1.8-1.5,3.1-1.8,4.8
	c-1.1,2.4,1.2,4.8,0.9,7.1c-0.5,1.4-2,2.4-1.5,4.1c-0.2,1.7-1.1,3.4-2.1,4.7c-1.2,1.1-0.7,2.9-1.4,4.3c-0.4,1.5-3.1,3.1-2,4.7
	c2.5,1.4,3.1-3.3,4.7-4.5c1-0.9-0.1-2.4,0.9-3.3c1.3-1.9,3.2-4.2,2.8-6.7c-0.3-1.6,1.7-2.4,1.3-4.1c0-2.7-0.7-5.7,0.2-8.3
	c0.7-1.1,0.9-2.4,1.3-3.6c0.4-1-1.3-1.8-0.3-2.6c0.5-0.4,0.8-1.2,1.5-0.6c2.4,1,0.4-3.2,2.3-2c1.7,0.6,0.3-2.6,1.5-1.5
	c0.3,0.5,0.3,1.6,1,1.6c1.2,0,0.5-2.3,1.8-2.2c0.8-0.1,1.2,0.1,1.5,0.8c1.5,1.9,1.3,4.2,2.2,6.4c0.3,1.2-0.5,2.6-0.6,3.9
	c-0.2,1.4-1.5,2.4-1.4,3.9c-0.1,1.9-1.5,3.5-1.4,5.5c-0.5,3.5-3.3,6.4-4.5,9.7c-0.5,1.8,1,4.1-0.6,5.5c-0.9,0.7-1.3,1.9-1.8,2.9
	c-0.2,0.7-1.2,0.5-1.4,1.2c-1.7,2.6-3.4,5.2-5.2,7.7c-0.5,0.5-1.2,1-1.1,1.9c0,0.1-0.1,0.2-0.2,0.3c-0.5,0.1-0.8,0.9-1.3,0.5
	c-2.7-1-2,2.3-6.7,0.8c-2.7-0.6-6.1,1.8-8.5,0.5c0-0.6-0.4-0.9-0.9-1c-1.3-0.1-4-0.6-2-2.1c2.7-1.5,5.8-1,8.5-2.3
	c1.5-0.6,0.8-1.7-0.6-1.3c-1.5,0.5-3.2,0.4-4.7,0.7c-1.5,0.1-0.7-2,0.4-2c1.6-0.3,3.1-1.1,4.9-0.9c1.5,0.3,2.3-1.1,3.6-1.5
	c2.1-0.2,2-3.6-0.3-2.5c-2.6,2-5.9,2.1-9.1,3c-2.5,0.3-2.3,3.2-3.6,4.8c-0.3,0.7-1.1,0.8-1.5,1.3c-1.2,1.5-0.9,3.2-2.2,4.7
	c-0.3,3.2,3.8-0.3,5.3,0.9c2.5,1.5,4.9,0.6,7.5,0.3c2.8-0.5,5.7,1.1,8.1-0.7c0.8-0.5,1.7,0.2,2.5-0.3c0.9-0.3,1.4-0.1,1.4-1.2
	c0-0.6,0.8-0.9,1.2-1.3c1.4-0.5,1.5-2.3,3-2.7c0.8-0.2,1.3-0.8,1.3-1.7c0.2-2,2.4-3,3-4.9c0.3-2.2,3.9-2.4,3.6-4.7
	c-0.3-1.3,0.7-2.6,0.1-3.8c-0.8-2.7,2.2-4.8,3.1-7c0.2-1.2,1.6-1.9,1.4-3.3c0-0.8,0.3-1.4,0.9-1.8c1.5-1,0.3-2.9,0.8-4.3
	c0.4-2.9,0.3-6.3,2-8.7c2.1,2-1.2,5.8,1,7.6c0.7,0.5,0.5,1.4,0.5,2.1c-0.5,1.3,0.9,1.9,1,3c-0.1,1.1,0.4,2.2,0,3.2
	c-0.8,1.6,1.5,2.6,1,4.1c-0.2,4.4,0.2,8.8-0.5,13.2c0,2.3-2.5,3.1-4.1,4.1c-3.6,3-7.1,5.9-9.6,10c-2.6,5.2,5.6,2.2,8,2.1
	c0.9-0.3,1.7-0.8,2.7-0.4c0.8,0,1.6-0.1,2.4,0.2c5.3,1.4,9.9-1.9,14.4-4c0.8-0.2,1.3-0.7,1.6-1.5c0.3-1,1.3-1.5,1.5-2.6
	c0.9-4.2-0.7-8.4-1.5-12.5c0-0.5,0.1-0.5,0.5-0.7c0.9-0.2,1.3-0.8,1.4-1.7c0.1-1.3-0.3-2.6,0.5-3.8c0.2-0.4,0.3-0.8,0.2-1.3
	c-0.5-1.3,0.4-2.5,0.1-3.8c0.7-5,0.1-10.1,2.7-14.5c0.3-1.5,1.6-2.5,1.9-3.9c0.2-0.5,0.7-0.8,1.1-0.5c-0.1,0.7,0.3,1.4,1,1.6
	l8.9,3.1c0.1,0,0.3,0.1,0.4,0.1c-0.3,0.2-0.6,0.7-0.7,1.4c-0.1,0.8-1,1.7-0.6,2.3c1,1.6-0.1,4.5,2.3,5.3c0.5,0.2,0.9,0.6,1.1,1.1
	c0.7,1.2,1.9,1.9,2.4,3.3c0.8,1.3,2.8,0.2,3.2,1.8c0.3,1.5,0.7,3,2.5,3.1c2.5,1.1,5.5,2.9,5.7,6c0.5,3.6-2.3,6.7-6,5.4
	c-2.4-0.6-4.6,0.4-7,0.4c-1.7,0.2-3.6,0.3-4.9,1.6c-3.2,2.8-6.6,5.5-10.2,7.8c-1.2,2.5,3,0.9,3.8,2.4c4,4.6,10.2,0.5,15.3,1.3
	c2.9,0.3,5.8-0.5,8.4,1c2.2,0.3,4.6-0.3,6.9-0.3c2.8,0.4,5.5,0.1,8.2,0.8c2.6,0.2,5.1-1,7.7-0.5c2-0.2,4.2-0.8,5.9-2
	c0.8-0.8,1.6-1.2,2.8-1.1c2.4-0.6,4.6-2.5,6.5-4.1c2-1.5,4.2-2.6,6.1-4c3.1-1.9,5.8-4.3,8.5-6.7c2.1-1.5,4.9-2.6,5.9-5.2
	c0-0.4,0.2-0.7,0.6-0.8c0.9-0.4,0.5-1.5,1-2.2c0,0,0-0.1,0.1-0.1c0-0.1,0.1-0.1,0.1-0.2c0-0.3,0-0.5-0.1-0.8c0-0.6-0.1-1.2-0.6-1.7
	c-1.1-1.2-2.3-2.2-2.7-3.7c-0.6-0.5-1.2-1-1.8-1.5c0-0.4,0.2-0.7,0.5-0.8c0.1-0.2,0.1-0.3,0.3-0.5c1.5-1.7,3.7-2.4,5.8-3.2
	c1.1-0.4,2.1-1,3.3-1.3c0.6-0.2,1.3-0.3,1.9-0.3c0.1,0,0.2,0,0.3,0c2.7-2.2,0-2.7,1.3-4.4c1.2-1.1,4.1-3.1,2.4-4.9
	c-1.3-0.9,2.7-4.4,3.4-5.4c0.4-0.7,1-1.6,1.6-2.5c-0.2-1.7-0.1-3.4,0.3-5.1c0.1-0.2,0.1-0.5,0.2-0.7
	C200.5,151.5,200.5,150.9,200.4,150.4z M36,52.2L36,52.2c-1.2,0-1.5,1.2-2.5,1.4c-0.6,0.1-1.5,0.7-2,0c-1-2.4-2.3-4.7-4.6-6.2
	c-2.1-2.2-3.4-5-5.8-6.9c-0.8-0.9-2.4-0.4-2,0.9c0.2,0.9,1.2,1.4,1.2,2.4c-1.2,3.3-6.3-4.9-7.2-6.2c-3.8-6.1-6.3-13.2-7-20.4
	c2.3,1.6,1.8-0.8,1.1-2.1c-0.3-1.1-1.7-2.2-0.8-3.2c0.8-0.6,1,1.1,1.5,1.5c1.1,1.4,1.6-0.2,1.2-1.3c-0.2-1.2-1.4-1.9-1.6-3
	c0.9-2.7,3,3.2,3.4,4.1c3.6,5.6,9.8,9,13.8,14.4c6.4,6.6,5.6,16.6,11.7,23.2C37.2,51.2,37,52.2,36,52.2z M47.9,127l-0.4-3.3
	c18.8,6.5,41.6,2.1,59-0.6l0.3,3C89.8,128.7,66.6,133.1,47.9,127z M106.8,139c-0.1,3.5-0.5,7.8-1.7,12.6c-0.9,3.7-2,7-3.2,9.6
	c-0.3,0.7-0.7,1.3-1.1,1.9c-0.3-0.1-0.6-0.1-1,0.2c-1.3,0.6-1.9-0.9-1.6-1.9c-0.4,0-0.8,0.1-1.2,0.1c-0.2,0.1-0.4,0.1-0.7,0.1v0
	c-0.1,0-0.2,0-0.3,0c-0.8,0.1-1.6,0.2-2.1,0.4c0.5,0.6,0.4,1-0.4,1.3l0,0c-1.9,0.7,0.7,2.6-1.1,3.3c-1,0.5-1.5,1.5-1.4,2.5
	c0.1,1.1-1,2-0.1,3c0.5,0.9-0.3,1.5-1.1,1.8c-1.4,0.8,0.6,2.2-0.1,3.4c-0.2,0.5-0.2,1,0,1.5c0.5,1.6-0.6,3.2-0.1,4.9
	c0.1,1.8,0.1,3.7-0.8,5.3c-0.5,0.7-0.6,1.5-0.5,2.3c0.6,2-1.4,3.8-0.4,5.9c0.2,1.2,0.8,2.5,0.8,3.7c-0.3,0.8-0.1,1.5,0.2,2.2
	c0.3,1.1,1.8,3.4,0.2,3.9c-2,0.7-1.4,3.9-3.8,4.5c-1.9,0.9-3.1,3.3-5.5,3.1c-0.5,0-0.7-0.4-0.5-0.8c0.4-1.1,2.8-1.9,1.8-3.2
	c-2.2-0.9-3.5,5.5-6.7,3.9c-0.8-0.4-1.8-0.1-2.6,0c-2.2-1.1,3.8-4.6,4.7-5.6c0.4-0.5,0.2-1.1-0.4-1.3c-2.4-0.4-3.5,2.8-5.7,3.3
	c-2.1,0.5-1.8,3.4-3.2,4.4c-0.7,0-1.5,0.5-2.1,0.3c-0.5-0.6-1.2,0.1-1.7-0.3c-0.2-0.2-0.1-0.5,0-0.7c1.6-2,3.1-4.1,5.1-5.7
	c1.5-1,2.7-3,4.6-3.1c0.5,0,0.9-0.2,1.3-0.5c1.2-1.5,3-3.5,2.8-5.5c-0.1-0.5,0-1,0.2-1.5c0.8-1.3-0.1-2.7,0.4-4.1
	c0.4-5.2-1.4-10.3-1.3-15.5c0.2-1.1-1-1.6-1-2.6c-0.1-1,0.5-2.1-0.3-2.9c-0.2-0.3-0.4-0.6-0.3-1c-0.4-1.6,0.5-3.2-0.2-4.6
	c-0.6-1.1-0.2-2.4-0.2-3.6c0.5-1.5-1-3.5,0.4-4.5c0.2-0.1,0.3-0.2,0.4-0.4c-0.2-0.6-0.4-1.2-0.6-1.8c-0.2-0.3-0.4-0.6-0.5-0.8
	c-1.5-1.7-1.4,1.3-5.1-1.6c-2.4-1.4-2-4.9-3.9-6.7c-0.6-0.7-0.8-1.8-1.8-2.1c-2.9-0.4,2.8,4.8,1.9,6.2c-0.4,0.2-0.7-0.4-1-0.5
	c-1.1-0.7-0.9,2.3-2,0.7c-0.4-1.5-0.4-6.1-2.8-4.7c-0.3,0.4-0.6,0.7-1.1,0.6c-0.8-0.2-1.3-1.1-0.9-1.9c0.2-0.3,0.1-0.6-0.2-0.8
	c-1.7-1.9-3.1-4.1-4.7-6.1c-0.8-1.5-0.7-3.4-1.8-4.7c-0.5-0.5-0.7-1.1-0.7-1.7c3.4,1.1,8,1.8,14,2.2c-0.3,1.2-1.4,2.8-0.4,3.9
	c0.5,0.5,1.1,0.3,1.3-0.3c0.2-1.2,0.4-2.5,1-3.5c1.1,0,2.2,0.1,3.4,0.1c-1.9,3.2-2.1,7.3-1.4,10.8c0.5,1.4,0,5.3,1.8,5.6
	c0.5,0,0.9-0.5,0.9-1.1c0-3.1-0.9-6.1-0.7-9.2c-0.1-2.1,0.9-4.1,0.5-6.2c5.8,0.1,11.8-0.4,18.6-1.2c-1,1.6-0.3,3.2-0.3,4.9
	c-0.3,1.3,0.7,2.5,1.1,3.7c1,0.3,1.8,0.8,2.4,1.4c0.3-0.2,0.5-0.5,0.8-0.7c0.2-0.4,0.4-0.7,0.6-1.1l-0.3,0c-0.7-1.2-2-2.4-2.1-3.9
	c1,0.3,4,4.1,3.9,1.2c-1.5-1.8-3.1-3.6-3.8-5.8c5.9-0.8,11.5-1.6,15.6-2.3C107,134.3,106.9,136.7,106.8,139z M109.9,125
	c-0.1-4.2,6.5-4.2,6.5,0C116.4,129.2,109.8,129.2,109.9,125z M123.8,210.3c-1.7,0-3.5,0.4-5.2,0.5c-4.3,0.3-8.3,2.2-12.6,2.4
	c-0.6,0.1-2.4,0.4-1.3-0.7c0.6-0.1,9.5-8.8,6.3-8c-2,1.2-3.6,2.9-5,4.7c-3,2.9-6.5,0.2-1.5-1.9c1.5-0.7,2.2-2.4,3.7-3
	c2.7-1.6,5.8-1.6,8.9-1.6c2.5-0.5,5.8,1.3,8-0.2c0.3-0.2,0.5-0.5,0.5-0.9c0.1-2,1.8-3.6,1.6-5.8c0.3-2.8-0.6-5.1-1.7-7.6
	c-0.2-1.8,1.9,0.3,2.5-1.4c0.8-1,1.8,0.7,2.4-1c0.6-1.2,1.5,1.1,2.6,0.6c0.5,0,0.9,0.2,1.2,0.5c0.7,1.1,2.1,2,2.2,3.4
	c-0.4,4.4,3.8,7,5.1,10.8c-0.2,2.1-4.5,2.1-6.1,3.2c-2.8,1.9-5.4,4.2-8.3,6.1l0,0C126.1,210.9,124.9,210.4,123.8,210.3z
	 M138.3,188.5L138.3,188.5c0.5-1.7,1.8-4.8,3.9-4.3c1.1,0.4,1.9,1.3,3.1,1.3c1.1,0.2,0.8-1.6,1.8-1.2c1.5,0.6,2.9,1.4,4.5,1.6
	c1.3,0.1,2.7-0.4,3.8,0.5c3.4,2.3,8.7,5.3,2.4,8.2c-4.2,1.5-7.1,5.5-11.5,6.6c-0.8,0.1-2.5,1-2.7-0.3
	C142.1,196.5,138,194,138.3,188.5z M196.4,156.4c-0.9,1.2,0.9,1,1.4,0.2c0.1,0,0.1,0,0.2,0c0,0.4-0.2,1-0.3,1.3
	c0,0.1-0.1,0.2-0.2,0.3c0.1-0.1-0.2,0.2-0.1,0.1c-0.1,0.1-0.2,0.2-0.3,0.3h0c-0.6,1.2-1.7,2.2-3,2.5c-1.4,0.9-2.9,2.3-4.7,2.4
	c-0.8,0-2.1,0.1-2.2,1.1c0.2,1.5,2.2,0.8,2.9,1.5c-1,1.6-4.8,4.8-6.7,2.7c-0.7-1-3.1-1.2-2.2,0.5c0.5,0.9,1.4,1.5,2.2,2.2
	c0.6,1.2-2.5,1.1-3.1,0.7c-1.4-0.6-1.2-2.1-0.5-3.2c0.5-1.1,0-3.4-1.5-3.1c-0.9,0.5-0.2,1.9-1.3,2.5c-0.6,0.5-0.9,1.1-0.5,1.9
	c0.8,1.9-3,4.2-0.9,5.7c1.5,1-1.2,2.7-0.1,4c0.4,0.7,0.6,1.4,0.9,2.1c0.9,1.4,0.8,3.7,2.7,4.1c1.6,0.5,1.8,2.8,1,4.1l0,0
	c-1.1,2.5-3.2,4.1-5.6,5.3c-4.3,3-7.8,7.1-12.3,10.1c-0.4,0.4-0.9,0.5-1.5,0.3c-1.9-0.2-3.2,2.3-4.5,3.5c-3.4,2.1-7.6,2.2-11.3,3.5
	c-1.4,0.2-3.4,0.7-4.7,0.2c1.7-2.3,4.1-4.3,6.9-5.2c1.6-2.5-2.5-0.4-3.5-0.4c-2.3,0.2-3.9,2.1-5.4,3.7c-1.8,1.4-4.6,0.7-6.8,1.6
	c-7.7,0.8,4-6.7,6-7.3c4-1.5,8.2-1.9,12.1-3.1c4.6-3,8.9-6.4,13.6-9c1.3-0.8,5.7-6.5,1.9-5.2c-1.2,0.7-1.8-1.6-3-2
	c-1.8-1.8-4.3-2.9-6.9-2.8c-2.3,0-4.6,0-6.8-1.1c-1.6-0.4-3.4-1.8-5.1-1.1c-0.8,0.4-1.5-0.2-2.2-0.5c-0.6-0.3-1.2-0.4-1.8-0.1
	c-1.4,0.5-2.9-0.5-3.9-1.5c-0.6-0.7-1.8-0.3-1.7,0.7c0,0.4-0.2,0.8-0.6,0.7c-2.5-0.2-4.4-2.3-6.1-3.9c-1-1.6-1.1-3.7-3.2-4.4
	c-0.8-0.2-0.4-1.1-0.5-1.7c-0.1-1.1-1.5-1.5-1.7-2.7c-0.5-2-2.3-3-3.3-4.8c-0.5-0.9-1.7,0-1.3,0.9c0.4,1.2,0.7,2.4,1.6,3.4
	c0.4,0.2,0.9,1.4,0,1.1c-4.8-2.2-0.9,2.4-3.6,1.4c-1-0.9-2.1-1.3-3.4-1.4c1.7-2.3,3.1-5.1,4.2-8.1c1-3.5,2-7.6,2.7-12
	c0.9-5.7,1.1-10.8,1.1-15.3c-0.1-15.8-4.7-34-10.3-40.1c0.8,0.5,1.7,0.8,2.7,0.8c1.8-0.1,3.7,0.4,5.4-0.5c0.9-0.5,1.8-0.4,2.6,0.3
	c1.5,1.1,3.6,0.7,5.2,1.2c1.8,0.2,6.8-0.7,7.6,1c0.2,0.9,0.5,1.2,1.4,1.1c2.7-0.6,4.5,2,7.1,1.6c2.8,0.3,6.5,0.8,8.6,2.9
	c0.9,1.5,2.9,1.6,3.5,3.4c1.1,1,9.4,3.2,8,5.3c-0.3,0.6-0.1,1.1,0.5,1.5c5,2,2,1.9,4.4,4.3c1.3,1.5,3.6,2.8,3.9,4.8
	c0,0.6,0.1,1.1,0.5,1.6c1.8,2,2.7,4.6,1.5,7.1c0.2-0.1,0.5-0.2,0.7-0.3c0.1,0.9,1,1.5,1.2,2.4l0,0c0.2,0.3,0.4,0.6,0.5,1
	c0.3,0.3,0.5,0.7,0.7,1.1c0,0,0,0,0,0c0.9,1.4,1.2,3,1,4.6c-0.1,0.5,0.1,0.9,0.5,1.1c0.3,0.2,0.2,0.8,0.2,1.2c0,0.5,0,1,0.1,1.5
	c0.2,0.9,0.8,1.6,1,2.5c0.2,1-0.2,2-0.4,3c-0.1,0.7-0.1,1.4-0.1,2.1c-0.5,2.5-0.9,5.4,0.7,7.6c0.2,0.3,0.5,0.4,0.8,0.5
	c0.1,0.1,0.2,0.3,0.3,0.5c0.5,1.1,0,1-0.9,1.5c-1.6,2.7,3.9,4.5,4.8,1.7c-0.8-0.7-1.5-1.7-1.7-2.8c0.1,0,0.2,0,0.3,0.1
	c-0.2-2.6,2-4.2,4-5.5c0.2-0.6,0.4-1.3,0.8-1.9c0.2,0.1,0.4,0.1,0.6-0.1c0.4-0.4,0.7-0.7,1.1-1.1c0.4,0,0.8,0,1.1-0.1
	c0.2-0.1,0.3-0.2,0.5-0.3c0.2,0,0.5,0,0.7-0.1c-0.2,0.1,0,0,0.1,0c0,0,0,0,0.1,0c1.2,0.2,2.1,0.7,2.1-1c0,0-0.1,0-0.1,0
	c0-0.2,0-0.3,0-0.5c0-0.3,0-0.6,0-0.9c0,0,0,0,0,0c0-0.1,0-0.1,0-0.2c0-0.1,0.1-0.3,0.1-0.4s0.1-0.3,0.1-0.4c0-0.1,0-0.2,0.1-0.2
	c-0.1,0.2,0,0,0-0.1c0.1-0.3,0.3-0.5,0.4-0.8c0-0.1,0.1-0.1,0.1-0.2c-0.1,0.2,0,0,0,0c0.1-0.1,0.2-0.2,0.3-0.3
	c0.1-0.1,0.1-0.2,0.2-0.3c0,0,0.1,0,0.1-0.1c0,0,0.1-0.1,0.1-0.1c0,0,0,0,0,0c0,0,0,0,0.1,0c0,0,0,0,0,0c0,0,0,0,0,0c0,0,0,0,0,0
	c0,0,0.1,0,0.1,0c0.6,0.3,1.2,0.7,1.8,1c0,0.1,0.1,0.2,0.1,0.3c0,0,0,0.1,0,0.1c0,0.1,0,0.2,0,0.3c-0.1,0.5-0.2,1-0.1,1.5
	c0,0.1,0.1,0.2,0.1,0.3c0,0.1,0,0.2,0,0.2c0,0.1-0.1,0.2-0.1,0.2c0,0.1,0,0.2,0,0.3c0,0.1,0,0.2,0.1,0.2c0,0,0,0,0,0
	c0,0.1-0.1,0.1-0.1,0.2c0,0-0.1,0.1-0.1,0.1c0,0,0,0,0,0.1c0,0,0,0,0,0c-0.1,0.1-0.1,0.2-0.1,0.4c0,0.1,0.1,0.3,0.1,0.4
	c0.2,0.2,0.5,0.2,0.7,0c0.2-0.3,0.4-0.5,0.5-0.8c0.1,0,0.2,0.1,0.3,0.1c0.3,0.7,0.6,1.4,0.7,1.9
	C198.5,152.9,198.4,155.4,196.4,156.4z"/>
<path d="M38.3,63.8c0.5-1,0.8-2.2,1-3.3c-0.4-1.7-2-0.4-1.9,0.8c0,0.8-0.5,1.7,0,2.5C37.5,64.2,38.1,64.3,38.3,63.8z"/>
<path d="M35.5,64.6c0.7-1,1.1-2.6,0.7-3.8c-0.5-0.6-1.4-0.4-1.6,0.4C34.3,62.1,34,65.5,35.5,64.6z"/>
<path d="M40.2,65.4c1.2,0.6,2.8-1.1,1.5-2C41,63.2,41.3,61,40.3,62C40,63.2,38.3,64.9,40.2,65.4z"/>
<path d="M33.5,63.1L33.5,63.1c0-0.5-0.2-0.7-0.6-0.7c-1.4,0-1,2.4-0.6,3.3c0.3,0.8,1.4,0.6,1.6-0.2C33.9,64.7,33.5,63.9,33.5,63.1z"
	/>
<path d="M20.4,107.8c-1.6-0.5-21.2,7.8-13.5,7.9c3.3-1.1,5.8-4.1,9.3-4.5c1.8,0,3.3-1.1,5-1.5C22.5,109.2,21.6,107.4,20.4,107.8z"/>
<path d="M31.1,84.3c-0.5-1.2-3-0.2-1.9,1v0c0.6,0.9,0,2.1,1.6,2c0.7,0,1.9-0.4,1.4-1.3C31.7,85.5,31.2,85,31.1,84.3z"/>
<path d="M43.1,83.1c1.7-2-1.7-3.9-0.8-5.7c0.7-1.2,2.3-2.8,1.2-4.1c-1.8-1.7-2.1,1.5-3,2.5c-1.5,1.8-4.4,1.2-5.8,3.4
	c-0.4,0.4-0.6,0.9-0.5,1.4c0.3,1.8-1.4,3.6,0.3,4.9v0c0.7,0.7,1.6,1.2,1.2,2.3c0,0.6,0.3,1,0.9,0.9c1.4-0.1,1.6-1.9,3-2
	C41.6,86.4,42.3,84.8,43.1,83.1z M40.6,80.8c-0.6,0.2-1,0.5-1.3,1c-0.7,1.2-1.9-1.9-0.9-2.2C39.1,78.7,41.8,79.8,40.6,80.8z"/>
<path d="M99.6,18.6c-2.7,3.5-7.5,4.1-11,6.6c-3.8,2-5.7,5.9-7.6,9.4c-3.9,4.5-8.2,8.8-14,10.7c-1.9,1.3-5.5,1.8-5.9,4.2
	c0,0.9-0.2,1.7-0.9,2.4c-0.9,1.5-3.5,2-3.6,3.7c0.9,1.2,2.4-0.5,3.2-0.9c6-5.2,1.2-4.8,10.9-8.1c4.1-2.2,7.6-5.1,11.3-7.8
	c2.7-1.7,5.8-3,8-5.3c0.9-2.3-2.2-0.3-3,0.1c-1.2,0.3-1.3-1.1-0.6-1.7l0,0c2-2.5,4-4.9,6.4-7c2.5-1.8,7.2-2.4,7.8-5.9
	C100.8,18.5,100,18.2,99.6,18.6z"/>
<path d="M61.8,94.3c-0.5-0.2-1.1,0-1.6-0.1v0c-0.7,0-2.1-0.3-2.2,0.8h0c0.6,0.9,2.4,0.7,3.4,1.1C62.6,96.2,63.1,94.6,61.8,94.3z"/>
<path d="M63.3,92.1c-1-0.2-6.2-0.9-4.5,1.1v0c1,0.4,2.1-0.1,3.1,0.4C62.7,94.1,64.6,92.7,63.3,92.1z"/>
<path d="M62.3,89.4c-5.7,0.4-2.2,1.6,1,1.6C65.3,90.8,63.6,88.8,62.3,89.4z"/>
<path d="M59.1,109c-1.2,0.6-3.1-1.5-3.2,0.9c0.1,1.1,2.1,2.5,2.9,1.1C59.1,110.4,60.9,109,59.1,109z"/>
<path d="M88.6,109.9L88.6,109.9c-0.1,1.1-1.5,2.7,0,3.4c1.6,0.2,2.2-2.1,2.4-3.4C91,108.2,88.8,108.3,88.6,109.9z"/>
<path d="M63,86.8c-1.1-0.2-3.8-0.6-4.5,0.4C58.3,89.1,65.3,88.8,63,86.8z"/>
<path d="M176.4,190L176.4,190c0.2-1.9-2.1-1.9-3.1-3c-1-0.7-1.6,0.7-0.8,1.4c0.4,0.5,0.9,0.7,1.5,0.8c0.9,0.1,2,1.1,1.8,2
	c-0.2,2-3.1,2.1-3.2,3.7c0.9,1.1,4.2-1.5,4.3-2.6C177.2,191.4,176.2,190.8,176.4,190z"/>
<path d="M89.6,98.3c-1.1,1,0,3.6-1.3,4.4c-0.8-1.5-0.1-3.9-0.3-5.6l0,0c0-1.1-0.9-2.3-1.9-2.6c-1-0.3-1.8,0.5-0.8,1.3
	c1.5,3.2,0.9,7.6-0.1,11c-0.2,0.5-0.1,1,0.3,1.3c0.5,0.3,0.7,0.7,0.7,1.2c2.1,3.4,4.8-6.7,4.8-8.3C91.2,100,90.9,98.1,89.6,98.3z"/>
</svg>
