<?xml version="1.0" encoding="utf-8"?>
<!-- Generator: Adobe Illustrator 27.0.1, SVG Export Plug-In . SVG Version: 6.00 Build 0)  -->
<svg version="1.1" id="Layer_1" xmlns="http://www.w3.org/2000/svg" xmlns:xlink="http://www.w3.org/1999/xlink" x="0px" y="0px"
	 viewBox="0 0 454 454" style="enable-background:new 0 0 454 454;" xml:space="preserve">
<path d="M350.8,295.6c1.3-0.1,2.6-0.3,3.9-0.6c0-0.2-0.1-0.4-0.1-0.5c-1.3,0.2-2.6,0.4-3.9,0.4c-0.2,0.3-0.4,0.5-0.8,0.6
	C350.2,295.4,350.5,295.4,350.8,295.6L350.8,295.6z M268.9,257.9c-13.6,1.7-27.5,2.5-41,4.3c0,0.2,0.1,0.4,0.1,0.5
	c3.4,0.5,6.8-1.4,10.1-0.9c2.4,1,4.9,0.1,7.3-0.1c8.3-1.3,16.7-1.9,24.9-3.6C269.8,257.9,269.4,257.8,268.9,257.9L268.9,257.9z
	 M300.6,243c11.4-1.2,22.8-2.3,34.1-3.2c0-0.1,0-0.2,0-0.3c-12.3,0.1-24.4,2.1-36.6,3.1C299,242.9,299.8,243.1,300.6,243z
	 M238.6,257c9.9-2.1,20.1-2.2,30.1-3.5c-10.5,0.5-21.2,0.8-31.4,3.1c0,0.2,0.1,0.3,0.1,0.5C237.7,257,238.2,257,238.6,257L238.6,257
	z M223.7,267.4c-0.4,0-0.7,0.3-1.1,0.5c0.1,0.2,0.1,0.3,0.1,0.5l20.5-2c0-0.1,0-0.1,0-0.2C236.7,266.4,230.2,267,223.7,267.4
	L223.7,267.4z M237.2,259.8c4.9-0.7,10-1.1,14.9-2c0-0.2-0.1-0.3-0.1-0.5l-19.5,2.1l-0.1,0.4C234,260.4,235.6,259.9,237.2,259.8z
	 M366.4,249.4c-6.8,0.1-13.6,0.2-20.2,2.2L366.4,249.4z M260.2,247.2v0.4c7.3,0.2,14.6-1.7,21.9-1.6l0-0.6
	C274.8,246,267.5,246.6,260.2,247.2L260.2,247.2z M308.8,237.5c-5.5,0.1-10.9,0.5-16.4,1.1c0,0.2,0,0.4,0,0.5
	c5.5-0.4,10.9-0.9,16.3-1.3C308.8,237.8,308.8,237.7,308.8,237.5L308.8,237.5z M278.6,243.3c0-0.1,0-0.3,0-0.4c-5,0.4-10,0.7-15,1.4
	c0,0.2,0.1,0.5,0.1,0.7C268.6,244.4,273.6,243.9,278.6,243.3L278.6,243.3z M257.4,251.9c0-0.2,0-0.4,0-0.6c-4,0.3-8.1,0.7-12.1,1
	c0,0.2,0,0.4,0.1,0.6C249.3,252.6,253.4,252.2,257.4,251.9L257.4,251.9z M296.8,241c3.8-0.3,7.6-0.6,11.4-0.9c0-0.2,0-0.4,0-0.6
	l-11.4,0.9L296.8,241L296.8,241z M274.2,250.4l0-0.4c-4.2,0.3-8.5,0.6-12.7,1c0,0.2,0,0.3,0,0.5
	C265.7,251.1,269.9,250.8,274.2,250.4L274.2,250.4z M292.9,246c0,0.2,0,0.3,0,0.5c2.5,0.3,4.9-0.6,7.3-0.7c0-0.1,0-0.3,0-0.5
	L292.9,246L292.9,246z M304.9,245.4c3-0.3,6-0.6,9.1-0.8v-0.4l-9.1,0.8C304.9,245.1,304.9,245.2,304.9,245.4L304.9,245.4z
	 M322.8,239.2c0-0.1,0-0.3,0-0.4c-2.9,0.2-5.9,0.3-8.8,0.5c0,0.2,0,0.3,0,0.5C316.9,239.6,319.9,239.4,322.8,239.2L322.8,239.2z
	 M271.1,252.7c0,0.1,0,0.2,0,0.4c2.3-0.3,4.6-0.6,6.9-0.9c0-0.1,0-0.3,0-0.4L271.1,252.7L271.1,252.7z M363.1,246v-0.4
	c-1.8,0.1-3.5,0.2-5.3,0.4c0,0.2,0,0.4,0,0.5C359.6,246.3,361.4,246.2,363.1,246L363.1,246z M253.2,257.6l6.5-0.5l0-0.4l-6.4,0.6
	C253.2,257.4,253.2,257.5,253.2,257.6L253.2,257.6z M362.2,247.9c0-0.1,0-0.2,0-0.3l-4.4,0.4c0,0.1,0,0.3,0,0.4
	C359.3,248.3,360.8,248.1,362.2,247.9z M308.8,240c1.3-0.4,2.8,0.4,4-0.7c-1.4,0.1-2.7,0.2-4,0.3C308.8,239.7,308.8,239.8,308.8,240
	L308.8,240z M284.9,245.4c0,0.1,0,0.2,0,0.3l4.8-0.1v-0.3L284.9,245.4L284.9,245.4z M279.5,242.7l0,0.4c1-0.1,1.9-0.2,2.9-0.2v-0.4
	C281.5,242.6,280.5,242.7,279.5,242.7z M235.5,297.7c-2.8,0.6-6.1-0.1-8.5,1.4c6.6,0.3,13.6-1.7,20.4-2l0-0.3
	C243.4,296.7,239.4,297.4,235.5,297.7z M248.4,286.2l-23.7,2.8C225.9,289.8,246.5,287.2,248.4,286.2z M230.2,294.8
	c0.1,0.2,0.1,0.3,0.2,0.5l15.2-1.9l0-0.4C240.5,293.3,235.1,293.5,230.2,294.8z M233.1,291.1c1.1-0.1,2.1-0.2,3.2-0.3
	c-4.8-0.2-10.9,0.6-12.9,1.6c1.2,0.7,2.2-0.1,3.2-0.2C228.7,291.8,230.9,291.4,233.1,291.1L233.1,291.1z M338.1,273.8
	c0-0.1,0-0.2,0-0.3l-4.5,0.6c0,0.1,0,0.3,0,0.4C335,274.3,336.6,274.1,338.1,273.8L338.1,273.8z M303.9,280.2c0-0.1,0-0.2,0-0.3
	l-4.6,0.7c0,0.1,0,0.2,0,0.4C300.8,280.6,302.3,280.4,303.9,280.2L303.9,280.2z M301.8,283.6l-0.1-0.3c-1.5,0.2-2.9,0.4-4.4,0.6
	c0,0.1,0,0.2,0,0.3L301.8,283.6z M339.6,273.9c1.4-0.2,2.7-0.4,4-0.6C340.9,273,340.2,273.1,339.6,273.9z M300.8,286.8
	c0-0.1,0-0.2,0-0.3c-1.4,0.1-2.8,0.3-4.2,0.5c0,0.1,0,0.2,0,0.3C298,287.1,299.4,287,300.8,286.8L300.8,286.8z M296.5,271.3
	c-3.6,0.4-4.1,0.6-4.8,2.1C293.6,273.7,295,273.1,296.5,271.3z M335,266.5l-0.1-0.4c-2,0.2-4,0.4-6.3,0.6
	C329.9,267.6,334.1,267.4,335,266.5L335,266.5z M226.4,273.1l-6.1,0.8l0.1,0.6c2.1-0.1,4.1-0.5,6.1-1L226.4,273.1z M370.4,261.5
	l-0.1-0.4c-2.2,0.3-4.5,0.6-6.7,0.9l0.1,0.4L370.4,261.5L370.4,261.5z M227.8,282.2c0,0.1,0,0.2,0.1,0.3c2-0.3,4-0.5,6-0.8
	c0-0.2-0.1-0.3-0.1-0.5L227.8,282.2L227.8,282.2z M371.3,261.5l6.3-0.7c0-0.1,0-0.2,0-0.4c-2.1,0.2-4.2,0.5-6.3,0.7
	C371.3,261.2,371.3,261.3,371.3,261.5L371.3,261.5z M332.6,268.3c1.5-0.2,2.9-0.4,4.4-0.7c0-0.1,0-0.2,0-0.4l-4.4,0.5L332.6,268.3
	L332.6,268.3z M221.3,281.8c1.3-0.2,2.7,0,3.9-1c-1.3,0.2-2.6,0.5-3.9,0.7C221.3,281.6,221.3,281.7,221.3,281.8L221.3,281.8z
	 M333.9,264c0-0.2,0-0.3-0.1-0.5l-3,0.4c0,0.1,0,0.3,0,0.4C331.8,264.3,332.9,264.1,333.9,264L333.9,264z M223.4,276.3l-2.6,0.3
	c0,0.2,0.1,0.3,0.1,0.5c0.9-0.1,1.7-0.3,2.6-0.4C223.5,276.5,223.4,276.4,223.4,276.3L223.4,276.3z M290.7,273.7
	c0-0.1,0-0.2-0.1-0.4l-2.8,0.5c0,0.1,0,0.2,0.1,0.4L290.7,273.7z M366.2,263.2c0,0.2,0,0.3,0,0.5c0.9-0.1,1.8-0.2,2.6-0.2
	c0-0.1,0-0.2,0-0.4C368,263.2,367.1,263.2,366.2,263.2L366.2,263.2z M373.2,258.5c0-0.1,0-0.2-0.1-0.3c-1.2,0.1-2.5,0.2-3.7,0.3
	c0,0.1,0,0.2,0,0.3C370.6,258.7,371.9,258.6,373.2,258.5L373.2,258.5z M273.6,310.9c0,0.1,0.1,0.2,0.1,0.3c4.8-0.9,9.8-1.1,14.4-2.7
	c0-0.1-0.1-0.2-0.1-0.3C283.4,309,278,309.1,273.6,310.9L273.6,310.9z M287.9,310.8c-5,0.6-9.6,1.2-14.3,1.8
	C275.1,313.6,286.7,312,287.9,310.8L287.9,310.8z M240,308.8c0-0.1,0-0.2,0-0.3c-3.3,0.3-6.6,0.7-9.8,1l0.1,0.5
	C233.5,310.1,236.7,309.7,240,308.8L240,308.8z M240.5,313.1c-3,0.2-5.8,0.4-8.6,0.6c0,0.1,0,0.3,0,0.4
	C232.9,314.7,239.3,314,240.5,313.1z M236.1,306.8c-2.6,0.1-5.1,0.2-7.5,0.3c0,0.1,0,0.3,0,0.4C229.9,308.2,235,307.8,236.1,306.8
	L236.1,306.8z M169.7,272.7c-5.6-2-11-4.8-16.7-6.3c0,0.1,0,0.2-0.1,0.3c5.6,2.1,11.1,4.2,16.6,6.2
	C169.6,272.9,169.7,272.8,169.7,272.7z M204.1,284.6c-4.4-2-8.9-3.5-13.6-4.9c-0.1,0.1-0.1,0.3-0.1,0.4l13.6,4.8
	C204,284.8,204,284.7,204.1,284.6L204.1,284.6z M165.6,280.2c4.7,1.6,9.4,3.3,14.1,4.9c0.1-0.1,0.1-0.3,0.2-0.5
	c-4.7-1.6-9.4-3.3-14.1-4.9C165.7,280,165.7,280.1,165.6,280.2L165.6,280.2z M201.7,282.2c-3.7-1.2-7-3.6-10.9-4.4l-0.1,0.4
	c3.6,1.4,7.2,2.9,10.9,4.3C201.6,282.5,201.7,282.3,201.7,282.2L201.7,282.2z M167,274.9l-10.3-3.4c0,0.1-0.1,0.2-0.1,0.4
	c3.5,1,6.7,2.7,10.3,3.4C166.9,275.1,167,275,167,274.9L167,274.9z M193.5,286.3c3.2,1.1,6.5,2.3,9.7,3.4c0.1-0.2,0.1-0.3,0.2-0.5
	c-3.2-1.1-6.5-2.2-9.8-3.3L193.5,286.3z M192.9,290.2l9.8,3.5c0-0.1,0.1-0.2,0.1-0.3c-3.3-1.2-6.5-2.4-9.8-3.5
	C193,289.9,193,290,192.9,290.2z M157.8,277.1c2.1,0.9,4.3,1.7,6.4,2.6c0.1-0.2,0.1-0.3,0.2-0.5c-2.2-0.8-4.3-1.6-6.5-2.4
	C157.9,276.9,157.9,277,157.8,277.1L157.8,277.1z M193.4,283.9l6.6,2.2c0.1-0.2,0.1-0.3,0.2-0.5c-2.2-0.7-4.5-1.4-6.7-2.1
	C193.5,283.6,193.5,283.8,193.4,283.9L193.4,283.9z M188.8,282.6c-2.3-0.7-4.5-1.4-6.8-2c-0.1,0.2-0.1,0.3-0.2,0.5l6.9,2
	L188.8,282.6L188.8,282.6z M192.6,288.5l7.3,2.3c0-0.1,0.1-0.2,0.1-0.3c-2.4-0.8-4.8-1.6-7.2-2.4
	C192.7,288.2,192.6,288.3,192.6,288.5L192.6,288.5z M201.1,286.4c1.2,0.5,2.5,0.9,3.7,1.4c0.1-0.1,0.1-0.3,0.2-0.4
	c-1.2-0.4-2.5-0.9-3.7-1.3L201.1,286.4L201.1,286.4z M166.1,278c1.4,0.5,2.9,1,4.3,1.6l0.1-0.3c-1.4-0.5-2.9-1-4.3-1.6
	C166.2,277.8,166.1,277.9,166.1,278L166.1,278z M200.7,291.1c1.2,0.5,2.4,1,3.6,1.4c0-0.1,0.1-0.2,0.1-0.3c-1.2-0.5-2.4-1-3.6-1.5
	L200.7,291.1L200.7,291.1z M163.5,277.2l0.1-0.4c-1-0.3-2-0.6-3-0.9c0,0.1-0.1,0.2-0.1,0.3L163.5,277.2L163.5,277.2z M189.4,277.2
	c-0.8-0.3-1.6-0.6-2.3-0.9c0,0.1-0.1,0.2-0.1,0.3c0.8,0.3,1.6,0.6,2.4,0.9C189.3,277.5,189.4,277.3,189.4,277.2z M188.7,255.2
	c-5.6-2.4-11.3-4.3-17.1-6.1l-0.1,0.3c5.7,2,11.4,4,17.1,6.1C188.6,255.4,188.6,255.3,188.7,255.2L188.7,255.2z M158.1,246.9
	c-2.8-2.7-6.7-2.9-10.3-4.1c0,0.1,0,0.1,0,0.2c3.4,1.4,6.8,2.8,10.2,4.1C158.1,247.1,158.1,247,158.1,246.9L158.1,246.9z
	 M152.2,241.5c3.2,1.2,6.5,2.5,9.8,3.8c0.1-0.1,0.1-0.3,0.2-0.4l-9.7-3.7C152.3,241.2,152.2,241.4,152.2,241.5L152.2,241.5z
	 M178.6,248c-1.6-0.5-3.1-1.1-4.7-1.6c0,0.1-0.1,0.2-0.1,0.3c1.6,0.6,3.1,1.1,4.7,1.6C178.5,248.3,178.5,248.1,178.6,248L178.6,248z
	 M154.7,238.9c-0.9-0.3-1.8-0.6-2.7-0.9c-0.1,0.1-0.1,0.3-0.1,0.4c0.9,0.3,1.8,0.6,2.7,0.9C154.6,239.1,154.7,239,154.7,238.9
	L154.7,238.9z M208.3,300.4c-8.2-1.5-15.7-5.4-23.6-8.2c-0.1,0.2-0.1,0.4-0.2,0.6c7.9,2.6,15.1,7.2,23.6,7.9
	C208.2,300.7,208.2,300.6,208.3,300.4L208.3,300.4z M183,295.2c4.8,1.7,9.4,4.2,14.3,5.4c0-0.1,0-0.2,0.1-0.3
	c-4.7-1.8-9.5-3.7-14.2-5.5C183.1,294.9,183,295,183,295.2z M187.8,300c-2.2-1.1-4.4-2.3-6.8-3.1c-0.1,0.2-0.2,0.4-0.2,0.6
	c2.3,1,4.6,1.9,6.9,2.9C187.7,300.2,187.7,300.1,187.8,300L187.8,300z M183.8,291.8c-1.3-0.5-2.6-1-3.8-1.6
	c-0.1,0.2-0.1,0.3-0.2,0.4c1.3,0.5,2.6,1,3.9,1.4C183.8,292,183.8,291.9,183.8,291.8L183.8,291.8z M186.9,269.4
	c-4.9-2.2-10-4.2-15.1-5.9c-0.1,0.1-0.1,0.2-0.1,0.4l15.1,5.9C186.8,269.7,186.9,269.6,186.9,269.4L186.9,269.4z M156.7,253.7
	c0,0.1-0.1,0.2-0.1,0.3c2.4,1.6,12.6,5.6,14.1,5.4C165.8,257.4,161.3,255.6,156.7,253.7z M160.9,258.5c-3.3-1.3-6.6-2.7-9.9-4
	c-0.1,0.2-0.1,0.4-0.2,0.5c3.3,1.3,6.6,2.6,9.9,3.9C160.8,258.8,160.9,258.6,160.9,258.5L160.9,258.5z M202.3,274.3
	c-3.5-1.2-7-2.5-10.4-3.7l-0.2,0.5c3.5,1.2,7,2.3,10.5,3.5C202.3,274.5,202.3,274.4,202.3,274.3L202.3,274.3z M160.8,260.3
	c-3.1-1.1-6.1-2.1-9-3.2C153.9,258.7,159.4,260.5,160.8,260.3z M201.6,271.1c-3.1-1.1-6.2-2.1-9.3-3.2c-0.1,0.1-0.1,0.3-0.1,0.4
	l9.3,3.2C201.5,271.3,201.6,271.2,201.6,271.1z M171.9,266.7c1.4,0.5,2.8,0.9,4.1,1.4c0.1-0.2,0.1-0.3,0.1-0.5
	c-2.8-0.9-5.6-1.8-8.3-2.7C169.2,265.7,170.5,266.2,171.9,266.7L171.9,266.7z M161.5,259.3c1.3,0.5,2.6,0.9,3.9,1.4
	c0-0.1,0.1-0.2,0.1-0.4l-3.9-1.4C161.6,259,161.5,259.2,161.5,259.3L161.5,259.3z M177.1,261.3c-1-0.3-2.1-0.6-3.1-1
	c0,0.2-0.1,0.3-0.1,0.5c1,0.3,2.1,0.6,3.1,0.9C177,261.5,177,261.4,177.1,261.3L177.1,261.3z M197.6,267.4c-0.9-0.3-1.9-0.6-2.8-1
	c-0.1,0.1-0.1,0.3-0.1,0.4c0.9,0.3,1.9,0.7,2.8,1C197.5,267.7,197.6,267.5,197.6,267.4L197.6,267.4z M194.4,273.6
	c1.3,0.4,2.7,0.9,4,1.3c0-0.1,0.1-0.2,0.1-0.2c-1.3-0.4-2.7-0.9-4-1.3C194.4,273.4,194.4,273.5,194.4,273.6L194.4,273.6z
	 M180.7,262.8c-0.9-0.4-1.9-0.8-2.8-1.2c0,0.1-0.1,0.3-0.1,0.4c0.9,0.4,1.9,0.8,2.9,1.1C180.6,263,180.7,262.9,180.7,262.8
	L180.7,262.8z M224.9,278c1.2,2.2,8.2,0,10.6-0.1c0-0.1,0-0.3-0.1-0.4C232,277.7,228.6,277.8,224.9,278L224.9,278z M364.3,361.4
	c-7.4,11.5-18,19.7-29.8,26.5c13.4-4.5,24.1-14.9,30.7-27.2l-0.2-0.1C364.8,360.8,364.6,361.1,364.3,361.4L364.3,361.4z
	 M258.7,300.9c2.8-9.1,7.9-17.1,14.2-24.2c0,0-0.1-0.1-0.1-0.1c-5,4.2-9.9,8.6-12.1,14.9c-0.6,3-4.3,7.3-2.3,10
	C258.5,301.3,258.6,301.1,258.7,300.9L258.7,300.9z M377.4,306.3c1.8,12-0.6,23.7-3.5,35.3c5.1-11,7.1-23.6,3.7-35.3
	C377.6,306.2,377.5,306.2,377.4,306.3L377.4,306.3z M305.4,253.5c9.5-2.3,19-0.6,28.5,0.2c-9.3-3.4-20.4-4.7-29.5-0.4
	c0,0.1,0,0.1,0,0.2C304.7,253.5,305.1,253.5,305.4,253.5z M301.3,260.4c7.2-3.2,15.1-3.1,22.8-3.6v-0.1c-10.3-1.3-21.1,0.3-29.9,6.1
	l0.1,0.2C296.7,262.1,299,261.3,301.3,260.4L301.3,260.4z M276.3,379.6c-2.1-1.9-4.4-3.6-6.5-5.4l-0.1,0.1
	c4.6,6.3,11.6,12.7,19.5,13.8C284.5,385.7,280.1,383.1,276.3,379.6z M364.9,356.2c-0.1-0.1-0.1-0.1-0.2-0.2
	c-6,6.1-11.8,12.6-17.8,18.7C354.3,369.8,360.1,363.5,364.9,356.2L364.9,356.2z M253.9,329.1c-1.3,9.2,0.9,18.2,3.5,27
	c0.1,0,0.2,0,0.3-0.1C256,347.1,254.7,338.1,253.9,329.1z M361.2,266.7c-0.1,0-0.2,0.1-0.3,0.2c4.2,7,8.4,14.2,12.4,21.4
	C371.3,280.1,366.3,273.2,361.2,266.7L361.2,266.7z M319.4,386.5c-6.1,1.8-12.3,0.8-18.5,0.8c0,0,0,0.1,0,0.1
	c6.3,2.1,13.6,2.7,19.5-0.8c0-0.1,0-0.1,0-0.2C320.1,386.4,319.7,386.4,319.4,386.5z M371.1,291.6c-0.6-4.2-2.3-8.1-5.3-11.2
	c1.6,4.4,3.7,8.6,4.7,13.3c0.1,0.4,0.2,0.7,0.7,0.8C371.2,293.5,371.3,292.5,371.1,291.6L371.1,291.6z M303.1,392.4
	c-2.1-0.4-4.1-1-6.2-1.4l-0.1,0.3c4.2,3.1,9.8,3.1,14.8,2.4C308.8,393.1,306,392.9,303.1,392.4L303.1,392.4z M258.1,345.1
	c0.2-1.3-0.6-14.9-1-15.4C255.9,335,256.7,340,258.1,345.1z M284.3,270.3c-1.7,0.3-12.5,10.2-14.4,13.2
	C274.8,279.2,279.6,274.8,284.3,270.3z M258.7,321.3c-1.1,0.4-2.2,1-3.3,1.6c1.7,0,3.8,1,4.8-0.9C259.8,321.2,259.5,321,258.7,321.3
	z M342,377.9c-2.5,0.4-4.5,1.8-6.6,3.1C337.8,380.3,340.1,379.5,342,377.9z M261.8,298c0.5,2.8,2.6-4.5,2.8-5.1
	c-0.1,0-0.1-0.1-0.2-0.1C263.4,294.5,262.5,296.2,261.8,298L261.8,298z M256.6,306.9c0.2-0.4,0.4-0.8,0.6-1.2
	C256.3,305.8,256.2,306.1,256.6,306.9z M256.9,302.8c-0.1,0.4-0.1,0.7-0.2,1C257.4,303.5,257.5,303.4,256.9,302.8z M330.3,323.4
	c0.7-3.7,0.5-8.9-2.9-11c2.6,6.3,2.1,12-1.8,17.8C328.4,328.6,329.7,326.2,330.3,323.4L330.3,323.4z M318.6,302.4c2,0.2,4,0.7,6,0.7
	c-8.5-4.9-17.3,0.3-22.9,7.1c0,0.1,0.1,0.1,0.2,0.2C307,306.8,311.8,301.3,318.6,302.4z M312.1,346c6.7,0.1,14.5-2.3,17.5-8.7
	c0.1-0.4,0.8-0.7,1.3-1c-0.4-0.1-0.6-0.2-0.9-0.3C325.9,342.3,318.9,344,312.1,346L312.1,346z M297.9,323.5c0.1-2.7,0.7-5.5,0.7-8.1
	c-2.3,7.8-3.4,17.9,3.4,23.7l0.1-0.1C298.7,334.4,297.4,329.2,297.9,323.5L297.9,323.5z M315.2,335.9c0.4,0,0.6-0.2,0.9-0.5
	c-6.1-0.4-8-3.7-10.6-8.8C305.2,331.9,309.6,337.1,315.2,335.9L315.2,335.9z M332.4,310.4c1.8,2.7,2.1,6.1,3.2,9.1
	c0.2-5.4-1.4-10.5-6.3-13.4l-0.1,0.1C330.1,307.7,331.4,309,332.4,310.4L332.4,310.4z M316.7,319c2.5,1,2.6,3.6,1.2,5.6
	c0,0,0.1,0.1,0.1,0.1c2.5-1.4,2.2-4.9-0.4-6.1c-0.4-0.2-1-0.3-1.4,0.1C316.5,318.8,316.6,318.9,316.7,319L316.7,319z M332,333.1
	c-0.5,0.8-1.4,1.6-1.4,2.6c1.4-0.2,1.6-2.1,2.4-3.1c-0.1,0-0.1-0.1-0.2-0.2C332.6,332.6,332.3,332.8,332,333.1L332,333.1z
	 M334.7,327.1c0.5,0.4,1,0.8,1.5,1.2c1.2-1.4-0.6-1.2-1.5-1.3C334.7,327,334.7,327,334.7,327.1L334.7,327.1z M280.3,358.5
	c-0.3,0.3-0.3,0.5,0.3,1.1c2.1-2.4,4.3-4.8,6.4-7.2c0,0-0.1-0.1-0.1-0.1C284.7,354.3,282.5,356.4,280.3,358.5L280.3,358.5z
	 M279.7,364.2c-1.1,1.2-2.7,2.1-3.3,3.5c1.9,0.1,3.4-2.8,4.6-4.1c0,0-0.1-0.1-0.2-0.1C280.4,363.7,280,363.9,279.7,364.2
	L279.7,364.2z M312.4,366.9c0.1,0,0.1,0.1,0.2,0.1c0.8-1.1,0.3-2.7,0.5-4H313C312.8,364.3,312.6,365.6,312.4,366.9L312.4,366.9z
	 M312,369c-0.4,0.6,0.1,1.3,0.7,0.8C312.9,369.3,312.5,369.2,312,369z M317.6,280.3c0,0-0.1,0-0.2,0c-0.1,0.5-0.1,1-0.2,1.4
	c0.1,0,0.1,0,0.2,0C317.4,281.2,317.5,280.7,317.6,280.3L317.6,280.3z M287.4,320.7c-0.1,0-0.3,0.4-0.5,0.5c0.9,0.5,2.1,0.1,3.1,0.3
	l0.1-0.1C289.4,320.7,288.3,320.9,287.4,320.7L287.4,320.7z M285.9,320.7c-0.5-0.2-1,0-1.2,0.6c0.2,0.8,1.1,0.1,1.6,0.1
	C286.2,321.1,286.1,320.8,285.9,320.7L285.9,320.7z M283.8,320.7c-0.3,0.3-0.6,0.6-0.9,1c1,0.2,1.3,0.1,1.4-0.6
	C284.4,320.7,284,320.6,283.8,320.7L283.8,320.7z M368.6,324.2c0.2,0,0.4-0.3,0.5-0.4c-1.2-0.5-2.6,0.5-3.9,0.6c0,0.1,0,0.1,0,0.2
	C366.3,324.5,367.5,324.4,368.6,324.2z M347.4,356.3c-3.9-4.1-7.6-8.6-11.6-12.6c4.8,6.3,9.2,12.9,15.6,17.7c0.1,0,0.1-0.1,0.2-0.1
	C350.6,359.4,348.8,357.9,347.4,356.3z M172.6,318.8c7.4-1.8,15.2-1.3,22.6-2.6c-8.3,0.5-16.6,0.7-24.8,2.5
	C171.2,318.8,171.9,318.9,172.6,318.8L172.6,318.8z M87.6,321.7c7.4-2,15.1-1.9,22.5-3.4c-8.3,0.8-16.6,1.2-24.6,3.4
	C86.2,321.8,86.9,321.9,87.6,321.7z M185.1,319l-23.7,2.8C162.5,322.6,183.1,320.1,185.1,319z M109,331c-4.5,0.7-9.4,0.5-13.8,1.9
	c0.1,0.2,0.1,0.3,0.2,0.5c5.1-0.6,10.1-1.3,15.2-1.9l0-0.4C110.1,331,109.5,331,109,331z M101.3,328.9c-4.8-0.2-10.9,0.6-12.9,1.6
	c1.2,0.7,2.2-0.1,3.2-0.2C94.8,329.7,98,329.1,101.3,328.9L101.3,328.9z M172.1,316.5l0-0.3c-12.3,0.5-24.3,2.9-36.5,4.3
	C147.7,320.4,159.9,317.3,172.1,316.5z M184.3,314.1l-0.1,0.4c6.4,0.5,13.2-1.2,19.7-2c0-0.2-0.1-0.3-0.1-0.5L184.3,314.1z
	 M143.7,314.4c6.7-0.7,13.4-2,20.1-2.4c0-0.2,0-0.4-0.1-0.6c-7.3,0.8-14.5,1.6-21.8,2.4v0.4C142.6,314.4,143.2,314.5,143.7,314.4
	L143.7,314.4z M216.6,312.9c0,0.2,0,0.3,0,0.5c2.5,0.3,4.9-0.6,7.3-0.7c0-0.1,0-0.3,0-0.5L216.6,312.9L216.6,312.9z M155.6,324.7
	c0,0.2,0,0.3,0,0.5c2.5,0.3,4.9-0.6,7.3-0.7c0-0.1,0-0.3,0-0.5L155.6,324.7L155.6,324.7z M212.4,315.7c0,0.2,0,0.3,0.1,0.5l8.8-1.2
	c0-0.1-0.1-0.3-0.1-0.4C218.3,314.9,215.3,315.3,212.4,315.7L212.4,315.7z M205,312.1c0,0.1,0,0.2,0,0.3c2.1-0.2,4.3-0.3,6.4-0.5
	l0-0.4L205,312.1L205,312.1z M142.1,324.5c0,0.1,0,0.2,0,0.3l4.8-0.1v-0.3L142.1,324.5L142.1,324.5z M143.9,321.7
	c1.2,2.2,8.2,0,10.6-0.1c0-0.1,0-0.3-0.1-0.4C151,321.3,147.5,321.5,143.9,321.7L143.9,321.7z M115.1,299.1c1.1,1,1.2,2,1.2,2
	c1.2-2.3-1.4-4.2-3.3-2.9C112.9,298.3,114.2,298.3,115.1,299.1z M125.8,325.5c1.1,1,1,2,1,2c1.2-2.3-1.4-4.2-3.3-2.9
	C123.5,324.6,124.9,324.7,125.8,325.5z M276.9,128.1c-0.5,0.3-1.1,0.6-1.6,0.9c9.6,1.7,6.3,1.5,9.4-6.9c3.1-10.4,4.2-21.2,3.6-32
	c-0.1-1.7-0.9-2.5-2.6-2.5c-0.9,0-0.9,0.1-0.8,1c0.5-0.1,1.1-0.1,1.7-0.2c0,0.1,0,0.2,0.1,0.3c-1.9,0.8-5.5,1.8-6.2,3.5
	c1.4-0.6,2.7-1.1,4.1-1.6c-0.2,1.1-0.3,2.1-0.5,3.2c1-0.4,1.9-0.7,2.7-1.1c0,0.1,0.1,0.2,0.1,0.2c-3,1.8-6.1,3.4-8.9,5.7
	c0.1,0.1,0.1,0.2,0.2,0.3c1.8-0.9,3.5-1.9,5.4-2.9c0,0.6-0.1,1.2-0.1,1.7c1.1-0.3,2.1-0.6,3.1-0.9c0,0.1,0.1,0.2,0.1,0.3
	c-2.8,1.4-7.7,3.5-9.3,5.9c1.8-0.9,3.6-1.9,5.6-2.9c-0.1,0.9-0.2,1.7-0.4,2.4c1.3-0.5,2.5-0.9,3.6-1.3l0.1,0.3
	c-2.8,1.6-8.5,4.3-9.8,6.6c1.8-1,3.6-2,5.5-3c-0.1,0.8-0.1,1.4-0.2,2.1c1.3-0.5,2.3-0.8,3.5-1.3l0.1,0.2c-3.3,2.1-7,3.6-9.2,7
	c1.7-1.1,3.4-2.3,5.3-3.5c-0.2,1.2-0.3,2.1-0.5,3.2c1.5-0.7,2.9-1.3,4.2-2c0,0.1,0.1,0.2,0.1,0.3c-3.2,2.2-7.1,3.7-9.5,7
	c1.5-0.9,3-1.9,4.8-3c-0.2,1.1-0.3,1.9-0.4,2.7c1.5-0.6,2.8-1.2,4.1-1.7l0.1,0.3c-3,2-6.5,3.2-8.7,6.3c1.3-0.8,2.6-1.6,4-2.4
	c0,0.7-0.1,1.1-0.1,1.6c1.3-0.5,2.5-1,3.7-1.5c0,0.1,0.1,0.2,0.1,0.3c-2.6,1.8-5.8,2.7-7.7,5.4c1.1-0.6,2.2-1.1,3.4-1.8
	c0,0.5,0,0.9,0,1.4c1.1-0.3,2.1-0.7,3.1-1c0,0.1,0.1,0.2,0.1,0.3C280.8,126.1,278.9,127.1,276.9,128.1L276.9,128.1z M277.3,128.5
	c0.5-0.2,1-0.4,1.6-0.6C278.8,128.8,278.7,128.8,277.3,128.5z M282.4,148.5c4.8-1.3,10-1.1,14.6,0.7c1.1,0.2,1.3-1.3,1.8-2.1
	c-6.8-3.9-14-6-21.7-7.2c-0.4,2.5-0.7,4.9-1.1,7.2c-5.9-1.5-11.3-5.3-17.7-4C267.2,142.9,273.6,152.4,282.4,148.5L282.4,148.5z
	 M293.3,77.2c5.1-3.7-1.1-8.7-5.4-9.2c-0.5,3-0.9,5.9-1.3,8.8c-0.4,2-3.8-0.3-5.1-0.2c0,0,0,0,0,0.1
	C285.1,79.1,289.5,79.6,293.3,77.2L293.3,77.2z M283.4,136.9c0.2-0.6,0.5-1.4,0.7-2.2c-2-0.4-3.9-0.8-5.8-1.2c0,2.6-2.6,1.5-4.4,1.9
	c0,0,0,0.1,0,0.1C277,135.9,280.2,136.4,283.4,136.9L283.4,136.9z M288.4,84.3c1.6,0.2,1.7-0.1,1.9-1.7c-1.5-0.2-3-0.4-4.5-0.7
	c-0.1,0.5-0.2,0.9-0.3,1.4c-1.2-0.1-2.3-0.1-3.4-0.2C284.1,84.1,286.2,84.2,288.4,84.3L288.4,84.3z M288.4,64.6l-0.1,0.3l2,0.3
	c0-0.1,0-0.1,0.1-0.2C289.8,64.9,289.1,64.7,288.4,64.6L288.4,64.6z M378.2,119.8l-0.1,0.1c2,1.1,3.9,2.2,6,3.4
	c-0.3,0.4-0.6,0.8-0.9,1.2c-1.9-0.6-3.7-1.2-5.6-1.8c0,0.1,0,0.1,0,0.2c1.6,0.9,3.2,1.8,4.8,2.7c-0.4,2.5-3.6-0.1-5.2-0.2l-0.1,0.2
	c1.3,0.8,2.6,1.5,4,2.3c-1,3-3.4,0.7-5.5,0.4c0,0,0,0.1-0.1,0.1c1.3,0.7,2.5,1.5,3.8,2.2c-0.8,2.3-2.8,0.6-4.5,0.3
	c0,0.1,0,0.1-0.1,0.1c1,0.6,1.9,1.1,2.9,1.7c-0.8,2-1.3,1.4-3.1,1.2l1.5,1c-2.8,4.2-7,4.4-6.8-1.4c-1.6,2.2-3,4.3-4.6,6.5
	c3,1.5,5.8,3,8.7,4.5c0,0.1,0,0.1-0.1,0.2c-3.2-1-6.4-2-9.7-3c0,0,0,0.1,0,0.1c4.5,2,9,3.9,13.6,6c1.2-9.1,4.1-17.6,7.8-25.9
	C382.6,121.3,380.4,120.5,378.2,119.8L378.2,119.8z M392.9,106.2c-2.4-0.8-4.8-1.6-7.3-2.3l-0.1,0.2
	C387.3,104.5,392.5,109.8,392.9,106.2L392.9,106.2z M396,101.4c-2.6-0.8-5-1.6-7.5-2.4c0,0.1-0.1,0.1-0.1,0.2
	c2.2,1.2,4.4,2.5,6.6,3.8C395.4,102.4,395.7,101.9,396,101.4L396,101.4z M391.4,108.9c-2.4-0.8-4.7-1.6-7-2.3c0,0.1-0.1,0.2-0.1,0.3
	c2.1,1.2,4.3,2.3,6.5,3.5C391,109.9,391.2,109.5,391.4,108.9z M394.4,103.9c-2.5-0.8-4.9-1.6-7.3-2.3c0,0.1,0,0.1-0.1,0.2
	c2.1,1.2,4.3,2.4,6.5,3.7C393.9,104.9,394.1,104.5,394.4,103.9z M390.1,111.6c-2.4-0.8-4.6-1.5-6.8-2.3c0,0.1-0.1,0.2-0.1,0.3
	c2,1.1,4.1,2.2,6.2,3.4C389.6,112.5,389.9,112.1,390.1,111.6L390.1,111.6z M387.4,116.9c-2.3-0.7-4.5-1.4-6.6-2.1
	c0,0.1-0.1,0.1-0.1,0.2c2,1.1,4,2.3,6.1,3.4C387,117.8,387.2,117.3,387.4,116.9z M388.7,114.2c-2.3-0.7-4.4-1.4-6.5-2.1
	c0,0,0,0.1,0,0.2c1.9,1.1,3.9,2.2,5.8,3.4L388.7,114.2L388.7,114.2z M386.2,119.3c-2.2-0.7-4.4-1.4-6.5-2c0,0,0,0.1,0,0.1
	c2,1.1,3.9,2.2,6,3.4C385.8,120.3,386,119.8,386.2,119.3L386.2,119.3z M385.5,90.5c4.4,3.5,9.1,5.6,14.6,6.4c1.9,0,3.5-4.2,4.9-5.6
	c-0.9-0.4-1.6-1-2.3-1c-4.9,0.6-9.7-0.3-14.4-1.7c3.2,1.8,6.6,2.9,10.1,3.7c-4.7-0.1-9.1-1.6-13.4-3.5
	C384.8,89.5,384.7,90,385.5,90.5L385.5,90.5z M366.7,176.7c1.8,5.8-1.1,9.1,5.7,3.8c-2.4-2.4-4.7-4.8-7.2-7.3
	C365.8,174.4,366.4,175.5,366.7,176.7L366.7,176.7z M410.2,140.6c6-4.7,12.8-8.5,20.5-9.1c-2.2-3.9-4.9-7.3-8.2-10.3
	c5.2,8.1-5.9,14.5-13,14.4c5.1-1,10.2-3.7,11.4-6.3c-3.6,3.1-11.1,7.2-14.7,2.2c-0.9,1.1-1.7,2.2-2.6,3.3
	C404.6,135.7,409.3,141.8,410.2,140.6L410.2,140.6z M382.9,167.9c2.7-2.7,5.5-5.3,8.2-8c-3.3,1.8-7.4,6-11.2,3.4
	c1.4,0.4,2.7,0.5,4-0.2c-2.8,0.3-5.3-1.6-5-4.6c-1.1,1.1-2,2-3.1,3C378.1,163.3,380.4,167.3,382.9,167.9L382.9,167.9z"/>
<path d="M386.1,160.7c1.7-1.7-0.9-4.4-2.6-2.7C381.7,159.8,384.4,162.5,386.1,160.7z M384.2,158.8c1.7-0.7,1.8,1.7,0,1.4
	c-0.1-0.1-0.2-0.2-0.3-0.3C384,159.5,383.9,159,384.2,158.8z M396.2,154.8c2.1-2.1,4.1-4,6.1-6.1c-3,1.4-8.8,3.4-9.8-1.2
	c0.7,0.6,1.4,1.3,2.2,1.9l0.2-0.2c-1.5-1.3-1.6-3.1-1.5-5l-3.9,3.8C392.3,149.8,394.5,152.1,396.2,154.8L396.2,154.8z"/>
<path d="M399.8,147.3c1.7-1.7-1-4.4-2.7-2.6C395.2,146.3,398.1,149.1,399.8,147.3z M397.8,145.4c1.4-1.3,2,1.8,0.1,1.4
	c-0.1-0.1-0.2-0.2-0.3-0.3C397.6,146.1,397.6,145.7,397.8,145.4L397.8,145.4z M339.1,123.9c6,1.3,13.9,0.7,15.1-6.8
	c-2.3-2.1-2.2,5.6-8.9,5.4c-14.5-1.1-38-5.9-41.6,13.7c1.5,0.1,1.4,0.1,1.8-1C309.1,120.4,327.2,122.9,339.1,123.9L339.1,123.9z
	 M332.2,71.6c9.5,5.6,6.5,1.6,15.7,1.2c-3.6-2.5-10.3,0.9-12.4-3.7c-0.3-1.1-1.6-1-2.6-1.5C332.8,68.9,331,70.7,332.2,71.6
	L332.2,71.6z"/>
<path d="M339,70.2c3.8,0.9,5-5.3,1.1-5.8C336.2,63.5,335.1,69.6,339,70.2z M339.7,66.3c1.2,0.1,0.9,2.2-0.3,1.9
	C338.1,68.1,338.5,66,339.7,66.3z M322.5,115.6c1.8-0.5,7.5,0.9,7.2-1.7c0.8-11.1,9.5-12.8,6.2-27.9c-0.3-2.2-0.3-4.4,0.6-6.5
	c0.2-0.5,0.1-1-0.4-1.3c-1.9-0.4-5-3.8-6.5-2c-5.7,9.8-7.6,21.2-8.6,32.3C321.1,110.2,319.8,116,322.5,115.6L322.5,115.6z
	 M330.9,77.8c1.2,0.6,2.4,1.2,3.5,1.7c0,0.1,0,0.2,0,0.3l-5.1,1.7c-0.1,0-0.1-0.1-0.2-0.2C329.6,80.3,330.2,79.1,330.9,77.8
	L330.9,77.8z M327.9,84.5c1.6-1.2,3.9-1.4,5.8-2.3c-0.1,1.1,0.6,2.6-0.2,3.4c-2.2,0.8-4.4,1.5-6.8,2.3
	C327.2,86.6,327.5,85.6,327.9,84.5L327.9,84.5z M325.3,93.2c0.1-4.6,5.6-3.9,8.8-5.6c-0.1,1.5,0.9,3.4-0.2,4.4
	c-2.9,1-5.8,1.9-8.8,2.9C325.1,94.2,325.3,93.7,325.3,93.2z M324.4,97.4c3-1.5,6.8-2.6,10.1-3.3c-0.5,1.4-0.1,3.6-1.3,4.6
	c-3.2,0.9-6.3,2.3-9.6,2.9C323.9,100.2,324.1,98.8,324.4,97.4L324.4,97.4z M323.4,104.4c2.4-1.8,6.1-2,9-3.1c-2.6,5.4-3.6,6-9.4,7.3
	C323.2,107.1,323.3,105.7,323.4,104.4L323.4,104.4z M322.9,111c1.3-1.1,3.4-1.1,5.1-1.8c-0.2,1.4-0.4,2.8-0.5,4.2
	c-1.5,0.1-3,0.1-4.7,0.2C322.9,112.7,322.9,111.8,322.9,111L322.9,111z"/>
<path d="M332.2,98.6c1.2-0.4,1.3-0.6,1.3-1.9c-2.8,0.6-5.6,1.6-8.5,2.3c-0.8,0.4-0.6,1.2-0.7,2.1C327,100.3,329.6,99.4,332.2,98.6
	L332.2,98.6z M330.3,103.9c-2.1,1.1-7.8,1-6.6,4C326.5,107.1,329.1,107,330.3,103.9z M333.6,89.6c-2.2,1.2-8.4,1.2-7.9,4.4
	c2.2-0.6,4.4-1.4,6.6-2.1C333.9,91.5,334,91.2,333.6,89.6L333.6,89.6z M328.7,85.5c-0.9,0.2-1,0.8-1.1,1.6c1.4-0.9,6.4-1,5.6-3
	C331.7,84.6,330.2,85.1,328.7,85.5L328.7,85.5z M324.1,111.9c-0.8,0.1-0.9,0.5-0.6,1.2c1.4-0.4,4.2,0.8,3.7-1.6
	C326.1,111.6,325.1,111.8,324.1,111.9z M330.1,80.9c1.1-0.4,2.2-0.7,3.3-1.1C332.2,79.2,330.4,79.8,330.1,80.9z"/>
<path d="M452.1,149c-5.4-9.7-21.1-5.6-21,5.3c0,1.5-1.1,2-2.1,2.7c-11.9,8.7-23.8,17.4-35.7,26.1c-0.9,0.7-0.9,0.7-1.7-0.1
	c-2.8-2.7-5.5-5.4-8.4-8.1c0.6-0.6,1.4-1.9,1.1-2.7c-0.6-1,0-1.5,0.6-2.1c7.5-7.1,14.7-14.9,22.4-21.8c2.8-0.2,7.2-1.2,3.6-4.5
	c17-16.1,30.7-2,18.4-19.6c-0.5-1.1,0.1-2.5-0.2-3.6c-1-3.2-4.1-5.8-7.5-5.1c-0.5,0.1-0.8,0-1.1-0.2c-17.2-12.5-3.7,1.2-19.8,18.1
	c-3.6-3.3-3.9,0.2-4.6,3.2c-3.7,5.4-9.7,9.6-14.2,14.6c-6.4-0.8,6.8-30.5,8.9-34.7c2.6-5.4,5.9-10.6,9-15.7c0.3-0.6,0.7-0.8,1.4-0.6
	c0.5,0.2,0.9,0,1.2-0.4c2.2-3,4.5-6,6.7-9c-7.6-5.9-16-9.6-25.3-11.1c-0.9,3.7-1.4,7.5-2.2,11.2c-0.1,0.5,0,0.8,0.5,1
	c0.7,0.3,0.8,0.8,0.6,1.5c-4.7,16.8-11,33.8-22.2,47.4c-1.1,1.4-2.8-0.5-4.1-0.8c-1.6-1-4.4,8.8-5.5,10.5c1.3,0.6,2.5,1.1,3.7,1.6
	c-2.3,4.7-5.1,9.1-7.5,13.7c-4.2-3.7-8.5-7.3-12.7-10.9c0-4.1,5.5-23.4,1.1-24c-1.8-0.8-2.3-1.6-1.9-3.5c0.6-4.7,16,5.2,21.5-5.8
	c0.5-1.7,3.8-5.5,1.4-6.4c-1.1-0.4-2.3-0.8-3.5-1.3c-2.4-0.9-2.4-1.2-3.4,1.4c-1.7,5.4-11.3,1-15.6,1.4c-3.6-5.9,4.1-11.6,5.1-17.4
	c2.5-11.9-6.4-24.3,12.4-24c1.6-0.3,2.3-1.2,2.1-2.9c-1.4-8.1-17-17.2-22-7.9c-1.4,3.2-3.1,5.3-2.8,8.8
	c-9.2,12.4-10.2,28.9-10.5,43.8c-9.9,1-18.2,8.8-18.1,19.2c0.1,1-0.1,2.9,1.4,2.8c1.9-0.6,5.5,0.8,6-1.6c1-5.4,4.9-10.4,10.6-10.9
	c-0.1,7.4-1,14.9-2.1,22.2c-11.4,5.1-23.5,9.4-33.7,16.7c3.3-13.3-1.6-17.4,15.2-12.9c1.7,0.6,1.7,0.6,2.5-0.9
	c1-1.9,2.1-3.8,3.1-5.7c-5.3-3.5-11.1-5.8-17.2-7.6c0.6-1.8,1.2-3.6,1.9-5.4l-2.1-0.5c4-14.7,7.6-29.7,5.6-44.9
	c1.8-1.6,1.7-4.3,2.5-6.4c5.1-4.4,6.4-9.6,0.2-13.9c2.4-5.4-12.2-7.5-11.5-1.6c-6.5,1.5-7.9,9-4,12.3c0.9,2.3-0.5,5.3,0.6,7.7
	c0.1,0,0.2,0,0.3,0c-6.6,14.1-7.1,29.5-7.7,44.8c-0.8-0.1-1.4-0.1-2.2-0.1c0.1,1.9,0.1,3.8,0.2,5.7c-6.4,0-12.6,0.5-18.7,2.3
	c2.3,14.1,2.1,4.3,15.3,10.1c0.5,0.2,0.7,0.5,0.6,1.1c-1.1,9.1-2.1,18.2-3.1,27.4c-11.7-0.3-23.4-1.1-35.1-1
	c-16.7,2.7-33.8,4.5-50,9.5c-11.4,3.1-5.3,24.8-5.6,36.5c-6.9,2.9-13.3,6.7-20.2,9.6c-4.8,1.9-14.8,8.2-13.5,13.5
	c4.7,8.8,8.7,20.2,12.8,29.4c-4.2-2.3-8.9-2.9-13.3-4.2c-1.6-1.4-3.6-1.3-5.4-1.9c-1.8-0.4-3.7-0.8-5.6-0.8
	c-4.3-1.9-9.1-1.8-13.8-1.4c-0.7,0.2-1.3,0.1-1.9-0.3c-1-0.6-2.3-0.1-3.4-0.1c-1.6-2.3-3.2-1.8-5.6-2.4c-0.7,0-10.5-3.2-12.1,0.1
	c-3.4-0.5-6-3.9-9.2-4.8c-1.7-0.1-1.4-2.3-3-2.4c-1.4,0.1-2-1.4-3.4-1.4c-1.2-0.1-2.2-0.6-2.7-1.8c-0.7-1.4-2.8-2.1-2-4
	c0.3-1.6-1.5-3-2.3-4.4c-0.6-1.6-0.4-3.6-2.2-4.5c-1.1-0.9-1.8-2.4-2.3-3.7c0.1-0.6-0.2-1.1-0.6-1.5c-1.1-2.6,5-7.4,7.4-8.1
	c1.1-0.1,1.4-1.7,2.6-1.5c2.6,0.1,5-0.9,7.5-1.5c6.5-1,11.3-5.2,15.9-9.6c4.8-4.4,7.1-11,11.2-15.9c2-1.5,4.5-2.3,6.2-4.1
	c1.6-1.8,5.2-3.5,4.1-6.4c-0.8-1.2-2.5-2.7-4-1.9c-7.4,3.2-16.1,2-23.1,6.6c-3.8,2.4-8.1,3.5-12.1,5.4c-5.5,3.1-10.9,6.5-15.3,11.1
	c-3.8,4.4-5.8,10.6-11,13.8c-0.8,0.4-1.4,1-1.7,1.8c-0.5,1-1.8,1.1-2.6,1.9c-0.5,0.4-1.1,0.4-1.7,0.1c-1.2-0.6-2.6-0.2-3.8,0.1
	c-0.8,0.2-1.1,0-1.2-0.8c-0.8-2.7-3.6-4.4-5.1-6.7c-1.8-2.3-2.1-5.3-2.7-7.9c-1.2-1.8-2.3-3.7-3.1-5.6c-2.1-2.9-4.5-5.6-6.6-8.6
	c-0.6-1.1-2-0.9-2.7-1.9c-1.4-1.3-2.6-2.6-3.8-4c-4.8-3.9-6.2-10.4-11.3-14.2c-1-0.5-1.7-2-2.9-1.3c-1.2,0.8-2.2,1.9-1.9,3.6
	c0.5,1.4,0,2.8,0.7,4.1c0.6,1.1,0.1,2.3,0.7,3.4c1.6,3.4,0.4,7.2,1.7,10.6c0.2,0.4,0.3,0.7,0.3,1.1c-0.2,1.2,0.8,2.1,0.7,3.3
	c-0.1,0.9,0.8,1.4,0.8,2.3c2.3,6.9,9.4,18.6,16.6,20.9c1.5-0.1,7.4,5.9,6.7,7.3c-0.7,2-2.8,3.2-3.1,5.4c-0.4,1.6-1.9,2.7-2.9,4
	c-1.7,1.6-2.5,3.9-4,5.8c-1.7,5.8-2.8,12.3-1,18.2c2.1,4,1,8.6,2.2,12.9c0.1,2-2.5,1.4-3.7,1.9c-1.6,1.1-9.9,0.8-8.3,3.4
	c4.8,0.4,10-3.4,14.7-1.6c1.5,0.9,3.8,0.4,4-1.5c-0.3-1.5,2.7-6-0.5-5.2c-1.4,0.5-1.7,2.2-2.5,3.1c-1-0.5-1.1-2.1-1-3.1
	c0.2-1.2-0.6-2.4-0.2-3.6c0.1-4-2-7.7-2.9-11.6c-1.1-10.7,6.5-19.1,12.6-27.1c0.5-0.8,1.1-2.2,2.2-2.2c1.1,0.3,2-0.5,3-0.6
	c0.6-0.1,1-0.3,1.2-0.9c0.2-0.6,0.5-0.7,1.2-0.6c1.4,0.3,2.6-0.4,4-0.4c1.9-0.5,1.3,3.3,3.3,1.6c1.9-2.7,5.5-2.5,8.1-4.1
	c1.1-1.1-1.6-1.9,0.4-3.2c3.8-3,5.9-7.5,8.7-11.4c4.7-5.5,10.5-10,17.4-12.5c4.9-2.1,9.6-4.9,14.5-6.7c2.1-0.9,4.4-0.3,6.6-1.1
	c0.3,0,0.6-0.2,0.8,0.1c0.2,0.6-1,0.8-0.6,1.5c3.3-0.3,6.9-3.2,10.5-3.4c0.4,0,0.6,0.3,0.4,0.7c-2.3,4.2-7.6,5-10.2,8.7
	c-3.1,4.1-5.2,9.1-8.9,12.7c-2.8,2.2-4.8,5.7-8.2,7.1c-7,4.4-16.6,2.4-22.5,8.7c-1.1,1.6-3,2.5-4,4.2c-1.2,1.4-4.2,2.7-3.9,4.9
	c0.2,0.6,0.9,0.6,1.5,0.6c1.7,0.3,2.5,2.7,3.6,3.9c0.6,1.3,2.1,2.4,2.3,3.6c-0.1,0.8,0.2,1.3,0.8,1.8c0.3,0.3,0.5,0.6,0.5,1.1
	c0,0.9,0.9,1.5,1,2.4c-0.1,1.5,1.9,3.1,0.7,4.3c-1.1,1.6,2,3.1,3.4,2.9c1.9-0.5,2.8,1.8,4.6,1.4c1.2-0.4,1.7,1,2.4,1.6
	c0.9,0.6,1.5,1.6,2.5,2c1.4,0.6,3.3,0.5,3.9,2.1c0.6,1.7,2.6,2,3.8,3.3c1.2,1,3,3.5,4.5,1.9c0.6-0.9-1.4-2.1-0.1-2.8
	c8.8,7.8,12.4,14.5,14.3,28.5c-14.6,2.7-43.5,6.9-58,0.9c1-1.4,2.8-2,1.4-3.8c-0.2-3.1,3.2,1.8,3.8-1.2c0.1-0.8,1.1-0.6,1.5-1.2
	c0.4-0.6,1.3-1.2,1-2.1c-0.6-1-2.2-2.3-3.4-1.9c-0.7,0.3-1.5,0.5-2.1,1.1c-0.4,0.3-0.9,0.5-1.2,0c-1.4-1.6,0.8-2.8,1-4.4
	c0.1-0.4,0.4-0.7,0.8-0.8c1.6-0.1,1-1.3,1.7-2.1c1.4-1,2.6-2.3,4.2-3.1c0.5-0.2,0.6-0.7,0.3-1.2c-0.4-0.8-1.2-1-2-1.2
	c-0.8-0.4,0.1-1.5,0.7-0.8c0.6,0.6,1.4,0.6,2.2,0.7c0.8,0.4,3.4-1,2-1.6c-1.5-0.4-3,0-4.4-0.2c-0.3-0.2-0.3-0.6-0.5-0.9
	c-0.4-0.9-1.5-0.5-1.8,0.2c-0.6,0.8-0.3,1.9-0.7,2.8c-0.7,0.9-1.2,2-2,2.8c-1.6,1.4-2.7,5.3-5.2,4.8c-4.2-1.5-8.6-2.7-12.8-4
	c-4.2,2,9.3,3.7,10.5,4.8c1.2,1.7-2.5,1.6-3.4,1.5c-1.7,0.1-3.1-2.4-4.7-1.9c-0.8,1.9,7.1,3.8-2.3,4.1c-2.8,0-4.2-2.9-7.1-2.9
	c-1-0.4-3,0.7-1.7,1.7c0.8,0.7,2,0.9,2.9,1.5c3.1,2.8,8.1,3.3,11.6,1c3.4-2.9,4,1.5,5.2,3.6c3.3,3-0.2,1.7,0.9,4.5
	c-0.6,1.2,0,2.7-0.1,4.1c0.2,3.4-0.3,7.1,3.4,8.2c0.1,1.5-1.2,3.5,0.4,4.6c1.6,1.5,1.7,4,3.1,5.6c1.8,1.3,1.8,3.7,3.5,5.1
	c0.2,0.3,0.3,0.7,0.1,1.1c-0.5,0.9-0.4,1.9-0.3,2.9c0.6,2.2-0.5,4.3-0.2,6.4c0.2,0.8,0.2,1.6-0.1,2.3c-1.1,2.6-0.7,5.7-0.2,8.5
	c0.5,1.8-1.5,3.1-1.8,4.8c-1.1,2.4,1.2,4.8,0.9,7.1c-0.5,1.4-2,2.4-1.5,4.1c-0.2,1.7-1.1,3.4-2.1,4.7c-1.2,1.1-0.7,2.9-1.4,4.3
	c-0.4,1.5-3.1,3.1-2,4.7c2.5,1.4,3.1-3.3,4.7-4.5c1-0.9-0.1-2.4,0.9-3.3c1.3-1.9,3.2-4.2,2.8-6.7c-0.3-1.6,1.7-2.4,1.3-4.1
	c0-2.7-0.7-5.7,0.2-8.3c0.7-1.1,0.9-2.4,1.3-3.6c0.3-1-1.3-1.8-0.3-2.6c0.5-0.4,0.8-1.2,1.5-0.6c2.4,1,0.4-3.2,2.3-2
	c1.7,0.6,0.3-2.6,1.5-1.5c0.3,0.5,0.3,1.6,1,1.6c1.2,0,0.5-2.3,1.8-2.2c0.8-0.1,1.2,0.1,1.5,0.8c1.5,1.9,1.3,4.2,2.2,6.4
	c0.3,1.2-0.5,2.6-0.6,3.9c-0.2,1.4-1.5,2.4-1.4,3.9c-0.1,1.9-1.5,3.5-1.4,5.5c-0.5,3.5-3.3,6.4-4.5,9.7c-0.5,1.8,1,4.1-0.6,5.5
	c-0.9,0.7-1.3,1.9-1.8,2.9c-0.2,0.7-1.2,0.5-1.4,1.2c-1.7,2.6-3.4,5.2-5.2,7.7c-0.5,0.5-1.2,1-1.1,1.9c0,0.1-0.1,0.2-0.2,0.3
	c-0.5,0.1-0.8,0.9-1.3,0.5c-2.7-1-2,2.3-6.7,0.8c-2.7-0.6-6.1,1.8-8.5,0.5c0-0.6-0.4-0.9-0.9-1c-1.3-0.1-4-0.6-2-2.1
	c2.7-1.5,5.8-1,8.5-2.3c1.5-0.6,0.8-1.7-0.6-1.3c-1.5,0.5-3.2,0.4-4.7,0.7c-1.5,0.1-0.7-2,0.4-2c1.6-0.3,3.2-1.1,4.9-0.9
	c1.5,0.3,2.3-1.1,3.7-1.5c2-0.2,2-3.6-0.3-2.5c-2.6,2-5.9,2.1-9.1,3c-2.5,0.3-2.3,3.2-3.6,4.8c-0.3,0.7-1.1,0.8-1.5,1.3
	c-1.2,1.5-0.9,3.2-2.2,4.7c-0.3,3.2,3.8-0.3,5.3,0.9c2.5,1.5,4.9,0.6,7.5,0.3c2.8-0.5,5.7,1.1,8.1-0.7c0.8-0.5,1.7,0.2,2.5-0.4
	c0.9-0.3,1.4-0.1,1.4-1.2c0-0.6,0.8-0.9,1.2-1.3c1.4-0.5,1.5-2.3,3-2.7c0.8-0.2,1.3-0.8,1.3-1.7c0.2-2,2.4-3,3-4.9
	c0.3-2.2,3.9-2.4,3.6-4.7c-0.3-1.3,0.7-2.6,0.1-3.9c-0.8-2.7,2.2-4.8,3.1-7c0.2-1.2,1.6-1.9,1.4-3.3c0-0.8,0.3-1.4,0.9-1.8
	c1.5-1,0.3-2.9,0.8-4.3c0.4-2.9,0.3-6.3,2-8.7c2.1,2-1.2,5.8,1,7.6c0.7,0.5,0.6,1.4,0.5,2.1c-0.5,1.3,0.9,1.9,1,3
	c-0.1,1.1,0.4,2.1,0,3.2c-0.8,1.6,1.5,2.6,1.1,4.1c-0.2,4.4,0.2,8.8-0.5,13.2c0,2.3-2.5,3.1-4.1,4.1c-3.6,3-7.1,5.9-9.6,10
	c-2.6,5.2,5.6,2.2,8,2.1c0.9-0.3,1.7-0.8,2.7-0.4c0.8,0,1.6-0.1,2.4,0.2c5.3,1.4,9.9-1.9,14.4-4c0.8-0.2,1.3-0.7,1.6-1.5
	c0.3-1,1.3-1.5,1.5-2.6c0.9-4.2-0.7-8.4-1.6-12.5c0-0.5,0.1-0.5,0.5-0.7c0.9-0.2,1.3-0.8,1.4-1.7c0.1-1.3-0.3-2.6,0.5-3.8
	c0.2-0.4,0.3-0.8,0.2-1.3c-0.5-1.3,0.4-2.5,0.1-3.8c0.7-5,0.1-10.1,2.7-14.5c0.3-1.5,1.6-2.5,1.9-3.9c0.2-0.5,0.7-0.8,1.1-0.5
	c-0.1,0.7,0.3,1.4,1,1.6l8.9,3.1c0.1,0,0.3,0.1,0.4,0.1c-0.3,0.2-0.7,0.6-0.7,1.4c-0.1,0.8-1,1.7-0.6,2.3c1,1.6-0.1,4.5,2.3,5.3
	c0.5,0.2,0.9,0.6,1.1,1.1c0.7,1.2,1.9,1.9,2.4,3.3c0.8,1.3,2.8,0.2,3.2,1.8c0.3,1.5,0.7,3,2.5,3.1c2.5,1.1,5.5,2.9,5.7,6
	c0.5,3.6-2.3,6.7-6,5.4c-2.4-0.6-4.6,0.4-7,0.4c-1.7,0.2-3.6,0.3-4.9,1.6c-3.2,2.8-6.6,5.5-10.2,7.8c-1.2,2.5,3,0.9,3.8,2.4
	c4,4.6,10.2,0.5,15.3,1.3c2.9,0.3,5.8-0.5,8.4,1c2.2,0.4,4.6-0.3,6.9-0.3c2.8,0.4,5.5,0.1,8.2,0.8c2.6,0.2,5.1-1,7.7-0.5
	c2-0.2,4.2-0.8,5.9-2c0.8-0.8,1.6-1.2,2.8-1.1c2.4-0.6,4.6-2.5,6.5-4.1c2-1.5,4.2-2.6,6.1-4c3.1-1.9,5.8-4.3,8.5-6.7
	c2.1-1.5,4.9-2.6,5.9-5.2c0-0.4,0.2-0.7,0.6-0.8c0.9-0.4,0.4-1.7,1.1-2.4c20.6,10.5,45.9,11.8,65.9-1c8.4,16.3,24.1,27.1,41.6,31.6
	c59.1,17.6,106.6-54.9,85.3-107.2c2.6-9.5,7.4-19.1,5.5-29.1c0-0.1,0-0.2,0-0.3c0,0,0,0,0,0l0,0c-0.1-1.8-0.6-3.4-0.8-5.2h-0.1
	c0-0.3-0.1-0.7-0.4-0.9l0.2-0.1c-0.1-0.3-0.2-0.4,0,0h0c-0.2-0.9-0.8-1.7-0.9-2.7c-0.4-1.1-1.1-2-1.6-3c0-0.1-0.1-0.2-0.1-0.3
	c-0.1-0.2-0.3-0.4-0.4-0.7l-0.4-0.7l-0.3-0.6c-0.4-0.7-0.9-1.5-1.3-2.2c-0.1-0.1-0.2-0.3-0.2-0.4c-2.6-4.1-4.4-8.6-8.6-11.3
	c10.1-8.2,20.2-16.6,30-25.2c3.8,5.2,7.1,10.5,10.1,16.1c2.5-1.6,4.8-3.1,7.2-4.6c-3.2-6-7.1-11.4-10.9-17.1
	c-0.3-0.5-0.4-0.7,0.1-1.2c11.3-10.7,22.5-21.4,33.8-32.1c9.9,1.2,18.2-7.7,12.9-17.2L452.1,149z M37.1,227.3
	c-1.2,0-1.5,1.2-2.5,1.4c-0.7,0.1-1.5,0.7-2,0c-1-2.4-2.3-4.7-4.6-6.2c-2.1-2.2-3.4-5-5.8-6.9c-0.8-0.9-2.4-0.4-2,0.9
	c0.2,0.9,1.2,1.4,1.2,2.4c-1.2,3.3-6.3-4.9-7.2-6.2c-3.8-6.1-6.3-13.2-7-20.4c2.3,1.6,1.8-0.8,1.1-2.1c-0.3-1.1-1.7-2.2-0.8-3.2
	c0.8-0.6,1,1.1,1.5,1.5c1.1,1.4,1.6-0.2,1.2-1.3c-0.2-1.2-1.4-1.9-1.6-3c0.9-2.6,3.1,3.2,3.4,4.1c3.6,5.6,9.8,9.1,13.8,14.4
	c6.4,6.6,5.6,16.6,11.7,23.2C38.3,226.3,38.1,227.3,37.1,227.3L37.1,227.3z M395.3,185.2c2,2.6,4.4,4.9,6.1,7.6l-2.5-2.3
	c0,0-0.1,0.1-0.1,0.1c0.5,0.7,1,1.4,1.5,2.1l-0.1,0.1c-2.1-2.5-4.2-5-6.3-7.6C394.6,184.5,394.6,184.4,395.3,185.2z M427.4,121.7
	c-1.5-1.3-2.8-2.8-4.2-4.2C424.7,117.2,427.1,119.6,427.4,121.7z M409.2,124.4c1.8-3.8,3.1-7.8,3.1-12c5.5,1.4,19.4,15.7,19.8,20.2
	c-8.5-0.3-15.5,4.6-22,9.4c-1.3,1.1-6.2-5.9-8-7.1C404.9,131.6,407.4,128.2,409.2,124.4L409.2,124.4z M398.7,134.3
	c3.8,3.8,7.5,7.6,11.2,11.4c-1.3,0.8-1.9,0.7-2.8-0.3C405.4,142.7,396.7,137.3,398.7,134.3L398.7,134.3z M397.6,138.7
	c2.7,2.7,5.4,5.5,8.1,8.2c-3.2,3.2-6.4,6.3-9.6,9.5c-2-3.5-4.6-6.2-8.1-8.2L397.6,138.7L397.6,138.7z M385.8,150.1
	c1.5-1.7,9.9,6.8,8.1,8.3c-2.1,1.3-10.9,12.4-12.1,10.6C371,158,373.5,163.9,385.8,150.1z M374.6,248.5c-0.4,0-0.9,0.1-1.2,0.3
	l0,1.1l-0.6,0.2c0.4,0.3,1.2,1,1.6,1.3c-8.1,1-16.2,2-24.3,3c-0.5-0.3-1.1-0.6-1.7-0.9c4.4-0.5,8.8-1.1,13.2-1.6c0-0.1,0-0.2,0-0.4
	c-13.2,2.1-14.6,1.5-26.9-3.3c3.6-0.3,7.2-0.6,10.8-0.9c-5.7-0.8-11.5,1.4-17-0.9c2-0.1,4.1-0.3,6.1-0.4c0-0.2,0-0.3,0-0.5
	c-6.8,1.3-13.4-0.7-20.3-0.5c-11.8,0.2-22.5,3.6-32.5,9.7c-1.1,0.1-2.3,0.2-3.4,0.4c0.6,0.9,1.3,0.6,2.1,0.4
	c-1.9,1.1-3.6,2.6-5.4,3.7c-9.3,1.1-18.6,2.2-28,3.3c-7.3,0.8-14.5,1.8-21.8,2.4l0.4-0.3l-1.1,0c7.1-5.9,14.8-11,23.1-15.2
	c1.4,0.3,1.5,1.6,3,1.2c4.9-0.6,9.8-1,14.7-1.5c0-0.1,0-0.2,0-0.3l-15.1,0.9c0-0.1,0-0.2,0-0.3c1.3-0.1,2.5-0.4,3.8-0.7
	c0-0.1-0.1-0.2-0.1-0.3c-1.1,0.2-2.4,0-3.6,0c2.7-0.2,5.1-1.6,7.7-2.3c0,0,0,0,0,0l0.2-0.1l-1.1-0.4c2.9-1,5.9-2,8.8-3
	c0.2,0.7,0.6,0.8,1,0.9c5.3-1.7,10.8-2.1,16.3-2.9c-1.5,0-3,0.1-4.5,0.2c2.4-0.4,4.9-0.9,7.3-1.1c5.2-4.1,23.5-2.8,30.5-2.6
	C335,237.8,357.1,240.7,374.6,248.5L374.6,248.5z M356.6,239.9c0.7-0.6,1.5-1.1,2.2-1.7c0,0.8,0,1.6,0,2.4
	C358,240.3,357.4,240.2,356.6,239.9L356.6,239.9z M359.6,237.5c0.7-0.6,1.5-1.1,2.2-1.7c0.2,1.9,0.2,3.8,0.2,5.6
	c-0.7-0.2-1.4-0.4-2.1-0.6C359.9,239.7,359.8,238.7,359.6,237.5L359.6,237.5z M224.2,350.5c-0.3,2.5-0.6,5.1-0.9,7.8
	c-0.8-0.2-3.6,0.9-3.6-0.5c0.2-3.5,0.6-6.9,0.7-10.4c-1.6,3.3-2.2,6.8-2.1,10.5c0,0.4-0.1,0.5-0.5,0.6c-1.3,0.1-1.3,0-1.2-1.2
	c0.2-3.9,0.5-7.8,0.6-11.6h-0.1c0.2-1.5,0.2-3,0.2-4.5h0c0.2-3,0.3-5.9,0.5-8.8c0,0-0.1,0-0.1,0c0.1-1.6,0.1-3.1,0.4-4.7
	c0,0,0,0.1,0,0.2c0.3-1.7,0.6-3.4,1-5c0.1,0,0.2,0.1,0.3,0.1c0.1,0,0.1,0,0.2,0c2.6,0.7,5.1,0.5,7.8-0.1c-0.2,9.3-0.7,15.4-1.1,24
	c-0.6,1.9,0.6,12.5-1.9,11.4l0.1-7.5C224.4,350.6,224.3,350.6,224.2,350.5L224.2,350.5z M131,329.7l0-4c2.8-0.3,5.6-0.6,8.4-0.6
	l0-0.6c-2.8,0.2-5.5,0.5-8.3,0.7c0-0.1,0.1-5.9,0-6c13.1-1.9,80.1-10.8,91.8-11.8c1.4,1.2,1.5,2.7,1,4.1c3.4-0.4,3.6,4.2,1.2,5.6
	L131,329.7L131,329.7z M213.9,323.9c-0.5,2.4-0.8,4.9-0.9,7.3h-0.1c-0.4,3.6-0.5,7.4-1.4,10.9c-0.2-1.5-0.3-3-0.6-4.4
	c0.7-4.6,1.3-9.1,1.9-13.7C213.2,324,213.6,324,213.9,323.9z M209.4,332c-0.1,9.3-1,13.9-1.3,21.9c-0.1,0.8,0.4,2.6-0.9,2.4
	c-5.6-0.3-10.9-2.3-15.4-5.7c3.6-2.6,0.5-3,1.8-4.8c1.2-1.1,4.1-3.1,2.4-4.9c-1.3-0.9,2.7-4.4,3.4-5.4c2-3.9,9.1-11.4,10.2-12.5
	c0,0,0.1,0,0.1,0C209.8,323.1,209.4,331.9,209.4,332L209.4,332z M187.1,324.3c-1.2,1.4-2.4,2.6-3.8,3.8c0.6-1.3,1.4-2.5,2.2-3.6
	L187.1,324.3L187.1,324.3z M182.5,324.9c-0.5,0.5-0.9,1-1.4,1.6c0-0.5-0.1-0.9-0.1-1.4L182.5,324.9L182.5,324.9z M126.8,315.4
	l40.8-5.5c0,0-0.1,0-0.1,0c0,0.2,0.1,0.3,0.1,0.5c3.6-0.6,7.2-1.2,10.7-1.8c0,0,0-0.1,0-0.1l41.2-5.6l1.8,0.9
	c-2.1,0.2-4.2,0.4-6.4,0.6c0,0.2,0,0.3,0,0.5c2.5,0.4,5.1-0.9,7.4-0.5c0,0,0,0.1,0,0.1l-42,5.8c-0.9,0.1-1.8,0.2-2.8,0.2
	c0,0,0,0.1,0,0.1l-47.9,6.6L126.8,315.4L126.8,315.4z M128.1,326.4c0.1,4.2-6.5,4.2-6.5,0C121.5,322.2,128.1,322.2,128.1,326.4z
	 M176.3,300.6c-0.2-0.8-0.6-1.5-1-2.1c3.8,1.3,7.7,2.5,11.8,3.1c-4.1-1.4-8.2-2.7-12.4-4.1c-0.2-1.9-0.9-3.8-2.6-4.9
	c-0.6-0.4-0.8-1-0.8-1.7c1.1,0.4,2.2,0.9,3.3,1.3c0-0.1,0.1-0.2,0.1-0.3c-1.2-0.5-2.3-1-3.5-1.5c-0.3-1.1-1.4-1.9-2.1-2.8l9,3.9
	c0.1-0.1,0.1-0.3,0.2-0.4c-3.3-1.4-6.6-2.9-9.9-4.3c-0.4-0.8-1.1-1.4-1.6-2c0.6,0.2,1.3,0.4,1.9,0.7c-0.3-0.7-2.4-1.3-3.3-2.3
	c16.1,6,32.2,12.1,48,18.5l-25.1,3.4c-2.7-0.8-5.2-2.6-8-2.8l-0.1,0.4l6.8,2.6c-3.6,1.1-6.7-1.1-10-2.2c-0.2-0.6-0.5-1.2-0.7-1.8
	l0.5,0.1l0.1-0.2C176.8,300.9,176.5,300.7,176.3,300.6L176.3,300.6z M180.4,306.1l-2.3,0.3c-0.2-0.5-0.4-0.9-0.5-1.4
	C178.5,305.4,179.5,305.8,180.4,306.1L180.4,306.1z M234.7,319.7l0,0.4c-2.6,0-6.1,2.3-6.2-1.6c0.7-0.4,1.1-1.3,0.9-2.1
	c-0.3-0.8-1.7-11.8-2.7-11.9c6.4-0.8,12.9-1.5,19.3-2.3c-0.2,0.5-0.3,1-0.4,1.5l-7.8,0.6c0,0.1,0,0.3,0,0.4c0.6,0.5,4.6,0.1,7.7-0.6
	c-0.1,0.5-0.2,0.9-0.4,1.4c-1.6,0.2-3.2,0.4-4.9,0.6c0,0.1-0.1,0.3-0.1,0.5c1.4,0.9,3.2-0.1,4.7-0.2c-0.8,3.2-1.4,6.4-1.8,9.6
	c-3.5,0.7-7.9,0-11,1.6c3.5,0.4,7.4-0.6,10.9-1c-0.1,0.7-0.2,1.4-0.2,2.1L234.7,319.7L234.7,319.7z M242.5,330.2
	c0,0.4,0,0.8,0.1,1.2c-1.4-1.6-2.8-3.1-4.2-4.7c-0.1,0-3.6-4.4-4.3-5.2c0.4-0.1,0.7-0.1,1.1-0.1
	C236.7,323.1,239.8,326.9,242.5,330.2L242.5,330.2z M237.5,321.3c1.7-0.2,3.4-0.5,5.2-0.7c-0.2,2.1-0.2,4.2-0.2,6.4
	C240.5,324.7,238.7,322.7,237.5,321.3z M254,283.6c-6.8,0.4-13.5,0.8-20.2,2.2c6.6-0.2,13.2-1.8,20-1.9c-0.6,1.1-1.2,2.2-1.8,3.4
	c-2.8,0.4-5.6,0.8-8.5,1.1l0.1,0.4c2.7-0.4,5.4-0.7,8.1-1c-0.3,0.5-0.5,1-0.8,1.5l-1.9,0.2l0.1,0.6c0.5,0,1-0.1,1.5-0.1
	c-0.4,0.8-0.8,1.6-1.1,2.4c-0.9,0.1-1.8,0.2-2.7,0.4c0,0.2,0,0.4,0.1,0.5c0.8-0.1,1.6-0.2,2.4-0.3c-1,2.3-1.8,4.6-2.6,7
	c-7.2,0.3-15,2.6-22,1.8c-1.7-5.1-3.8-10.1-4.5-15.6c11.9-1.5,23.5-3.2,35.3-5.1C255,281.9,254.5,282.7,254,283.6L254,283.6z
	 M224.9,321L224.9,321c-1.8-0.3-3.8-0.5-5.5-1.2l5.3-0.7C224.8,319.7,225.1,320.5,224.9,321L224.9,321z M227.2,353.1
	c0.6-9.9,1-20,1.3-30.6c0.8-0.1,1.5-0.2,2.3-0.3c2.8,3.2,8,8.8,12.1,13.4c0.3,3,0.8,6,1.5,9c-5.2,4.1-10.9,7-17.1,9.3
	C227.2,353.5,227.2,353.3,227.2,353.1L227.2,353.1z M245.4,348.7c0.1,0.4,0.2,0.7,0.3,1.1c-2.3,1.4-4.7,2.5-7.6,3
	C240.6,351.5,243,350.1,245.4,348.7L245.4,348.7z M248.5,321.3c-0.4,8.7-0.2,17.4,1.7,26c-0.1,0-0.2,0-0.3,0.1
	C247,339,246.2,329.9,248.5,321.3L248.5,321.3z M262,282.6c-2,4.2-4.2,8.1-6.2,12.4C255.2,293,259.5,284.3,262,282.6z M256.7,279.3
	c-0.1,0.1-0.1,0.2-0.2,0.3c-12.2,1.2-24.2,4.2-36.4,5.3v-0.1c-0.4-0.2-0.5,0-0.7-0.7c-0.9-3.5-1.7-7-2.4-10.6
	c-0.3-0.6,1-0.3,1.3-0.4c0-0.2-0.1-0.8-0.1-1.1c6.1,0.1,12-0.6,18.1-1.2c1.3-0.2,3,0.1,3.8-1.2c1.6,0,3.4-0.5,4.9-0.1
	c1.1-0.3,2.1-0.9,3.3-0.3c0.4,0.2,1-0.2,1.6-0.4c0-0.1-0.1-0.2-0.2-0.3c1.4-0.4,2.6,0.9,3.8-0.2c0.2-0.2,1,0,1.8,0.1
	c1-1.3,3-0.9,4.6-1.1c2.4-0.3,4.9-0.6,7.3-0.9C263.2,270.2,259.8,274.5,256.7,279.3L256.7,279.3z M217.7,265.5
	c2.4-3,5.4-5.6,9.2-7.8C223.7,260.1,220.7,262.8,217.7,265.5z M218.4,270.3c0.6-1.2,2-2,3.1-2.7c2.6-2.5,6.7-1.9,10-2.6
	c14.1-1.6,28.2-3.1,42.3-4.9c-7.3,2.8-16.2,2.5-24,4.1c0,0.1,0,0.2,0,0.3c7.4-0.1,14.8-2.3,22.3-2.9c-1,0.9-2,1.8-3,2.7
	C252.2,266.3,235.3,268.3,218.4,270.3L218.4,270.3z M284.1,259.6c-4.4,4.8-9.8,8.5-13.9,13.7C270.7,270.7,281.6,260,284.1,259.6z
	 M273,240.9c1.6-0.4,3.2-0.9,4.6-0.1c-0.1,0-0.3,0-0.5,0l0.1,0L273,240.9z M346.7,237.9c16.9-11.6,32.7-24.8,48.5-37.8
	c0.9,0.9,1.3,1.2,0.1,2.1c-15,12.5-30.3,24.9-46.3,36.1C348.3,238.2,347.5,238,346.7,237.9L346.7,237.9z M343.6,237.2
	c-0.2,0-0.3-0.1-0.5-0.1c15-14.8,31-28.4,47-42c1.1-1.1,1.5,0.7,2.3,1.4C376.1,210,359.8,223.6,343.6,237.2z M388.5,193.7
	c-16.3,13.8-32.7,27.7-47.8,42.9c-0.6,0-1.3,0-1.9-0.1c6.8-5.2,12.4-11.6,17.1-18.7c4.9-4.1,9.9-8.2,14.9-12.3
	c5.5-4.4,11.1-8.7,16.7-13.1c1-0.8,1-0.7,1.8,0.5C389,193.2,388.8,193.4,388.5,193.7L388.5,193.7z M358.8,213.7
	c8.3-8.7,18.4-16.3,28-23.5C377.3,198,368,205.7,358.8,213.7z M384.6,189c-6.6,5.3-13.2,10.8-19.8,16.2c4.1-5.2,8.7-12.6,4.5-18.9
	c2.5-1.9,5.1-3.8,7.7-5.5c2.8,2.5,5.5,5,8.1,7.7C384.9,188.7,384.8,188.8,384.6,189L384.6,189z M368.5,184.4
	c-3.2-1.6-5.9-5.3-8.9-7.5c1.7-1.5,3.4-2.9,5.1-4.4c-0.5-0.4-1.1-1.7-2-1.2c-1.5,1.4-3.1,2.8-4.6,4.3c-0.3-0.2-0.6-0.5-0.9-0.8
	c1.5-1,4.7-5.4,6.2-4.9c3.4,3.6,7.1,7,10.4,10.7C372,181.9,370.3,183.2,368.5,184.4L368.5,184.4z M357.2,170.5
	c-0.7,0.8-1.3,1.7-1.9,2.5c-0.8-0.7-1.6-1.4-2.4-2.1c3.5-4.8,8.5-8.5,14.3-8.4C364.4,166.1,360.1,166.7,357.2,170.5z M373,169.9
	c-1.9-1.5-4.7-2.8-7.1-1.9c2.2,2.2,4.3,4.4,6.4,6.5l-0.7,0.8c-2.3-2.4-4.8-4.7-6.9-7.2c1.4-1,2.5-3.4,4.2-3.4
	c3.2,1.1,5.7,2.9,7.5,5.2c-0.5,0.5-0.9,1-1.4,1.5C374.3,171,373.6,170.5,373,169.9L373,169.9z M369,163.8c2.9-3.2,2.6-2.4,5.2,0.3
	c1,1.8,9.9,8.2,7.5,9.4C377.3,170.2,374.6,165.7,369,163.8L369,163.8z M383.8,89.8c0.6-2.6,0.9-5.2,1.5-7.8c4.3-0.1,18,5.9,21,9.2
	c-1.4,1.9-2.8,3.8-4.2,5.7c-0.9,1.2-0.9,1.2-2.5,0.8c-5.9-0.8-10.8-3.3-15.4-6.9C383.8,90.6,383.7,90.3,383.8,89.8L383.8,89.8z
	 M362,141.8c11.5-13.8,17.8-31.1,22.6-48.2c4.3,3.1,8.4,5.2,13.8,6c-9.4,15.4-18.1,31.7-20.3,49.8c-5.5-2.4-10.9-4.8-16.3-7.2
	C361.8,142.1,361.9,141.9,362,141.8L362,141.8z M353.4,149.3l3.1-7c7.9,3.5,15.8,6.9,23.8,10.5c-0.8,0.8-1.6,1.6-2.4,2.4
	c-5.3-2-10.6-4-15.9-6c0,0.1,0,0.1-0.1,0.2c3.4,1.7,6.7,3.4,10.1,5.1c0,0.1,0,0.1-0.1,0.2c-5.5-2.4-11-4.8-16.5-7.3
	c-0.3,0.6-0.5,1.1-0.7,1.6c6.8,3,13.6,6,20.4,9c-0.2,0.2-0.5,0.5-0.7,0.7C367.4,155.5,360.5,152.4,353.4,149.3L353.4,149.3z
	 M354.8,155.7c0.8-0.8,1-3.1,2.4-2.5c4.8,2.1,9.6,4.2,14.4,6.4c-0.5,0-1,0.1-1.5,0.5c-4.4-2-8.8-3.9-13.2-5.8
	c-2.7,4.4-5,9.1-7.6,13.6c-0.3-0.2-0.5-0.5-0.8-0.7C350.6,163.3,352.7,159.5,354.8,155.7z M334.8,136.7c-0.7,5.6-1.4,11.2-2.3,16.8
	c-2.3-1.9-4.5-4.1-7.3-5.4c0.4-5.9,2.2-13.5,9.7-12.5C334.9,135.9,334.8,136.3,334.8,136.7L334.8,136.7z M330.6,70.8
	c1.9-4.1,3.1-9.7,9.1-7.9c4.1,1,8,3.1,10.7,7.2c3.3,4.8-2.1,3.2-5.1,3.9c-2.3-0.1-4.2,1.8-6.4,2C337.3,74.6,329.8,73,330.6,70.8
	L330.6,70.8z M320,112.1c0.9-12.8,2-27,10-37.5c0.1-0.2,0.6-0.4,0.8-0.3c2.5,1.1,4.9,2.3,7.4,3.5c-3.3,7.1,0.9,14.5-1.4,21.7
	c-2,5.8-7.3,10.1-5.6,16.9c-3.7,0.1-7.3,0.2-11.1,0.3C320,115.2,320,113.7,320,112.1L320,112.1z M317.3,124.5
	c-6,0.8-10.4,5.8-11.7,11.6c-0.5,1.4-2.5,0.5-3.7,0.9c-0.3-16.9,16.6-19.6,30-18.4c5.9-0.6,15.8,4.8,19.1-2.1
	c0.7-1.8,2.6,0.1,3.8,0.3c-0.9,7.6-9.2,9.3-15.6,7.7C331.9,123.5,324.6,123.3,317.3,124.5L317.3,124.5z M318.2,145.4
	c0.8-6.2,1.4-12.4,1.8-18.6c-0.3-1.6,10-0.9,11.7-1c-1.1,3.2,0.1,6.4,3.5,7.2c0,0.1-0.1,0.2-0.2,0.3c-8.4-0.4-11.4,6.6-11.7,13.9
	c-0.7-0.2-1.4-0.4-2.1-0.5c1.6-6.7,0.2-17.1,9.5-17.6c0.1-1,0.2-1.9,0.3-3.1c-2.3,0.5-9.7-0.5-10.6,1.2c-0.5,6.8-1,13.6-2.1,20.4
	c-0.2,0.1-0.4,0.2-0.5,0.2C318,147,318.1,146.2,318.2,145.4L318.2,145.4z M286.1,167.3c7.9-5.1,16.8-8.4,25.2-12.7
	c3.7-1.8,7.4-3.9,11.6-3.1c15,9,26.9,23.1,40.6,34.1c8.5,7.1-1.9,16.9-6,23.6c-6.5,9.8-13.1,19.4-22.4,26.8
	c-1.4-0.2-2.7-0.4-4.1-0.7c2.6-3.9,5.3-7.6,7.1-11.8c-1.8-0.5-6.8,9.6-8.6,11.6c-0.6-0.1-1.2-0.2-1.8-0.3c1.2-1,2.8-2.7,2.2-4.4
	c-1.6,0.4-2.9,2.7-2.9,4.2c-3-0.4-6.1-0.7-9.1-0.9c3.7-6.2,7.2-12.4,10.9-18.5c0.9-1.5,0.8-4.5-0.7-5.9
	c-12.8-12.8-26.5-24.8-39.8-37.1c-9.3-5.7,7.2,9.6,8.5,10.8c9.6,9.7,21.4,17.9,29.6,28.8c1.5,5.6-8.6,16-11.3,21.7
	c-1.8-0.1-3.5-0.2-5.3-0.3v0.2c-2-0.1-4.1,0-6-0.2c0.2-7.8-10.1-6.7-10.6,0.2c-4.2,0.3-8.7,0.8-13.8,1.5
	c-3.5-5.1-25.7-20.7-21.8-25.4c5-9.5,10.9-18.5,16.8-27.5C278.1,177,280.6,170.8,286.1,167.3L286.1,167.3z M273.2,175.1
	c-0.4,0.5-0.9,1-1.5,1.3c1.2-7.8,2.3-15.6,3.5-23.5c0.6,0,1,0,1.6-0.1C275.7,160.3,274.5,167.7,273.2,175.1L273.2,175.1z
	 M278.2,154.4c0.3-1.6,0.3-1.6,2.2-1.8c-1.9,6.8-0.4,15.5-5.5,20.8C275.9,167.1,277,160.7,278.2,154.4L278.2,154.4z M279.6,167.8
	c-0.2,0.2-0.4,0.4-0.5,0.6c1.1-5.4,1.8-11,3.1-16.3l0.2,0.1C281.7,157.4,280.5,162.6,279.6,167.8L279.6,167.8z M290.5,84.5
	c-2.8,1.1-6.5-0.2-9.4-0.9c-0.9-0.6-0.4-1.8-0.5-2.8c3.5,0.5,7,1,10.6,1.6C290.9,83.1,290.8,83.8,290.5,84.5L290.5,84.5z
	 M285.2,64.3c2.2-0.4,4.3-0.1,6.2,1.2l-6.3-0.9C285.2,64.5,285.2,64.4,285.2,64.3L285.2,64.3z M281.6,68c4.4-1.7,8.6-1.1,12.3,1.8
	c6,5.2-2,11.3-7.8,9.6C280.1,79.3,274.5,71.2,281.6,68L281.6,68z M274.7,110.4c0.5-8.3,3.3-16.1,6.3-23.8c0.8-1.7,5.4,0.5,7.2,0.2
	c4.7,13.5-1.4,29.9-4.4,43.8c-0.6,1.7-3.7-0.1-5.2,0.1c-1.4-0.6-4.6,0.2-5-1.4C274,123,274.2,116.7,274.7,110.4L274.7,110.4z
	 M284.9,134.4c-0.4,1.1-0.7,2.1-1.1,3.1c-3.6-0.5-6.9-1.1-10.4-1.5c-2.6,0.2-1.8-1.8-2-3.6C276.1,132.4,280.5,133.1,284.9,134.4
	L284.9,134.4z M255.1,144.1c-1.8-0.2-1.1-3-1.8-4.6c16.6-3.5,32.2-1.2,47.1,7c-3.4,8.3-4.8-0.6-18.7,3.5
	C270.2,153.5,269.1,143.2,255.1,144.1L255.1,144.1z M268.6,151.2c0-0.3,0.1-0.7,0.2-1.1c1.2,0.9,3.6,1,3.5,2.7
	c-1,8.1-1.9,16.1-2.9,24.2c-1.2-0.1-2.5-0.1-3.7-0.2C266.6,168.3,267.6,159.8,268.6,151.2L268.6,151.2z M176,193.6
	c1.7-8,23.1-8,30.3-10.3c9-1.4,18-3.8,27.2-3.7c11.9,0.9,23.8,0.9,35.6,2.3c4,0.9-6.7,13.3-7.4,16.1c-2.3,4-4.4,8.1-6.6,12.2
	c-1.2,1.9,0,3.9,1,5.6c4.4,6.9,16,11.1,15.5,20.3c-1.4,0.4-2.8,0.8-4.4,1.1c0.4-10.6-13.2-7.8-8.6,1.8c-4.3,1.2-7.8,4.1-12.5,4.7
	c-5,2.4-10.3,4.8-14.9,8c-0.4-1.7,0.9-5.9-1.1-6.4c-1.9,0.7-0.4,5.7-0.6,7.5c-0.9,0.6-1.8,1.1-2.7,1.7c-1.1-17.7-1.9-35.4-3.1-53.1
	c-0.2-2.6,0.2-3.3,2.7-4c11.2-3.5,22.9-5,34.1-8.5l0.1,0.3c1.2-0.5,5.7-1.7,2.8-3.1c-5.3,0.8-10.6,2.4-15.9,3.4
	c-5.2,1.7-24.6,3.7-26.1,8.6c0.1,19.3,2,38.7,3.1,58.1c-0.8,0.6-1.6,1.4-2.6,1.7c-1,0.8-1.9,1.8-2.9,2.6c-2.6-0.3-5.2-0.8-7.7-1.4
	c-1.4-2.3-3.4-4.3-5-6.4c-3.4-3.8-6.9-6.9-10.7-9.2c-1.7-1-2.9-2.8-4.7-3.8c-1.7-0.9-3-1.7-4.7-2.8c-1.8-1.5-6.2-2.8-8.5-3.7
	C177.2,219.8,176,206.7,176,193.6L176,193.6z M175.1,234.2c12.7,4.8,26.9,15.3,34.6,26.3l-0.6-0.2c0.8,1.4,5,6,3.6,6.8
	c0,0.6,0,1-0.1,1.8c-12.3-15.9-28.7-32.6-48.4-36.7C168.3,232.5,171.8,233.1,175.1,234.2L175.1,234.2z M173.5,231.2l-4.6-1.6
	c1.3-1.1,2.8-1.6,4.3-2.2L173.5,231.2L173.5,231.2z M165.2,227.8c2.6-1.1,5.2-2.2,7.8-3.3l0,0.5c-3.6,1.4-7.2,3.1-10.9,4.3
	C163.2,228.8,164.2,228.2,165.2,227.8z M141.7,243.5c15.7-23.9,45.3,2.2,58.2,16.3l-0.9,1.3c3.8,1.3,6.2,4.6,8.9,7.4
	c-21-8.5-42.5-15.6-63.6-23.8l0-0.1C144,244.4,141.9,243.8,141.7,243.5L141.7,243.5z M147.1,257.4c-1.6-3.6-3.1-7.3-4.6-10.9
	c0,0,0,0,0.1,0c-0.6-1.5,0.6-1.5,1.5-0.8v0c21.7,8.4,43.6,16.3,65.3,24.7c0.4,0.6,0.8,1.2,1.1,1.8c1.8,0.8,2.5,2.4,3,4.4
	c1,0.5,1.9,1.6,2.1,2.7c-0.2,0.2-0.4,0.4-0.8,0.6c0.4,0.1,0.6,0.3,0.9,0.5c-0.1,0.6-0.2,1.2-0.4,1.8c0.3,0.7,0.4,1.6,0.6,2.4
	l-1.1-0.2l0.1,0.1c-1.7-0.5-3.2-1.1-4.6-1.9l0.1-0.3c0.7,0.1,1.3,0.2,2,0.4l0.1-0.3c-1.1-0.7-12.6-2.5-10.1-4
	c-0.8-0.2-1.2-0.3-1.7-0.5c-0.1,0.1-0.1,0.1-0.1,0.2c0.3,0.1,0.5,0.3,0.8,0.4l-0.4,0.5c-1.2-0.5-2.6-0.8-3.5-1.6
	c-0.9-0.8-1.8-1.8-2.9-1.6c-1.9,0.3-3.4-0.5-5-1.1c-9.9-3.7-19.7-7.4-29.6-11C155.7,261.4,150.3,260.7,147.1,257.4L147.1,257.4z
	 M150.6,265.9c-0.1-0.2-1.9-4.4-1.9-4.5l0.4,0.1c0-0.1-0.6-1.3-0.6-1.4c22.2,8.8,44.7,17.3,67,26c0.2,0.5,0.3,1.1,0.5,1.6
	c0.8,0.4,0.9,0.9,1.1,1.6l-1.9-0.2c0,0.1,0,0.3-0.1,0.4c0.7,0.1,1.4,0.2,2.1,0.3c0.2,0.9,1.4,2.6-0.3,2.8c-0.1,0.3,0.4,0.7,0.5,0.9
	l-0.4-0.1l0,0.2l-0.6-0.2c0,0.1-0.1,0.2-0.1,0.2c0.3,0.1,0.5,0.3,0.8,0.4l0.2,1.4c-0.4-0.1-0.8-0.3-1.2-0.4c0,0.1-0.1,0.2-0.1,0.3
	c0.5,0.2,0.9,0.5,1.4,0.7l0.1,0.9c-0.3-0.1-0.5-0.2-0.8-0.3c-0.1,0.2-0.1,0.3-0.2,0.5c0.4,0.1,0.7,0.2,1.1,0.4l0,0.1
	c0.4,0.1,1.1,0,1.2,0.5c0.4,0.3,0.8,0.8,0.7,1.3l0.1,0.1l0.5,1.6c-0.5-0.3-3.2,0.2-3.8,0.3c-0.6-0.3-1.3-0.5-1.9-0.8
	c-14.1-6.1-28.6-11.2-42.8-16.8c-5.8-2-11.5-3.6-16.2-7.5C153.3,273.2,152.3,269.3,150.6,265.9L150.6,265.9z M113,269.2
	c1.8-0.1,3.7,0.4,5.4-0.5c0.9-0.5,1.8-0.4,2.6,0.3c1.5,1.1,3.6,0.7,5.2,1.2c1.8,0.2,6.8-0.7,7.6,1c0.2,0.9,0.5,1.2,1.4,1.1
	c2.7-0.6,4.5,2,7.1,1.6c2.9,0.3,6.5,0.8,8.6,2.9c0.9,1.5,2.9,1.6,3.5,3.4c1.1,1,9.4,3.2,8,5.3c-0.3,0.6-0.1,1.1,0.4,1.5
	c5,2,2,1.9,4.4,4.3c1.3,1.5,3.6,2.8,3.9,4.8c-0.1,0.6,0.1,1.1,0.4,1.6c1.8,2,2.7,4.6,1.5,7.1c0.2-0.1,0.5-0.2,0.7-0.3
	c0.1,0.9,1,1.5,1.2,2.4l-51,6.9l-3.4-2c0.6-16.4-4.2-36.9-10.3-43.4C111.1,268.9,112,269.2,113,269.2L113,269.2z M117.5,300.2
	c0.1,4.2-6.5,4.2-6.5,0C110.9,296,117.5,296,117.5,300.2z M112.9,317.3l2.8,1.7L85,323.2c-0.2-0.4-2.3-1.5-2.7-1.8
	C82.3,321.4,112.9,317.3,112.9,317.3z M84,334.9L84,334.9C82.5,326.6,83.9,326.4,84,334.9z M107.8,315.9l-13.3,1.8
	c-0.7-1.2-2-2.4-2.1-3.9c0.9,0.3,3.9,4.1,3.9,1.2c-1.5-1.8-3.1-3.6-3.8-5.8c5.9-0.8,11.5-1.6,15.6-2.3
	C108.1,310,108,313,107.8,315.9L107.8,315.9z M49,302.2l-0.4-3.3c18.8,6.6,41.6,2.1,59-0.6l0.3,3C90.9,303.9,67.7,308.2,49,302.2z
	 M94.7,338.4c-1.9,0.7,0.7,2.6-1.1,3.3c-1,0.5-1.4,1.5-1.4,2.5c0.1,1.1-1,2-0.1,3c0.5,0.9-0.3,1.5-1.1,1.8c-1.4,0.8,0.6,2.1-0.1,3.4
	c-0.2,0.5-0.2,1,0,1.5c0.5,1.6-0.6,3.2-0.1,4.9c0.1,1.8,0.1,3.7-0.8,5.3c-0.5,0.7-0.6,1.5-0.5,2.3c0.6,2-1.4,3.9-0.4,5.9
	c0.2,1.2,0.8,2.5,0.8,3.7c-0.3,0.8-0.1,1.5,0.2,2.2c0.3,1.1,1.8,3.4,0.2,3.9c-2,0.7-1.4,3.9-3.8,4.5c-1.9,0.9-3.1,3.3-5.5,3.1
	c-0.5,0-0.7-0.4-0.5-0.8c0.3-1.1,2.8-1.9,1.8-3.2c-2.2-0.9-3.5,5.5-6.7,3.9c-0.8-0.4-1.8-0.1-2.6,0c-2.2-1.1,3.8-4.6,4.7-5.6
	c0.4-0.5,0.2-1.1-0.4-1.3c-2.4-0.4-3.5,2.8-5.7,3.3c-2.1,0.5-1.8,3.4-3.2,4.4c-0.7,0-1.5,0.5-2.1,0.3c-0.5-0.6-1.2,0.1-1.7-0.3
	c-0.2-0.2-0.1-0.5,0-0.7c1.6-2,3.1-4.1,5.1-5.7c1.5-1,2.7-3,4.6-3.1c0.5,0,0.9-0.2,1.3-0.5c1.2-1.5,3-3.5,2.8-5.5
	c-0.1-0.5,0-1,0.2-1.5c0.8-1.3-0.1-2.7,0.4-4.1c0.4-5.2-1.4-10.3-1.3-15.5c0.2-1.1-1-1.6-1-2.6c-0.1-1,0.4-2.1-0.3-2.9
	c-0.2-0.3-0.4-0.6-0.3-1c-0.4-1.6,0.5-3.2-0.2-4.6c-0.6-1.1-0.2-2.4-0.2-3.6c0.6-1.5-1-3.5,0.4-4.5c1.3-0.8-0.3-2.1-0.8-3
	c-1.5-1.7-1.4,1.3-5.1-1.6c-2.4-1.4-2-4.9-3.9-6.7c-0.6-0.7-0.8-1.8-1.8-2.1c-2.9-0.4,2.8,4.8,1.9,6.2c-0.4,0.1-0.7-0.4-1-0.5
	c-1.1-0.7-0.9,2.3-2,0.7c-0.4-1.5-0.4-6.1-2.8-4.7c-0.3,0.4-0.6,0.7-1.1,0.6c-0.8-0.2-1.3-1.1-0.9-1.9c0.2-0.3,0.1-0.6-0.2-0.8
	c-1.7-1.9-3.1-4.1-4.7-6.1c-0.8-1.5-0.7-3.4-1.8-4.7c-0.5-0.5-0.7-1.1-0.7-1.7c3.4,1.1,8,1.8,14,2.2c-0.3,1.2-1.4,2.8-0.4,3.9
	c0.5,0.5,1.1,0.3,1.3-0.3c0.2-1.2,0.4-2.5,1-3.5c1.1,0,2.2,0.1,3.4,0.1c-1.9,3.2-2.1,7.3-1.4,10.8c0.6,1.4,0,5.4,1.8,5.6
	c0.5,0,0.9-0.5,0.9-1.1c0-3.1-0.9-6.1-0.7-9.2c-0.1-2.1,0.9-4.1,0.5-6.2c5.8,0.1,11.8-0.4,18.6-1.2c-1,1.6-0.3,3.2-0.3,4.9
	c-0.3,1.4,0.8,2.5,1.2,3.7l-11.1,1.5c-1.2,0.2-2.2,1.5-2.1,2.7c0.4,1.1,1.2,13,2.7,13.3c0.7,0.3,3.9,2.6,4.7,2.4l9.7-1.3
	C95.5,337.6,95.6,338.1,94.7,338.4L94.7,338.4z M82.1,326.4l0.1,2.9C81.5,328.1,81.4,327.4,82.1,326.4z M82,333.1
	c-0.1-0.9-0.2-1.6-0.3-2.5C82.3,331.6,82.3,331.8,82,333.1z M80.7,327.4c-0.2-2-0.3-4-0.2-4.1c0,0,0.2,1,0.2,1.6
	C81,327.3,80.8,327.2,80.7,327.4z M97.5,336.8c-0.6,0-1.2,0-1.8-0.1l3.2-0.4C98.5,336.6,98,336.8,97.5,336.8L97.5,336.8z
	 M101.9,338.3c-0.3-0.1-0.6-0.1-1,0.2c-1.4,0.7-2.1-1.2-1.4-2.3l3.9-0.5C102.9,336.6,102.5,337.5,101.9,338.3L101.9,338.3z
	 M87.1,335.6c0-0.1-1.3-10.2-1.3-10.3l32-4.3c0,0.8,0,2.2-0.1,3.8c-9.8,0.6-19.8,0.8-29.3,3c0,0.2,0.1,0.3,0.1,0.5
	c9.7-1.4,19.4-2.5,29.2-3.2c0,1.1,0,2.2-0.1,3.3c-4.7,0.8-10.1,0.2-14.3,1.9c4.6,0.5,9.6-1.1,14.3-1.3c0,1,0,1.9,0,2.6L87.1,335.6
	L87.1,335.6z M128.2,385.7c-1.1,0.4-2.2-0.1-3.3-0.2c-1.7,0-3.4,0.4-5.2,0.5c-4.3,0.4-8.3,2.2-12.6,2.4c-0.6,0.1-2.4,0.4-1.3-0.7
	c0.6-0.1,9.5-8.9,6.3-8c-1.9,1.2-3.6,2.9-5,4.7c-3,2.9-6.5,0.2-1.5-1.9c1.5-0.7,2.2-2.4,3.7-3c2.7-1.6,5.8-1.6,8.9-1.6
	c2.5-0.5,5.8,1.3,8-0.2c0.3-0.2,0.5-0.5,0.5-0.9c0.1-2,1.8-3.6,1.6-5.8c0.3-2.8-0.6-5.1-1.7-7.6c-0.2-1.8,1.9,0.3,2.5-1.4
	c0.8-1,1.8,0.7,2.4-1c0.6-1.2,1.5,1.1,2.6,0.6c0.5,0,0.9,0.2,1.2,0.5c0.7,1.1,2.1,2,2.2,3.4c-0.4,4.4,3.8,7,5.1,10.8
	c-0.2,2.1-4.6,2.1-6.1,3.2C133.7,381.5,131.1,383.7,128.2,385.7L128.2,385.7z M139.4,363.6c0.5-1.6,1.8-4.8,3.9-4.3
	c1.1,0.4,1.9,1.3,3.1,1.3c1.1,0.2,0.8-1.6,1.8-1.2c1.5,0.6,2.9,1.4,4.5,1.6c1.3,0.1,2.7-0.4,3.8,0.5c3.4,2.3,8.7,5.3,2.4,8.2
	c-4.2,1.5-7.1,5.5-11.4,6.6c-0.8,0.1-2.6,1-2.7-0.3C143.2,371.6,139.1,369.1,139.4,363.6L139.4,363.6z M181,365.6
	c-1.1,2.5-3.2,4.1-5.6,5.3c-4.3,3-7.8,7.1-12.3,10.1c-0.4,0.4-0.9,0.5-1.5,0.3c-1.9-0.2-3.2,2.3-4.6,3.5c-3.4,2.1-7.6,2.2-11.3,3.5
	c-1.4,0.2-3.4,0.7-4.7,0.2c1.7-2.3,4.1-4.3,6.9-5.2c1.6-2.5-2.5-0.4-3.5-0.4c-2.3,0.2-3.9,2.1-5.4,3.7c-1.9,1.4-4.6,0.7-6.8,1.6
	c-7.7,0.8,4-6.7,6-7.3c4-1.5,8.2-1.9,12.1-3.1c4.6-3,8.9-6.4,13.6-9c1.3-0.8,5.7-6.5,1.9-5.2c-1.2,0.7-1.8-1.6-2.9-2
	c-1.9-1.8-4.4-2.9-6.9-2.8c-2.3,0-4.6,0-6.8-1.1c-1.6-0.4-3.4-1.8-5.1-1.1c-0.8,0.4-1.5-0.2-2.2-0.5c-0.6-0.3-1.2-0.4-1.8-0.1
	c-1.4,0.5-2.9-0.5-3.9-1.5c-0.6-0.7-1.8-0.3-1.7,0.7c0,0.4-0.2,0.8-0.6,0.7c-2.5-0.2-4.4-2.3-6.1-3.9c-1-1.6-1.1-3.7-3.2-4.4
	c-0.8-0.2-0.4-1.1-0.5-1.7c-0.1-1.1-1.5-1.5-1.7-2.7c-0.5-2-2.3-3-3.3-4.8c-0.5-0.9-1.7,0-1.3,0.9c0.4,1.2,0.7,2.4,1.6,3.4
	c0.4,0.2,0.9,1.4,0,1.1c-4.8-2.2-0.9,2.4-3.6,1.4c-1-0.9-2.1-1.3-3.4-1.4c2-2.6,3.5-5.8,4.6-9.3c0.7,0.7,1.8,0.3,2.7,0.2
	c-1.1,1.7,0.8,3.5,2,4.6c2.7,0.5,0.9-2,0.4-3.2c-0.7-1.6,2.3,0.3,1.6-2l6.6-0.9c0.6-0.1,0.4-1,0.4-1.4l49.3-6.7
	c-0.5,0.3-1.1,0.5-1.7,0.4c0.7,1.7,0,3.2-0.2,4.9c0.5,0.6,1,1.3,1.1,2.1c0.5,0.1,0.7,0.5,0.9,0.9c0.5,1.1,0,1-0.9,1.5
	c-1.6,2.6,3.9,4.5,4.8,1.7c-0.8-0.7-1.5-1.7-1.7-2.8c0.1,0,0.2,0,0.3,0.1c-0.2-2.6,2.1-4.2,4-5.5c0.2-0.7,0.5-1.5,0.9-2.1
	c0.2,0.1,0.5,0.1,0.6-0.2c2.7-3.4,5.4,0.8,5.5-2.4c-0.4,0.1-0.7,0.1-1.1,0.2c-0.9,0.1-1.9,0.3-2.9,0.3c0.5-0.3,1-0.5,1.6-0.5v-0.1
	l12.9-1.8c-0.8,1-1.6,2-2.4,3c0.2,0,0.4,0,0.6,0c1.1-1,2.2-2.1,3.3-3.2l3.7-0.5c-1.5,1.7-5.5,6.1-8.4,9.4c0.2-2.4,0.9-4.9-0.4-7.1
	c0.1-0.3,0.2-0.7,0.3-1c-1.2,0.3-2.4,0.4-3.6,0.6c0.4,0.1,0.8,0.1,1.2,0.3c0.3,0.8,0.8,1.8,0.9,2.5c0,2-0.1,4.5-2.2,5.6
	c-0.9,1.2,0.9,1,1.4,0.2c0.1,0,0.1,0,0.2,0c-0.1,0.4-0.2,1-0.3,1.3c0,0.1-0.1,0.2-0.2,0.3c0.1-0.1-0.2,0.2-0.1,0.1
	c-0.1,0.1-0.2,0.2-0.3,0.3h-0.1c-0.6,1.2-1.7,2.2-3,2.5c-1.4,0.9-2.9,2.3-4.7,2.4c-0.8,0-2.1,0.1-2.2,1.1c0.2,1.5,2.2,0.8,2.9,1.5
	c-1,1.6-4.8,4.8-6.7,2.7c-0.7-1-3.1-1.2-2.2,0.5c0.5,0.9,1.4,1.5,2.2,2.2c0.6,1.2-2.4,1.1-3.1,0.7c-1.4-0.6-1.2-2.1-0.5-3.2
	c0.5-1.1,0-3.4-1.5-3.1c-0.9,0.5-0.2,1.9-1.3,2.5c-0.6,0.5-0.9,1.1-0.6,1.9c0.8,1.9-3,4.2-0.9,5.7c1.5,1-1.2,2.7-0.1,4
	c0.4,0.6,0.6,1.4,0.9,2.1c0.9,1.4,0.8,3.7,2.7,4.1C181.6,362,181.9,364.3,181,365.6L181,365.6z M239.6,367.2
	c-3.7,1.4-7.5,2.5-11.4,3.1c-1.6,0.1-1.1-4.8-1.8-6.1c-0.4,1.9-0.3,3.8-0.5,5.8c-0.2,1.3-2.2,0.7-3.2,1c-7.5,0.6-14.9-0.4-22-2.7
	c-1.3-0.4,0.3-1.9,0.4-2.7l-0.1-0.1c-0.8,0.6-1.2,2.4-2.3,2.1c-6.7-2.5-13.1-6.6-18.2-11.4c0.1-1.2,1.3-0.9,2.1-0.8
	c3.9,3.5,9.2,7.4,14.5,7.9c-4.3-2.2-8.4-4.6-12.1-7.9c1.6-0.2,3.9,0.6,5-1c0.3-0.5,0.1-0.9-0.5-0.9c-10.4,0.9-5.5-0.7,0.8-2.1
	c4.4,3.3,9.2,5.6,14.4,7.2c1.3,0.8-0.6,4.4-0.5,5.9c0.1,0,0.1,0,0.1,0c1.1-1.4,1.4-4.9,3.1-5.2c2.7,0.6,5.4,1,8.1,1.1
	c5.6,0.2,11.2-0.2,16.6-1.7c1.3-0.3,1.1,2,1.6,2.8c0.1,0,0.1,0,0.2,0c0.3-1-0.8-2.9,0.4-3.4c4.3-1.4,8.4-3.2,12.2-5.5
	c0.2,0.5,0.4,1,0.5,1.5c-1.3,0.6-2.5,1.4-3.8,2.2c1.4-0.4,2.8-0.8,4.1-1.4c0.5,1.4,1.1,2.8,1.7,4.1c-2.2,1.4-4.4,2.8-6.6,4.2
	c2.4-0.8,4.7-2.1,7.1-3.1c0.3,0.6,0.6,1.3,1,2C247.1,364,243.5,365.8,239.6,367.2L239.6,367.2z M251.9,304.9c-0.1,2.1-0.2,4.1-1.2,6
	C250.3,308.7,251.1,306.8,251.9,304.9z M255.8,359.8l6.4,14.7C260.2,373.5,255.9,363.1,255.8,359.8z M379.7,297.3
	c3.9,15.6,2.5,32.1-3,47.2c-0.4,1.3-5.5-1.5-6.9-1.5l-0.1,0.1c1.3,1.4,6.1,2.8,5.7,4.7c-5.4,12.7-13.2,24.2-24.1,32.9
	c-9,7.3-19.7,12.6-31.2,14.5c-1.7,0.1-1-4.8-1.8-6.1c-0.5,1.9-0.3,3.8-0.5,5.8c-0.2,1.3-2.2,0.7-3.2,1c-7.5,0.6-14.9-0.4-22-2.7
	c-1.3-0.4,0.3-1.9,0.4-2.7l-0.1-0.1c-0.8,0.6-1.2,2.4-2.3,2.1c-2.9-1-5.5-2.4-8.1-3.9c-10.4-6-18.1-14.6-23.6-25.3
	c-0.6-1.3,1.6-1.7,2.2-2.5c0,0,0-0.1-0.1-0.2c-1.1,0.1-2.9,1.6-3.4,0.1c-6.3-13.8-8-29.4-5.7-44.4c-0.1-2.4,3.4,0,4.8,0
	c-1-1.1-2.5-1.7-3.7-2.7c-1.2-2.2,0.9-5.2,1.2-7.8c0,0-0.1,0.1-0.1,0.1c0.6-1.7,1.6-3.6,1.5-5.5c0.1-0.2,0.2-0.4,0.3-0.5
	c11.1-29.2,39.9-54.5,72.7-50.7c3.3,0.4,6.5,1,9.7,2c1.3,0.1,0.5,1.3,0.4,2.2c0.5-0.5,0.4-2,1.4-1.6c2.3,0.9,4.5,1.9,6.8,2.8
	c1,0.9-1.9,4.3-1.7,5.6c4.8-6.7,3.1-4.5,9.5-1c1,1.1-3.1,4.3-3.7,5.7c1.8-0.5,4.1-4.9,5.9-4.1C368.7,269.9,376.3,283.1,379.7,297.3
	L379.7,297.3z M379.8,268.7c-1.3,4.5-2.6,9.1-3.9,13.6c-1.7-3.5-3.6-6.8-5.8-9.9c2.5-0.3,5.1-0.6,7.7-0.9c0-0.1,0-0.2,0-0.4
	l-7.9,0.8c-0.5-0.6-0.9-1.2-1.4-1.9c3.7-0.3,7.5-0.6,11.2-0.9c-3.9-0.1-7.8,0.1-11.7,0.4c-0.4-0.5-0.8-1-1.2-1.5
	c4.2-0.4,8.3-0.9,12.5-1.1c0,0-0.6,1.1-0.6,1.1l1.5-0.1L379.8,268.7L379.8,268.7z M375.6,252.6c0.3,0.3,0.6,0.6,0.9,1
	c0.8,0,1.2-0.1,1.5,0.7c-2.5,0.2-5,0.4-7.5,0.5c0,0.2,0,0.3,0,0.5c2.5-0.2,5.1-0.4,7.6-0.6c0,0,0.5,1.5,0.5,1.6l-0.1,0.1h0.1l0.3,1
	l-0.5,0l0.1,0.3c-1.3,0.1-2.6,0.1-3.9,0.2c0,0.1,0,0.2,0,0.4c1.3,0,2.6,0,4,0c0,0.2,0.1,0.4,0.1,0.5l0.8,0.6
	c0.1,1.5,3.1,6.3,0.2,6.2l-0.1,0.3l-13.8,1.3c-2.1-2.3-4.4-4.6-6.8-6.6c1.1-0.2,2.2-0.4,3.2-0.6c-1.1-0.2-2.5-0.1-3.8,0.1
	c-2-1.6-4.2-3.1-6.4-4.5L375.6,252.6L375.6,252.6z M370.5,237.6c2.1,2.4,3.6,4.6,4.3,7.7c-3.6-1.3-7.1-2.2-10.8-3.2
	c0-2.5-0.1-5.1-0.4-7.6c0.6-0.5,1.3-1.1,2-1.6C367.3,234.1,368.9,235.7,370.5,237.6L370.5,237.6z M397.1,203.7
	c-13.9,12.2-28.3,24-42.9,35.3c-0.1,0-0.4,0-1-0.1c15-11.6,29.5-23.8,44-36.1C397.8,203.2,397.4,203.4,397.1,203.7L397.1,203.7z
	 M407,205.5c0.2,0.2,0.4,0.5,0.5,0.8c-3.8-5.2-7.8-10.2-12.3-14.9c4,5.3,7.9,10.7,11.2,16.5c-6.8-11.3-15.8-20.5-26-28.7
	c5.4,4.9,10.4,10.1,14.6,16c-6.4-7.1-13.3-13.6-20.7-19.7c1-0.7,1.9-3,3.2-2.7C388.9,182.1,398.7,193.2,407,205.5L407,205.5z
	 M406.6,194.2c-1.7-1.8-3.4-3.7-5-5.5l-0.2,0.1c0.4,0.5,0.7,1.1,1.1,1.6c0,0,0,0,0,0c-2-2.4-3.9-4.7-6-7.1c0.4-0.3,0.8-0.6,1.2-0.8
	C398.5,183.9,408.3,193.9,406.6,194.2L406.6,194.2z M408.9,191.2c-1.3-1.5-2.7-2.9-4-4.4c-0.1,0.1-0.1,0.1-0.2,0.2
	c0.5,0.8,1,1.5,1.5,2.3c0,0-0.1,0.1-0.1,0.1c-2.2-2.7-4.5-5.4-6.8-8.2c0.5-0.3,1-1.2,1.6-0.4c2.7,3.6,6.3,6.9,8.6,10.7
	C409.3,191.4,409,191.4,408.9,191.2L408.9,191.2z M411.5,188.8c-1.5-1.4-2.8-3.2-4.5-4.3c0.4,0.5,0.7,1.1,1.1,1.6c0,0,0,0,0,0
	c-1.9-2.3-3.8-4.6-5.8-7c0.4-0.3,0.8-0.6,1.2-0.9c2.8,3.8,6.5,7,8.6,10.8C411.9,188.9,411.6,188.9,411.5,188.8L411.5,188.8z
	 M414,186.3c-1.5-1.5-2.8-3.3-4.5-4.7c0,0,0,0-0.1,0.1c0.4,0.5,0.7,0.9,1,1.4c0,0-0.1,0.1-0.1,0.1c-1.7-2.1-3.5-4.1-5.2-6.3
	c0.6-0.4,1.1-1.2,1.6-0.3c2.4,3.4,6.1,6.3,7.9,10C414.4,186.5,414.2,186.5,414,186.3L414,186.3z M416.7,183.8
	c-1.4-1.4-2.7-3.1-4.2-4.4l-0.1,0.1l0.8,1.1c0,0,0,0.1-0.1,0.1c-0.7-1.1-5.6-5.5-4.5-6.2c0.4-0.2,0.7-0.7,1.2-0.1
	c2.3,3.3,5.9,6.2,7.6,9.7C417.1,184,416.8,183.9,416.7,183.8L416.7,183.8z M419.4,181.4c-1.4-1.4-2.6-2.9-4-4.1l-0.1,0.1
	c0.3,0.5,0.7,1,1,1.5c0,0,0,0-0.1,0c-1.7-2.1-3.4-4.1-5.1-6.1c0.9-1,1.1-1.1,1.9,0c2.1,3,5.5,5.6,6.9,8.9
	C419.7,181.5,419.5,181.5,419.4,181.4L419.4,181.4z M422.5,179.1c-1.5-1.6-3-3.2-4.5-4.7l-0.2,0.2l2,2.9c0,0-0.1,0.1-0.1,0.1
	c-1.9-2.3-3.8-4.6-5.7-6.9c0.6-0.6,1.1-1.1,1.8-0.2c2.2,2.9,4.9,5.6,7,8.6C422.6,179,422.5,179,422.5,179.1L422.5,179.1z
	 M421.2,172.8c-0.1,0-0.1,0.1-0.2,0.1c0.4,0.6,0.8,1.3,1.2,1.9c0,0,0,0-0.1,0.1c-1.8-2.1-3.5-4.2-5.4-6.4c0.4-0.3,0.7-0.6,1-0.9
	c1,0.6,7.3,8.5,7.2,9.1C423.8,175.3,422.5,174.1,421.2,172.8L421.2,172.8z M427.7,174.1c-1.2-1.2-2.5-2.3-3.7-3.5
	c0,0.1-0.1,0.1-0.2,0.2c0.3,0.4,0.5,0.8,0.8,1.2c0,0-0.1,0.1-0.1,0.1c-1.6-1.9-3.2-3.8-4.8-5.8c0.4-0.3,0.9-0.9,1.4-0.5
	C423.2,168.5,426.4,171.2,427.7,174.1L427.7,174.1z M429.9,171.4c-1.2-1.2-2.4-2.3-3.7-3.4c0,0.3,0,0.4,0,0.6
	c-1.2-1.4-2.4-2.9-3.6-4.3c1-1,1.1-1.2,1.9-0.1c1.8,2.5,4.4,4.7,5.8,7.3C430.2,171.5,430,171.5,429.9,171.4L429.9,171.4z
	 M432.5,168.8c-1-0.9-2-1.9-2.9-2.8l-0.2,0.1c0.3,0.4,0.5,0.9,0.8,1.3c0,0,0,0,0,0c-1.5-1.8-3-3.6-4.6-5.5c0.4-0.3,0.8-0.5,1.2-0.8
	c2,2.8,4.9,5,6.2,7.9C432.8,169,432.6,169,432.5,168.8L432.5,168.8z M435.1,166.5c-0.8-0.8-1.5-1.6-2.4-2.4l-0.1,0.1
	c0.1,0.3,0.2,0.6,0.4,1.1c-1.6-1.9-3-3.6-4.4-5.3c0.6-0.6,1.1-1.2,1.7-0.3c1.6,2.4,4.3,4.4,5.3,6.9
	C435.4,166.6,435.2,166.6,435.1,166.5L435.1,166.5z M449.8,160.3c-3.1,3.9-8.4,5.1-11.8,2.5c4.6,2.4,11.2,0.3,11.7-5.3
	c-3.9,7.8-15,5.4-15.2-3.4c-1,1.8-0.4,4.5,1.6,7.3c-9-7.8,3.1-21.4,11.8-14C452.1,150.9,452.9,156.4,449.8,160.3L449.8,160.3z"/>
<path d="M437.8,149.3c-7.1,5.7,2,16.8,9,10.9C453.9,154.3,444.9,143.5,437.8,149.3z M445.5,158.5c-4.8,4.4-11.5-3.7-6.4-7.6
	C443.9,146.6,450.7,154.6,445.5,158.5z M307.3,176.9c7.9-0.8,2.5-12.6-4-10.7C296,168.1,301.6,177.9,307.3,176.9z M344.5,179.1
	c-7.5,2.4-0.5,12.4,5.4,10.3C356.7,187,350.2,177.1,344.5,179.1z M274.9,207.8c-8.2-1.4-10.1,9.4-2,10.7
	C278.5,219,281,209.3,274.9,207.8z M352.3,198.9c-6.6,4.3-15.3,6.3-20.9,11.7c0.9,0.6,1.8,0.3,2.7-0.1c0,0,0,0.1,0,0.1
	c9-4.3,18.2-8.7,26.6-14.3c1.1-1.4,5.1-2.3,4.9-4.2C364.5,189.8,354.9,198.3,352.3,198.9L352.3,198.9z M307.4,214.3
	c0.8,5.6,10.6,3.9,9.9-1.8C317.4,204.7,305.8,207.6,307.4,214.3z M286.1,186.6c-5.3-1.1-7.7,7.1-4.1,9.9
	C288.1,199.7,293.6,188,286.1,186.6z M332.1,215.4c-1.5-0.4-2.5,3.3-3.5,4.2c-0.7,2.1-8.9,12.5-6.4,13.2c3.4-5.3,6.6-10.8,10-16.2
	C332.4,216.2,332.6,215.7,332.1,215.4z M345.2,217.5c0.6-1,9.1-15.7,4.3-12.2c-1.8,4.2-4.4,7.9-5.9,12.2
	C344.1,218.1,344.9,218.2,345.2,217.5L345.2,217.5z M343.2,219.1c-2.7,4.9-7.5,9.5-8.8,14.9C335.7,234.3,347.3,217.2,343.2,219.1z
	 M340.4,213.7c-1.2-2.9-4.5,6-5.5,7c-1.3,2.6-3.7,5-4,7.9c1.2-0.2,1.7-1.5,2.4-2.4C335.6,222,338.4,218,340.4,213.7L340.4,213.7z
	 M355.4,201.5c-0.2,0-0.6,0.1-0.7,0.3c-1.5,2.8-2.3,5.9-3.6,8.8c-1,6.7,5.8-6.7,5-8.5C355.8,201.8,355.6,201.5,355.4,201.5
	L355.4,201.5z M339.2,221.8c8.6-13.8,6.6-15.8-1.2-0.8c-0.3,0.6-0.5,1.3,0.3,1.8C338.7,222.4,339,222.2,339.2,221.8z"/>
<path d="M350.8,213.5c-2.2-0.5-3.5,4.8-4.8,6.2c-0.4,1.1-2.2,2.8-0.9,3.8C346.2,223,351.8,214.1,350.8,213.5L350.8,213.5z
	 M294.5,174.1c0.9,0.6,1.9-0.7,1-1.4c-1.1-0.6-6.3-6.8-6.6-4.1C290.3,170.8,292.6,172.3,294.5,174.1z M338.2,168.3
	c1.2,0.6,3.6,4.5,4.6,2.1c-1.8-2.2-4.2-3.6-6.4-5.5c-0.4-0.4-1-0.1-1.5,0C335.4,166.5,337.1,167.2,338.2,168.3L338.2,168.3z
	 M331.6,222.7c-0.5-3.5-5.6,6.7-5.6,7.7c0.1,0.1,0.2,0.1,0.3,0.2C328.6,228.4,330.1,225.4,331.6,222.7z M303.9,203.4
	c0.5,2.7,6-5.3,4.3-5.8C306.6,196.8,304.7,202.1,303.9,203.4z M283.3,182.2c1.8,0.9,5.2-4,2.1-4.1
	C284,178.9,282.3,180.7,283.3,182.2z M331.1,208.3c1.3-1.1-4.6-6.2-4.5-3.8C327.7,205.9,329.1,208.7,331.1,208.3z M307,164.7
	c0.6,0.6,2,1.4,2.1,0c-0.9-1.5-2.5-2.3-3.8-3.5c-0.3-0.2-0.8-0.4-1,0.1C304.2,162.8,306.1,163.7,307,164.7z M314.8,182
	c-1.6-1.1-3-3.4-4.9-3.7c0,1.9,2.5,3,3.7,4.4C314.2,183.4,315.6,182.7,314.8,182L314.8,182z M312.8,175.1c-1.8,0.7,2,2.9,2.5,3.8
	c0.6,0.6,2.1,0.1,1.4-0.8C315.5,177.1,314.5,175.4,312.8,175.1z M332.1,219.6c-0.5,0.7,0.2,1.9,0.9,1c0.9-1.5,2.8-2.9,2.5-4.8
	C333.5,216,333.1,218.3,332.1,219.6L332.1,219.6z M359.2,198.3c-1,1-1.5,2.2-1.5,3.6C358.7,205.3,362.5,196.5,359.2,198.3z
	 M280.8,179.9c1-1.1,2.7-2.7,2.6-4.3c-0.1-0.7-0.7-0.8-1.1-0.3C281.8,176.1,278.4,180.2,280.8,179.9z M295.3,169.7
	c0.8,0.6,2.1-0.4,1.3-1.1c-1.1-0.7-2.4-3.2-3.9-2.4C292.1,167.7,294.5,168.7,295.3,169.7z M273.1,190.7c0.9-0.7,4.3-5.5,1.4-4.5
	C273.9,187,270.8,190.8,273.1,190.7z M291.9,187.1c1.5-0.5,2.8-3.1,0.6-3.4C291,183.9,289.5,187.7,291.9,187.1z M318.5,174
	c-0.4-0.9-3.4-3.9-3.7-1.8C315.1,173.5,318.8,177,318.5,174z M316.3,192.7c-2.6,0.4,3.2,5.7,3.2,2.6
	C318.7,194,317.7,193.1,316.3,192.7z M295,190.4c1.2-0.2,3.4-4,1.1-3.8C295.1,186.8,292.8,190.8,295,190.4z M317.5,224.8
	c-1.1,0.5-2.9,3.8-0.9,3.7C317.9,228.2,320.3,224,317.5,224.8z M312.3,185.4c0.6-1.7-2.1-2.6-3-3.7c-0.4-0.3-0.8,0.2-0.8,0.6
	C309.2,183.1,311.2,186.2,312.3,185.4z M313.9,161.6c3.5,0.1-3.8-5.8-2.9-2.6C311.9,159.9,312.9,160.7,313.9,161.6z M322.1,162.6
	c0.2-0.1,0.1-0.5,0.1-0.7c-0.9-1.2-2.4-2.7-4-2.8C318.4,160.7,320.4,162.7,322.1,162.6L322.1,162.6z M305.5,182.5
	c-2,0.2,2.3,4.4,3.3,3.4C309.3,184.6,306.4,182.7,305.5,182.5z M359.7,190.9c0.6,0.3,1.2-0.1,1.3-0.8
	C358.2,186.1,355.2,187.4,359.7,190.9z M278.2,180.8c-0.8,0.5-3,4-1.2,3.9C277.8,184.2,280.9,179.9,278.2,180.8z M298.8,192.7
	c0.9-0.7,2.3-2.7,0.4-3C297.4,189.9,296.3,193.8,298.8,192.7z M316.2,184.7c0.5,0.8,3,4.6,3.6,2.3
	C319.8,186.2,316.4,182.6,316.2,184.7z M316.8,158.7c2.4-0.2-1-3.6-2.4-3C313.5,156.8,315.8,158.5,316.8,158.7z M321.8,157.9
	c0,1,3.7,4.4,3.9,2.4C325.2,159.2,323.2,157.1,321.8,157.9z M319.7,211.7c0.6-0.9,1.1-1.9,1.6-2.9c-0.1-2.3-3.3,1.6-2.8,2.5
	C318.7,211.9,319.3,212.2,319.7,211.7L319.7,211.7z M314.4,166.9c0.2,0.8,1.8,2.2,2.6,2.4C319.7,169.1,314.5,164.3,314.4,166.9z
	 M323.9,156.3c0.5,0.2,0.9-0.2,0.9-0.8C322.1,151.3,319,153.9,323.9,156.3z M288,184.1c0.9,0,2.1-1.5,1.8-2.6
	C288.4,180.2,285.5,183.6,288,184.1z M304.3,197.6c0.7-0.4,1.2-1,1.4-1.9C305.5,191.8,301,198.2,304.3,197.6z M330.8,164.7
	c-1.9,0.3,0.9,2.2,1.4,2.9c0.6,0.4,1.2-0.2,1.2-0.8C333.2,166,331.4,164.7,330.8,164.7L330.8,164.7z M317.1,190.3
	c0.5,0.1,0.9-0.3,0.9-0.8C315.4,185,312.9,188.1,317.1,190.3z M340.7,173.9c-0.1,1.1,1.4,1.9,2,2.8c0.6,0.6,1.9-0.3,1.3-0.8
	C343,175.3,341.9,173.6,340.7,173.9L340.7,173.9z M352.5,194.8c0.5,0.7,1,1.6,1.9,1.7c1.8-0.7,0-2.1-0.7-2.9
	C353,193.2,351.8,194,352.5,194.8L352.5,194.8z M357.4,204.7c-0.9,0.7-1.4,1.6-1.5,2.7C356.5,210.2,360.2,203.6,357.4,204.7z
	 M332.3,163.2c2.8-0.1-1.4-2.9-2.3-3C328.8,161.2,331.7,162.5,332.3,163.2z M355.4,192.7c0.8,1,3.1,2.3,2.7,0.1
	C357.5,191.6,355.6,190.5,355.4,192.7z M336.1,214.8c0.8-0.4,2.2-4.3,0.1-3.3C335.4,211.9,334.3,215.4,336.1,214.8z M321.6,220.2
	c0.8-0.2,2.2-2.4,2.1-3.2C323,214.9,319.5,220.5,321.6,220.2z M309.7,162c0.5,0.1,0.8-0.1,0.7-0.6
	C308.3,157.1,305.4,160.2,309.7,162z M313,170c2.2,0.1-0.8-3.6-2.1-2.7C310.4,168.5,311.9,169.7,313,170z M323.5,163.2
	c-2.1-0.1,0.5,2.8,1.5,2.8C327,165.8,324.5,163.4,323.5,163.2z M358.9,186c0.9,0.1,1.2-0.3,1.3-1.2C357.9,182,356.1,184.6,358.9,186
	z M298.1,167.1c2.3,0.1,0.4-3-1.2-2.4C296.1,165.5,297.2,166.9,298.1,167.1z M316.6,208.1c0.1,0.1,0.5,0.2,0.5,0.1
	c0.8-0.7,2.2-2.8,0.1-2.8C316.4,205.7,315.5,207.5,316.6,208.1z M362.6,189.6c0.9,0.5,1.4-0.1,1.5-1
	C362.5,186.1,360.4,187.6,362.6,189.6z M297.4,175.4c-1.4,0.7,0.6,2.8,1.5,2.3C300.6,177,298.7,175,297.4,175.4z M311.7,188.3
	c-2.3-0.2,2.1,4.4,2.1,1.6C313.3,189,312.7,188.5,311.7,188.3z M317.2,162.3c-2.6-0.1,1.4,4.2,1.7,1.5
	C318.6,162.9,318,162.5,317.2,162.3z M321.5,197.7c-2.2,0.2,2.1,4.4,2.1,1.9C323.5,198.9,322.1,197.7,321.5,197.7z M320.5,181.7
	c-0.6-0.5-1.9-2.2-2.6-1.1c-0.2,0.6,1.3,2.4,1.9,2.4C320.5,182.9,320.9,182.1,320.5,181.7z M320.7,213.5c-0.9,0.3-2.3,3-0.5,2.6
	C321.3,215.9,322.9,213.1,320.7,213.5z M350.7,178.6c0.6,0.3,0.8-0.2,0.9-0.7C349.1,174.3,346.9,176.1,350.7,178.6z M301.1,194.9
	c0.8-0.5,2.3-2.2,0.6-2.6C300.4,192.4,299.2,195.5,301.1,194.9z M322.1,193.2c-0.1-0.5-1.4-1.5-1.9-1.5
	C317.6,192.2,322.3,195.7,322.1,193.2z M311.1,163.8c0,1.2,2.3,2.6,2.5,0.8C313.3,163.5,311.2,162,311.1,163.8z M313.3,205.6
	c0.9-0.2,1.8-1.4,1-2.3C313,202.5,311.2,206,313.3,205.6z M302.3,164.8c0.3-0.1,0.5-0.5,0.6-0.7C301.1,160.3,298.6,165,302.3,164.8z
	 M301.9,198.4c-1,0.3-1.5,2.8,0.1,2.3C303.5,200.4,303.5,198.2,301.9,198.4z M306.4,180.5c1.9-0.6-1.1-3-2.1-2.3
	C304.4,179,305.7,180.4,306.4,180.5z M346.5,174.1c0.6-1.6-2-2.8-2.4-0.8C344.9,173.7,345.7,175.1,346.5,174.1z M319.7,156.2
	c0.2-0.1,0.4-0.5,0.5-0.6C318.4,151.8,316,156,319.7,156.2z M301.6,178.8c-1.3,0.5-0.2,2.5,0.9,2.2
	C304,180.6,302.7,178.5,301.6,178.8z M354.9,182.1c0.5,0.3,1-0.3,1-0.7C354.5,178.9,352,180.1,354.9,182.1z M298.7,195.8
	c-0.8,0.2-1.5,2-0.4,2.4C299.7,197.9,300.4,195.6,298.7,195.8z M269.8,194.7c1.3,0.1,2.4-3.2,0.4-2.4
	C269.6,192.8,268.8,194.2,269.8,194.7z M310.1,203.6c1.5-0.5,1.8-2.1,0.2-2.2C309.6,201.6,308.9,203.5,310.1,203.6z M343.7,224.3
	c-0.8-0.1-1.9,1.2-1.5,2C343.3,227,344.8,225.1,343.7,224.3z M322.8,213c1.4-0.3,1.9-2.4,0.3-2.2C322.2,211.1,321.7,212.7,322.8,213
	z M341.3,210c-0.7-1.4-2.2,0.1-1.6,1.5C340.5,212.3,341.5,211,341.3,210z M298.5,172.8c1.1-0.5,0.3-2.4-0.7-2
	C296.2,171,297.5,173.2,298.5,172.8z M355.2,186.1c0.2-0.1,0.3-0.5,0.4-0.6C353.9,182.5,352,186.5,355.2,186.1z M344.8,209.4
	c1-0.3,1.1-1.8,0.1-2.2C343.7,207.5,343.3,209.8,344.8,209.4z M363.4,196.2c-1,0.2-1.3,2.4,0.1,2C364.6,198,364.7,195.9,363.4,196.2
	z M327.1,159c2.3-0.3-1.2-3.4-1.1-1.1C326.2,158.6,326.5,158.9,327.1,159z M323.7,215.1c0.1,0.3,0.5,0.4,0.7,0.6
	C327.4,214.3,323.4,212.2,323.7,215.1z M338.8,172.2c0.2-0.1,0.3-0.5,0.4-0.6c-0.2-1.3-2-1.8-1.9-0.5
	C337.4,171.6,338.4,172.4,338.8,172.2z M268,197.2c-0.8-0.8-1.8,0.1-1.6,1.2C266.9,199.6,268.1,198.3,268,197.2z M327.1,161.4
	c-1.4,0.9,0.9,2.7,1.5,1.2C328.3,161.8,327.4,161.2,327.1,161.4z M332.6,212.3c-1.1,0.4-0.4,1.3,0.3,1.6c0.1,0,0.2-0.1,0.3-0.1
	C333.6,213.1,333.6,212,332.6,212.3L332.6,212.3z M201.3,218c-6.7-3.3-10.2,7-5.1,10.8C203.1,234.4,207.2,221.4,201.3,218z
	 M236.8,213.9c3.3-0.9,4.6-5.1,3.5-8.2c0,0,0.1,0,0.1-0.1c-1.9-7.2-10.2-3.4-9.8,2.9C230.8,212.1,233.4,214.5,236.8,213.9
	L236.8,213.9z M250.9,216.5c-6.2,0-5.1,11.4,0.5,11.3C256.9,227.9,256.8,215.2,250.9,216.5z M183.1,191.3
	c11.3,2.1,22.7,3.9,34.1,5.8c0.9,0.3,2.4-0.3,1.5-1.1C217.6,195.2,175.8,187.2,183.1,191.3L183.1,191.3z M230,222.1
	c-3.9-4-0.4,18.2-0.5,20.2c0.2,0.2,0.4,0.4,0.6,0.6c0.5-0.4,0.8-1,0.7-1.7C230.5,234.9,230.2,228.5,230,222.1L230,222.1z M244,200.7
	c0.6,2.1-0.4,7.1,1.6,8.1c0.7-0.1,0.4-0.8,0.5-1.2c-0.1-3.9-0.3-8.1-0.7-11.9c-0.2-0.7-0.6-1-1.2-0.9
	C242.7,195.3,244.3,199.2,244,200.7L244,200.7z M234.1,239.4c-0.1-3.2,0.6-11-1.4-13.1C231.1,226.7,232.1,241.9,234.1,239.4z
	 M218.4,191.3c3,0.1,6.6,0.7,9.3-0.8C230.4,187.5,213,189.6,218.4,191.3z M244.1,226.1c-0.3-12.6-4-14.7-1.7-0.3h0.1
	C242.7,226.7,243.9,227.5,244.1,226.1z M217.5,200.5L217.5,200.5c-2.7-4.9-0.7,7.5-0.8,8.6C219.5,214.6,217.7,201.7,217.5,200.5
	L217.5,200.5z M236.4,227.5c-0.1-1.7,0.5-10.6-1.2-10.6c-1.7,0.2-0.1,10,0.8,11.2c0.1,0,0.2-0.1,0.3-0.1
	C236.2,227.8,236.3,227.7,236.4,227.5L236.4,227.5z M247.7,205.5L247.7,205.5c0.1,0.4,0.5,0.6,0.7,0.8c1.2-3.4-0.4-7.6-0.4-11.3
	C245.2,191.3,247.8,204.3,247.7,205.5L247.7,205.5z M240,226.8c-0.6-2.1,0.5-8.9-1.8-9.4c-1.1,3.1,0.4,7.5,0.5,10.8
	C239.7,228,240.1,227.5,240,226.8L240,226.8z M244.9,230.6c0-0.4-0.2-0.7-0.3-1.2c-2.2,1.8-0.2,6.6-0.6,9.3c0,1-0.1,2.7,1.2,2.7
	c0.8-0.1,0.4-0.7,0.4-1.1C245.5,237.1,245.2,233.9,244.9,230.6L244.9,230.6z M228.9,217.7c1.5-1.5,0-4.7,0.2-6.5
	c-0.4-1.8-2.4-1.5-2.1,0.1C227.6,212.6,226.4,218.9,228.9,217.7L228.9,217.7z M259.8,228c2.9,2.4,1.8-3.6,1.5-4.9c0,0-0.1,0-0.1,0
	c-0.3-0.6-0.2-1.9-1.1-1.9C258.7,221.5,259.6,226.8,259.8,228L259.8,228z M181.9,194.8c0.6,2,0,4.6,1.7,6c1.5-1.9,0.2-4.4,0.2-6.6
	C183.1,192.4,181.6,193,181.9,194.8L181.9,194.8z M227.8,206.7c2.4-0.6,0.8-5,0.9-7c-0.7-0.8-1.9-0.8-1.8,0.5
	C227.3,202.3,226.7,205,227.8,206.7L227.8,206.7z M257.6,231.3c1.5,0,0.8-6.3-0.7-5.8C255.3,225.7,256.2,231.6,257.6,231.3z
	 M240.7,230c-2.8-1.6-0.8,4.5-1,6c0.2,0.2,0.5,0.4,0.8,0.6c0.4-0.5,0.8-1.1,0.7-1.8C241,233.3,241.4,231.4,240.7,230L240.7,230z
	 M225.5,186.8c1.5-0.3,4.5,0.7,5-1.2C230.7,183.5,221.6,185.7,225.5,186.8z M205.3,198.1c-1.6,0.8,0.1,4.1-0.1,5.8
	c0.2,0.2,0.6,0.4,0.9,0.7C206.9,204,206.9,197.6,205.3,198.1z M234,241.2c-1.5,1.2-0.6,3.4-0.8,5.1h0.2c0.1,1.2,1.3,1.3,1.5,0.1
	C234.6,244.7,235.7,242.3,234,241.2L234,241.2z M269.1,235.7c1.1-1.4,0.4-3.3,0.5-5c-0.4-1.1-1.9-1.4-1.9,0
	C268.1,232.3,267.5,234.6,269.1,235.7z M220.1,252.6c-0.9,1,0.1,3,0.1,4.3c0.1,1.5,2.3,1.2,2-0.4
	C221.9,255.4,221.9,252.6,220.1,252.6z M213.5,203.7c1.4-0.6,0.2-2.7,0.3-3.9c0-0.9-1.1-2.3-1.7-1c-0.4,1.2,0.1,2.4,0.2,3.6h0
	C212.5,203,212.6,203.9,213.5,203.7L213.5,203.7z M231.1,202.7c1.6-0.1,0.5-4.8,0-5.8c-2,0.9-0.8,3.4-1,5.2
	C230.5,202.4,230.8,202.7,231.1,202.7z M190.2,194.4c-1.6,0.6-0.2,3.2-0.4,4.6c0,0,0.1,0,0.1,0c0.1,0.6,0.4,1,0.9,1.3
	C191.7,199.9,191.6,194,190.2,194.4L190.2,194.4z M198.6,202.8c0.9-1,0.2-2.9,0.5-4.2h-0.2c-0.1-1.4-2-1.6-1.9,0
	C197.3,199.9,197,202.4,198.6,202.8z M240.9,199.3c1.8,4.1,2.2-4.5,0.5-4.5C239.8,195.2,241.1,198.1,240.9,199.3
	C240.8,199.3,240.9,199.3,240.9,199.3L240.9,199.3z M195.5,189.3c1.5,0,2.9,0,4.4,0C204,186.5,192.5,187.5,195.5,189.3z
	 M233.3,223.1c0.9-5.9-2.5-5.8-1.6,0.1C232.2,223.9,233,224.1,233.3,223.1z M260.7,190.6c-1.9-1.4-1.7,4.5-0.3,4.9
	c1.3-0.9,0.6-2.7,0.9-4.1c0,0-0.1,0-0.1,0C261,191.1,260.9,190.8,260.7,190.6L260.7,190.6z M213.9,210.4c1.2-0.7,0.4-2.7,0.6-3.9
	h-0.1c-0.1-1.4-1.8-1.5-1.7-0.1C213,207.7,212.4,209.9,213.9,210.4L213.9,210.4z M254,232.8c-1.1,0.9,0,3-0.1,4.3
	c-0.2,1,0.7,2.9,1.5,1.2C254.9,237.1,255.6,232.4,254,232.8z M256.5,185.2c0.8,0.1,1.6,0.1,2.4,0.1v-0.1c0.8-0.1,1-0.7,1.4-1.3
	C259.3,182.7,253.7,183.5,256.5,185.2L256.5,185.2z"/>
<path d="M234.9,200.4c1.2,0.1,1.2-4.4,0.1-4.4C233.4,195.7,233.2,200.6,234.9,200.4z M216.6,213.5c0,0.7,0.1,1.5,0.1,2.2h0.1
	c0.3,1.6,2.1,1.3,1.9-0.2c-0.3-0.9,0.2-2.8-1.1-3C216.9,212.5,216.7,213,216.6,213.5z M248,233.5c-1.2,1.2-0.4,3-0.6,4.6
	C249.5,240.6,249.2,233.9,248,233.5z M254.5,196.3c1.3-0.4,0.4-2.6,0.5-3.6c-0.1-0.5-0.3-0.9-0.9-0.9c-1.5,0.4-0.4,2.4-0.6,3.7
	C253.8,195.8,254.1,196.3,254.5,196.3L254.5,196.3z M264.4,229.4c1.4,0.2,1-4.3-0.3-4.1C262.8,225.5,263.3,229.2,264.4,229.4z
	 M250.8,197.7c0.9-0.8,0.5-2.2,0.6-3.3h-0.1c-0.2-1.3-1.8-1.5-1.7-0.1C249.8,195.5,249.6,197.1,250.8,197.7L250.8,197.7z M256.9,223
	c1.3-0.9,0.6-2.3,0.8-3.7c-0.3-0.2-0.7-0.5-1-0.8C255.7,219.7,255.8,222,256.9,223z M217.4,253.8c-1.3,0.1-1.2,3.5,0.2,3.4
	C219.2,257.2,218.6,253.7,217.4,253.8z M194.1,198.8c1-0.4,0.7-2.1,0.7-2.9c-1.2-1.9-2,0.4-1.7,1.7h0.1
	C193.3,198,193.7,198.7,194.1,198.8L194.1,198.8z M179.4,196.9c-1.2,0.5-0.6,1.7-0.6,2.9c0.2,0.2,0.5,0.5,0.8,0.8
	C180.6,199.9,181,196.7,179.4,196.9L179.4,196.9z M238.6,198.9c0.1-0.8,0.1-1.6,0.2-2.4c-1.7-2.1-2.5,1.8-1.3,2.7
	C238.1,199.6,238.5,199.5,238.6,198.9z M235.9,232.8c-0.4,4.1,1.9,4.1,1.5-0.1C236.9,232,236.2,231.8,235.9,232.8z M256.8,191.3
	c-1,0.3-0.7,1.7-0.7,2.6h0.1c0.1,0.4,0.5,0.7,0.7,1C258,194.3,258.3,191.7,256.8,191.3z M246.9,213.6c-1.6-3-2.5,0.5-1.4,2
	C246.8,216.8,246.9,214.3,246.9,213.6z M187.2,197.6c-1.1,0.8-0.5,1.8-0.5,3.1c0.3,0.2,0.6,0.4,0.9,0.7
	C188.5,200.3,188.4,198.4,187.2,197.6L187.2,197.6z M219,220.6c-0.3-1.2-1.5-1.2-1.8-0.3c0.2,0.8,0.1,2.5,1.1,2.6
	C219.3,222.7,218.9,221.1,219,220.6L219,220.6z M209.9,253.2c-1.4,0.4-0.5,3.1,0.9,2.7C212.2,255.5,211.3,252.7,209.9,253.2z
	 M179.2,202.9c0.1,1-0.1,2.3,0.9,2.8c1-0.8,0.4-1.9,0.5-3.1c-0.3-0.2-0.6-0.4-0.9-0.7C179.5,202.3,179.2,202.6,179.2,202.9z
	 M248.1,209c-0.1,0.6-0.1,1.2-0.1,1.8h0.1C250.2,214.8,250.2,206.2,248.1,209z M220.5,244.5c0.3-2.8-1.9-3.2-1.7-0.1
	c0,0,0.1,0,0.1,0c0.1,0.5,0.6,0.7,0.9,1C220.1,245.1,220.5,244.8,220.5,244.5L220.5,244.5z M209.9,200.2c0.1-3-1.9-2.6-1.8,0.2
	C208.8,201.2,209.9,201.5,209.9,200.2z M209.7,207.1c1.3,0,0.7-1.6,0.7-2.6c-0.2-0.2-0.6-0.5-0.9-0.7
	C208.7,204.7,208.5,206.5,209.7,207.1z M242.6,204.9c0.7-1.1-0.6-4.1-1.6-2C240.8,203.4,241.9,206.1,242.6,204.9z M178.4,194.6
	c1.2,1.7,2.1-0.6,1.4-1.7c-1.2-1.2-1.7,0.5-1.4,1.6L178.4,194.6L178.4,194.6z M193.8,202.1c0.8,3,2.7-1.8,0.5-1.9
	C193.4,200.5,193.7,201.4,193.8,202.1L193.8,202.1L193.8,202.1z M201,201.9c-0.3,0.8,0.2,2.9,1.4,2C203.4,203,201.9,200,201,201.9z
	 M250.2,200.6c0,0.4,0,0.9,0.1,1.5c0.2,0.2,0.6,0.4,0.9,0.7c0.5-0.6,0.9-1.4,0.6-2.2C251.5,199.7,250.3,199.5,250.2,200.6z
	 M248.2,188.2c1.3-0.4,0.8-2.6-0.7-1.9C245.8,186.8,246.8,188.6,248.2,188.2z M242.3,211.2c-1.1,0.6-0.8,2.5,0.6,2.8
	C243.3,213.4,243.4,210.7,242.3,211.2z M220.5,250.8c1.1-0.2,1-2.9-0.5-2.4C219,248.6,219.1,251,220.5,250.8z M213.4,213.7
	c-0.9,0.1-0.9,2.6,0.6,2.4C215.1,215.9,214.8,213.3,213.4,213.7z M201,197.2c-1,0.1-0.7,2.6,0.5,2.4
	C202.6,199.4,202.4,196.8,201,197.2z M254.5,197.3c-1,0.1-0.8,2.6,0.5,2.4C255.8,199.7,255.8,197.1,254.5,197.3z M217.1,251.8
	c1.2-0.2,0.6-2.4-0.5-2C215.3,250.1,216,252.1,217.1,251.8z M187.6,194.7c0-0.1,0-0.1-0.1-0.2c0-0.1,0.1-0.1,0.1-0.2
	c-0.4-0.2-0.7-0.4-1.1-0.6C185,195.3,187.6,197.6,187.6,194.7L187.6,194.7z M263.2,189.7c-1.1,0.2-0.7,2.3,0.5,2
	C264.7,191.5,264.5,189.3,263.2,189.7z M213.3,254.6c-0.7,0.4-0.6,2,0.6,1.7C214.9,256,214.2,254.2,213.3,254.6z M253,186.2
	c-0.4-1-1.4-0.3-1.7,0.4c0.4,0.2,0.8,0.4,1.3,0.7C252.8,186.8,253,186.4,253,186.2z M227.4,361.6c-6.1,1.8-12.3,0.8-18.4,0.8l0,0.1
	c6.3,2.1,13.6,2.7,19.5-0.8c0-0.1,0-0.1-0.1-0.2C228,361.6,227.7,361.5,227.4,361.6z M211.1,367.5c-2.1-0.4-4.1-1-6.2-1.4l-0.1,0.3
	c4.2,3.1,9.8,3.1,14.8,2.4C216.8,368.2,213.9,368,211.1,367.5L211.1,367.5z M220.3,342c0.1,0,0.1,0.1,0.2,0.1c0.8-1.1,0.3-2.7,0.5-4
	h-0.1C220.7,339.4,220.5,340.7,220.3,342L220.3,342z M220,344.2c-0.4,0.6,0.1,1.3,0.7,0.8C220.8,344.4,220.4,344.3,220,344.2z
	 M224.8,343.4c0.6-4.4,0.7-8.9,1.1-13.3c-0.1,0-0.3,0-0.5,0.1c-0.3,0.4-0.6,0.8-0.9,1.1C224.3,335.3,224.6,339.3,224.8,343.4z
	 M369.5,296.9c1.7-1.3,3.5-2.4,5.1-3.8c-1.2,0.5-2.3,0.9-3.4,1.3h0h0c0,0,0,0,0,0v0c-0.9,0.4-1.7,0.9-2.7,1.4
	c-4.8-14.2-15.1-26.9-29.1-32.6c0.4-0.5,0.9-0.8,0.9-1.5c7,3.2,13.2,7.7,18.7,13.3c-4.4-6.3-11.1-12-18.5-14.2c0,0,0-0.1,0-0.1
	c-0.7-0.3-1.3-0.5-1.9-0.6c0,0.1,0,0.2,0,0.2l-2.7-0.7c0,0.1,0,0.1-0.1,0.2c0.9,0.3,1.8,0.7,2.7,1.1c-0.1,0.6-0.2,1.2-0.3,1.8
	c-14.9-5.6-32.2-3.2-45.7,5.2c-1.7,0.4-2.6-3.5-4.1-4.2c0.2,1.7,2.9,4.5,1.7,5.8c-11,7.6-19.6,18.5-24.7,30.9
	c-3.7,6.7-4.7,14.3-5.2,21.8v0c-0.6,9.6,0.1,19.2,3.3,28.3c0.2,1.6-2,2.5-2.7,3.8c-1.2,7,5,13.4,10.3,17.4
	c-2.7-4.2-15-16.5-6.8-19.5c5.4,14.7,17.5,27,32.6,31.4c1.4,0.9-0.6,4.3-0.5,5.9c0,0,0.1,0,0.1,0c1.1-1.4,1.4-4.9,3.1-5.2
	c2.7,0.6,5.4,1,8.1,1.1c5.6,0.2,11.2-0.2,16.6-1.7c1.3-0.3,1.1,2,1.6,2.8c0.1,0,0.1,0,0.2,0c0.3-1-0.8-2.9,0.4-3.4
	c4.2-1.3,8.1-3.1,11.9-5.4c10.4-6.4,18.9-15.7,24.7-26.4c0.5-1.2,1.4-0.4,2.3-0.5c-2.3-1-0.7-2.2-0.1-3.9c5.7-12.4,7.6-27,5.7-40.6
	c-0.1-0.8,0-1,0.8-1.2c4.2,2.5,1.1,12.9,2,17.3c5.5-21.5-5.6-15.1,4.6-21c-2.6,0.7-5.2,1.4-7.9,2.1
	C370.4,301.3,368.4,298.5,369.5,296.9L369.5,296.9z M364.5,306.2c0,0.1-0.1,0.2-0.1,0.5c-1.1-5.5-0.3-11.2-1.6-16.7l0.2-0.1
	C365.6,294.7,364.9,300.8,364.5,306.2L364.5,306.2z M362.9,311.3c0,0.7-0.1,0.8-0.8,0.9c-7.6,0.3-15.3,0.5-23,0.8
	c-1.3,0-1-1.9-1.6-2.7c-0.4-0.7-0.3-1.2,0.1-1.7c1.6-0.2,3.2-0.4,4.8-0.6l0.2,0.5c3.1-0.6,6.4-1.3,9.4-2c0,0,0.3,0.2,0.3,0.2
	c3.3-0.7,6.7-0.7,10.1-1.3C362.7,307.2,362.9,309.3,362.9,311.3L362.9,311.3z M342.7,303c2.5-0.3,5-0.5,7.6-0.8c0-0.2,0-0.3,0-0.5
	c-2.3,0.2-4.7,0.5-7,0.7c4.2-4.6,8.4-9.2,12.7-13.8c0.6-0.1,1.2-0.1,1.8-0.3c2,4.5,3.4,9.1,4.3,13.9c-7.2,0.8-14.3,2.4-21.5,3.4
	C341.2,304.7,341.9,303.8,342.7,303L342.7,303z M354.2,275.7c0.8,1.4,3.8,3.2,3.4,4.6c-3.9,3.9-7.5,8.2-11.1,12.3
	c4.3-3.6,8.2-7.6,12.1-11.6c1.3,0.9,1.1,1.7,0,2.7c-7.3,7.9-14.5,15.9-21.8,23.8c-0.3-0.7-1.4-1.4-0.8-2.1c2.6-2.8,5.2-5.6,7.8-8.4
	c0,0-0.1-0.1-0.1-0.1c-2.9,2.6-6.3,4.7-8.6,7.9c-0.8-1.2-2.9-2.3-2.8-3.6c4.9-4.9,9.1-10.5,13.6-15.8c-5.1,4.9-10.6,9.5-14.6,15.5
	c-1.7-0.7,8-8.9,8.7-10.8c4.7-4.4,8.9-9.7,13.4-14.4C353.7,275.6,353.9,275.3,354.2,275.7L354.2,275.7z M324.3,282.6
	c0.5-3.2,0.8-6.3,1.1-9.5c6.4-1,13-1.7,19.4-2.6c3,2-2.7,3.8-2.7,6.1c-1.7,1.8-4.1,3.4-5.3,5.5c-0.3,0.3-0.6,0.6-0.9,0.9
	c-1.8,0.1-3.6,0.3-5.4,0.4l0,0.4c1.7,0.4,3.3,0,4.9-0.3c-1.1,0.7-3.5,3.6-3.5,3.8c-0.7,0.7-1.3,1.4-2,2.1c-1.9,0.2-3.8,0.4-5.8,0.6
	C324.2,287.5,324.3,284.9,324.3,282.6L324.3,282.6z M323.8,294.6l0.1-2.4c1.2-0.2,2.5-0.4,3.7-0.5c-1.2,1.4-2.5,2.7-3.7,4
	c0,0-0.1-0.1-0.1-0.1C323.8,295.3,323.8,295,323.8,294.6L323.8,294.6z M327.5,295.9c3.5-4.1,6.9-8.5,11.3-11.7
	c0.5,1-1.4,1.7-1.6,2.6c-0.3,0.3-0.9,0.8-0.9,0.8c-2.8,3.3-5.7,6.5-9.3,9C327.2,296.3,327.3,296.1,327.5,295.9L327.5,295.9z
	 M325.6,262.6c0.1-1.4,0.1-1.5,1.5-1.2c1.3,0.2,2.6,0.3,3.9,0.6c-0.2,0-0.5,0.1-0.8,0.1l0,0.4c5.1-0.1,9.4,4,13.3,6.9
	c-6.1,0.8-12.1,1.7-18.1,2.5C325.6,268.8,325.3,265.7,325.6,262.6L325.6,262.6z M315,271.7c0.8-3.1,0.2-6.3,0.3-9.4
	c0-1,1.4-0.6,2-0.8c-0.1,2.9-0.1,5.6-0.2,8.4c0.1,0,0.1,0,0.2,0c0.2-2.8,0.8-5.5,0.6-8.5c1,0.3,3.9-0.8,3.9,0.6
	c-0.5,6-0.4,11.8-0.4,17.8c1.1-6,1.1-12.3,1.6-18.3c1.2-0.3,1.5,0.2,1.3,1.4c-0.4,0.1-0.8,0.4-0.7,1c0.5,5.3,0.2,10.6-0.8,15.8
	c-0.1,0.4,0.2,0.7,0.5,0.8c-0.3,5.2-0.6,10.4-0.9,15.7c0,0.5-0.2,0.6-0.7,0.6c-1.1-0.4-5.3,0.6-5.3-0.7c0.6-4.5,0.9-9.1,0.8-13.6
	c-1.1,4.3-1.5,9.3-1.8,13.9c-0.1,0.9-1.3,0.6-2,0.9C314.1,288.6,314,280.1,315,271.7L315,271.7z M298.1,277.9
	c-3.6,0.4-7.3,0.9-10.9,1.3l-1.6-1.9c6.8-0.8,13.6-1.6,20.4-2.3c-0.3,5.8-0.7,11.6-1,17.5c-1.9,0.3-3.8,0.5-5.8,0.7l-11.6-13.5
	c3.5-0.5,7.1-0.9,10.6-1.4C298.1,278.1,298.1,278,298.1,277.9L298.1,277.9z M304.8,294.7c0,1.5-2,1.3-3.1,1.5
	c-0.3-0.3-0.6-0.6-0.8-1C302.2,295,303.5,294.9,304.8,294.7z M308.6,276c0-0.6,0.5-1.5,0-1.9c0.1-0.7,0.2-1.3,0.3-2
	c0.8-0.6,0.1-2,0.7-2.8l0.2,0c0.5,1.3,0.4,2.7,0.5,4.1c-0.7,0.9-0.3,2.4-0.6,3.5c0,0.3,0,0.4,0.2,0.5c-0.2,0.8-0.2,1.7-0.3,2.6
	c-1.1,1.9-1,4.4-1.7,6.6c-0.3-3,0.3-6.1,0.4-9.1c0,0,0-0.4,0-0.5C308.6,276.7,308.6,276.3,308.6,276L308.6,276z M285,275
	c6.3-5.5,13.5-9.5,21.5-12c0,3.5-0.4,7-0.5,10.5c-7.1,0.6-14.2,1.9-21.4,2.6C284.3,275.7,284.4,275.5,285,275L285,275z M277,283.9
	c1-0.8,1.8-3.4,3-1.6c3,3.2,6.3,6.2,9.7,9.1c-3.1-3.8-5.8-7.9-9.9-10.9c1.1-0.7,3.3-4.5,4.2-3c6.4,7.5,12.9,14.9,19.2,22.5h0
	c1.2,1.2,1.4,1.5-0.1,2.5c-1.4-1.6-4-4-4.9-4.4c1.5,1.7,2.8,3.3,4.2,5c-0.9,0.9-1.7,1.8-2.7,2.8c-3.3-4.4-7.4-7.9-11.2-11.6
	c3.1,4.2,6.5,8.4,10.1,12.2c0.6,0.8-0.6,1.5-1,2.4c-7-7.9-13.8-16-20.7-24C276.8,284.6,276.6,284.4,277,283.9L277,283.9z
	 M293.1,325.3c-0.1,0.9-0.1,0.9-1,1c-4.8,0.4-9.7,0.9-14.5,1.3v0.1c4.9-0.1,9.8,0.7,14.7-0.3c0.7-0.1,0.7-0.1,0.8,0.7
	c0.1,0.8,0.1,0.8-0.7,0.8c-10.1,0.4-20.2,0.7-30.3,1.1c-1.3-0.1-0.3-2.8-0.6-3.9c5.8,0.3,11.4,0.4,17.2,0v-0.2
	c-5.7-0.5-11.4-1.4-17.1-0.7c0.2-0.9-0.5-3.8,1-3.5c3.2,0.1,6.3,0.2,9.5,0.2c2-0.4,9.9,0.7,10.4-0.9c0-0.6-0.4-0.5-0.8-0.5
	l-18.9,0.9c-1,0-1,0.1-0.9-1c0.1-0.8,0.1-0.8,0.9-0.9c6.7-0.4,13.6,0,20.3-0.7c3.5-0.1,7-0.4,10.4-0.3
	C293.4,321.1,293.2,323.2,293.1,325.3L293.1,325.3z M295.5,336.4c0.1,0.4,0.2,0.7-0.2,0.9C290.3,331.4,292.2,325.8,295.5,336.4z
	 M269.6,294.5c2.6-0.3,5.1-0.8,7.7-1c0-0.1,0-0.3,0-0.4c0.7,0.8,1.4,1.6,2.1,2.4c-3.7,0.6-7.4,1.2-11.1,1.8
	C268.6,296.4,269.1,295.5,269.6,294.5L269.6,294.5z M272.7,289.2c0.1-0.2,0.3-0.4,0.5-0.7c1.4,1.5,2.6,3,3.9,4.6
	c-2.4,0.2-4.8,0.5-7.2,0.7C270.9,292.2,271.8,290.7,272.7,289.2L272.7,289.2z M267.2,299.5l14-1.8l1.4,1.7l-1.4,0.1
	c0,0.2,0,0.3,0,0.5l1.8-0.1c1,1.1,1.9,2.2,2.9,3.3c-2.3,0.2-4.5,0.5-6.7,1l0.1,0.5c2.4-0.3,4.8-0.6,7.2-0.9l1.6,1.9
	c-4.2,0.5-8.5,1.1-12.7,1.6c0,0.2,0,0.4,0.1,0.5c4.4-0.5,8.7-1.1,13.1-1.6c0.7,0.6,0.9,1.4,1.5,2.1c-0.3,0.5-0.6,0.9-0.9,1.4l0,0
	c-0.2,0.3-0.3,0.7-0.5,1c-0.1,0-0.2,0-0.4,0l0.1,0.5h0.1c-0.8,1.2-0.5,3.8-2.5,3.5c0,0,0,0.1,0,0.1c-4.1,0.5-8.3-0.3-12.3,0.5
	l-0.4,0c0,0,0-0.1,0-0.1c-0.5,0-0.9,0-1.4,0l0,0c-1.3,0-2.7,0-4,0.2c0,0,0,0,0-0.1c-0.5,0.1-1-0.2-1.2,0.2c-0.1,0-0.3,0-0.5,0.1
	c-1.2-0.5-2.6-0.1-3.9-0.2c-0.1-1,0.2-1.7,0.4-2.6c2.2-0.3,4.5-0.8,6.7-1.3c0-0.1,0-0.2,0-0.4c-2.1,0.2-4.3,0.5-6.4,0.8
	c0.2-0.9,0.4-1.7,0.6-2.5c2.5-0.5,5.1-0.9,7.6-1.4c-2.5-0.1-4.9,0.2-7.4,0.6c0.4-1.4,0.9-2.7,1.4-4.1c4.1-0.5,8.1-1.5,12.2-2.2
	c0-0.1-0.1-0.3-0.1-0.4c-3.9,0.6-7.9,1.2-11.8,1.9c0.3-0.8,0.6-1.5,0.9-2.3l4.9-0.6c0-0.1,0-0.2,0-0.4c-1.5,0-3,0.1-4.6,0.2
	C266.7,300.5,267,300,267.2,299.5L267.2,299.5z M261.2,332.4c0-0.4,0-0.7,0.1-0.8c0,0.3-0.1,0.6-0.1,0.9L261.2,332.4L261.2,332.4z
	 M261.3,333.3c1.3,1.4,2.1,2,0.4,3.5C261.5,335.7,261.4,334.5,261.3,333.3z M264.3,348.4c3.5-3.8,6.5-8,8.9-12.6l-0.2-0.1
	c-3.1,3.7-5.8,7.9-9.2,11.4c-0.4-1.2-0.7-2.5-1-3.7c3.8-3.6,7.1-7.6,10-12c-0.1-0.1-0.1-0.1-0.2-0.2c-3.5,3.4-6.7,7.2-10.2,10.7
	c-0.2-0.9-0.4-1.8-0.5-2.7c2.2-2.4,4.2-5.1,5.9-7.9c3.9-0.1,7.9-0.2,11.8-0.4c-3.9,7.4-8.8,14-14.6,19.8
	C264.8,349.9,264.5,349.1,264.3,348.4z M267.9,357c-0.9-1.6-1.6-3.2-2.3-5c6.2-6.1,11.7-13.4,15.7-21.2c1.7,0.3,5.1-1,6,0.5
	c0.1,1.3,1.7,2.7,0.7,3.8C281.3,342.4,274.7,349.6,267.9,357L267.9,357z M287.2,338.7c-2.9,5.3-7.6,9.9-11.9,14.2
	c2.8-5.7,7.5-9.8,11.6-14.4L287.2,338.7L287.2,338.7z M301.1,366c-0.4,4.3-1.1,10.2-1,14.5c-0.3,1.8-7.6-0.5-9.1-0.9
	c-4-1.7-7.6-4.1-10.9-7c-1-1,0.5-2.2,1.2-2.9c0.8-0.2,2.3-1.8,2.4-2.6c0.4-0.4,0.8-0.8,1.2-1.3c0,0.1,0.1,0.1,0.2,0.2
	c0.8-0.9,1.6-1.8,2.4-2.7c0-0.1-0.1-0.1-0.2-0.1l1.2-1.3c4.6-4.2,8.6-9.5,13.1-14c0,0,0.1,0,0.1,0.1c-0.3,6-0.6,12-0.9,18L301.1,366
	L301.1,366z M287.7,361.3C287.7,361.3,287.8,361.4,287.7,361.3c-1.1,1.3-2.4,2.5-3.5,3.7c0,0,0,0,0,0c-0.4,0.4-0.7,0.8-1.1,1.2l0,0
	c-1.5,1.6-2.8,3.2-4.5,4.5c0,0-0.1-0.1-0.1-0.1l0.1-0.2c-0.7-0.5-1.3-1.2-1.9-1.8c0,0,0.1,0,0.1,0c-0.8-1-3.6-2.5-1.8-3.7
	c0.2-0.1,0.2-0.4,0.3-0.6l-0.2-0.2c1.2-0.4,5-2.9,3.3-4.1c-0.9,0.5-6.4,7.6-5.2,3.4c7.6-8.3,15.1-16.7,22.8-24.9
	c0.5,0.8,1.1,1.2,0.2,1.9c-1.8,1.9-3.5,3.9-5.2,5.8l0.1,0.1c2-1.8,3.9-3.6,5.8-5.4c1-0.8,1.6,1.4,2.3,1.8c0.2,0.3,0.2,0.4,0,0.6
	c-2.4,2.2-4.2,5-6.3,7.5c2.6-1.8,4.6-4.4,7-6.6c0.8-0.7,1.4,0.6,2.1,1C297.3,350.8,292.5,356.1,287.7,361.3L287.7,361.3z
	 M302.1,342.8c-8.1-7.4-9.3-19.5-4.9-29.2c1.2-1.3,6.8,2.2,8.8,2.3c0-0.1,0-0.1,0.1-0.2c-2.4-1.4-4.8-2.8-7.2-4.2
	c-1-0.6,0.6-1.8,0.9-2.5c5.8-8.6,17.4-13.6,27.1-8.5c0.5,0.2,0.5,0.5,0.2,0.9c-2.1,2.9-3.6,6.2-5.3,9.3c-0.3,0.5-0.5,0.6-1,0.3
	c-3.4-2.3-8.4-1.1-10.9,1.6c4.2-1.3,8.5-2.6,12.3,0.3c0.1-0.1,0.1-0.1,0.2-0.2c-0.2-0.6-1.1-1.1-0.6-1.8c2.2-2.8,4.4-5.7,6.3-8.9
	c0.4-0.7,0.4-0.7,1.1-0.3c7.6,5.1,9.4,14.8,9,23.1c-0.2,3.3-2.4,6.1-3.4,9.2c-0.5,0.6-1,1.4-1.3,2.1c-5.2,7.5-14.3,13-23.8,10.4
	c-8.5-2.6-4.9-2.9-1.5-8.6c-1.8,1.4-3.8,2.6-5.1,4.5C302.8,343.2,302.5,343.1,302.1,342.8L302.1,342.8z M305,356.4
	c-0.5,3.5-0.5,7.1-1.3,10.6c-0.2-1.5-0.3-3-0.6-4.4c0.6-3.6,0.9-7.3,1.9-10.8c0.1,0,0.1,0,0.2,0C305.3,353.3,305,354.9,305,356.4
	L305,356.4z M318.4,371.5c-0.6,1.9,0.6,12.5-1.9,11.4l0.1-7.5c-0.1,0-0.2,0-0.2,0c-0.3,2.5-0.6,5.1-0.9,7.8
	c-0.8-0.2-3.6,0.9-3.6-0.5c0.2-3.5,0.6-6.9,0.7-10.4c-1.6,3.3-2.2,6.8-2.1,10.5c0,0.4-0.1,0.5-0.5,0.6c-1.3,0.1-1.3,0-1.2-1.2
	c0.2-3.9,0.5-7.8,0.6-11.6h0c0.2-1.5,0.2-3,0.2-4.5h0c0.4-5.4,0.6-10.7,0.9-16.1c0.2-1.5,4.4-0.2,5.8-0.6c0.8,0,0.8,0,0.7,0.8
	c-0.8,6.1-0.6,12.1-0.2,18.2c1.1-2.5,0.2-20.4,2.5-19.4C319.9,355.9,318.5,364.1,318.4,371.5L318.4,371.5z M324.5,376.7
	c-1.7,0.8-3.4,1.4-5.2,2.1c0.4-10.1,1.1-20.1,1.6-30.2c-0.2-0.9,2.6-1.9,3-1.2c5.2,6.1,10.4,12.2,15.7,18.2
	C341.3,367.9,326.9,375.7,324.5,376.7L324.5,376.7z M327.5,347.8c4.4,3.2,7.2,7.7,10.8,11.7C334.2,357,330.6,351.7,327.5,347.8z
	 M330.2,377.6c4.7-2.5,9.4-5.1,13.7-8.2c0.1,0.1,0.1,0.2,0.2,0.4C340,373.3,335.9,376.8,330.2,377.6L330.2,377.6z M354.6,360.7
	c-1.4,1.7-3,3.5-4.5,5.1c-2.5-2-4.8-4-7.2-6l-0.1,0.1c1.9,2.2,4.1,4.2,6.1,6.3c0.6,0.5-0.2,0.9-0.6,1.2
	c-6.8-7.4-13.2-15.3-19.8-22.9c0.5-0.6,0.6-0.7,1.1-0.1c2.4,2.9,5.5,5,8.4,7.4c-9.8-11.9-9.6-5-3.1-14.6
	c6.6,7.3,13.2,14.8,19.6,22.3C354.9,360,355,360.3,354.6,360.7L354.6,360.7z M356.9,343c-0.2,0.4-0.3,0.8-0.5,1.2c0,0,0,0,0,0
	c-0.3,0.7-0.7,1.4-1,2.1c0,0,0,0,0.1,0c-0.1,0.2-0.2,0.4-0.3,0.6c-1.5,2-2.5,4.5-4,6.6c-3.5-3.9-6.8-7.9-10.2-11.8
	c-1-2.2-3.8-3.8-5-6.1c0.4-2.1,1.7-4.1,2.4-6.2c7.1-1.9,15.8-0.7,23.4-1.4c-0.4,1.7-0.7,3.2-1.1,4.8h0
	C359.5,336.3,358.4,339.7,356.9,343L356.9,343z M364.3,334.5c-0.5,1.3-0.9,2.6-1.4,3.9c-1,0.6-1.1,1.8-1.6,2.8
	c0.3,0,0.5-0.1,0.6-0.1c0,0.1-0.1,0.2-0.1,0.2c-0.3,0.1-1,1.5-1.2,1.8c-0.7,0.4-1.3,1.5-1.4,2.3l-0.4,0.6c0,0-0.1,0-0.1,0
	c1.4-3.5,2.7-7.3,3.6-10.7c0.2-0.6,0.4-1.3,0.6-1.9c1.1-0.5,0.9-2.8,1.6-3.8h0.2C365.2,331.2,363.9,332.9,364.3,334.5L364.3,334.5z
	 M369.1,316.1c0.2,0,0.5,0,0.8,0c0,0.8,0.4,1.6-0.7,1.5c-5.2,0-10.5,1.2-15.6,1.8c5.2,0.2,10.5,0,15.8-0.6c0.4,0,0.6,0,0.6,0.5
	c-0.5,1.6,0.4,7.4-1.7,7.1c-9.4,0.3-18.8,0.7-28.3,1c-0.2,0-0.6-0.1-0.6-0.1c0.1-0.6-0.1-1.5,0.9-1.4c4.9,0,9.6-1,14.4-1.9v-0.1
	c-4.7,0.1-9.5,0.1-14.2,0.8c-0.5,0.1-0.7,0-0.6-0.6c0.5-1.3-0.7-4.3,1.5-3.7c3,0,6,0.1,9,0c-3.2-0.7-6.5-1.6-9.8-1.6
	c-0.9,0-0.5-0.6-0.6-1c-0.1-0.5,0.3-0.5,0.6-0.5C350,316.7,359.6,316.5,369.1,316.1L369.1,316.1z M218.3,327.5
	C218.4,327.3,218.3,327.4,218.3,327.5z M87.7,207.1c2-2.5,4-4.9,6.4-7c2.5-1.8,7.2-2.4,7.8-5.9c0-0.6-0.7-0.9-1.1-0.4
	c-2.7,3.5-7.5,4.1-11,6.6c-3.8,2-5.7,5.9-7.6,9.4c-3.8,4.5-8.2,8.8-14,10.7c-1.9,1.3-5.5,1.8-5.9,4.2c0,0.9-0.2,1.7-0.9,2.4
	c-0.9,1.4-3.5,2-3.6,3.7c0.9,1.2,2.4-0.4,3.2-0.9c6-5.2,1.2-4.8,10.9-8.1c4.1-2.1,7.6-5.1,11.3-7.8c2.7-1.7,5.8-3,8-5.3
	c0.9-2.3-2.2-0.3-3,0.1C87.1,209.2,86.9,207.7,87.7,207.1L87.7,207.1z M35.6,260.7c0.7,0.7,1.6,1.2,1.2,2.3c0,0.6,0.3,1,0.9,0.9
	c1.4-0.1,1.6-1.9,3-2c2-0.4,2.7-2,3.5-3.7c1.7-2-1.7-3.9-0.8-5.7c0.7-1.2,2.3-2.8,1.2-4.1c-1.8-1.7-2.1,1.5-3,2.5
	c-1.5,1.8-4.4,1.2-5.8,3.4c-0.4,0.4-0.6,0.9-0.5,1.4C35.7,257.5,33.9,259.3,35.6,260.7L35.6,260.7z M39.4,254.8
	c0.8-0.9,3.5,0.2,2.2,1.2c-0.6,0.2-1,0.5-1.3,1C39.7,258.1,38.4,255,39.4,254.8z M89,272.2c0-1.1-0.8-2.3-1.9-2.6
	c-1-0.3-1.8,0.5-0.8,1.3c1.5,3.2,0.9,7.6-0.1,11c-0.2,0.5-0.1,1,0.3,1.3c0.5,0.3,0.7,0.7,0.7,1.2c2.1,3.4,4.8-6.7,4.8-8.3
	c0.2-1-0.2-2.9-1.5-2.7c-1.1,1,0.1,3.6-1.3,4.4C88.6,276.3,89.3,273.9,89,272.2L89,272.2z M21.5,282.9c-1.6-0.5-21.2,7.9-13.5,7.9
	c3.3-1.1,5.8-4.1,9.3-4.5c1.8,0,3.3-1.1,5-1.4C23.6,284.3,22.7,282.5,21.5,282.9z M177.5,365.1c0.2-1.9-2.1-1.9-3.1-2.9
	c-1-0.7-1.6,0.7-0.8,1.4c0.4,0.5,0.9,0.7,1.5,0.8c0.9,0.1,2,1.1,1.8,2c-0.2,2-3.1,2.1-3.2,3.7c0.9,1.1,4.2-1.5,4.3-2.6
	C178.3,366.5,177.3,365.9,177.5,365.1L177.5,365.1z M89.7,285c-0.2,1.1-1.5,2.8,0,3.4c1.6,0.2,2.2-2.1,2.4-3.4
	C92.1,283.4,90,283.5,89.7,285L89.7,285z M30.3,260.4c0.6,0.9,0,2.1,1.6,2c0.7,0.1,1.9-0.4,1.4-1.3c-0.5-0.5-0.9-1-1.1-1.7
	C31.7,258.2,29.3,259.2,30.3,260.4L30.3,260.4z M60.2,284.2c-1.2,0.6-3.1-1.5-3.2,0.9c0.1,1.1,2.1,2.5,2.9,1.1
	C60.2,285.5,62,284.1,60.2,284.2z M64.1,261.9c-1.1-0.2-3.8-0.6-4.5,0.4C59.4,264.2,66.4,264,64.1,261.9z M59.9,268.3
	c1,0.4,2.1-0.1,3.1,0.4c0.8,0.5,2.8-0.9,1.4-1.5C63.4,267,58.2,266.3,59.9,268.3L59.9,268.3z M41.3,240.6c1.2,0.6,2.8-1.1,1.5-1.9
	c-0.8-0.3-0.5-2.5-1.4-1.5C41.2,238.4,39.4,240,41.3,240.6z M36.6,239.7c0.7-1,1.1-2.6,0.7-3.8c-0.5-0.6-1.4-0.4-1.6,0.4
	C35.5,237.2,35.1,240.6,36.6,239.7z M40.4,235.6c-0.4-1.7-2-0.4-1.9,0.8c0,0.8-0.5,1.7,0,2.5c0.1,0.5,0.8,0.6,1,0.1
	C40,237.9,40.3,236.7,40.4,235.6z M59.1,270.1c0.6,0.9,2.4,0.7,3.4,1.1c1.2,0.2,1.7-1.4,0.4-1.8c-0.5-0.1-1.1,0-1.6-0.1v0
	C60.5,269.3,59.2,269,59.1,270.1L59.1,270.1z M63.4,264.5c-5.7,0.4-2.2,1.6,1,1.6C66.4,266,64.8,263.9,63.4,264.5z M34.6,238.2
	c0-0.5-0.2-0.7-0.6-0.7c-1.4,0-1,2.4-0.6,3.3c0.3,0.8,1.4,0.6,1.6-0.1C35,239.8,34.6,239,34.6,238.2L34.6,238.2z M32.1,239.9
	c-0.6-1.5-2.3,0.3-1.4,1.3C32.2,243,33,241.5,32.1,239.9z M47.3,261.5c0.6,0,0.9-0.2,1.2-1c0.4-0.8-0.6-1.5-1.2-1.1
	C46.3,259.8,46.1,261.5,47.3,261.5L47.3,261.5z M45.1,265.4c0.1-1-1.7-1.5-2.1-0.6C42.5,266,45.2,266.8,45.1,265.4z M44.9,263.7
	c0.2,1.4,2.2,0.1,2-0.8C46.6,261.6,44.7,262.8,44.9,263.7z M30.6,257.7c0.9,0.6,2.7-0.7,1.4-1.4C31.2,255.9,29.5,256.9,30.6,257.7z
	 M42.3,266.3c-1.3,0.1-0.7,1.8,0.3,1.8C43.9,268.1,43.4,266.3,42.3,266.3z M32.6,251.4c0,0.7,0.6,1.1,1,1.5
	C35.9,253.5,32.6,249,32.6,251.4z M31.6,254.6c-0.1,1.1,1.8,1.3,1.9,0.1C33.6,253.6,31.6,253.6,31.6,254.6z M207.4,305.3
	c-5.1,0.6-10,1.2-14.9,1.8c0,0.1,0.1,0.2,0.1,0.3C194.7,307.7,205.5,306.2,207.4,305.3L207.4,305.3z"/>
</svg>
