<svg xmlns="http://www.w3.org/2000/svg" viewBox="0 0 792 340.86">
    <path d="M486.49 193.02c-5.08 0-7.62 1.3-7.62 3.9v45.26c0 2.6 2.54 3.9 7.62 3.9v4.82h-27.75v-4.82c5.02 0 7.53-1.3 7.53-3.89v-44.34l-18.53 53.05h-11l-18.53-53.05v44.34c0 2.59 2.51 3.89 7.53 3.89v4.82h-22.08v-4.82c5.02 0 7.53-1.3 7.53-3.9v-45.26c0-2.6-2.51-3.9-7.53-3.9v-4.99h25.21l16.75 49.41 16.75-49.41h24.12v4.99zm23.18 49.24c-.11 2.54 2.34 3.81 7.36 3.81v4.82H490.8v-4.82c4.85 0 7.28-1.27 7.28-3.81v-25.72c0-2.59-2.43-3.89-7.28-3.89v-4.82h18.87v34.44zm1.02-48.65c0 1.98-.69 3.68-2.07 5.12s-3.09 2.16-5.12 2.16c-1.02 0-1.96-.2-2.83-.59-.88-.39-1.64-.92-2.28-1.57a7.786 7.786 0 0 1-1.57-2.28c-.4-.87-.59-1.82-.59-2.83 0-2.03.72-3.74 2.16-5.12 1.44-1.38 3.14-2.07 5.12-2.07s3.67.71 5.08 2.12c1.41 1.41 2.12 3.1 2.12 5.08zm28.61 22.25c1.64-3.22 3.62-5.56 5.97-7.02 2.34-1.47 4.87-2.2 7.57-2.2 1.24 0 2.52.2 3.85.6 1.32.4 2.52 1.03 3.6 1.89 1.07.86 1.95 1.96 2.62 3.29.68 1.33 1.02 2.9 1.02 4.71 0 2.14-.58 3.91-1.73 5.29-1.16 1.38-2.72 2.07-4.7 2.07s-3.47-.52-4.48-1.57c-1.02-1.04-1.52-2.3-1.52-3.77s.47-2.59 1.4-3.55c.93-.96 2.35-1.47 4.27-1.52-.45-.85-1.18-1.49-2.2-1.95a7.884 7.884 0 0 0-3.22-.68c-1.02 0-2.1.25-3.26.76-1.16.51-2.28 1.27-3.38 2.28-1.1 1.02-2.16 2.33-3.17 3.93-1.02 1.61-1.89 3.51-2.62 5.71v18.11c0 1.3.71 2.26 2.12 2.88 1.41.62 3.47.93 6.18.93v4.82h-27.16v-4.82c4.85 0 7.28-1.27 7.28-3.81v-25.81c0-2.54-2.43-3.81-7.28-3.81v-4.82h18.87v8.04zm45.37-8.04h11.25l-.42 6.09c-1.58-.34-3.26-.58-5.03-.72a74.21 74.21 0 0 0-5.8-.21v29.53c0 2.54 1.24 3.81 3.72 3.81 1.3 0 2.19-.35 2.67-1.06.48-.71.72-1.62.72-2.75v-4.91h4.15v3.72c0 1.52-.16 2.91-.47 4.15-.31 1.24-.88 2.3-1.69 3.17-.82.88-1.9 1.57-3.26 2.07-1.35.51-3.08.76-5.16.76-4.4 0-7.54-.99-9.43-2.96-1.89-1.97-2.83-4.74-2.83-8.29v-27.25h-7.36v-4.06c1.58-.11 3.06-.34 4.44-.68 1.38-.34 2.59-.93 3.64-1.78 1.04-.85 1.86-2.03 2.45-3.55.59-1.52.89-3.5.89-5.92v-1.86l7.53-.59v13.28zm32.66 8.63c2.14-2.76 4.75-5.03 7.83-6.81 3.07-1.78 6.67-2.67 10.79-2.67s7.45.99 9.65 2.96 3.3 5.19 3.3 9.65v22.68c0 2.54 2.45 3.81 7.36 3.81v4.82h-24.62v-4.82c3.78 0 5.67-1.27 5.67-3.81v-18.95c0-3.55-.48-6.09-1.44-7.62-.96-1.52-2.4-2.28-4.31-2.28-1.47 0-2.89.28-4.27.85-1.38.57-2.71 1.35-3.98 2.37a18.678 18.678 0 0 0-3.43 3.6 22.682 22.682 0 0 0-2.54 4.44v17.6c0 2.54 1.89 3.81 5.67 3.81v4.82h-24.54v-4.82c4.85 0 7.28-1.27 7.28-3.81v-47.89c0-2.54-2.4-3.81-7.19-3.81v-4.82h18.78v30.71zM437.2 267c3.62 0 6.92.27 9.92.8s5.55 1.5 7.67 2.88 3.76 3.26 4.92 5.63 1.74 5.39 1.74 9.05-.58 6.83-1.74 9.31c-1.16 2.48-2.8 4.47-4.92 5.97s-4.68 2.55-7.67 3.17c-3 .62-6.3.93-9.92.93h-13.06v16.4c0 2.61 3.13 3.91 9.39 3.91v4.82h-29.87v-4.82c5.02 0 7.53-1.3 7.53-3.9v-45.26c0-2.6-2.51-3.9-7.53-3.9V267h33.55zm-13.07 7.11v23.69h11.59c4.57 0 7.84-1.05 9.81-3.14 1.97-2.09 2.96-5.18 2.96-9.26 0-3.57-.99-6.34-2.96-8.32-1.97-1.98-5.25-2.97-9.81-2.97h-11.59zm48.75 33.59c.11 5.81 1.18 10.28 3.21 13.41 2.03 3.13 5.11 4.7 9.22 4.7 3.21 0 6.06-.79 8.55-2.37 2.48-1.58 4.2-4.15 5.16-7.7l5.25 1.02c-.51 1.86-1.26 3.67-2.24 5.42-.99 1.75-2.27 3.3-3.85 4.65-1.58 1.35-3.48 2.44-5.71 3.26-2.23.82-4.84 1.23-7.83 1.23s-5.78-.35-8.55-1.06c-2.76-.71-5.23-1.94-7.4-3.69s-3.92-4.11-5.25-7.08c-1.33-2.97-1.99-6.71-1.99-11.23 0-3.45.52-6.6 1.57-9.45 1.04-2.85 2.55-5.3 4.53-7.33 1.97-2.03 4.39-3.62 7.23-4.75 2.85-1.13 6.11-1.7 9.77-1.7 14.21 0 21.32 7.56 21.32 22.68h-33zm22.51-4.4c0-1.87-.23-3.62-.68-5.24-.45-1.62-1.13-3.04-2.03-4.26a9.969 9.969 0 0 0-3.34-2.89c-1.33-.71-2.86-1.06-4.61-1.06-3.05 0-5.64 1.05-7.78 3.15-2.14 2.1-3.44 5.54-3.89 10.3h22.34zm62.51 17.93c0 2.54 2.48 3.81 7.45 3.81v4.82h-15.99l-.68-7.02c-1.35 2.88-3.5 5.01-6.43 6.39-2.93 1.38-6.38 2.07-10.32 2.07-2.76 0-5.39-.42-7.87-1.27-2.48-.85-4.67-2.2-6.56-4.06-1.89-1.86-3.38-4.24-4.48-7.15-1.1-2.91-1.65-6.42-1.65-10.54s.62-7.81 1.86-10.75c1.24-2.93 2.88-5.33 4.91-7.19 2.03-1.86 4.37-3.2 7.02-4.02 2.65-.82 5.42-1.23 8.29-1.23 2.71 0 5.2.37 7.49 1.1 2.28.73 4.07 1.75 5.37 3.05v-15.91c0-2.54-2.45-3.81-7.36-3.81v-4.82h18.95v56.52zm-22.51-30.63c-2.2 0-4.09.42-5.67 1.27a10.41 10.41 0 0 0-3.85 3.55c-.99 1.52-1.72 3.34-2.2 5.46-.48 2.12-.72 4.44-.72 6.98s.24 4.85.72 6.94c.48 2.09 1.21 3.89 2.2 5.42.99 1.52 2.27 2.71 3.85 3.55 1.58.85 3.47 1.27 5.67 1.27s4.06-.42 5.58-1.27a9.939 9.939 0 0 0 3.68-3.55c.93-1.52 1.61-3.33 2.03-5.42.42-2.09.63-4.4.63-6.94s-.21-4.87-.63-6.98c-.42-2.12-1.1-3.93-2.03-5.46-.93-1.52-2.16-2.71-3.68-3.55-1.52-.85-3.38-1.27-5.58-1.27zm77.2 30.63c0 2.54 2.48 3.81 7.45 3.81v4.82h-15.99l-.68-7.02c-1.35 2.88-3.5 5.01-6.43 6.39-2.93 1.38-6.38 2.07-10.32 2.07-2.76 0-5.39-.42-7.87-1.27-2.48-.85-4.67-2.2-6.56-4.06-1.89-1.86-3.38-4.24-4.48-7.15-1.1-2.91-1.65-6.42-1.65-10.54s.62-7.81 1.86-10.75c1.24-2.93 2.88-5.33 4.91-7.19 2.03-1.86 4.37-3.2 7.02-4.02 2.65-.82 5.42-1.23 8.29-1.23 2.71 0 5.2.37 7.49 1.1 2.28.73 4.07 1.75 5.37 3.05v-15.91c0-2.54-2.45-3.81-7.36-3.81v-4.82h18.95v56.52zm-22.51-30.63c-2.2 0-4.09.42-5.67 1.27a10.41 10.41 0 0 0-3.85 3.55c-.99 1.52-1.72 3.34-2.2 5.46-.48 2.12-.72 4.44-.72 6.98s.24 4.85.72 6.94c.48 2.09 1.21 3.89 2.2 5.42.99 1.52 2.27 2.71 3.85 3.55 1.58.85 3.47 1.27 5.67 1.27s4.06-.42 5.58-1.27a9.939 9.939 0 0 0 3.68-3.55c.93-1.52 1.61-3.33 2.03-5.42.42-2.09.63-4.4.63-6.94s-.21-4.87-.63-6.98c-.42-2.12-1.1-3.93-2.03-5.46-.93-1.52-2.16-2.71-3.68-3.55-1.52-.85-3.38-1.27-5.58-1.27zm51.54 30.63c0 2.54 2.45 3.81 7.36 3.81v4.82h-26.23v-4.82c4.85 0 7.28-1.27 7.28-3.81v-47.89c0-2.54-2.43-3.81-7.28-3.81v-4.82h18.87v56.52zm20.83-13.53c.11 5.81 1.18 10.28 3.21 13.41 2.03 3.13 5.11 4.7 9.22 4.7 3.21 0 6.06-.79 8.55-2.37 2.48-1.58 4.2-4.15 5.16-7.7l5.25 1.02c-.51 1.86-1.26 3.67-2.24 5.42-.99 1.75-2.27 3.3-3.85 4.65-1.58 1.35-3.48 2.44-5.71 3.26-2.23.82-4.84 1.23-7.83 1.23s-5.78-.35-8.55-1.06c-2.76-.71-5.23-1.94-7.4-3.69s-3.92-4.11-5.25-7.08c-1.33-2.97-1.99-6.71-1.99-11.23 0-3.45.52-6.6 1.57-9.45 1.04-2.85 2.55-5.3 4.53-7.33 1.97-2.03 4.39-3.62 7.23-4.75 2.85-1.13 6.11-1.7 9.77-1.7 14.21 0 21.32 7.56 21.32 22.68h-33zm22.51-4.4c0-1.87-.23-3.62-.68-5.24-.45-1.62-1.13-3.04-2.03-4.26a9.969 9.969 0 0 0-3.34-2.89c-1.33-.71-2.86-1.06-4.61-1.06-3.05 0-5.64 1.05-7.78 3.15-2.14 2.1-3.44 5.54-3.89 10.3h22.34zm31.15-8.46c1.64-3.22 3.62-5.56 5.97-7.02 2.34-1.47 4.87-2.2 7.57-2.2 1.24 0 2.52.2 3.85.6 1.32.4 2.52 1.03 3.6 1.89 1.07.86 1.95 1.96 2.62 3.29.68 1.33 1.02 2.9 1.02 4.71 0 2.14-.58 3.91-1.73 5.29-1.16 1.38-2.72 2.07-4.7 2.07s-3.47-.52-4.48-1.57c-1.02-1.04-1.52-2.3-1.52-3.77s.47-2.59 1.4-3.55c.93-.96 2.35-1.47 4.27-1.52-.45-.85-1.18-1.49-2.2-1.95a7.884 7.884 0 0 0-3.22-.68c-1.02 0-2.1.25-3.26.76-1.16.51-2.28 1.27-3.38 2.28-1.1 1.02-2.16 2.33-3.17 3.93-1.02 1.61-1.89 3.51-2.62 5.71v18.11c0 1.3.71 2.26 2.12 2.88 1.41.62 3.47.93 6.18.93v4.82h-27.16v-4.82c4.85 0 7.28-1.27 7.28-3.81v-25.81c0-2.54-2.43-3.81-7.28-3.81v-4.82h18.87v8.04zm65.5 7.44-4.99.59c-.62-3.95-2.27-6.88-4.95-8.8-2.68-1.92-6.05-2.88-10.11-2.88-2.37 0-4.29.47-5.75 1.4-1.47.93-2.2 2.19-2.2 3.76 0 1.81.75 3.15 2.24 4.02 1.49.88 3.36 1.59 5.58 2.16 2.23.57 4.64 1.09 7.23 1.57 2.59.48 5 1.2 7.23 2.16 2.23.96 4.09 2.3 5.58 4.02 1.49 1.72 2.24 4.08 2.24 7.06 0 2.14-.4 4.03-1.18 5.67-.79 1.64-1.9 3-3.34 4.1s-3.15 1.92-5.12 2.45c-1.98.54-4.15.8-6.52.8-3.38 0-6.18-.28-8.38-.85-2.2-.56-4.06-1.38-5.58-2.45-.4-.22-.8-.45-1.23-.68-.42-.23-.83-.34-1.23-.34-.11 0-.42.33-.93.97-.51.65-.88 1.59-1.1 2.83h-4.91v-16.25l4.91-.51c.28 1.92.94 3.64 1.99 5.16 1.04 1.52 2.34 2.81 3.89 3.85 1.55 1.04 3.3 1.85 5.25 2.41 1.95.56 3.93.85 5.96.85 2.71 0 4.75-.55 6.13-1.65 1.38-1.1 2.07-2.46 2.07-4.1 0-1.74-.75-3.05-2.24-3.92-1.5-.87-3.36-1.59-5.58-2.15-2.23-.56-4.64-1.1-7.23-1.6-2.6-.51-5.01-1.25-7.23-2.24-2.23-.98-4.09-2.35-5.58-4.1-1.5-1.75-2.24-4.14-2.24-7.18 0-3.88 1.35-6.92 4.06-9.12 2.71-2.19 6.54-3.29 11.51-3.29 2.59 0 4.99.35 7.19 1.06 2.2.71 3.98 1.45 5.33 2.24.45.28.87.52 1.27.72.39.2.79.3 1.18.3.17 0 .48-.31.93-.93.45-.62.82-1.49 1.1-2.62h4.74v15.49z" />
    <path d="M350.61 239.03c1.3-.15 2.59-.34 3.88-.57-.04-.18-.09-.35-.13-.53-1.31.23-2.62.39-3.94.43-.16.26-.43.48-.83.65.4-.13.76-.17 1.02.02zm-81.89-37.75c-13.62 1.71-27.49 2.46-41.01 4.31.03.18.07.35.1.53 3.41.47 6.81-1.37 10.14-.85 2.38 1.02 4.88.05 7.32-.12 8.27-1.26 16.66-1.94 24.86-3.57-.5-.27-.96-.35-1.41-.3zm31.74-14.85c11.37-1.23 22.75-2.28 34.15-3.16.01-.1.03-.21.04-.31-12.28.1-24.4 2.12-36.63 3.13.81.23 1.64.42 2.44.34zm-62.06 13.95c9.91-2.13 20.1-2.15 30.08-3.53-10.51.51-21.23.79-31.45 3.08.03.16.07.32.1.48.42 0 .86.04 1.27-.02zm-14.87 10.46c-.37.03-.72.32-1.08.48.05.17.09.35.14.52l20.46-2.04c0-.07.02-.13.02-.2-6.51.24-13.03.84-19.54 1.23zm13.52-7.62c4.95-.7 9.96-1.07 14.86-2.02-.03-.16-.05-.32-.08-.49l-19.52 2.1-.06.42c1.54.58 3.2.09 4.8-.01zm129.13-10.35c-6.8.14-13.6.21-20.2 2.16l20.2-2.16zM260 190.6v.44c7.3.18 14.59-1.66 21.92-1.62l-.03-.6c-7.29.59-14.59 1.19-21.88 1.78zm48.62-9.65c-5.47.09-10.92.47-16.35 1.11.01.18.03.36.04.54 5.45-.43 10.89-.85 16.34-1.28 0-.12-.02-.24-.03-.36zm-30.23 5.82c-.02-.14-.03-.29-.05-.43-5 .44-10.02.71-14.99 1.38.03.23.06.46.08.69 4.98-.55 9.97-1.09 14.95-1.64zm-21.2 8.53c0-.21-.02-.41-.03-.62-4.02.34-8.05.69-12.07 1.03.02.21.03.41.05.62 4.02-.35 8.03-.69 12.05-1.04zm39.41-10.9c3.79-.3 7.57-.61 11.36-.91-.01-.19-.03-.38-.04-.57l-11.38.87.06.61zm-22.63 9.42-.03-.4c-4.24.32-8.49.65-12.73.97.01.17.03.34.04.51 4.24-.36 8.48-.72 12.72-1.09zm18.7-4.39c.01.16.03.33.04.49 2.47.29 4.85-.59 7.29-.7-.01-.15-.03-.3-.04-.46l-7.29.66zm12.04-.61c3.02-.28 6.04-.56 9.06-.83v-.45l-9.11.81c.01.16.03.32.04.47zm17.93-6.21c-.01-.14-.02-.28-.04-.42-2.94.16-5.88.33-8.82.49 0 .16.02.33.03.49 2.94-.19 5.89-.37 8.83-.56zm-51.71 13.56c.02.12.03.24.05.35 2.31-.31 4.62-.61 6.93-.92-.02-.13-.04-.26-.05-.39l-6.92.96zm92.03-6.75v-.4c-1.78.12-3.55.23-5.33.35.01.18.03.35.04.53 1.76-.16 3.53-.32 5.29-.47zm-109.93 11.6 6.45-.47-.03-.37-6.45.57c0 .09.02.18.03.27zm108.99-9.66c-.01-.11-.03-.23-.04-.34l-4.36.42c.02.15.04.3.05.45 1.45-.18 2.9-.35 4.35-.53zm-53.36-7.96c1.32-.39 2.76.4 4.01-.73-1.35.11-2.7.21-4.04.32.01.14.03.28.04.42zm-23.98 5.43c-.01.09-.03.19-.04.28l4.81-.09v-.32l-4.76.12zm-5.32-2.67.03.39c.97-.08 1.94-.16 2.91-.23v-.38c-.98.07-1.96.15-2.94.22zm-44.09 54.92c-2.75.58-6.15-.06-8.52 1.38 6.63.31 13.61-1.66 20.37-1.99l.02-.27c-3.97-.1-7.92.58-11.87.88zm12.96-11.47-23.69 2.79c1.15.79 21.74-1.73 23.69-2.79zm-18.18 8.61c.05.17.11.34.16.51l15.19-1.93-.03-.44c-5.06.38-10.46.55-15.32 1.86zm2.83-3.68c1.06-.13 2.12-.21 3.18-.31-4.82-.25-10.89.57-12.89 1.63 1.22.69 2.2-.1 3.2-.25 2.17-.37 4.33-.8 6.51-1.06zm105.01-17.27c-.02-.11-.03-.21-.05-.32l-4.52.57c0 .14.02.28.03.42 1.51-.22 3.03-.45 4.54-.67zm-34.21 6.31c-.01-.1-.03-.2-.04-.3l-4.59.66c.02.12.04.25.05.37 1.53-.25 3.05-.49 4.58-.74zm-2.09 3.45-.09-.31c-1.45.2-2.9.39-4.35.59.01.11.03.21.04.32l4.4-.6zm37.79-9.71c1.37-.22 2.67-.42 3.98-.62-2.63-.29-3.34-.15-3.98.62zm-38.79 12.9c-.01-.09-.02-.18-.04-.28-1.41.15-2.81.31-4.22.46.01.11.03.23.04.34 1.4-.18 2.8-.35 4.21-.53zm-4.23-15.47c-3.63.37-4.11.58-4.83 2.06 1.9.32 3.31-.27 4.83-2.06zm38.42-4.79-.06-.41c-1.99.18-3.98.35-6.26.56 1.26.95 5.47.69 6.32-.14zm-108.6 6.53-6.1.75.09.63c2.05-.15 4.07-.46 6.07-.97l-.06-.41zm144.04-11.59-.06-.42c-2.22.31-4.45.63-6.67.94l.06.41 6.67-.93zm-142.59 20.72c.02.11.03.22.05.33 2.01-.26 4.03-.52 6.04-.79-.02-.17-.05-.34-.07-.51l-6.02.96zm143.52-20.74 6.29-.7c-.01-.12-.03-.25-.04-.37-2.11.24-4.23.47-6.34.71.03.12.07.24.1.36zm-38.77 6.81c1.47-.22 2.93-.43 4.4-.65-.01-.12-.03-.24-.04-.36l-4.42.51.06.49zM221.11 225.2c1.32-.18 2.71.04 3.87-1-1.3.23-2.6.46-3.91.69.01.11.03.21.04.32zm112.57-17.75c-.02-.15-.04-.3-.07-.45l-2.99.42c.01.14.03.29.04.43 1-.13 2.01-.27 3.01-.4zm-110.44 12.3-2.58.27c.02.17.05.34.07.51.85-.15 1.71-.29 2.56-.44-.01-.11-.03-.23-.04-.34zm67.25-2.59c-.03-.12-.05-.25-.08-.37l-2.79.54c.03.12.05.25.08.37l2.79-.54zm75.55-10.5c0 .16 0 .32-.01.48.87-.08 1.75-.15 2.62-.23 0-.12-.02-.23-.02-.35-.86.03-1.72.06-2.58.1zm6.93-4.73c-.02-.11-.05-.22-.07-.33-1.24.1-2.49.19-3.73.29 0 .11.02.23.03.34 1.26-.1 2.52-.2 3.78-.29zm-99.53 52.36c.05.11.09.22.14.32 4.78-.95 9.8-1.06 14.39-2.7-.04-.1-.08-.2-.11-.3-4.67.8-10.07.92-14.41 2.68zm14.26-.04c-4.95.64-9.63 1.24-14.32 1.84 1.57.94 13.15-.64 14.32-1.84zm-47.93-2.07c0-.11-.02-.21-.03-.32-3.28.34-6.55.69-9.83 1.03l.06.5c3.33.14 6.59-.27 9.8-1.21zm.53 4.32c-3 .21-5.82.4-8.65.6 0 .15.02.29.03.44 1.08.61 7.42-.08 8.62-1.04zm-4.36-6.25c-2.58.12-5.05.23-7.52.34 0 .13-.01.26-.02.38 1.29.71 6.37.28 7.53-.72zm-66.42-34.1c-5.59-1.96-11.01-4.84-16.7-6.27-.02.1-.03.2-.05.3 5.55 2.08 11.09 4.17 16.64 6.25.04-.09.07-.18.11-.28zm34.35 11.84c-4.4-1.96-8.95-3.51-13.55-4.92-.05.14-.1.28-.15.43l13.56 4.77c.05-.09.1-.18.15-.28zm-38.43-4.31c4.69 1.64 9.39 3.27 14.08 4.91.05-.15.11-.31.16-.46-4.7-1.63-9.39-3.26-14.09-4.89-.05.15-.1.29-.15.44zm36.09 2c-3.72-1.24-6.97-3.59-10.87-4.39l-.12.43c3.62 1.42 7.25 2.85 10.87 4.27.04-.1.09-.21.13-.31zm-34.71-7.4-10.29-3.43c-.04.12-.08.25-.12.37 3.49.96 6.74 2.67 10.29 3.45.04-.13.08-.26.13-.39zm26.54 11.43c3.23 1.15 6.46 2.29 9.69 3.44.07-.17.13-.33.2-.5-3.25-1.11-6.5-2.23-9.75-3.34l-.14.4zm-.61 3.9 9.78 3.46c.04-.11.07-.21.11-.32-3.26-1.18-6.52-2.36-9.78-3.53-.04.13-.08.26-.11.39zm-35.1-13.03c2.15.86 4.29 1.71 6.44 2.57.07-.17.14-.34.2-.51-2.17-.81-4.34-1.61-6.51-2.42-.05.12-.09.24-.14.36zm35.59 6.74 6.63 2.22c.05-.16.11-.32.16-.48-2.24-.71-4.48-1.42-6.71-2.13-.02.13-.05.27-.07.4zm-4.67-1.27c-2.27-.68-4.54-1.37-6.81-2.05-.05.16-.11.32-.16.48l6.85 1.98.12-.4zm3.82 5.88 7.29 2.28c.03-.11.07-.21.1-.32-2.42-.81-4.83-1.61-7.25-2.42-.05.15-.1.3-.15.46zm8.49-2.08c1.24.46 2.47.91 3.71 1.37.05-.14.11-.29.16-.43-1.24-.44-2.48-.89-3.72-1.33l-.15.39zm-34.98-8.42c1.44.52 2.88 1.04 4.31 1.56l.12-.33c-1.44-.52-2.88-1.04-4.31-1.56-.04.11-.08.22-.11.32zm34.58 13.13c1.21.48 2.43.95 3.64 1.43.04-.09.08-.19.11-.28-1.2-.5-2.41-1-3.61-1.51l-.15.36zm-37.17-13.98.12-.39c-1-.29-2-.57-3-.86-.03.11-.06.21-.1.32l2.98.93zm25.91.06c-.78-.29-1.55-.58-2.33-.87-.04.11-.08.23-.13.34.79.3 1.57.6 2.36.91.03-.13.07-.25.1-.38zm-.75-21.96c-5.57-2.41-11.32-4.33-17.12-6.12l-.12.33c5.71 2.02 11.42 4.04 17.14 6.06.03-.09.06-.18.1-.27zm-30.54-8.33c-2.77-2.74-6.68-2.93-10.26-4.08-.01.06-.03.12-.04.18 3.41 1.37 6.82 2.75 10.22 4.12.03-.07.05-.15.08-.22zm-5.95-5.38c3.25 1.25 6.51 2.5 9.76 3.75.06-.15.11-.29.17-.44l-9.72-3.74c-.07.14-.14.29-.21.43zm26.39 6.45c-1.58-.52-3.15-1.05-4.73-1.57-.04.11-.08.23-.12.34 1.57.55 3.14 1.1 4.71 1.64.05-.14.09-.28.14-.41zm-23.83-9.1c-.9-.3-1.8-.6-2.7-.91-.05.14-.09.28-.14.43.9.29 1.81.58 2.71.87.04-.13.09-.26.13-.39zm53.55 61.55c-8.23-1.49-15.68-5.4-23.55-8.19-.07.21-.15.41-.22.62 7.89 2.6 15.09 7.25 23.64 7.92.04-.12.09-.23.13-.35zm-25.31-5.26c4.78 1.68 9.42 4.19 14.29 5.4.02-.11.04-.23.05-.34-4.73-1.84-9.47-3.68-14.2-5.52-.05.15-.1.31-.14.46zm4.8 4.81c-2.21-1.13-4.4-2.31-6.76-3.07-.08.19-.16.38-.24.56 2.29.95 4.57 1.9 6.86 2.85.05-.11.1-.23.15-.34zm-3.92-8.16c-1.28-.52-2.55-1.04-3.83-1.55-.06.15-.11.29-.17.44 1.29.48 2.58.95 3.88 1.43.04-.11.08-.21.12-.32zm3.09-22.38c-4.93-2.24-9.96-4.23-15.12-5.85-.05.12-.09.23-.14.35l15.1 5.93c.06-.14.11-.28.17-.42zm-30.22-15.74c-.03.1-.05.2-.08.3 2.38 1.57 12.61 5.65 14.08 5.4-4.87-1.98-9.43-3.84-14-5.7zm4.21 4.77c-3.28-1.34-6.56-2.67-9.85-4.01-.07.18-.14.35-.21.53 3.3 1.3 6.59 2.61 9.89 3.91.06-.15.12-.29.17-.44zm41.4 15.86c-3.48-1.24-6.97-2.48-10.45-3.72l-.18.54c3.51 1.16 7.01 2.32 10.52 3.49.04-.1.07-.21.11-.31zm-41.56-14.04c-3.1-1.1-6.05-2.14-9.01-3.19 2.18 1.6 7.65 3.44 9.01 3.19zm40.87 10.79c-3.1-1.06-6.2-2.12-9.3-3.19-.05.14-.09.27-.14.41l9.31 3.17c.04-.13.09-.26.13-.39zm-29.71-4.39c1.38.48 2.76.95 4.14 1.42.05-.16.09-.31.14-.47-2.78-.89-5.56-1.77-8.33-2.66 1.3.73 2.67 1.22 4.05 1.7zm-10.44-7.41c1.32.47 2.63.93 3.95 1.4.04-.13.09-.25.13-.38l-3.93-1.44c-.05.14-.1.29-.15.43zm15.59 1.98c-1.04-.33-2.07-.65-3.11-.98-.04.16-.09.32-.13.48 1.04.29 2.08.58 3.13.87.04-.13.07-.25.11-.38zm20.56 6.15c-.94-.32-1.88-.64-2.81-.96-.05.13-.09.26-.14.39.93.33 1.87.66 2.8.98.05-.14.1-.28.15-.41zm-3.26 6.14c1.34.43 2.67.86 4.01 1.3.03-.08.05-.16.08-.24-1.34-.42-2.68-.85-4.02-1.27-.02.07-.05.15-.07.22zm-13.69-10.73c-.95-.42-1.9-.83-2.84-1.25-.04.13-.09.26-.13.39.95.38 1.91.76 2.86 1.14.04-.1.08-.19.12-.29zm44.25 15.19c1.18 2.2 8.23.01 10.6-.13-.02-.14-.03-.28-.05-.41-3.47.18-6.93.36-10.54.54zm139.4 83.37c-7.42 11.52-18 19.73-29.75 26.49 13.37-4.46 24.14-14.9 30.69-27.24l-.18-.12c-.26.29-.53.56-.77.87zm-105.63-60.48c2.83-9.14 7.92-17.1 14.22-24.22-.03-.03-.07-.06-.1-.1-5.03 4.17-9.89 8.6-12.1 14.91-.62 3-4.28 7.31-2.3 10.04.1-.24.2-.43.28-.64zm118.71 5.35c1.84 12-.57 23.68-3.48 35.28 5.06-10.96 7.15-23.58 3.7-35.3-.07 0-.14.01-.22.02zm-71.99-52.79c9.45-2.26 18.95-.58 28.46.21-9.27-3.41-20.41-4.68-29.55-.35.02.07.03.14.05.21.35-.02.7-.02 1.04-.07zm-4.13 6.88c7.22-3.2 15.12-3.07 22.83-3.57v-.15c-10.33-1.3-21.07.31-29.88 6.13l.1.16c2.32-.85 4.68-1.61 6.96-2.57zm-25.04 119.24c-2.11-1.88-4.36-3.61-6.54-5.4l-.12.12c4.6 6.33 11.57 12.69 19.49 13.78-4.6-2.38-8.98-4.97-12.83-8.5zm88.68-23.39c-.06-.06-.12-.13-.17-.19-5.98 6.13-11.8 12.56-17.77 18.72 7.26-4.89 13.11-11.22 17.94-18.52zm-110.99-27.12c-1.32 9.24.87 18.25 3.52 27 .09-.02.17-.04.26-.07-1.77-8.9-3.04-17.91-3.78-26.93zm107.29-62.36c-.09.05-.17.11-.26.16 4.25 7.04 8.38 14.17 12.36 21.38-2.08-8.2-6.99-15.02-12.1-21.54zm-41.81 119.74c-6.06 1.81-12.26.76-18.45.78 0 .04-.01.09-.02.13 6.31 2.11 13.58 2.74 19.52-.78-.02-.06-.03-.13-.05-.19-.33.02-.68 0-1 .06zm51.72-94.86c-.57-4.22-2.33-8.11-5.27-11.22 1.58 4.42 3.73 8.64 4.66 13.28.1.37.18.74.67.75-.01-.94.07-1.89-.05-2.81zm-68.01 100.76c-2.08-.36-4.12-.98-6.18-1.42l-.12.3c4.23 3.14 9.84 3.1 14.82 2.37-2.81-.54-5.7-.74-8.52-1.26zm-45.04-47.23c.19-1.27-.64-14.94-1-15.35-1.23 5.24-.44 10.22 1 15.35zm26.22-74.84c-1.68.33-12.48 10.24-14.42 13.19 4.93-4.26 9.73-8.66 14.42-13.19zm-25.64 50.99c-1.15.44-2.24 1.01-3.34 1.64 1.66.03 3.79.95 4.77-.92-.32-.81-.63-1.03-1.43-.72zm83.37 56.59c-2.5.43-4.54 1.82-6.64 3.1 2.39-.66 4.73-1.43 6.64-3.1zm-80.24-79.88c.49 2.81 2.56-4.48 2.79-5.15-.07-.03-.14-.06-.21-.08-.96 1.69-1.92 3.4-2.59 5.24zm-5.2 8.9c.2-.44.36-.79.56-1.22-.86.18-.99.44-.56 1.22zm.28-4.12c-.06.36-.12.66-.18 1.02.74-.29.75-.39.18-1.02zm73.39 20.59c.7-3.67.52-8.89-2.87-11.02 2.62 6.3 2.12 11.99-1.82 17.75 2.77-1.52 4.07-3.87 4.68-6.74zm-11.68-20.96c2.01.18 4.01.69 6.03.69-8.48-4.93-17.33.27-22.9 7.06.05.05.11.1.16.16 5.09-3.49 9.94-9.03 16.71-7.91zm-6.47 43.64c6.71.13 14.55-2.33 17.55-8.74.13-.41.84-.74 1.28-1.03-.38-.13-.6-.21-.89-.31-4.12 6.3-11.14 8.05-17.93 10.07zm-14.2-22.5c.09-2.72.74-5.45.69-8.15-2.3 7.76-3.37 17.86 3.42 23.72l.12-.1c-3.46-4.59-4.73-9.84-4.23-15.46zm17.24 12.37c.39 0 .65-.24.89-.52-6.09-.4-8.04-3.72-10.56-8.8-.27 5.3 4.08 10.5 9.67 9.31zm17.19-25.51c1.8 2.72 2.1 6.07 3.2 9.09.22-5.37-1.41-10.5-6.29-13.39l-.14.14c.94 1.49 2.25 2.71 3.23 4.16zm-15.64 8.59c2.46 1 2.61 3.58 1.23 5.56.04.03.09.06.14.09 2.54-1.42 2.22-4.85-.37-6.08-.44-.21-1-.32-1.36.12.12.11.23.26.37.32zm15.33 14.11c-.49.83-1.38 1.57-1.4 2.56 1.37-.21 1.63-2.1 2.35-3.13-.06-.05-.11-.1-.17-.16-.26.24-.57.44-.78.72zm2.61-6.04c.5.39 1 .79 1.51 1.18 1.16-1.35-.59-1.16-1.45-1.32-.02.05-.03.09-.05.14zm-54.37 31.42c-.33.31-.28.46.34 1.1 2.15-2.42 4.29-4.82 6.43-7.23-.04-.03-.07-.06-.11-.09-2.22 2.08-4.44 4.15-6.66 6.23zm-.6 5.69c-1.07 1.18-2.66 2.09-3.31 3.55 1.88.15 3.38-2.83 4.58-4.14-.05-.05-.11-.1-.16-.14-.37.24-.79.44-1.11.74zm32.7 2.71c.06.04.13.08.19.12.77-1.06.3-2.72.54-4.02h-.12c-.21 1.3-.41 2.6-.62 3.9zm-.36 2.15c-.35.59.15 1.31.7.79.16-.55-.27-.63-.7-.79zm5.54-88.77c-.05 0-.1-.01-.16-.02-.08.48-.15.97-.23 1.45.07.01.14.02.21.04.06-.49.11-.98.17-1.46zm-30.18 40.46c-.15 0-.32.35-.48.54.88.55 2.07.15 3.08.26l.09-.15c-.7-.66-1.78-.52-2.69-.65zm-1.52-.04c-.45-.24-1.01 0-1.2.56.22.76 1.08.15 1.63.12-.14-.23-.23-.57-.44-.68zm-2.09.06c-.3.27-.57.59-.9.95 1.01.24 1.33.08 1.39-.59.09-.38-.24-.5-.5-.36zm84.8 3.5c.19-.03.35-.28.53-.43-1.23-.51-2.62.45-3.91.61.01.06.03.12.04.19 1.11-.12 2.23-.22 3.34-.37zm-21.13 32.03c-3.91-4.15-7.58-8.59-11.64-12.58 4.77 6.29 9.22 12.86 15.6 17.72.07-.04.13-.09.2-.13-1.02-1.91-2.79-3.34-4.16-5.01zm-174.81-37.49c7.43-1.75 15.18-1.34 22.64-2.61-8.3.5-16.61.66-24.75 2.51.7.14 1.42.2 2.1.1zm-85.02 2.95c7.37-2.01 15.12-1.88 22.54-3.41-8.28.79-16.57 1.25-24.64 3.39.71.12 1.42.15 2.1.02zm97.44-2.68-23.69 2.79c1.15.79 21.74-1.73 23.69-2.79zm-76.02 12c-4.54.73-9.43.5-13.78 1.86.05.17.11.34.16.51 5.06-.64 10.13-1.29 15.19-1.93l-.03-.44c-.51 0-1.03-.05-1.54 0zm-7.76-2.14c-4.82-.25-10.89.57-12.89 1.63 1.22.69 2.2-.1 3.2-.25 3.21-.58 6.43-1.14 9.69-1.37zm70.79-12.44.03-.32c-12.27.49-24.32 2.91-36.51 4.31 12.1-.1 24.31-3.16 36.48-3.99zm12.26-2.33-.06.42c6.45.51 13.21-1.25 19.66-2.03-.03-.16-.05-.32-.08-.49l-19.52 2.1zm-40.58.26c6.72-.74 13.4-2.02 20.15-2.37-.02-.2-.03-.4-.05-.59-7.27.81-14.54 1.63-21.82 2.44v.44c.57.03 1.15.15 1.71.08zm72.85-1.48c.01.16.03.33.04.49 2.47.29 4.85-.59 7.29-.7-.01-.15-.03-.3-.04-.46l-7.29.66zm-60.97 11.77c.01.16.03.33.04.49 2.47.29 4.85-.59 7.29-.7-.01-.15-.03-.3-.04-.46l-7.29.66zm56.79-9.03c.02.16.04.32.07.48l8.76-1.23c-.02-.14-.05-.28-.07-.41-2.92.38-5.84.77-8.76 1.15zm-7.39-3.58c0 .09.02.18.03.27 2.15-.16 4.3-.31 6.45-.47l-.03-.37-6.45.57zm-62.88 12.41c-.01.09-.03.19-.04.28l4.81-.09v-.32l-4.76.12zm1.75-2.78c1.18 2.2 8.23.01 10.6-.13-.02-.14-.03-.28-.05-.41-3.47.18-6.93.36-10.54.54zm-28.82-22.57c1.08.99 1.15 2.03 1.15 2.03 1.25-2.26-1.37-4.18-3.34-2.91 0 0 1.32.08 2.19.88zm10.69 26.37c1.08.99 1.04 1.96 1.04 1.96 1.25-2.26-1.37-4.18-3.34-2.91 0 0 1.43.16 2.3.95zM276.76 71.55c-.54.29-1.08.59-1.6.87 9.63 1.66 6.33 1.52 9.4-6.93 3.12-10.36 4.17-21.2 3.58-31.98q-.09-2.51-2.59-2.49c-.85 0-.91.08-.76.99.55-.06 1.11-.13 1.66-.19.03.1.05.19.08.29-1.89.81-5.5 1.83-6.21 3.5 1.4-.56 2.68-1.07 4.08-1.64-.17 1.14-.31 2.11-.47 3.18.99-.39 1.86-.74 2.74-1.08.04.08.08.16.12.25-2.99 1.85-6.15 3.41-8.85 5.69.07.1.14.2.2.29 1.76-.95 3.52-1.91 5.41-2.93-.04.64-.06 1.15-.1 1.7 1.08-.32 2.1-.63 3.12-.93.05.11.09.22.14.33-2.83 1.39-7.67 3.54-9.31 5.85 1.84-.94 3.63-1.85 5.65-2.87-.14.94-.25 1.66-.36 2.43 1.32-.48 2.49-.91 3.65-1.34l.12.26c-2.77 1.61-8.5 4.33-9.78 6.57 1.83-.99 3.59-1.95 5.47-2.97-.07.78-.12 1.4-.19 2.12 1.31-.48 2.27-.84 3.49-1.3l.09.24c-3.27 2.09-6.99 3.59-9.24 7.04 1.7-1.15 3.4-2.29 5.27-3.55-.17 1.17-.32 2.13-.47 3.2 1.48-.68 2.86-1.31 4.24-1.95.05.09.1.18.14.27-3.25 2.22-7.09 3.67-9.52 7.01 1.51-.93 3.01-1.86 4.76-2.95-.16 1.07-.27 1.85-.4 2.73 1.46-.62 2.77-1.17 4.08-1.73l.12.27c-2.98 1.98-6.49 3.24-8.67 6.35 1.31-.79 2.61-1.57 4.04-2.43-.05.67-.08 1.14-.12 1.63 1.31-.52 2.49-.99 3.68-1.46.04.09.09.18.13.26-2.6 1.76-5.8 2.65-7.74 5.38 1.11-.57 2.21-1.14 3.41-1.76 0 .53-.02.94-.02 1.38 1.11-.35 2.13-.66 3.15-.98.04.1.09.21.13.31-1.92 1.01-3.83 2.05-5.74 3.08zm.32.39c.52-.18 1.05-.35 1.62-.55-.12.79-.17.81-1.62.55zm5.09 20.01c4.82-1.31 9.96-1.1 14.65.73 1.15.2 1.26-1.29 1.84-2.08-6.77-3.91-14-6.03-21.67-7.21-.37 2.51-.72 4.86-1.07 7.21-5.89-1.54-11.3-5.27-17.67-4.03 8.72-.21 15.16 9.3 23.92 5.37zm10.91-71.32c5.06-3.67-1.09-8.69-5.36-9.19-.54 2.95-.91 5.85-1.34 8.81-.35 2.03-3.75-.26-5.15-.21-.01.02-.03.04-.04.06 3.68 2.42 8.1 2.89 11.89.54zm-9.89 59.68c.21-.63.45-1.36.73-2.2-2.04-.43-3.93-.82-5.84-1.22-.03 2.56-2.64 1.46-4.38 1.89 0 .04 0 .08.01.12 3.13.46 6.26.93 9.49 1.4zm5.03-52.61c1.63.15 1.69-.06 1.92-1.66-1.51-.22-2.98-.44-4.48-.66-.11.48-.21.89-.32 1.36-1.19-.06-2.31-.12-3.43-.18 2.01 1.01 4.13 1.1 6.32 1.16zm0-19.69-.06.28 2.01.3c.02-.05.05-.1.07-.15-.67-.14-1.35-.29-2.02-.43zm89.82 55.25-.09.14c1.97 1.12 3.94 2.23 5.95 3.38-.32.45-.59.84-.88 1.24-1.88-.6-3.72-1.18-5.56-1.76-.02.06-.04.11-.05.17 1.6.91 3.21 1.83 4.79 2.73-.42 2.54-3.64-.08-5.24-.19l-.09.18c1.31.76 2.62 1.51 4.01 2.31-1.02 2.97-3.4.68-5.51.35-.02.04-.04.07-.06.11 1.26.74 2.51 1.47 3.79 2.22-.84 2.32-2.82.61-4.48.31-.02.05-.04.09-.07.14.97.57 1.94 1.13 2.91 1.69-.83 1.98-1.34 1.36-3.08 1.17l1.52.98c-2.8 4.17-7 4.43-6.84-1.42-1.57 2.25-3.03 4.34-4.56 6.52 2.95 1.54 5.83 3.04 8.71 4.54-.03.06-.05.13-.08.19-3.22-.99-6.44-1.99-9.66-2.98-.02.04-.03.09-.05.13 4.49 1.97 8.99 3.95 13.57 5.96 1.22-9.07 4.15-17.55 7.79-25.9-2.34-.77-4.55-1.5-6.76-2.22zm14.68-13.6c-2.42-.78-4.84-1.56-7.27-2.34l-.12.21c1.8.44 6.95 5.67 7.38 2.13zm3.09-4.87c-2.59-.84-5.04-1.63-7.49-2.42-.03.07-.06.13-.08.2 2.2 1.24 4.39 2.48 6.64 3.75.33-.53.6-.98.93-1.53zm-4.56 7.53c-2.36-.79-4.67-1.57-6.98-2.34-.04.1-.08.2-.12.29 2.14 1.17 4.29 2.34 6.45 3.53.22-.49.4-.92.65-1.48zm3-4.95c-2.5-.8-4.89-1.57-7.28-2.34-.02.06-.04.11-.06.17 2.15 1.21 4.29 2.43 6.46 3.66.32-.54.57-.97.88-1.49zm-4.3 7.64c-2.35-.79-4.59-1.55-6.84-2.3-.04.1-.08.2-.12.31 2.05 1.13 4.09 2.25 6.22 3.42.25-.49.49-.95.73-1.43zm-2.76 5.27c-2.27-.73-4.46-1.44-6.65-2.14-.03.06-.07.12-.1.17 2.02 1.14 4.04 2.28 6.1 3.44.25-.56.43-.99.65-1.47zm1.32-2.64c-2.27-.73-4.39-1.41-6.5-2.1-.02.05-.04.1-.05.16 1.92 1.11 3.85 2.23 5.82 3.37l.74-1.43zm-2.5 5.07c-2.23-.69-4.39-1.36-6.55-2.03-.02.04-.03.08-.05.12 1.96 1.12 3.93 2.25 5.95 3.4.23-.52.42-.96.65-1.49zm-.74-28.78c4.37 3.48 9.1 5.56 14.63 6.39 1.87-.01 3.53-4.21 4.94-5.64-.86-.38-1.63-1.04-2.32-.97-4.9.57-9.69-.26-14.36-1.65 3.18 1.82 6.59 2.94 10.13 3.71-4.74-.06-9.1-1.57-13.36-3.55-.33.74-.44 1.21.34 1.71zm-18.76 86.17c1.79 5.81-1.11 9.09 5.71 3.75-2.38-2.42-4.71-4.78-7.2-7.32.57 1.32 1.22 2.4 1.5 3.57zm43.48-36.06c6.04-4.7 12.77-8.51 20.5-9.14-2.16-3.92-4.92-7.31-8.17-10.31 5.23 8.15-5.92 14.51-13.04 14.45 5.13-1 10.17-3.69 11.36-6.29-3.63 3.1-11.12 7.17-14.7 2.16-.89 1.14-1.72 2.21-2.57 3.28 1.04.93 5.74 7.04 6.62 5.85zm-27.29 27.34c2.74-2.66 5.46-5.34 8.18-8.02-3.27 1.77-7.41 5.98-11.23 3.37 1.39.35 2.74.47 4.05-.22-2.77.33-5.27-1.64-5.01-4.59-1.07 1.06-2.02 1.99-3.06 3.02 2.32 1.81 4.56 5.77 7.07 6.44z"/>
    <path d="M385.87 104.17c1.71-1.7-.93-4.4-2.64-2.66-1.76 1.68.96 4.37 2.64 2.66zm-1.88-1.93c1.68-.74 1.76 1.74-.04 1.4-.09-.1-.18-.19-.27-.29.09-.38.06-.94.31-1.11zm12.04-4.05c2.09-2.06 4.11-4.04 6.15-6.05-3.04 1.37-8.77 3.39-9.83-1.18a378 378 0 0 0 2.17 1.89l.25-.21c-1.48-1.33-1.56-3.11-1.5-5l-3.87 3.81c2.72 1.8 4.87 4.05 6.64 6.74z"/>
    <path d="M399.57 90.69c1.69-1.67-1.04-4.4-2.69-2.62-1.82 1.66 1.07 4.45 2.69 2.62zm-1.95-1.89c1.39-1.27 2.04 1.79.06 1.44-.1-.1-.2-.19-.3-.29.07-.39.04-.85.24-1.14zm-58.74-21.47c6 1.35 13.92.68 15.07-6.77-2.33-2.1-2.23 5.6-8.93 5.41-14.55-1.09-38.01-5.92-41.63 13.74 1.46.1 1.43.09 1.76-1.02 3.73-14.84 21.88-12.33 33.72-11.36zM332 14.98c9.5 5.61 6.51 1.57 15.68 1.25-3.62-2.46-10.34.87-12.38-3.69-.29-1.09-1.62-.99-2.56-1.49-.13 1.27-1.97 3.08-.74 3.92z"/>
    <path d="M338.78 13.63c3.84.88 5.01-5.29 1.08-5.85-3.81-.85-4.92 5.27-1.08 5.85zm.76-3.87c1.23.13.93 2.18-.33 1.89-1.32-.08-.94-2.26.33-1.89zm-17.25 49.3c1.76-.53 7.52.95 7.16-1.7.82-11.07 9.46-12.77 6.21-27.94-.28-2.2-.34-4.38.6-6.47.24-.53.14-1.04-.41-1.32-1.85-.44-4.96-3.77-6.48-1.99-5.66 9.78-7.61 21.18-8.64 32.29.21 1.73-1.1 7.54 1.55 7.13zm8.39-37.79c1.25.63 2.35 1.18 3.45 1.73 0 .11 0 .23.01.34l-5.07 1.74c-.06-.05-.12-.11-.18-.16.57-1.18 1.15-2.36 1.78-3.66zm-2.96 6.66c1.57-1.21 3.88-1.4 5.82-2.26-.13 1.15.57 2.61-.23 3.42-2.17.75-4.35 1.48-6.79 2.3.46-1.33.82-2.4 1.21-3.47zm-2.61 8.68c.15-4.55 5.61-3.88 8.78-5.59-.14 1.49.89 3.42-.25 4.41-2.89.97-5.78 1.9-8.84 2.89.12-.64.28-1.17.31-1.71zm-.87 4.26c2.97-1.47 6.84-2.61 10.08-3.29-.51 1.42-.13 3.58-1.28 4.58-3.22.9-6.34 2.34-9.61 2.9.27-1.43.52-2.82.81-4.2zm-1.01 6.93c2.38-1.77 6.06-2.04 9.05-3.09-2.64 5.36-3.58 6.03-9.44 7.33.14-1.54.25-2.89.39-4.25zm-.49 6.64c1.29-1.09 3.44-1.08 5.13-1.77-.19 1.45-.35 2.77-.53 4.17-1.51.06-3.04.12-4.71.19.04-.92.05-1.76.12-2.59z"/>
    <path d="M332.03 41.98c1.18-.38 1.29-.56 1.29-1.9-2.82.58-5.64 1.56-8.45 2.3-.75.39-.56 1.24-.71 2.06 2.69-.75 5.22-1.64 7.87-2.47zm-1.88 5.39c-2.13 1.1-7.76.99-6.62 3.97 2.75-.86 5.42-.88 6.62-3.97zm3.3-14.3c-2.21 1.18-8.41 1.21-7.87 4.44 2.22-.63 4.38-1.4 6.58-2.1 1.59-.45 1.69-.76 1.3-2.35zm-4.91-4.13c-.86.23-1.05.78-1.13 1.62 1.36-.9 6.38-1.02 5.59-3-1.47.46-2.95.98-4.45 1.38zm-4.62 26.4c-.82.09-.89.5-.65 1.17 1.43-.38 4.23.84 3.66-1.61-1.01.15-2.01.33-3.01.44zm5.96-31.06c1.14-.39 2.16-.73 3.3-1.12-1.14-.55-3.01.08-3.3 1.12z"/>
    <path d="M451.89 92.38c-5.35-9.69-21.07-5.57-21.02 5.33-.02 1.51-1.07 2.03-2.1 2.7-11.9 8.7-23.81 17.39-35.72 26.08-.91.66-.89.65-1.68-.12-2.78-2.71-5.54-5.44-8.36-8.1.59-.63 1.42-1.92 1.14-2.71-.56-1.04.04-1.48.64-2.06 7.55-7.15 14.66-14.95 22.42-21.78 2.83-.18 7.16-1.18 3.63-4.46 17-16.06 30.68-1.96 18.43-19.63-.5-1.1.13-2.54-.23-3.64-.96-3.2-4.08-5.81-7.54-5.1-.48.07-.75.02-1.14-.25-17.24-12.46-3.69 1.17-19.77 18.13-3.64-3.28-3.89.16-4.65 3.18-3.72 5.45-9.68 9.64-14.19 14.63-6.39-.78 6.81-30.52 8.94-34.67 2.65-5.43 5.87-10.56 9.03-15.69.34-.56.71-.85 1.37-.56.55.25.87 0 1.2-.45 2.22-3.04 4.46-5.96 6.66-9.04-7.56-5.89-15.97-9.57-25.34-11.14-.94 3.68-1.42 7.48-2.22 11.2-.09.47.01.76.45.96.69.32.78.82.56 1.53-4.69 16.81-10.98 33.77-22.25 47.35-1.08 1.4-2.79-.45-4.07-.76-1.65-1.04-4.42 8.84-5.54 10.5 1.28.56 2.47 1.09 3.7 1.63-2.26 4.67-5.08 9.11-7.51 13.72-4.19-3.69-8.46-7.3-12.74-10.9-.02-4.11 5.5-23.42 1.11-23.96-1.83-.76-2.27-1.58-1.89-3.54.57-4.72 16.03 5.17 21.47-5.77.47-1.67 3.83-5.47 1.35-6.43-1.15-.43-2.31-.83-3.45-1.26-2.36-.89-2.36-1.15-3.41 1.4-1.7 5.35-11.28 1.03-15.62 1.35-3.65-5.88 4.13-11.56 5.14-17.35 2.46-11.88-6.39-24.34 12.35-24.02 1.62-.27 2.26-1.23 2.12-2.87-1.36-8.1-16.99-17.16-22.04-7.94-1.43 3.15-3.1 5.33-2.8 8.77-9.16 12.37-10.16 28.92-10.54 43.81-9.94 1.04-18.22 8.85-18.07 19.16.14.99-.11 2.94 1.39 2.8 1.87-.56 5.5.83 6.05-1.63 1-5.37 4.87-10.36 10.61-10.89-.12 7.43-.99 14.86-2.1 22.22-11.37 5.08-23.54 9.45-33.7 16.7 3.28-13.35-1.6-17.36 15.16-12.91 1.7.57 1.7.59 2.55-.94 1.04-1.87 2.07-3.75 3.15-5.7-5.34-3.5-11.12-5.83-17.23-7.65.63-1.81 1.23-3.55 1.86-5.38l-2.13-.47c3.99-14.65 7.65-29.67 5.64-44.95 1.78-1.55 1.68-4.26 2.52-6.37 5.06-4.41 6.35-9.55.17-13.91 2.35-5.39-12.25-7.54-11.5-1.63-6.51 1.5-7.86 8.96-4.03 12.3.92 2.33-.48 5.31.57 7.72.1 0 .2-.02.3-.03-6.64 14.08-7.06 29.53-7.71 44.78-.77-.05-1.43-.09-2.17-.13.07 1.93.14 3.77.22 5.67-6.4-.04-12.58.53-18.72 2.33 2.34 14.12 2.1 4.34 15.3 10.13.53.24.67.52.6 1.08-1.06 9.12-2.07 18.24-3.13 27.36-11.7-.26-23.41-1.14-35.1-.95-16.7 2.65-33.78 4.5-50 9.47-11.43 3.06-5.32 24.79-5.59 36.54-6.94 2.87-13.31 6.74-20.2 9.64-4.77 1.95-14.82 8.2-13.52 13.54 4.7 8.79 8.7 20.21 12.76 29.39-4.21-2.3-8.9-2.9-13.34-4.18-1.57-1.36-3.56-1.35-5.42-1.89-1.78-.44-3.69-.75-5.56-.8-4.3-1.89-9.14-1.78-13.76-1.45-.69.21-1.3.1-1.9-.28-1.02-.64-2.33-.14-3.45-.08-1.59-2.29-3.19-1.8-5.6-2.44-.7 0-10.53-3.16-12.13.05-3.43-.53-6.03-3.85-9.24-4.83-1.7-.05-1.43-2.29-2.98-2.37-1.45.15-2.01-1.36-3.37-1.38-1.18-.15-2.2-.56-2.7-1.8-.73-1.42-2.76-2.06-1.98-4.01.31-1.65-1.53-3.04-2.28-4.42-.56-1.57-.37-3.58-2.15-4.52-1.14-.85-1.84-2.42-2.3-3.7.06-.59-.18-1.07-.57-1.49-1.13-2.64 5-7.37 7.43-8.12 1.12-.14 1.44-1.69 2.64-1.52 2.57.1 5.03-.91 7.49-1.47 6.52-.98 11.35-5.22 15.94-9.58 4.83-4.45 7.14-10.98 11.25-15.93 1.99-1.5 4.48-2.28 6.2-4.12 1.58-1.83 5.24-3.47 4.12-6.36-.84-1.24-2.48-2.71-4.04-1.91-7.4 3.23-16.12 1.98-23.06 6.6-3.76 2.42-8.14 3.47-12.13 5.35-5.49 3.13-10.91 6.52-15.29 11.06-3.81 4.45-5.85 10.6-10.98 13.76-.76.44-1.39.96-1.73 1.79-.48.99-1.8 1.13-2.57 1.86-.54.39-1.08.45-1.66.09-1.17-.65-2.59-.17-3.8.12-.79.21-1.14-.04-1.17-.84-.82-2.66-3.61-4.35-5.11-6.67-1.85-2.27-2.14-5.26-2.65-7.89-1.21-1.77-2.28-3.66-3.1-5.64-2.07-2.93-4.54-5.61-6.55-8.62-.61-1.05-2.03-.94-2.69-1.93-1.35-1.29-2.64-2.58-3.83-3.99-4.79-3.85-6.24-10.4-11.27-14.19-.96-.49-1.73-1.98-2.92-1.26-1.25.76-2.22 1.9-1.85 3.63.47 1.36 0 2.8.66 4.08.62 1.09.13 2.34.71 3.45 1.6 3.35.39 7.19 1.72 10.58.16.35.34.71.27 1.12-.15 1.18.83 2.11.72 3.31-.05.85.85 1.42.79 2.3 2.34 6.93 9.35 18.61 16.64 20.86 1.45-.1 7.43 5.91 6.73 7.29-.66 2.03-2.78 3.16-3.09 5.35-.42 1.59-1.93 2.66-2.85 3.98-1.72 1.63-2.54 3.94-3.95 5.82-1.72 5.81-2.83 12.3-1.03 18.22 2.15 3.97.95 8.63 2.23 12.9.13 2-2.5 1.43-3.73 1.93-1.61 1.08-9.94.85-8.33 3.43 4.82.4 9.97-3.42 14.72-1.56 1.45.9 3.77.44 3.99-1.48-.26-1.47 2.74-6-.55-5.2-1.42.47-1.66 2.21-2.55 3.09-.97-.46-1.09-2.1-1-3.07.22-1.23-.57-2.38-.18-3.58.09-3.97-2.03-7.71-2.87-11.56-1.09-10.73 6.55-19.14 12.62-27.09.5-.78 1.13-2.19 2.16-2.19 1.11.26 1.99-.52 3.05-.61.59-.05 1.02-.31 1.25-.9.24-.6.51-.71 1.18-.63 1.37.3 2.64-.36 4.01-.35 1.94-.48 1.31 3.27 3.32 1.63 1.9-2.69 5.5-2.47 8.07-4.09 1.09-1.06-1.58-1.92.38-3.21 3.79-3.04 5.88-7.52 8.66-11.41 4.74-5.51 10.53-9.96 17.39-12.5 4.88-2.15 9.57-4.87 14.54-6.71 2.11-.94 4.43-.33 6.58-1.1.26-.03.6-.17.75.13.18.57-.97.82-.58 1.47 3.33-.33 6.92-3.2 10.53-3.45.44.04.59.31.42.71-2.32 4.16-7.59 4.98-10.24 8.68-3.14 4.07-5.16 9.09-8.87 12.7-2.83 2.16-4.81 5.72-8.25 7.06-6.98 4.45-16.59 2.36-22.45 8.73-1.13 1.63-2.96 2.5-4.01 4.16-1.23 1.43-4.21 2.74-3.86 4.86.25.6.91.63 1.49.57 1.72.3 2.47 2.66 3.63 3.87.56 1.26 2.09 2.37 2.26 3.65-.09.75.17 1.34.75 1.81.34.27.51.64.49 1.09.01.93.93 1.48.96 2.44-.05 1.48 1.87 3.11.73 4.3-1.1 1.6 2.04 3.08 3.41 2.94 1.89-.51 2.81 1.78 4.6 1.38 1.19-.37 1.65 1 2.45 1.56.92.56 1.49 1.61 2.53 1.96 1.37.62 3.32.5 3.91 2.14.61 1.71 2.63 2.05 3.76 3.3 1.16.99 2.99 3.45 4.49 1.87.61-.89-1.37-2.15-.05-2.85 8.75 7.83 12.43 14.51 14.29 28.46-14.57 2.71-43.52 6.87-57.96.87 1.03-1.37 2.75-1.98 1.36-3.83-.18-3.14 3.25 1.77 3.82-1.2.09-.84 1.12-.62 1.51-1.23.41-.64 1.26-1.22.97-2.07-.61-1.01-2.21-2.26-3.43-1.85-.73.3-1.55.46-2.07 1.14-.38.34-.89.46-1.18-.02-1.36-1.62.84-2.78 1.03-4.38.08-.45.39-.7.84-.8 1.59-.12.96-1.26 1.68-2.14 1.43-.97 2.62-2.26 4.18-3.06.51-.22.59-.66.32-1.16-.38-.84-1.2-1.03-2.03-1.18-.76-.38.11-1.5.74-.79.64.59 1.44.63 2.24.67.84.41 3.42-.95 1.98-1.57-1.46-.36-2.97-.04-4.42-.16-.34-.16-.32-.58-.47-.88-.38-.86-1.48-.54-1.82.19-.59.83-.34 1.91-.74 2.75-.73.88-1.21 1.95-1.97 2.8-1.63 1.38-2.69 5.27-5.18 4.79-4.19-1.47-8.57-2.72-12.76-3.98-4.25 2.04 9.32 3.7 10.49 4.75 1.21 1.69-2.47 1.58-3.44 1.47-1.69.08-3.09-2.44-4.67-1.87-.83 1.92 7.13 3.81-2.33 4.09-2.83-.02-4.25-2.9-7.12-2.91-.99-.44-3.03.7-1.67 1.68.84.71 1.98.85 2.85 1.48 3.13 2.76 8.15 3.28 11.65 1 3.36-2.88 3.96 1.47 5.19 3.57 3.35 2.99-.15 1.74.89 4.48-.64 1.22 0 2.71-.12 4.11.21 3.4-.29 7.14 3.42 8.23.08 1.51-1.18 3.46.37 4.58 1.6 1.49 1.65 4.05 3.12 5.56 1.75 1.33 1.76 3.69 3.46 5.08.24.34.34.72.13 1.1-.51.92-.42 1.9-.26 2.87.56 2.2-.52 4.27-.24 6.44.16.76.23 1.57-.13 2.3-1.12 2.64-.74 5.74-.17 8.48.54 1.8-1.48 3.08-1.77 4.81-1.08 2.43 1.18 4.76.87 7.1-.52 1.41-2 2.44-1.52 4.11-.15 1.68-1.07 3.43-2.14 4.74-1.2 1.14-.71 2.93-1.44 4.28-.4 1.55-3.13 3.14-2.04 4.69 2.5 1.35 3.13-3.31 4.74-4.49 1-.94-.08-2.42.91-3.31 1.3-1.94 3.19-4.25 2.83-6.7-.26-1.56 1.73-2.38 1.34-4.08.05-2.69-.69-5.72.18-8.27.71-1.11.93-2.44 1.33-3.65.35-1-1.32-1.84-.27-2.58.55-.36.76-1.17 1.46-.59 2.44 1 .37-3.17 2.29-2.04 1.69.58.3-2.56 1.55-1.54.32.47.28 1.59 1 1.56 1.22-.02.49-2.26 1.8-2.22.83-.08 1.19.1 1.46.82 1.54 1.93 1.35 4.23 2.21 6.44.33 1.25-.52 2.59-.56 3.89-.22 1.44-1.51 2.38-1.38 3.94-.08 1.91-1.54 3.45-1.36 5.45-.48 3.55-3.26 6.41-4.48 9.69-.55 1.81.96 4.06-.63 5.5-.86.74-1.34 1.92-1.85 2.92-.16.7-1.15.52-1.38 1.21-1.66 2.62-3.36 5.21-5.25 7.66-.54.51-1.17.99-1.14 1.86 0 .15-.12.24-.25.29-.49.14-.79.93-1.34.5-2.66-1.05-1.96 2.3-6.69.78-2.73-.61-6.11 1.81-8.45.46-.01-.57-.36-.86-.89-.97-1.28-.08-4.05-.59-1.96-2.13 2.65-1.48 5.77-.97 8.47-2.29 1.52-.61.81-1.72-.56-1.26-1.53.54-3.15.39-4.72.71-1.54.08-.68-2 .41-1.97 1.64-.33 3.15-1.12 4.88-.94 1.46.3 2.35-1.12 3.65-1.49 2.05-.22 1.99-3.58-.29-2.51-2.63 2.01-5.94 2.1-9.06 2.95-2.45.34-2.32 3.21-3.64 4.79-.29.7-1.07.81-1.54 1.29-1.18 1.52-.87 3.23-2.22 4.67-.31 3.21 3.78-.33 5.32.86 2.48 1.51 4.9.65 7.48.27 2.76-.53 5.69 1.14 8.1-.7.75-.53 1.71.23 2.5-.35.93-.26 1.39-.06 1.38-1.25 0-.6.77-.93 1.2-1.29 1.4-.49 1.55-2.3 3-2.68.84-.23 1.3-.8 1.35-1.69.23-1.98 2.44-3.01 3.03-4.91.31-2.19 3.94-2.39 3.58-4.71-.33-1.28.7-2.58.06-3.85-.75-2.69 2.17-4.76 3.07-7.01.22-1.22 1.58-1.93 1.39-3.27-.03-.78.28-1.38.89-1.83 1.46-1.03.28-2.88.82-4.31.45-2.91.31-6.28 1.96-8.73 2.08 1.96-1.17 5.75 1.04 7.6.66.48.55 1.4.46 2.1-.53 1.31.89 1.93 1.01 3.05-.14 1.08.38 2.15.03 3.2-.79 1.6 1.48 2.56 1.05 4.13-.2 4.4.25 8.84-.53 13.18-.03 2.27-2.54 3.06-4.11 4.11-3.63 3.01-7.1 5.92-9.64 10-2.58 5.21 5.59 2.18 7.97 2.1.88-.26 1.73-.8 2.68-.39.79.05 1.58-.08 2.36.2 5.29 1.41 9.9-1.94 14.43-3.99.79-.19 1.33-.67 1.59-1.46.31-.98 1.32-1.52 1.54-2.56.93-4.22-.74-8.41-1.55-12.48.03-.47.08-.55.52-.66.88-.24 1.35-.79 1.4-1.7.08-1.31-.31-2.65.51-3.81.25-.4.32-.83.2-1.31-.47-1.26.41-2.49.13-3.78.66-4.96.07-10.06 2.72-14.5.29-1.45 1.58-2.46 1.92-3.92.15-.46.67-.76 1.11-.51-.11.68.33 1.38.98 1.6l8.88 3.1c.13.05.27.06.41.07-.31.24-.65.65-.71 1.42-.06.78-1.04 1.67-.58 2.3 1.04 1.6-.12 4.5 2.26 5.33.51.21.87.57 1.1 1.08.69 1.25 1.94 1.91 2.44 3.31.78 1.29 2.79.25 3.18 1.82.28 1.48.68 3.01 2.48 3.15 2.54 1.14 5.46 2.94 5.7 6.05.48 3.6-2.34 6.69-5.97 5.43-2.37-.6-4.64.35-7 .35-1.72.25-3.62.28-4.89 1.63a88.793 88.793 0 0 1-10.24 7.81c-1.22 2.54 2.96.92 3.84 2.44 3.99 4.64 10.22.5 15.29 1.34 2.88.3 5.81-.54 8.44 1.03 2.21.35 4.59-.31 6.86-.32 2.75.36 5.49.15 8.21.77 2.6.24 5.06-.97 7.68-.54 2.01-.19 4.24-.8 5.87-2.03.78-.75 1.64-1.22 2.77-1.09 2.4-.56 4.6-2.5 6.48-4.13 1.98-1.45 4.16-2.56 6.1-4.05 3.11-1.9 5.77-4.28 8.47-6.69 2.14-1.46 4.86-2.61 5.86-5.16.02-.42.22-.66.63-.79.95-.38.43-1.68 1.13-2.37 20.63 10.46 45.93 11.84 65.87-.97 8.4 16.27 24.1 27.12 41.62 31.6 59.12 17.62 106.61-54.94 85.28-107.2 2.6-9.52 7.39-19.11 5.55-29.12-.01-.09-.02-.17-.04-.26-.02 0-.04 0-.05-.01l.05-.03c-.13-1.79-.58-3.38-.81-5.17h-.06c-.02-.32-.15-.67-.36-.89l.23-.12c-.12-.29-.17-.44.01 0h.02c-.24-.94-.81-1.72-.85-2.71-.36-1.05-1.07-1.98-1.56-2.99-.05-.09-.1-.19-.15-.28-.13-.23-.26-.45-.39-.68l-.42-.72-.33-.57c-.43-.74-.87-1.49-1.31-2.23-.08-.14-.17-.28-.25-.43-2.58-4.05-4.35-8.63-8.59-11.28 10.14-8.23 20.16-16.58 30.01-25.16 3.75 5.19 7.1 10.5 10.06 16.14 2.46-1.57 4.82-3.08 7.23-4.61-3.23-6.03-7.15-11.37-10.87-17.06-.31-.46-.38-.73.08-1.16 11.27-10.67 22.48-21.41 33.76-32.08 9.93 1.16 18.21-7.74 12.94-17.2zM36.96 170.71c-1.15 0-1.47 1.21-2.47 1.45-.65.05-1.5.73-1.95.02-1.04-2.44-2.31-4.69-4.64-6.18-2.08-2.17-3.43-4.96-5.82-6.88-.76-.91-2.41-.41-2.04.88.24.86 1.21 1.41 1.18 2.35-1.21 3.33-6.27-4.94-7.17-6.19-3.84-6.09-6.31-13.21-7.01-20.35 2.28 1.64 1.8-.77 1.06-2.12-.27-1.07-1.73-2.17-.76-3.25.81-.62 1.01 1.09 1.48 1.5 1.09 1.36 1.65-.23 1.24-1.33-.2-1.22-1.41-1.88-1.63-3.03.87-2.65 3.05 3.23 3.43 4.08 3.62 5.56 9.81 9.05 13.77 14.41 6.38 6.56 5.56 16.64 11.7 23.25.78.43.56 1.42-.37 1.4zm358.15-42.04c1.98 2.57 4.39 4.87 6.13 7.6l-2.47-2.32c-.05.04-.09.08-.14.11.51.69 1.02 1.38 1.53 2.08l-.12.1c-2.1-2.52-4.21-5.04-6.32-7.57.65-.79.71-.8 1.39 0zm32.11-63.59c-1.49-1.34-2.77-2.79-4.22-4.22 1.51-.19 3.94 2.2 4.22 4.22zm-18.19 2.79c1.84-3.8 3.11-7.76 3.12-12.05 5.47 1.43 19.39 15.66 19.75 20.16-8.48-.26-15.45 4.57-21.99 9.38-1.29 1.06-6.24-5.91-7.97-7.06 2.81-3.26 5.25-6.65 7.09-10.44zm-10.5 9.89c3.77 3.83 7.5 7.62 11.24 11.41-1.29.77-1.85.71-2.82-.28-1.77-2.78-10.46-8.14-8.42-11.14zm-1.15 4.34c2.7 2.74 5.38 5.46 8.09 8.22-3.21 3.16-6.37 6.27-9.65 9.51-1.98-3.51-4.65-6.21-8.07-8.24l9.63-9.48zm-11.72 11.46c1.55-1.66 9.86 6.84 8.14 8.33-2.09 1.31-10.92 12.37-12.14 10.64-10.87-11.1-8.39-5.17 4-18.97zm-11.2 98.41c-.37.04-.9.15-1.25.28l-.02 1.06-.61.17c.37.3 1.23 1 1.56 1.32-8.1 1-16.2 1.99-24.3 2.98-.55-.3-1.11-.6-1.68-.88 4.4-.54 8.8-1.07 13.2-1.61-.01-.12-.03-.25-.04-.37-13.17 2.12-14.65 1.49-26.91-3.31 3.59-.3 7.17-.59 10.76-.89-5.66-.79-11.46 1.43-16.96-.95 2.04-.15 4.08-.3 6.12-.44 0-.17-.01-.34-.02-.51-6.84 1.29-13.37-.68-20.26-.48-11.75.24-22.55 3.62-32.51 9.7-1.15.12-2.29.25-3.44.37.6.91 1.32.58 2.14.45-1.89 1.09-3.56 2.65-5.41 3.66-9.32 1.1-18.65 2.18-27.98 3.26-7.27.77-14.5 1.81-21.79 2.4l.44-.31-1.07.02c7.09-5.86 14.81-11.05 23.07-15.17 1.42.29 1.52 1.61 2.97 1.23 4.89-.61 9.8-1.01 14.7-1.46 0-.11-.01-.21-.02-.32l-15.1.9c0-.09-.02-.19-.02-.28 1.27-.11 2.52-.35 3.75-.72-.03-.11-.05-.22-.08-.33-1.15.25-2.38 0-3.59.04 2.68-.19 5.15-1.56 7.74-2.3-.01 0-.02 0-.03-.01l.17-.06-1.12-.42c2.86-1.01 5.86-2.02 8.81-3.02.2.66.57.77.95.94 5.31-1.7 10.83-2.09 16.31-2.91-1.51-.03-3.01.06-4.51.18 2.42-.41 4.88-.89 7.31-1.08 5.17-4.14 23.53-2.77 30.49-2.61 18.56.7 40.72 3.66 58.26 11.47zm-18.04-8.66c.74-.58 1.48-1.15 2.21-1.73.01.8 0 1.6-.01 2.4-.78-.22-1.38-.38-2.2-.67zm3-2.34c.73-.57 1.47-1.14 2.19-1.72.16 1.88.21 3.76.19 5.64-.72-.2-1.42-.4-2.14-.6.02-1.12-.09-2.21-.24-3.31zm-135.36 113c-.3 2.54-.6 5.08-.91 7.76-.83-.25-3.59.94-3.57-.52.23-3.46.65-6.92.74-10.38-1.65 3.34-2.21 6.84-2.06 10.53 0 .37-.09.54-.49.56-1.28.07-1.31.05-1.23-1.22.17-3.87.47-7.76.64-11.63h-.05c.16-1.51.24-3.03.22-4.55h.02c.22-2.96.33-5.88.52-8.83-.04 0-.09-.02-.13-.03.11-1.56.12-3.13.36-4.68 0 .05-.02.11-.04.2.28-1.7.64-3.37.96-5.05.1.03.2.06.3.1.06-.01.12-.03.18-.04 2.56.73 5.14.47 7.75-.07-.25 9.26-.67 15.42-1.14 23.96-.61 1.85.61 12.54-1.92 11.4l.09-7.48c-.08 0-.17-.01-.25-.02zm-93.25-20.86.02-4.01c2.78-.27 5.55-.62 8.35-.59l-.03-.6c-2.77.23-5.54.45-8.31.68-.03-.12.08-5.89 0-6 13.14-1.94 80.08-10.75 91.77-11.76 1.39 1.16 1.52 2.69.99 4.12 3.42-.39 3.63 4.23 1.2 5.56l-93.98 12.6zm82.89-5.79c-.49 2.4-.78 4.85-.87 7.3h-.09c-.44 3.64-.47 7.36-1.35 10.92-.23-1.45-.31-2.96-.63-4.38.69-4.56 1.32-9.11 1.95-13.68.33-.05.66-.1.99-.16zm-4.5 8.09c-.09 9.29-.99 13.86-1.27 21.88-.08.8.38 2.59-.86 2.41-5.65-.28-10.92-2.28-15.41-5.69 3.61-2.57.46-3 1.82-4.82 1.19-1.13 4.09-3.09 2.43-4.87-1.27-.9 2.68-4.4 3.41-5.37 2-3.86 9.11-11.35 10.2-12.55.03.01.06.03.1.04 0 .05-.45 8.86-.41 8.97zm-22.26-7.73a40.395 40.395 0 0 1-3.8 3.83c.63-1.28 1.37-2.46 2.16-3.6l1.64-.22zm-4.62.63c-.48.52-.95 1.04-1.43 1.56-.02-.45-.05-.9-.09-1.35l1.51-.21zm-55.72-9.5 40.77-5.51s-.05 0-.07.01c.03.16.06.33.08.49 3.58-.61 7.16-1.23 10.73-1.84 0-.04-.01-.07-.02-.11l41.2-5.56 1.76.85c-2.12.19-4.24.38-6.36.58.01.16.03.33.04.49 2.5.44 5.05-.93 7.44-.52 0 .04 0 .08.01.12l-42.01 5.75c-.92.08-1.84.17-2.76.25 0 .04 0 .08.01.13l-47.93 6.57-2.89-1.69zm1.27 11.04c.06 4.2-6.54 4.2-6.48 0-.06-4.2 6.54-4.2 6.48 0zm48.2-25.82c-.22-.75-.55-1.45-.97-2.11 3.83 1.32 7.71 2.49 11.76 3.12-4.12-1.37-8.24-2.74-12.37-4.11-.2-1.9-.9-3.75-2.59-4.9-.59-.39-.77-1.02-.79-1.68 1.1.42 2.21.85 3.31 1.27.04-.1.07-.2.11-.3-1.16-.5-2.33-1.01-3.49-1.51-.33-1.1-1.44-1.86-2.13-2.77l9.03 3.9c.06-.15.13-.3.19-.44-3.28-1.42-6.56-2.85-9.85-4.27-.42-.77-1.06-1.36-1.62-2.02.63.22 1.26.44 1.9.66-.3-.73-2.43-1.27-3.31-2.31 16.15 6.02 32.17 12.07 48.02 18.54l-25.13 3.39c-2.66-.82-5.22-2.63-7.96-2.79l-.06.37 6.79 2.59c-3.58 1.13-6.74-1.08-10-2.25-.25-.6-.53-1.18-.69-1.81l.53.1.08-.23c-.26-.14-.51-.3-.78-.43zm4.14 5.52-2.26.31c-.19-.46-.39-.92-.54-1.39.93.36 1.87.72 2.8 1.09zm54.34 13.59.04.36c-2.55-.05-6.05 2.27-6.23-1.64a1.99 1.99 0 0 0 .91-2.06c-.32-.76-1.74-11.81-2.69-11.94 6.43-.75 12.86-1.49 19.29-2.29-.16.49-.3.99-.43 1.49l-7.8.63c0 .15.02.29.03.44.57.51 4.64.15 7.66-.64-.13.47-.25.93-.37 1.4-1.62.19-3.25.39-4.87.58-.02.15-.05.3-.07.46 1.38.88 3.17-.09 4.71-.15-.77 3.17-1.35 6.37-1.75 9.61-3.54.71-7.85.05-10.99 1.6 3.5.44 7.37-.62 10.93-1.05-.08.71-.17 1.42-.24 2.13l-8.13 1.09zm7.77 10.47c.01.4.04.79.06 1.19-1.41-1.56-2.82-3.12-4.21-4.7-.13 0-3.6-4.44-4.33-5.23.35-.08.7-.13 1.06-.13 1.58 1.75 4.74 5.62 7.42 8.87zm-5-8.87c1.73-.16 3.45-.55 5.18-.73a84.23 84.23 0 0 0-.25 6.35c-1.95-2.21-3.76-4.27-4.93-5.62zm16.54-37.75c-6.77.36-13.52.75-20.16 2.25 6.61-.19 13.25-1.84 19.96-1.91-.64 1.11-1.25 2.24-1.84 3.37-2.82.37-5.65.75-8.47 1.12l.06.41c2.72-.35 5.43-.69 8.15-1.04-.28.49-.52 1-.76 1.51l-1.91.22.09.62c.49-.04.99-.1 1.48-.14-.38.81-.75 1.62-1.1 2.44-.91.12-1.83.23-2.74.35.02.18.04.36.07.54.81-.1 1.62-.21 2.43-.31-.97 2.3-1.83 4.64-2.59 7.03-7.21.3-15.02 2.59-22 1.81-1.66-5.15-3.81-10.15-4.51-15.58 11.88-1.46 23.51-3.2 35.29-5.14-.5.81-.97 1.63-1.44 2.45zm-29.14 37.48-.04.07c-1.8-.34-3.76-.58-5.43-1.27l5.29-.72c.04.62.33 1.33.17 1.92zm2.31 32.03c.57-9.9.98-19.95 1.33-30.56.75-.11 1.51-.22 2.27-.32 2.76 3.16 7.97 8.84 12.08 13.38.31 3.02.8 6.04 1.48 9.02-5.17 4.09-10.91 7.04-17.14 9.31 0-.4-.02-.61 0-.83zm18.2-4.36c.1.37.22.73.32 1.09-2.28 1.42-4.74 2.52-7.59 2.96 2.46-1.29 4.88-2.64 7.27-4.05zm3.1-27.39c-.36 8.73-.2 17.43 1.69 26.01-.09.02-.19.05-.28.07-2.9-8.37-3.76-17.49-1.41-26.08zm13.51-38.72c-2.05 4.21-4.18 8.14-6.17 12.4-.65-2.04 3.69-10.68 6.17-12.4zm-5.37-3.32c-.07.1-.13.21-.2.31-12.2 1.24-24.25 4.21-36.44 5.26v-.1c-.37-.24-.48-.04-.66-.67-.88-3.51-1.73-7.04-2.38-10.6-.29-.65.98-.32 1.26-.44-.02-.25-.1-.84-.08-1.09 6.13.11 12.03-.57 18.1-1.24 1.31-.21 2.98.14 3.75-1.17 1.62-.04 3.36-.55 4.91-.14 1.09-.35 2.1-.92 3.33-.33.35.17.99-.25 1.58-.43-.02-.05-.08-.17-.16-.34 1.41-.42 2.55.85 3.77-.16.25-.23.98.04 1.77.11 1.04-1.33 2.97-.91 4.65-1.13 2.43-.31 4.86-.62 7.29-.92-3.9 3.95-7.39 8.32-10.48 13.08zm-38.96-13.83c2.42-3.04 5.44-5.61 9.23-7.84-3.19 2.53-6.18 5.21-9.23 7.84zm.73 4.8c.61-1.18 1.96-1.95 3.1-2.67 2.61-2.47 6.66-1.92 10.04-2.64 14.1-1.65 28.23-3.07 42.32-4.85-7.33 2.77-16.18 2.46-24.02 4.13 0 .11-.01.22-.02.33 7.42-.07 14.83-2.26 22.26-2.95-1.04.88-2.05 1.79-3.04 2.72a9277.89 9277.89 0 0 1-50.64 5.92zm65.66-10.64c-4.39 4.79-9.76 8.54-13.87 13.66.44-2.55 11.37-13.32 13.87-13.66zm-11.1-18.69c1.6-.35 3.21-.9 4.63-.08-.15.01-.3.03-.45.04l.1-.03-4.28.07zm73.72-3.05c16.9-11.63 32.67-24.79 48.53-37.78.89.92 1.32 1.22.1 2.08-15.03 12.53-30.28 24.85-46.28 36.12-.76-.13-1.55-.27-2.35-.43zm-3.13-.7a9.67 9.67 0 0 1-.51-.14c14.97-14.77 31-28.37 47-42 1.09-1.06 1.54.72 2.34 1.38-16.33 13.63-32.58 27.2-48.83 40.76zm44.96-43.52c-16.34 13.82-32.68 27.71-47.79 42.89-.65 0-1.29-.02-1.94-.06 6.76-5.21 12.39-11.55 17.07-18.66 4.92-4.15 9.89-8.23 14.91-12.26 5.51-4.42 11.11-8.72 16.68-13.07.98-.77 1.05-.72 1.81.53-.24.2-.5.41-.75.62zm-29.75 20.09c8.31-8.69 18.41-16.31 27.99-23.52-9.43 7.73-18.8 15.52-27.99 23.52zm25.84-24.78a1099.01 1099.01 0 0 0-19.76 16.24c4.11-5.16 8.73-12.63 4.55-18.95 2.54-1.87 5.1-3.76 7.66-5.52 2.79 2.47 5.48 5.05 8.07 7.74-.22.21-.36.36-.51.49zm-16.14-4.58c-3.18-1.6-5.86-5.27-8.91-7.51 1.69-1.47 3.37-2.94 5.07-4.42-.52-.39-1.12-1.69-1.96-1.18-1.54 1.42-3.07 2.84-4.57 4.3-.28-.25-.57-.5-.85-.75 1.55-.97 4.74-5.4 6.23-4.94 3.43 3.61 7.08 7.03 10.39 10.74-1.84 1.3-3.6 2.56-5.4 3.76zm-11.31-13.85c-.68.8-1.3 1.66-1.91 2.53-.78-.69-1.57-1.37-2.35-2.06 3.54-4.79 8.5-8.47 14.32-8.4-2.88 3.51-7.13 4.13-10.06 7.93zm15.85-.6c-1.89-1.47-4.7-2.82-7.14-1.94 2.19 2.22 4.28 4.35 6.38 6.48l-.71.77c-2.28-2.42-4.76-4.66-6.93-7.16 1.41-.97 2.49-3.39 4.23-3.45 3.16 1.11 5.66 2.87 7.54 5.24-.46.51-.92 1.03-1.38 1.54-.68-.46-1.38-.91-2.01-1.48zm-4.07-6.13c2.89-3.21 2.59-2.36 5.25.3 1.03 1.75 9.86 8.19 7.52 9.39-4.4-3.31-7.16-7.8-12.77-9.68zm14.85-73.99c.56-2.58.92-5.21 1.54-7.77 4.31-.06 17.97 5.94 20.97 9.22-1.39 1.88-2.79 3.78-4.2 5.68-.92 1.24-.93 1.23-2.48.85-5.88-.77-10.77-3.31-15.39-6.93-.43-.29-.53-.56-.44-1.05zM361.8 85.21c11.54-13.82 17.75-31.08 22.58-48.18 4.3 3.14 8.41 5.23 13.76 5.96-9.36 15.37-18.09 31.73-20.3 49.84-5.48-2.41-10.87-4.77-16.3-7.16.1-.18.16-.34.26-.46zm-8.55 7.56 3.1-7.05c7.9 3.47 15.81 6.95 23.81 10.46-.81.79-1.61 1.59-2.42 2.38-5.32-2.03-10.6-4.03-15.88-6.04-.02.06-.05.11-.07.17 3.36 1.69 6.72 3.39 10.08 5.08-.02.05-.05.11-.07.16-5.5-2.42-11-4.83-16.53-7.26-.26.6-.48 1.1-.71 1.62 6.83 3 13.62 5.98 20.43 8.98-.25.24-.49.49-.74.73-6.99-3.07-13.97-6.14-21-9.22zm1.35 6.35c.75-.77.95-3.15 2.36-2.51 4.79 2.14 9.61 4.23 14.41 6.35-.53-.03-1.03.14-1.5.48-4.43-1.95-8.81-3.87-13.21-5.8-2.71 4.4-5.04 9.06-7.61 13.55-.26-.22-.51-.45-.76-.67 2.1-3.8 4.21-7.6 6.31-11.4zm-20.01-19.03c-.68 5.6-1.35 11.19-2.27 16.76-2.34-1.9-4.53-4.11-7.28-5.41.38-5.88 2.18-13.54 9.67-12.52-.04.4-.08.79-.13 1.18zm-4.18-65.9c1.89-4.13 3.06-9.66 9.11-7.92 4.11.99 8.02 3.14 10.66 7.2 3.31 4.79-2.13 3.23-5.07 3.88-2.34-.06-4.25 1.75-6.35 2-1.66-1.29-9.12-2.96-8.34-5.16zm-10.55 41.36c.93-12.79 1.96-26.97 9.96-37.52.15-.19.59-.37.77-.29 2.46 1.12 4.89 2.29 7.36 3.47-3.29 7.06.86 14.52-1.4 21.74-2.01 5.81-7.32 10.12-5.63 16.86-3.67.1-7.3.2-11.09.31 0-1.47-.03-3.02.02-4.57zm-2.7 12.39c-6.04.81-10.42 5.78-11.71 11.57-.49 1.37-2.45.51-3.71.87-.27-16.88 16.6-19.56 30-18.38 5.91-.6 15.78 4.78 19.06-2.08.71-1.79 2.58.12 3.81.27-.91 7.65-9.22 9.3-15.56 7.66-7.3-.9-14.6-1.16-21.89.1zm.9 20.91c.84-6.18 1.41-12.39 1.76-18.62-.34-1.57 10.05-.86 11.72-.98-1.15 3.19.12 6.38 3.51 7.23-.05.09-.1.18-.16.27-8.39-.38-11.38 6.64-11.71 13.95-.68-.21-1.41-.44-2.13-.47 1.57-6.73.16-17.12 9.52-17.65.09-.96.18-1.91.3-3.12-2.32.52-9.67-.5-10.56 1.2-.53 6.81-.97 13.64-2.06 20.39-.18.08-.36.15-.54.23.12-.81.24-1.61.34-2.42zm-32.17 21.9c7.9-5.14 16.82-8.41 25.2-12.66 3.66-1.75 7.43-3.93 11.61-3.06 14.99 9.02 26.89 23.15 40.6 34.15 8.5 7.13-1.94 16.91-6.01 23.55-6.47 9.8-13.15 19.43-22.43 26.8-1.37-.19-2.73-.43-4.07-.66 2.56-3.86 5.29-7.55 7.14-11.82-1.75-.46-6.83 9.64-8.63 11.57-.61-.1-1.22-.21-1.83-.3 1.21-.99 2.78-2.72 2.24-4.35-1.57.36-2.89 2.68-2.9 4.25-3.01-.45-6.06-.73-9.1-.95 3.66-6.16 7.25-12.35 10.86-18.54.89-1.52.77-4.51-.67-5.88-12.83-12.81-26.47-24.77-39.78-37.08-9.32-5.68 7.23 9.64 8.55 10.8 9.56 9.68 21.43 17.95 29.59 28.75 1.52 5.65-8.6 16.02-11.31 21.74a455.2 455.2 0 0 0-5.29-.32v.2c-2-.07-4.07.02-6.05-.19.23-7.82-10.09-6.68-10.58.23-4.18.3-8.7.79-13.78 1.47-3.53-5.11-25.7-20.67-21.78-25.39 5.03-9.52 10.85-18.54 16.84-27.47 3.59-5.16 6.06-11.37 11.57-14.84zm-12.83 7.82c-.44.52-.94.98-1.47 1.29 1.16-7.83 2.32-15.65 3.48-23.5.57-.03 1.05-.05 1.64-.07-1.22 7.44-2.43 14.86-3.64 22.28zm4.92-20.74c.29-1.64.3-1.64 2.16-1.78-1.9 6.82-.43 15.49-5.53 20.78 1.13-6.33 2.25-12.66 3.38-19zm1.45 13.43c-.19.2-.37.42-.55.63 1.07-5.44 1.81-10.97 3.07-16.35l.23.05c-.62 5.23-1.9 10.45-2.74 15.67zm10.89-83.36c-2.83 1.11-6.5-.16-9.42-.94-.9-.56-.37-1.8-.5-2.77 3.52.52 6.96 1.03 10.56 1.56-.22.76-.39 1.47-.64 2.15zm-5.28-20.17c2.19-.36 4.28-.05 6.24 1.17l-6.26-.93c0-.08 0-.16.01-.24zm-3.61 3.66c4.37-1.74 8.62-1.12 12.3 1.84 5.95 5.18-1.98 11.31-7.76 9.55-6.03-.03-11.69-8.2-4.54-11.38zm-6.93 42.45c.54-8.27 3.33-16.07 6.28-23.75.84-1.68 5.43.48 7.24.25 4.67 13.48-1.43 29.88-4.43 43.8-.64 1.72-3.73-.11-5.2.08-1.35-.56-4.6.16-4.95-1.43.35-6.32.56-12.64 1.06-18.95zm10.23 23.99c-.37 1.07-.74 2.13-1.08 3.11-3.58-.49-6.91-1.1-10.36-1.48-2.59.18-1.82-1.76-1.97-3.61 4.58.02 8.98.68 13.41 1.98zm-29.85 9.68c-1.84-.21-1.11-3.02-1.84-4.55 16.59-3.49 32.18-1.17 47.09 6.97-3.37 8.32-4.83-.63-18.68 3.48-11.46 3.49-12.58-6.8-26.58-5.9zm13.49 7.16c.04-.35.1-.69.17-1.13 1.16.91 3.58.98 3.51 2.68-.95 8.07-1.94 16.13-2.88 24.19-1.24-.08-2.48-.14-3.72-.2.98-8.52 1.96-17.03 2.93-25.55zm-92.52 42.31c1.66-8.03 23.05-7.99 30.29-10.28 9.02-1.43 17.98-3.85 27.16-3.73 11.85.92 23.8.89 35.61 2.27 4.04.9-6.7 13.33-7.44 16.08-2.3 3.98-4.35 8.11-6.55 12.16-1.16 1.93 0 3.93 1.04 5.6 4.36 6.9 16 11.14 15.55 20.27-1.38.42-2.83.79-4.36 1.1.36-10.57-13.16-7.8-8.6 1.75-4.31 1.24-7.79 4.06-12.53 4.67-5.02 2.35-10.34 4.77-14.94 7.98-.44-1.68.85-5.87-1.08-6.39-1.89.71-.37 5.66-.61 7.5-.87.59-1.79 1.1-2.66 1.66-1.14-17.7-1.9-35.42-3.12-53.11-.17-2.63.2-3.28 2.72-4.03 11.2-3.47 22.91-5.01 34.09-8.54l.1.29c1.22-.54 5.69-1.73 2.84-3.08-5.3.83-10.6 2.39-15.9 3.44-5.24 1.67-24.6 3.69-26.06 8.65.15 19.34 1.98 38.73 3.15 58.06-.83.58-1.64 1.35-2.64 1.65-1.03.77-1.89 1.78-2.9 2.6-2.6-.29-5.16-.79-7.7-1.38-1.36-2.26-3.44-4.31-5-6.44-3.4-3.75-6.86-6.89-10.67-9.22-1.68-1.02-2.95-2.77-4.67-3.78-1.7-.87-2.99-1.69-4.7-2.77-1.83-1.52-6.2-2.77-8.52-3.7-.74-13.08-1.97-26.17-1.93-39.27zm-.91 40.69c12.74 4.78 26.92 15.34 34.56 26.32l-.59-.16c.84 1.35 5.04 6.01 3.63 6.78.03.63.02 1.04-.12 1.84-12.34-15.9-28.74-32.61-48.35-36.68 4.04.14 7.58.76 10.87 1.89zm-1.59-3.01-4.55-1.63c1.26-1.12 2.79-1.55 4.28-2.21l.27 3.84zm-8.3-3.44c2.6-1.12 5.22-2.18 7.83-3.27l.03.46c-3.62 1.39-7.23 3.08-10.91 4.31 1-.53 2.02-1.06 3.05-1.5zm-23.55 15.74c15.67-23.89 45.3 2.25 58.19 16.28l-.92 1.26c3.83 1.33 6.22 4.57 8.91 7.43-20.98-8.54-42.48-15.63-63.6-23.78l.03-.1c-.34-.17-2.44-.85-2.62-1.1zm5.39 13.85c-1.6-3.61-3.13-7.32-4.64-10.93.02 0 .04.01.06.02-.62-1.49.55-1.52 1.53-.8v-.02c21.7 8.37 43.56 16.31 65.28 24.66.41.58.77 1.18 1.09 1.8 1.77.75 2.49 2.38 3 4.45.97.53 1.87 1.61 2.1 2.68-.16.23-.4.43-.76.61.35.13.63.3.88.48-.06.6-.17 1.21-.37 1.77.31.7.43 1.56.59 2.38l-1.06-.25.05.13c-1.66-.5-3.18-1.15-4.64-1.95l.06-.31c.67.1 1.33.25 1.98.44l.09-.32c-1.14-.72-12.62-2.46-10.12-3.96-.76-.2-1.23-.33-1.71-.46-.05.06-.1.11-.15.17.26.15.52.29.78.44l-.36.51c-1.19-.52-2.56-.83-3.51-1.63-.93-.79-1.8-1.85-2.9-1.65-1.87.35-3.4-.49-5-1.08-9.86-3.68-19.71-7.38-29.58-11.04-4.09-2.08-9.48-2.8-12.69-6.11zm3.55 8.54c-.07-.16-1.89-4.35-1.95-4.51l.44.1c-.04-.1-.59-1.34-.62-1.41 22.25 8.76 44.66 17.33 66.96 26.03.17.51.34 1.1.48 1.63.79.35.87.9 1.11 1.57l-1.88-.24c-.02.14-.03.27-.05.41.7.1 1.4.19 2.1.29.22.93 1.37 2.6-.26 2.78-.05.28.37.72.53.91l-.39-.11.02.16-.64-.17c-.03.08-.07.16-.1.24.26.13.53.26.8.38l.18 1.42c-.42-.15-.83-.29-1.25-.44-.04.09-.08.18-.11.26.48.23.95.45 1.43.68l.12.91c-.27-.09-.54-.19-.81-.28-.06.17-.11.33-.17.5.35.12.7.23 1.05.35l.02.15c.43.07 1.08 0 1.22.53.43.28.75.79.66 1.31l.15.05.46 1.57c-.48-.27-3.22.22-3.79.29-.65-.27-1.3-.53-1.95-.8-14.09-6.06-28.56-11.19-42.85-16.75-5.79-1.97-11.49-3.58-16.2-7.46-2.03-3.07-3.03-6.99-4.71-10.34zm-37.63 3.26c1.82-.1 3.67.41 5.39-.49.91-.47 1.84-.37 2.62.34 1.47 1.11 3.55.69 5.25 1.2 1.84.24 6.78-.72 7.62.97.17.95.48 1.2 1.44 1.12 2.72-.56 4.48 1.98 7.11 1.65 2.85.28 6.52.78 8.57 2.87.92 1.5 2.86 1.59 3.48 3.39 1.13.96 9.42 3.16 7.98 5.28-.26.63-.12 1.12.45 1.48 4.99 2.02 1.96 1.86 4.38 4.32 1.27 1.49 3.59 2.76 3.86 4.77-.05.57.13 1.08.45 1.55 1.77 2.02 2.67 4.61 1.48 7.15.24-.1.47-.21.71-.31.08.88 1.03 1.5 1.25 2.38l-51.04 6.89-3.43-2c.55-16.42-4.23-36.87-10.28-43.37.81.55 1.72.84 2.72.81zm4.46 30.98c.06 4.2-6.54 4.2-6.48 0-.06-4.2 6.54-4.2 6.48 0zm-4.58 17.1 2.84 1.72-30.76 4.21c-.22-.36-2.31-1.54-2.67-1.8l30.59-4.13zm-28.91 17.67-.09.03c-1.35-8.34.05-8.58.09-.03zm23.82-19-13.29 1.8c-.69-1.24-2.03-2.44-2.09-3.87.95.3 3.95 4.13 3.87 1.25-1.48-1.76-3.09-3.58-3.8-5.82 5.88-.75 11.48-1.62 15.6-2.27.03 2.99-.07 5.98-.29 8.91zm-58.81-13.78-.38-3.33c18.84 6.55 41.57 2.1 58.97-.61l.27 3.03c-16.91 2.61-40.14 6.93-58.86.91zm45.74 36.21c-1.86.7.74 2.59-1.11 3.32-.98.45-1.45 1.51-1.36 2.55.11 1.1-.98 2.02-.07 3.05.53.94-.34 1.46-1.11 1.8-1.43.82.57 2.15-.13 3.35-.16.49-.15 1 0 1.49.49 1.61-.56 3.2-.14 4.87.13 1.77.1 3.74-.78 5.34-.52.7-.63 1.47-.49 2.34.6 2.05-1.42 3.85-.42 5.92.24 1.23.83 2.48.83 3.72-.26.76-.1 1.48.2 2.19.31 1.1 1.77 3.43.21 3.93-1.98.74-1.43 3.89-3.76 4.47-1.86.93-3.11 3.32-5.47 3.1-.5-.04-.67-.35-.48-.81.35-1.09 2.75-1.93 1.8-3.21-2.18-.86-3.48 5.52-6.68 3.93-.84-.39-1.76-.06-2.63.05-2.2-1.09 3.75-4.61 4.66-5.59.42-.53.25-1.08-.42-1.26-2.4-.37-3.49 2.78-5.67 3.31-2.1.46-1.83 3.41-3.2 4.39-.69.03-1.48.51-2.13.28-.5-.6-1.25.14-1.72-.33-.17-.23-.11-.48.03-.71 1.62-1.97 3.11-4.09 5.14-5.68 1.51-1.01 2.67-3.01 4.61-3.15.49.01.89-.18 1.26-.46 1.22-1.47 3.02-3.48 2.76-5.5-.1-.51-.02-1.02.24-1.45.8-1.29-.07-2.73.4-4.09.42-5.23-1.43-10.31-1.28-15.53.25-1.13-.97-1.6-1.01-2.59-.08-.99.45-2.09-.35-2.88a1.33 1.33 0 0 1-.34-1.01c-.4-1.58.53-3.16-.17-4.64-.61-1.09-.16-2.39-.18-3.57.55-1.47-1.01-3.54.38-4.5 1.33-.79-.35-2.1-.79-2.98-1.51-1.68-1.41 1.26-5.07-1.65-2.37-1.39-2-4.86-3.91-6.71-.57-.72-.84-1.84-1.85-2.11-2.93-.37 2.77 4.79 1.92 6.25-.39.15-.68-.41-1.04-.53-1.1-.71-.86 2.33-2.02.67-.38-1.46-.39-6.13-2.8-4.71-.26.41-.62.73-1.12.57-.81-.2-1.27-1.12-.91-1.88.16-.34.13-.57-.16-.76-1.72-1.91-3.1-4.08-4.74-6.06-.76-1.52-.67-3.36-1.8-4.7-.48-.53-.72-1.09-.74-1.71 3.41 1.13 8.02 1.84 14.01 2.16-.33 1.22-1.41 2.79-.44 3.94.46.45 1.1.31 1.31-.3.2-1.23.36-2.45 1.03-3.55 1.09.04 2.21.07 3.38.09-1.95 3.15-2.07 7.29-1.41 10.82.55 1.44-.04 5.35 1.85 5.59.46-.03.89-.5.9-1.06-.03-3.07-.88-6.1-.73-9.17-.06-2.07.88-4.13.52-6.18 5.78.1 11.85-.44 18.56-1.23-.96 1.63-.28 3.19-.33 4.89-.33 1.35.75 2.52 1.16 3.74l-11.1 1.5c-1.21.21-2.19 1.53-2.07 2.74.45 1.12 1.15 13 2.71 13.26.72.28 3.9 2.57 4.7 2.42l9.71-1.32c.67.78.74 1.26-.16 1.57zm-12.61-11.96.14 2.86c-.77-1.21-.8-1.83-.14-2.86zm-.09 6.69c-.12-.91-.21-1.63-.32-2.52.58.99.61 1.22.32 2.52zm-1.31-5.73c-.16-2.01-.35-3.95-.18-4.07.03-.02.18 1 .23 1.59.22 2.45.08 2.34-.05 2.48zm16.78 9.39c-.6 0-1.18-.02-1.76-.07l3.2-.43c-.42.31-.92.51-1.44.51zm4.44 1.52c-.31-.13-.61-.07-1.04.2-1.44.72-2.09-1.25-1.38-2.3l3.89-.53c-.46.95-.94 1.84-1.47 2.63zm-14.82-2.71c-.01-.08-1.33-10.2-1.34-10.29l31.98-4.32c-.01.8-.03 2.19-.06 3.76-9.79.56-19.8.82-29.31 3 .03.16.07.32.1.48 9.67-1.43 19.42-2.54 29.21-3.2-.02 1.07-.03 2.2-.05 3.29-4.66.79-10.06.17-14.33 1.91 4.61.51 9.59-1.09 14.32-1.34-.01.95-.03 1.86-.04 2.61l-30.49 4.09zm41.12 50.11c-1.06.35-2.22-.14-3.31-.23-1.69.04-3.45.35-5.16.47-4.29.35-8.3 2.23-12.6 2.38-.6.09-2.38.37-1.28-.67.59-.11 9.46-8.85 6.32-7.98-1.95 1.18-3.58 2.94-5.02 4.69-2.98 2.9-6.53.19-1.46-1.91 1.48-.73 2.15-2.37 3.73-2.96 2.68-1.59 5.76-1.62 8.87-1.63 2.51-.5 5.78 1.33 8.04-.23.3-.2.46-.55.46-.89.14-2.04 1.81-3.64 1.58-5.76.34-2.84-.61-5.09-1.7-7.61-.24-1.77 1.93.32 2.46-1.39.77-.95 1.75.7 2.38-.95.62-1.18 1.48 1.08 2.65.61.48-.05.89.17 1.2.55.72 1.1 2.14 2 2.18 3.4-.38 4.41 3.82 7.01 5.09 10.75-.21 2.12-4.55 2.07-6.15 3.24-2.81 1.91-5.44 4.19-8.29 6.12zm11.18-22.06c.51-1.64 1.79-4.81 3.92-4.27 1.07.39 1.94 1.3 3.13 1.31 1.07.2.82-1.56 1.84-1.24 1.49.57 2.9 1.36 4.52 1.56 1.29.09 2.67-.38 3.77.5 3.41 2.32 8.67 5.34 2.4 8.21-4.23 1.51-7.07 5.55-11.45 6.62-.83.09-2.55 1.05-2.68-.3-1.69-4.41-5.73-6.89-5.45-12.37zm41.6 2.03c-1.12 2.49-3.23 4.12-5.62 5.3-4.33 3.02-7.83 7.14-12.26 10.08-.42.4-.93.49-1.47.33-1.95-.17-3.16 2.33-4.55 3.45-3.43 2.06-7.62 2.23-11.34 3.54-1.39.24-3.41.72-4.68.25 1.68-2.26 4.15-4.26 6.93-5.2 1.58-2.45-2.54-.43-3.47-.38-2.32.23-3.88 2.15-5.37 3.74-1.85 1.41-4.6.69-6.75 1.59-7.65.78 4.04-6.71 6.01-7.32 3.97-1.45 8.2-1.93 12.14-3.15 4.58-2.98 8.91-6.4 13.62-9.03 1.28-.84 5.74-6.53 1.9-5.22-1.25.69-1.83-1.63-2.95-2.03-1.85-1.78-4.35-2.88-6.94-2.76-2.33-.05-4.65 0-6.8-1.11-1.64-.38-3.41-1.75-5.07-1.07-.8.44-1.52-.2-2.22-.54-.57-.3-1.16-.39-1.78-.14-1.43.5-2.9-.54-3.91-1.47-.6-.74-1.82-.32-1.69.67.03.38-.23.8-.63.72-2.53-.16-4.36-2.34-6.14-3.94-.96-1.6-1.14-3.73-3.22-4.36-.8-.17-.4-1.06-.51-1.66-.11-1.12-1.47-1.51-1.67-2.67-.53-1.96-2.35-3.05-3.26-4.79-.51-.94-1.66.01-1.32.86.42 1.18.66 2.44 1.6 3.37.38.24.87 1.4.03 1.14-4.8-2.24-.89 2.42-3.59 1.38-.98-.89-2.09-1.3-3.4-1.36 1.97-2.63 3.49-5.82 4.64-9.3.74.72 1.81.33 2.66.23-1.11 1.69.85 3.54 2 4.65 2.67.46.93-1.99.38-3.17-.69-1.58 2.26.28 1.63-2.05l6.61-.94c.61-.06.38-1.02.42-1.41l49.3-6.71c-.51.31-1.13.45-1.71.38.73 1.69.03 3.23-.24 4.9.54.62.98 1.33 1.13 2.15.49.12.71.5.87.93.52 1.09.01.99-.85 1.45-1.6 2.65 3.9 4.55 4.78 1.69-.79-.67-1.46-1.7-1.69-2.84.1.03.21.05.3.09-.16-2.63 2.05-4.16 3.99-5.54.2-.71.49-1.46.94-2.1.21.09.48.07.65-.16 2.66-3.39 5.41.8 5.5-2.36-.35.06-.7.11-1.05.17-.95.14-1.91.26-2.87.34.5-.27 1.04-.46 1.59-.53v-.11l12.91-1.76c-.82 1.01-1.63 2.02-2.44 3.04.19-.01.39-.03.58-.04 1.13-1.03 2.22-2.1 3.29-3.2l3.67-.5c-1.53 1.7-5.46 6.11-8.4 9.4.24-2.36.91-4.89-.35-7.08.1-.34.23-.69.28-1.04-1.19.27-2.42.39-3.62.65.4.08.82.15 1.19.34.26.82.84 1.82.91 2.55-.04 2-.09 4.55-2.16 5.58-.89 1.2.88 1.01 1.38.25.05.02.11.03.16.05-.05.41-.18.99-.28 1.32-.04.1-.1.2-.16.29.08-.12-.22.17-.1.09-.13.08-.23.2-.31.32h-.05c-.63 1.22-1.71 2.2-3.02 2.49-1.45.92-2.89 2.32-4.68 2.4-.75.02-2.08.15-2.22 1.07.18 1.49 2.17.8 2.94 1.47-.99 1.59-4.77 4.76-6.67 2.73-.69-1.04-3.05-1.19-2.19.51.54.9 1.39 1.51 2.16 2.18.61 1.21-2.45 1.13-3.12.71-1.41-.6-1.22-2.11-.47-3.19.48-1.13-.03-3.41-1.49-3.09-.95.5-.22 1.92-1.32 2.46-.63.5-.9 1.13-.55 1.94.79 1.91-3.04 4.2-.92 5.72 1.52 1.05-1.2 2.66-.08 3.98.39.65.64 1.37.85 2.09.92 1.4.76 3.73 2.68 4.12 1.6.49 1.85 2.85.98 4.15zm58.63 1.55c-3.72 1.39-7.51 2.48-11.44 3.13-1.58.15-1.1-4.8-1.77-6.07-.45 1.85-.31 3.84-.5 5.75-.16 1.33-2.2.68-3.16 1-7.52.56-14.86-.35-22.02-2.73-1.26-.43.3-1.89.41-2.73l-.15-.09c-.76.64-1.16 2.44-2.34 2.08-6.74-2.47-13.05-6.6-18.24-11.39.11-1.19 1.27-.9 2.12-.79 3.95 3.5 9.16 7.39 14.47 7.87-4.3-2.24-8.42-4.64-12.07-7.87 1.63-.23 3.85.61 5.01-.97.28-.45.05-.88-.47-.93-10.36.9-5.49-.74.81-2.09 4.36 3.28 9.2 5.64 14.43 7.16 1.34.81-.6 4.35-.51 5.88.05.01.09.03.14.04 1.07-1.41 1.36-4.86 3.09-5.21 2.67.6 5.37.99 8.11 1.1 5.61.21 11.16-.22 16.6-1.71 1.34-.3 1.08 1.97 1.64 2.78.06 0 .11 0 .17-.01.27-1.05-.77-2.89.44-3.41 4.28-1.35 8.36-3.17 12.17-5.55.17.51.36 1.02.54 1.52-1.31.61-2.53 1.41-3.78 2.17 1.39-.38 2.76-.81 4.05-1.43.53 1.39 1.1 2.76 1.72 4.1-2.24 1.39-4.39 2.76-6.58 4.23 2.44-.79 4.74-2.07 7.12-3.08.31.65.63 1.3.97 1.95a67.546 67.546 0 0 1-10.96 5.3zm12.23-62.3c-.06 2.06-.24 4.1-1.2 5.98-.33-2.14.42-4.06 1.2-5.98zm3.89 54.94 6.38 14.68c-1.94-1.01-6.23-11.42-6.38-14.68zm123.99-62.53c3.88 15.62 2.48 32.14-2.95 47.22-.39 1.34-5.46-1.54-6.88-1.55l-.06.15c1.28 1.38 6.06 2.82 5.7 4.67-5.39 12.71-13.21 24.19-24.08 32.85-9.03 7.29-19.72 12.57-31.21 14.55-1.66.11-1.05-4.79-1.77-6.07-.45 1.85-.31 3.84-.5 5.75-.16 1.33-2.2.68-3.16 1-7.52.56-14.86-.35-22.02-2.73-1.26-.43.3-1.89.41-2.73l-.15-.09c-.75.64-1.16 2.43-2.34 2.08-2.85-1.01-5.54-2.37-8.14-3.88-10.42-6.05-18.14-14.64-23.6-25.33-.64-1.29 1.58-1.68 2.24-2.49-.02-.05-.05-.11-.07-.16-1.1.07-2.94 1.65-3.39.08-6.3-13.82-8.04-29.42-5.69-44.38-.07-2.38 3.43 0 4.81-.02-1.03-1.1-2.53-1.71-3.72-2.66-1.16-2.25.92-5.18 1.23-7.77-.04.03-.07.05-.11.07.56-1.74 1.64-3.65 1.53-5.47.09-.18.19-.35.29-.53 11.11-29.16 39.85-54.5 72.71-50.67 3.29.39 6.53 1.02 9.7 2 1.29.15.48 1.33.44 2.18.5-.52.37-2.03 1.36-1.63 2.27.94 4.53 1.88 6.8 2.81.99.9-1.91 4.27-1.7 5.64 4.76-6.67 3.13-4.48 9.49-1.01 1.03 1.11-3.14 4.29-3.68 5.72 1.81-.53 4.13-4.88 5.87-4.09 11.61 9.06 19.21 22.25 22.64 36.45zm.08-28.61c-1.33 4.52-2.65 9.1-3.91 13.63a65.517 65.517 0 0 0-5.83-9.89c2.55-.28 5.11-.57 7.66-.85-.01-.13-.03-.25-.04-.38l-7.92.81c-.45-.63-.92-1.24-1.4-1.85 3.74-.32 7.48-.64 11.23-.95-3.91-.07-7.79.09-11.66.4-.41-.51-.82-1.02-1.25-1.52 4.16-.38 8.29-.91 12.47-1.12 0 .02-.64 1.1-.65 1.13l1.5-.06-.19.65zm-4.24-16.1c.3.32.61.65.89.99.76 0 1.25-.14 1.49.71-2.51.18-5.01.35-7.52.53 0 .16.01.31.02.47 2.54-.22 5.08-.43 7.62-.65.02.04.52 1.52.55 1.6l-.12.08h.15l.33.97-.5.02.07.31c-1.31.06-2.62.11-3.93.17 0 .13 0 .25.01.38 1.32 0 2.65-.02 4.03-.03.04.17.07.35.1.52l.82.59c.14 1.51 3.06 6.32.18 6.19l-.11.35-13.84 1.26c-2.07-2.32-4.35-4.57-6.78-6.57 1.09-.2 2.16-.39 3.23-.58-1.15-.23-2.55-.15-3.78.12a55.335 55.335 0 0 0-6.4-4.49l23.49-2.94zm-5.07-15.04c2.06 2.43 3.65 4.56 4.29 7.66-3.56-1.34-7.14-2.22-10.79-3.22.05-2.53-.08-5.09-.43-7.62.65-.52 1.3-1.06 1.95-1.59 1.79 1.35 3.39 2.92 4.98 4.76zm26.63-33.86c-13.9 12.24-28.26 23.98-42.87 35.35-.11-.04-.36-.04-1.03-.13 14.98-11.64 29.54-23.82 43.96-36.14.6.4.24.65-.06.91zm9.86 1.78c.18.25.39.47.53.75-3.79-5.23-7.83-10.25-12.33-14.9 4.03 5.31 7.91 10.71 11.24 16.5-6.82-11.26-15.81-20.54-26.02-28.71 5.35 4.89 10.37 10.09 14.58 15.96-6.42-7.11-13.31-13.61-20.73-19.73 1.05-.74 1.9-3.04 3.25-2.71 11.37 9.46 21.19 20.61 29.48 32.85zm-.43-11.3c-1.69-1.84-3.37-3.67-5.05-5.51l-.17.14c.35.53.71 1.05 1.06 1.58-.02.01-.03.02-.05.04-1.96-2.35-3.92-4.69-5.95-7.13.42-.31.77-.56 1.16-.85.92 1.46 10.71 11.47 9 11.74zm2.34-2.96c-1.34-1.46-2.67-2.93-4-4.4-.07.07-.14.13-.21.2.52.75 1.04 1.51 1.55 2.26-.04.03-.08.05-.12.08-2.25-2.7-4.51-5.4-6.82-8.17.55-.3 1.05-1.16 1.59-.43 2.73 3.63 6.32 6.89 8.59 10.73-.2-.08-.47-.11-.6-.26zm2.57-2.46c-1.53-1.35-2.79-3.21-4.45-4.31.35.53.71 1.05 1.06 1.58-.01 0-.03.02-.04.03-1.92-2.3-3.83-4.59-5.83-6.98.4-.3.78-.58 1.21-.9 2.8 3.75 6.48 6.98 8.65 10.83-.2-.08-.46-.11-.6-.25zm2.53-2.45c-1.53-1.52-2.83-3.3-4.5-4.66-.02.02-.04.04-.06.07.35.47.7.93 1.04 1.4-.03.03-.06.05-.1.08-1.73-2.07-3.45-4.14-5.23-6.26.57-.37 1.09-1.17 1.64-.35 2.41 3.41 6.13 6.35 7.85 10.02-.22-.09-.49-.13-.64-.29zm2.64-2.5c-1.44-1.45-2.73-3.07-4.25-4.44l-.12.09.75 1.11c-.03.02-.05.05-.08.07-.67-1.06-5.56-5.47-4.46-6.18.38-.24.68-.66 1.16-.07 2.34 3.3 5.92 6.16 7.6 9.71-.2-.09-.46-.14-.6-.29zm2.71-2.42c-1.35-1.38-2.57-2.9-4.04-4.15l-.1.1c.34.51.69 1.01 1.03 1.52-.02.02-.04.03-.06.05-1.72-2.06-3.43-4.11-5.13-6.14.85-1.04 1.09-1.13 1.92-.04 2.12 3.01 5.48 5.62 6.93 8.87-.19-.06-.43-.07-.55-.2zm3.12-2.32c-1.49-1.58-2.98-3.16-4.46-4.74l-.21.18 1.98 2.85c-.04.03-.09.06-.13.1-1.9-2.28-3.8-4.55-5.73-6.86.56-.6 1.14-1.12 1.76-.24 2.25 2.93 4.92 5.57 6.98 8.62-.06.03-.13.07-.19.1zm-1.28-6.25c-.06.04-.11.09-.17.13.41.64.82 1.27 1.23 1.91-.03.02-.05.03-.08.05-1.77-2.12-3.53-4.23-5.36-6.42.39-.33.73-.61 1.05-.88.98.64 7.32 8.47 7.22 9.05-1.33-1.31-2.61-2.58-3.9-3.85zm6.53 1.27c-1.25-1.16-2.5-2.32-3.74-3.48-.05.06-.1.11-.16.17.27.4.55.79.82 1.19-.03.02-.06.05-.09.07-1.58-1.89-3.16-3.79-4.8-5.75.38-.28.91-.91 1.41-.54 1.99 2.79 5.25 5.43 6.56 8.34zm2.2-2.66c-1.25-1.19-2.35-2.27-3.69-3.44.01.27.02.41.03.56-1.21-1.45-2.39-2.87-3.58-4.29.98-1.04 1.13-1.17 1.91-.05 1.82 2.47 4.43 4.65 5.79 7.32-.15-.03-.36-.02-.46-.11zm2.52-2.59c-.98-.94-1.95-1.89-2.92-2.85l-.17.14c.27.44.55.87.82 1.31-.02.01-.04.03-.05.04-1.51-1.81-3.02-3.61-4.57-5.47.42-.28.79-.54 1.24-.84 1.97 2.75 4.86 5.04 6.2 7.92-.19-.08-.41-.13-.55-.26zm2.61-2.33c-.81-.77-1.54-1.63-2.38-2.38l-.1.07c.1.28.19.55.37 1.06-1.56-1.87-2.98-3.57-4.43-5.3.56-.58 1.1-1.16 1.72-.26 1.58 2.37 4.31 4.36 5.32 6.91-.17-.03-.41 0-.51-.1zm14.72-6.21c-3.08 3.89-8.43 5.06-11.76 2.54 4.58 2.41 11.16.32 11.66-5.31-3.86 7.81-15.05 5.42-15.19-3.36-1.02 1.84-.43 4.52 1.6 7.28-8.95-7.84 3.12-21.41 11.83-14 4.16 3.48 4.95 8.94 1.86 12.84z"/>
    <path d="M437.65 92.74c-7.12 5.67 2.01 16.76 8.97 10.87 7.05-5.88-1.88-16.71-8.97-10.87zm7.66 9.22c-4.76 4.36-11.48-3.68-6.41-7.6 4.77-4.37 11.57 3.63 6.41 7.6zm-138.23 18.41c7.89-.81 2.49-12.56-3.98-10.69-7.31 1.84-1.71 11.6 3.98 10.69zm37.21 2.21c-7.55 2.44-.47 12.43 5.38 10.31 6.89-2.48.35-12.38-5.38-10.31zm-69.62 28.68c-8.25-1.39-10.07 9.41-1.96 10.67 5.65.47 8.12-9.18 1.96-10.67zm77.48-8.93c-6.63 4.26-15.32 6.34-20.94 11.69.9.58 1.75.28 2.67-.07.01.03.02.06.03.08 9.04-4.34 18.24-8.7 26.58-14.28 1.13-1.42 5.12-2.31 4.89-4.16-1.09-2.34-10.71 6.11-13.24 6.74zm-44.94 15.45c.79 5.59 10.58 3.94 9.93-1.78.1-7.85-11.48-4.97-9.93 1.78zm-21.34-27.76c-5.26-1.14-7.73 7.07-4.12 9.93 6.13 3.22 11.7-8.52 4.12-9.93zm46.09 28.84c-1.46-.45-2.51 3.26-3.47 4.23-.69 2.08-8.89 12.54-6.44 13.17 3.4-5.34 6.61-10.82 9.95-16.2.26-.42.43-.89-.04-1.2zm13.03 2.03c.58-1.02 9.09-15.74 4.31-12.18-1.77 4.17-4.43 7.94-5.85 12.21.49.63 1.23.76 1.54-.04zm-1.93 1.61c-2.7 4.93-7.47 9.51-8.84 14.86 1.28.41 12.85-16.69 8.84-14.86zm-2.87-5.41c-1.22-2.93-4.53 5.99-5.48 6.98-1.33 2.56-3.71 5.03-4.04 7.9 1.18-.22 1.71-1.51 2.39-2.39 2.32-4.15 5.2-8.17 7.13-12.48zm15.06-12.19c-.22-.04-.61.1-.72.29-1.46 2.81-2.31 5.9-3.64 8.78-1.01 6.74 5.8-6.73 4.96-8.49-.22-.23-.39-.53-.6-.57zm-16.22 20.38c8.58-13.78 6.58-15.78-1.18-.81-.27.65-.45 1.32.34 1.77.36-.41.66-.65.84-.96z"/>
    <path d="M350.66 156.95c-2.18-.52-3.49 4.75-4.82 6.22-.4 1.13-2.18 2.77-.87 3.78 1.06-.5 6.66-9.41 5.7-10.01zm-56.36-39.43c.87.63 1.86-.73.96-1.38-1.12-.64-6.28-6.79-6.65-4.07 1.5 2.17 3.79 3.64 5.69 5.45zm43.69-5.79c1.25.63 3.6 4.5 4.58 2.1-1.84-2.18-4.22-3.65-6.35-5.52-.42-.42-.97-.05-1.46.04.44 1.54 2.16 2.26 3.22 3.38zm-6.54 54.42c-.52-3.51-5.6 6.67-5.56 7.71.11.06.22.12.34.18 2.19-2.18 3.7-5.21 5.22-7.89zm-27.72-19.37c.5 2.73 6.03-5.31 4.28-5.76-1.62-.77-3.54 4.53-4.28 5.76zm-20.65-21.14c1.82.94 5.16-3.96 2.14-4.11-1.36.84-3.13 2.63-2.14 4.11zm47.81 26.06c1.28-1.15-4.63-6.17-4.45-3.81 1.04 1.45 2.47 4.26 4.45 3.81zm-24.08-43.56c.59.59 2.05 1.42 2.12.03-.92-1.51-2.53-2.3-3.83-3.46-.31-.24-.82-.44-1.03.05-.07 1.49 1.87 2.34 2.74 3.38zm7.78 17.28c-1.61-1.13-2.97-3.42-4.91-3.69.03 1.95 2.54 2.99 3.68 4.43.64.62 2.01 0 1.24-.73zm-1.93-6.88c-1.81.7 1.99 2.92 2.54 3.77.61.56 2.08.09 1.4-.82-1.29-.94-2.33-2.68-3.94-2.95zm19.25 44.5c-.45.69.17 1.87.85 1.01.85-1.51 2.8-2.92 2.45-4.76-1.88.14-2.25 2.48-3.3 3.75zm27.07-21.27c-1 .99-1.5 2.22-1.51 3.62 1.07 3.36 4.81-5.44 1.51-3.62zm-78.35-18.44c1.02-1.1 2.68-2.67 2.65-4.26-.15-.68-.66-.82-1.13-.31-.58.76-3.91 4.86-1.52 4.57zm14.45-10.19c.81.56 2.1-.4 1.29-1.07-1.12-.72-2.4-3.22-3.85-2.37-.6 1.42 1.8 2.42 2.56 3.44zm-22.2 20.94c.87-.66 4.34-5.47 1.35-4.49-.49.81-3.58 4.59-1.35 4.49zm18.88-3.57c1.48-.46 2.82-3.12.61-3.43-1.6.23-3.05 4.04-.61 3.43zm26.51-13.06c-.41-.93-3.44-3.86-3.72-1.77.36 1.28 4.09 4.72 3.72 1.77zm-2.14 18.65c-2.56.35 3.18 5.67 3.16 2.65-.82-1.29-1.82-2.18-3.16-2.65zm-21.28-2.22c1.18-.22 3.39-3.99 1.07-3.83-1.04.21-3.3 4.17-1.07 3.83zm22.51 34.31c-1.06.47-2.88 3.75-.87 3.68 1.24-.26 3.64-4.44.87-3.68zm-5.23-39.34c.57-1.65-2.14-2.55-3.03-3.71-.44-.26-.78.16-.77.56.73.85 2.65 3.89 3.8 3.15zm1.6-23.85c3.52.14-3.82-5.8-2.85-2.59.87.94 1.87 1.76 2.85 2.59zm8.17 1.01c.16-.12.11-.5.15-.74-.93-1.23-2.4-2.67-3.99-2.75.12 1.65 2.2 3.6 3.84 3.48zm-16.63 19.93c-1.99.2 2.26 4.37 3.26 3.39.6-1.29-2.33-3.23-3.26-3.39zm54.24 8.35c.6.34 1.25-.13 1.33-.84-2.78-3.95-5.78-2.66-1.33.84zm-81.54-10.05c-.75.49-3.03 4.04-1.22 3.88.86-.44 3.99-4.79 1.22-3.88zm20.61 11.91c.9-.72 2.33-2.74.4-3.03-1.74.2-2.85 4.13-.4 3.03zm17.46-8.02c.49.83 2.98 4.58 3.61 2.32-.03-.77-3.48-4.45-3.61-2.32zm.56-26.01c2.36-.21-1.02-3.62-2.38-3.01-.86 1.14 1.43 2.81 2.38 3.01zm5.01-.83c0 1.02 3.66 4.42 3.91 2.37-.48-1.04-2.53-3.09-3.91-2.37zm-2.14 53.82c.62-.91 1.15-1.89 1.61-2.89-.12-2.33-3.32 1.57-2.79 2.52.18.6.85.85 1.18.37zm-5.29-44.75c.19.83 1.75 2.25 2.59 2.36 2.71-.2-2.43-5-2.59-2.36zm9.51-10.63c.54.19.91-.23.94-.75-2.74-4.23-5.81-1.67-.94.75zm-35.83 27.8c.91 0 2.1-1.51 1.83-2.59-1.49-1.33-4.36 2.11-1.83 2.59zm16.24 13.5c.69-.38 1.23-1.03 1.42-1.89-.2-3.94-4.69 2.45-1.42 1.89zm26.51-32.91c-1.94.35.88 2.24 1.43 2.9.57.38 1.21-.24 1.24-.77-.27-.8-2.02-2.14-2.67-2.13zm-13.68 25.66c.55.13.9-.27.89-.77-2.56-4.6-5.1-1.5-.89.77zm23.57-16.4c-.14 1.1 1.44 1.93 2.05 2.78.63.56 1.86-.26 1.27-.83-1.02-.59-2.1-2.27-3.32-1.95zm11.8 20.89c.53.66.98 1.63 1.88 1.73 1.76-.69.03-2.1-.7-2.88-.68-.44-1.89.3-1.18 1.15zm4.9 9.88c-.88.67-1.39 1.6-1.49 2.7.61 2.82 4.32-3.83 1.49-2.7zm-25.05-41.48c2.75-.06-1.4-2.86-2.27-2.99-1.31.95 1.62 2.29 2.27 2.99zm23.08 29.45c.75.98 3.13 2.33 2.73.1-.68-1.2-2.58-2.3-2.73-.1zm-19.27 22.1c.76-.37 2.16-4.26.11-3.3-.87.42-1.93 3.92-.11 3.3zm-14.57 5.39c.77-.22 2.19-2.44 2.07-3.18-.6-2.07-4.15 3.47-2.07 3.18zm-11.83-58.15c.47.14.82-.13.74-.64-2.17-4.28-5.12-1.15-.74.64zm3.21 7.97c2.18.12-.8-3.62-2.13-2.66-.42 1.14 1.09 2.34 2.13 2.66zm10.55-6.75c-2.15-.06.47 2.84 1.46 2.79 2.02-.23-.45-2.64-1.46-2.79zm35.44 22.79c.85.15 1.16-.33 1.28-1.23-2.3-2.79-4.11-.2-1.28 1.23zm-60.8-18.95c2.29.12.37-3.03-1.23-2.45-.8.82.3 2.26 1.23 2.45zm18.47 41.05c.12.11.47.16.53.09.8-.74 2.16-2.78.15-2.78-.89.24-1.79 2-.68 2.69zm45.94-18.54c.86.5 1.38-.07 1.55-1.02-1.59-2.47-3.72-1-1.55 1.02zm-65.12-14.21c-1.43.7.63 2.79 1.47 2.33 1.67-.74-.24-2.76-1.47-2.33zm14.3 12.95c-2.31-.2 2.09 4.37 2.08 1.64-.49-.95-1.16-1.47-2.08-1.64zm5.5-26c-2.64-.08 1.4 4.16 1.71 1.47-.37-.9-.97-1.3-1.71-1.47zm4.27 35.32c-2.19.18 2.12 4.43 2.14 1.89-.16-.64-1.5-1.82-2.14-1.89zm-1.04-15.96c-.63-.52-1.88-2.19-2.59-1.08-.19.61 1.3 2.42 1.94 2.36.65-.05 1.09-.84.65-1.28zm.28 31.8c-.89.3-2.3 3.01-.48 2.64 1.05-.25 2.59-2.99.48-2.64zM350.53 122c.61.32.83-.19.89-.68-2.48-3.63-4.74-1.84-.89.68zm-49.64 16.34c.75-.54 2.29-2.23.64-2.58-1.35.11-2.51 3.17-.64 2.58zm21.02-1.76c-.15-.51-1.37-1.46-1.9-1.48-2.63.48 2.13 4.07 1.9 1.48zm-11.01-29.4c.04 1.18 2.28 2.56 2.47.79-.29-1.07-2.4-2.52-2.47-.79zm2.19 41.84c.9-.24 1.76-1.39 1.01-2.28-1.31-.84-3.12 2.64-1.01 2.28zm-10.94-40.77c.28-.11.45-.51.57-.66-1.76-3.84-4.29.85-.57.66zm-.45 33.61c-1.03.31-1.52 2.75.06 2.3 1.56-.38 1.57-2.58-.06-2.3zm4.56-17.98c1.87-.59-1.06-2.97-2.12-2.32.08.82 1.35 2.26 2.12 2.32zm40.08-6.31c.63-1.56-1.95-2.78-2.36-.83.77.41 1.58 1.79 2.36.83zM319.5 99.64c.25-.1.39-.48.47-.6-1.71-3.85-4.16.38-.47.6zm-18.07 22.59c-1.29.51-.21 2.53.86 2.15 1.57-.37.18-2.48-.86-2.15zm53.29 3.34c.48.29 1.03-.3 1.04-.73-1.42-2.48-3.91-1.3-1.04.73zm-56.25 13.69c-.84.25-1.51 2.02-.41 2.38 1.45-.33 2.14-2.58.41-2.38zm-28.84-1.18c1.28.08 2.41-3.21.4-2.36-.64.47-1.39 1.95-.4 2.36zm40.3 8.99c1.52-.51 1.79-2.12.22-2.18-.77.17-1.46 2.08-.22 2.18zm33.54 20.66c-.84-.14-1.89 1.2-1.55 2 1.22.7 2.69-1.23 1.55-2zm-20.82-11.32c1.4-.33 1.88-2.43.28-2.18-.9.31-1.42 1.9-.28 2.18zm18.44-2.96c-.72-1.39-2.19.1-1.63 1.5.9.79 1.89-.52 1.63-1.5zm-42.8-37.22c1.11-.49.26-2.41-.73-2.01-1.51.24-.22 2.37.73 2.01zm56.7 13.34c.22-.12.31-.47.39-.6-1.7-3.05-3.52.93-.39.6zm-10.41 23.3c.97-.27 1.09-1.84.1-2.18-1.18.27-1.53 2.49-.1 2.18zm18.61-13.28c-1 .2-1.26 2.41.12 2.02 1.1-.17 1.21-2.28-.12-2.02zm-36.28-37.14c2.26-.26-1.16-3.38-1.11-1.08.2.67.56.92 1.11 1.08zm-3.38 56.12c.13.28.53.43.68.55 2.99-1.35-.96-3.48-.68-.55zm15.06-42.97c.23-.12.32-.51.38-.63-.2-1.33-2.02-1.82-1.91-.5.17.58 1.13 1.35 1.53 1.13zm-70.82 25c-.79-.79-1.82.1-1.62 1.21.56 1.24 1.8-.11 1.62-1.21zm59.1-35.74c-1.36.92.91 2.69 1.45 1.18-.19-.76-1.06-1.41-1.45-1.18zm5.51 50.87c-1.07.36-.39 1.27.33 1.57.1-.03.21-.07.31-.1.41-.67.44-1.78-.64-1.47zm-131.29 5.71c-6.72-3.31-10.17 7-5.13 10.84 6.98 5.53 11.06-7.46 5.13-10.84zm35.52-4.06c3.34-.95 4.56-5.08 3.46-8.2.03-.02.06-.04.09-.05-1.93-7.19-10.22-3.36-9.8 2.87.21 3.58 2.87 5.9 6.24 5.38zm14.11 2.52c-6.24-.01-5.13 11.45.49 11.3 5.54.12 5.42-12.56-.49-11.3zm-67.76-25.18c11.33 2.07 22.71 3.88 34.06 5.81.89.29 2.39-.33 1.5-1.12-1.08-.8-42.86-8.82-35.56-4.68zm46.82 30.83c-3.88-4-.43 18.21-.47 20.23.17.16.39.38.61.6.53-.44.83-.98.74-1.68-.35-6.38-.65-12.76-.88-19.14zm14.08-21.42c.62 2.14-.44 7.05 1.62 8.06.66-.14.41-.75.5-1.18-.15-3.94-.34-8.06-.69-11.95-.21-.67-.56-1.02-1.18-.95-1.57.66-.01 4.47-.25 6.01zm-9.93 38.7c-.09-3.19.62-11.02-1.39-13.13-1.59.44-.61 15.61 1.39 13.13zm-15.71-48.08c2.99.13 6.64.74 9.28-.8 2.69-2.99-14.73-.95-9.28.8zm25.74 34.82c-.27-12.62-4-14.74-1.67-.34h.06c.18.89 1.38 1.7 1.61.34zm-26.65-25.66h-.06c-2.62-4.86-.67 7.53-.69 8.58 2.78 5.57.99-7.34.75-8.59zm18.86 27.04c-.08-1.69.47-10.6-1.19-10.65-1.74.24-.15 10.01.75 11.21.09-.03.18-.07.26-.1.06-.15.14-.3.17-.46zm11.37-22.07h.04c.04.37.42.55.65.81 1.19-3.39-.44-7.62-.36-11.28-2.85-3.67-.23 9.34-.33 10.47zm-7.68 21.38c-.65-2.13.46-8.92-1.8-9.37-1.08 3.05.35 7.46.52 10.82.95-.29 1.33-.8 1.28-1.45zm4.84 3.81c-.03-.38-.16-.74-.26-1.19-2.18 1.82-.21 6.58-.57 9.27.04.97-.11 2.69 1.25 2.67.75-.09.44-.68.41-1.06-.25-3.23-.53-6.46-.82-9.69zm-16.01-12.95c1.51-1.46.02-4.7.25-6.54-.42-1.8-2.44-1.52-2.09.1.55 1.39-.61 7.68 1.84 6.44zm30.97 10.34c2.88 2.36 1.79-3.55 1.53-4.93a.36.36 0 0 0-.11.02c-.33-.64-.16-1.9-1.11-1.93-1.44.33-.58 5.64-.3 6.84zm-77.97-33.27c.57 2 .04 4.59 1.71 6.04 1.46-1.86.16-4.41.19-6.58-.64-1.78-2.19-1.25-1.9.54zm45.92 11.91c2.39-.59.77-4.99.93-6.96-.69-.78-1.95-.81-1.79.53.4 2.02-.21 4.71.87 6.42zm29.81 24.64c1.54.02.83-6.27-.73-5.76-1.55.16-.69 6.01.73 5.76zm-16.88-1.33c-2.78-1.56-.8 4.49-1.03 5.99.22.17.52.39.81.61.45-.51.8-1.06.7-1.77-.21-1.55.15-3.41-.47-4.82zm-15.21-43.14c1.53-.28 4.49.72 5-1.21.2-2.18-8.92.04-5 1.21zm-20.24 11.27c-1.56.75.07 4.1-.1 5.84.23.18.56.43.89.67.81-.66.88-7.04-.79-6.51zm28.73 43.1c-1.47 1.23-.55 3.42-.79 5.12h.2c.12 1.2 1.31 1.29 1.48.07-.27-1.71.77-4.08-.88-5.19zm35.13-5.54c1.15-1.4.35-3.33.47-5-.35-1.13-1.86-1.4-1.85-.01.36 1.68-.28 3.97 1.38 5.01zm-49.03 16.94c-.91 1.04.05 2.99.05 4.3.06 1.46 2.29 1.18 2.02-.39-.29-1.17-.28-3.93-2.07-3.91zm-6.6-48.93c1.37-.58.19-2.74.27-3.91-.03-.87-1.07-2.28-1.71-1.01-.35 1.16.1 2.4.21 3.57h.03c.19.62.33 1.56 1.2 1.35zm17.64-.94c1.55-.12.54-4.84.03-5.8-1.97.85-.81 3.41-1.03 5.22.34.21.64.52 1 .58zm-40.9-8.34c-1.63.59-.23 3.25-.43 4.61.04 0 .08-.01.13-.02.08.63.37 1.04.93 1.34.79-.46.72-6.34-.62-5.93zm8.36 8.43c.87-1.03.25-2.93.48-4.25h-.19c-.1-1.43-1.96-1.58-1.87-.03.25 1.33.01 3.85 1.58 4.28zm42.28-3.5c1.78 4.1 2.2-4.48.49-4.51-1.56.39-.31 3.24-.59 4.5.03 0 .07 0 .1.01zm-45.43-10.07c1.46.04 2.92.03 4.45.03 4.05-2.77-7.39-1.78-4.45-.03zm37.83 33.82c.87-5.93-2.48-5.84-1.62.13.58.72 1.35.85 1.62-.13zm27.4-32.5c-1.87-1.43-1.67 4.54-.29 4.89 1.27-.95.65-2.71.9-4.09-.04-.01-.08-.03-.12-.04-.16-.26-.28-.55-.49-.76zm-46.74 19.84c1.16-.71.38-2.71.55-3.89h-.14c-.08-1.36-1.8-1.54-1.7-.07.34 1.25-.21 3.47 1.29 3.95zm40.03 22.33c-1.15.92.01 2.97-.14 4.29-.16 1.03.74 2.9 1.47 1.21-.42-1.16.28-5.88-1.33-5.5zm2.52-47.55c.78.12 1.58.07 2.37.09v-.14c.75-.08.99-.74 1.35-1.3-.94-1.19-6.54-.39-3.73 1.35z"/>
    <path d="M234.72 143.83c1.23.07 1.17-4.38.08-4.42-1.6-.26-1.74 4.66-.08 4.42zm-18.28 13.09c-.04.74.06 1.5.1 2.25h.08c.28 1.57 2.06 1.32 1.87-.25-.29-.95.19-2.79-1.08-3-.66-.03-.94.47-.97 1zm31.37 19.96c-1.21 1.19-.41 3-.59 4.6 2.1 2.57 1.77-4.16.59-4.6zm6.48-37.15c1.32-.38.39-2.55.49-3.59-.05-.52-.33-.92-.89-.91-1.49.44-.45 2.44-.6 3.73.3.25.65.77 1.01.78zm9.96 33.1c1.39.2 1.02-4.3-.32-4.09-1.35.22-.86 3.84.32 4.09zm-13.68-31.69c.93-.84.47-2.18.62-3.3h-.15c-.16-1.3-1.81-1.53-1.69-.07.3 1.14.05 2.73 1.22 3.37zm6.17 25.26c1.29-.86.63-2.27.78-3.69-.33-.25-.66-.5-1-.75-1 1.13-.94 3.44.22 4.44zm-39.55 30.8c-1.28.13-1.17 3.52.25 3.44 1.53-.06 1.02-3.54-.25-3.44zm-23.23-55c1.03-.42.67-2.05.67-2.95-1.23-1.87-2.04.41-1.72 1.72h.1c.09.48.49 1.16.95 1.22zm-14.72-1.86c-1.17.53-.61 1.73-.59 2.85.24.23.54.52.84.81.97-.64 1.35-3.86-.25-3.67zm59.22 1.99c.15-.77.14-1.58.21-2.44-1.71-2.1-2.53 1.76-1.27 2.73.48.41.94.33 1.06-.29zm-2.71 33.88c-.39 4.1 1.88 4.11 1.52-.07-.56-.74-1.25-.87-1.52.07zm20.88-41.44c-1.04.27-.73 1.74-.71 2.58h.08c.08.43.48.69.72 1.03 1.12-.67 1.38-3.25-.09-3.61zm-9.87 22.21c-1.55-3.03-2.46.54-1.43 2.04 1.3 1.25 1.37-1.26 1.43-2.04zm-59.77-15.94c-1.07.8-.54 1.83-.54 3.08.27.2.58.44.9.68.94-1.03.86-2.99-.36-3.75zm31.84 22.99c-.31-1.21-1.51-1.24-1.8-.29.23.84.07 2.47 1.15 2.63.9-.28.54-1.8.65-2.34zm-9.09 32.59c-1.35.37-.47 3.1.92 2.66 1.35-.34.45-3.14-.92-2.66zm-30.76-50.25c.06 1.02-.15 2.28.95 2.81.97-.81.44-1.85.49-3.08-.26-.2-.57-.44-.88-.67-.2.31-.55.62-.56.94zm68.96 6.08c-.11.58-.05 1.2-.05 1.81h.11c2 3.97 1.97-4.59-.06-1.81zm-27.59 35.48c.33-2.84-1.88-3.24-1.71-.15.04 0 .08 0 .12.01.08.47.62.68.93 1.01.23-.29.63-.57.66-.88zm-10.61-44.27c.1-2.98-1.9-2.59-1.8.23.68.77 1.79 1.05 1.8-.23zm-.24 6.86c1.3 0 .68-1.6.69-2.57-.25-.21-.57-.47-.88-.73-.76.86-.95 2.72.19 3.3zm32.95-2.23c.66-1.09-.64-4.06-1.57-2.03-.28.61.88 3.22 1.57 2.03zm-64.2-10.3c1.23 1.66 2.07-.59 1.43-1.7-1.16-1.21-1.73.47-1.35 1.55l-.09.15zm15.37 7.56c.84 2.96 2.74-1.82.48-1.9-.84.28-.63 1.21-.52 1.9h.05zm7.19-.23c-.32.83.25 2.91 1.36 2.02 1.02-.87-.46-3.94-1.36-2.02zm49.22-1.32c-.04.44.03.89.06 1.5.24.2.55.45.85.7.52-.62.89-1.37.62-2.18-.22-.89-1.45-1.08-1.53-.02zM248 131.67c1.34-.41.76-2.55-.73-1.94-1.68.47-.63 2.34.73 1.94zm-5.9 22.99c-1.13.65-.81 2.53.59 2.76.47-.56.56-3.31-.59-2.76zm-21.78 39.52c1.07-.21.96-2.87-.46-2.42-1.09.25-.9 2.7.46 2.42zm-7.07-37.02c-.93.07-.85 2.63.55 2.39 1.09-.23.86-2.83-.55-2.39zm-12.42-16.52c-.96.15-.69 2.58.52 2.35 1.04-.14.87-2.81-.52-2.35zm53.45.12c-1 .15-.83 2.61.48 2.35.83 0 .82-2.59-.48-2.35zm-37.34 54.47c1.17-.23.63-2.4-.54-1.97-1.26.3-.61 2.29.54 1.97zm-29.54-57.14c-.01-.07-.03-.14-.05-.21.03-.06.07-.11.1-.17-.35-.21-.7-.42-1.06-.63-1.59 1.64.99 3.93 1 1.01zm75.65-4.99c-1.08.22-.73 2.33.49 1.99 1-.18.8-2.35-.49-1.99zm-49.92 64.96c-.67.44-.55 2.01.58 1.67.99-.26.26-2.09-.58-1.67zm39.66-68.45c-.41-.99-1.45-.34-1.71.42.38.2.75.4 1.33.71.19-.52.45-.87.38-1.13zm-25.62 175.42c-6.06 1.81-12.26.76-18.45.78l-.02.13c6.31 2.11 13.58 2.74 19.52-.78-.02-.06-.03-.13-.05-.19-.33.02-.68 0-1 .06zm-16.28 5.9c-2.08-.36-4.12-.98-6.18-1.42l-.12.3c4.23 3.14 9.84 3.09 14.82 2.37-2.81-.54-5.7-.74-8.52-1.26zm9.25-25.49c.06.04.13.08.19.12.77-1.06.3-2.72.54-4.02h-.12c-.21 1.3-.41 2.6-.62 3.9zm-.36 2.15c-.35.59.15 1.31.7.79.16-.55-.27-.63-.7-.79zm4.82-.77c.62-4.38.66-8.89 1.07-13.32-.15.02-.31.04-.46.07-.26.42-.58.8-.95 1.13-.17 4.06.14 8.05.34 12.12zm144.75-46.47c1.72-1.28 3.45-2.45 5.1-3.82-1.25.48-2.34.91-3.44 1.34h.02-.01c.02 0 0 0 0 0v.01c-.87.45-1.74.89-2.68 1.37-4.84-14.17-15.1-26.87-29.11-32.64.35-.47.92-.83.92-1.46 7 3.22 13.17 7.7 18.67 13.26-4.38-6.27-11.14-11.96-18.51-14.25 0-.03.01-.06.02-.09-.69-.27-1.34-.49-1.93-.6-.01.08-.03.16-.04.24l-2.73-.66c-.02.06-.05.13-.07.19.92.33 1.82.7 2.71 1.07-.09.59-.19 1.18-.28 1.78-14.94-5.65-32.24-3.22-45.68 5.15-1.73.41-2.56-3.45-4.07-4.22.22 1.67 2.94 4.46 1.66 5.78-11.03 7.64-19.6 18.52-24.73 30.89-3.7 6.66-4.72 14.29-5.25 21.77v-.02c-.65 9.58.1 19.25 3.34 28.34.17 1.56-1.98 2.5-2.72 3.79-1.17 7.05 5.02 13.42 10.28 17.39-2.68-4.23-15.03-16.49-6.81-19.53 5.36 14.72 17.48 26.97 32.6 31.38 1.35.85-.61 4.33-.51 5.88.05.01.09.03.14.04 1.07-1.41 1.36-4.86 3.09-5.21 2.67.6 5.37.99 8.11 1.1 5.61.21 11.16-.22 16.6-1.71 1.34-.3 1.08 1.97 1.64 2.78.06 0 .11 0 .17-.01.26-1.04-.77-2.89.44-3.41 4.17-1.31 8.14-3.09 11.88-5.37 10.42-6.39 18.92-15.69 24.69-26.43.47-1.16 1.36-.36 2.27-.52-2.31-1.01-.7-2.2-.11-3.86 5.73-12.37 7.56-26.98 5.69-40.6-.13-.84-.02-.96.82-1.18 4.18 2.52 1.1 12.88 2 17.26 5.45-21.48-5.61-15.13 4.6-21.02-2.61.69-5.21 1.37-7.88 2.07-.02-1.93-2.04-4.72-.89-6.27zm-4.99 9.28c-.01.12-.08.24-.15.46-1.1-5.51-.34-11.2-1.64-16.71l.24-.12c2.62 4.88 1.87 11 1.55 16.37zm-1.6 5.11c.03.7-.09.82-.81.85-7.65.3-15.3.54-22.95.82-1.29.02-.99-1.95-1.65-2.74-.35-.69-.26-1.19.15-1.73 1.59-.22 3.19-.42 4.76-.61l.17.46c3.07-.6 6.44-1.33 9.41-2 .01 0 .27.16.29.17 3.29-.71 6.74-.68 10.1-1.28.27 2 .44 4.03.53 6.07zm-20.25-8.32c2.52-.26 5.04-.52 7.56-.77-.02-.16-.03-.33-.05-.49-2.34.24-4.68.48-7.01.73 4.22-4.61 8.43-9.23 12.66-13.83.61-.06 1.21-.12 1.78-.33 2.01 4.48 3.43 9.11 4.3 13.86-7.18.82-14.3 2.45-21.53 3.35.77-.83 1.53-1.67 2.29-2.51zm11.54-27.29c.77 1.39 3.75 3.19 3.4 4.63-3.9 3.92-7.51 8.18-11.13 12.33 4.31-3.64 8.25-7.56 12.14-11.62 1.34.93 1.08 1.66.02 2.71-7.3 7.91-14.47 15.93-21.83 23.78-.27-.73-1.38-1.39-.8-2.09 2.61-2.78 5.22-5.56 7.8-8.36-.03-.04-.07-.07-.1-.11-2.92 2.62-6.26 4.67-8.56 7.94-.78-1.23-2.94-2.28-2.78-3.61 4.92-4.9 9.14-10.48 13.64-15.77-5.13 4.91-10.63 9.46-14.59 15.46-1.69-.73 8.05-8.87 8.66-10.78 4.67-4.43 8.87-9.67 13.38-14.38.22-.24.42-.51.76-.13zM324.08 226c.47-3.18.8-6.31 1.1-9.52 6.37-.98 13.04-1.71 19.35-2.57 2.98 1.98-2.73 3.8-2.67 6.06-1.68 1.83-4.15 3.4-5.27 5.49-.3.3-.62.58-.93.86-1.81.13-3.63.27-5.44.4l-.03.41c1.69.36 3.32.05 4.94-.32-1.12.73-3.46 3.65-3.52 3.79-.66.72-1.32 1.43-1.98 2.15-1.92.21-3.84.4-5.77.59.16-2.41.24-4.97.21-7.34zm-.44 12.05.12-2.42c1.24-.18 2.47-.35 3.71-.52-1.24 1.35-2.48 2.69-3.72 4.04-.05-.03-.1-.07-.15-.1.01-.33.02-.67.04-1zm3.66 1.26c3.55-4.12 6.91-8.45 11.3-11.73.55.97-1.36 1.67-1.58 2.61-.26.26-.89.84-.9.8-2.78 3.34-5.74 6.46-9.26 9 .12-.26.27-.48.44-.68zm-1.92-33.24c.08-1.41.09-1.45 1.47-1.24 1.29.2 2.58.34 3.85.64-.25.03-.51.07-.76.1l.05.37c5.12-.06 9.38 4.03 13.34 6.93-6.06.85-12.09 1.71-18.11 2.46.19-3.09-.13-6.19.16-9.28zm-10.55 9.07c.78-3.11.17-6.26.3-9.39.05-.97 1.4-.56 1.98-.75-.07 2.88-.13 5.63-.19 8.38.08 0 .15 0 .23.01.18-2.78.79-5.53.57-8.49 1.02.29 3.87-.76 3.88.63-.48 5.96-.36 11.84-.36 17.75 1.11-5.98 1.07-12.29 1.63-18.27 1.18-.26 1.49.25 1.29 1.39-.4.09-.77.43-.72.95.49 5.27.21 10.6-.76 15.8-.07.35.21.69.53.82-.28 5.22-.6 10.44-.88 15.66-.03.52-.19.65-.72.62-1.15-.4-5.3.59-5.3-.74.6-4.51.87-9.11.82-13.62-1.14 4.32-1.54 9.26-1.83 13.85-.14.92-1.27.58-2.05.85.63-8.52.53-17.03 1.59-25.47zm-16.91 6.17c-3.64.44-7.28.87-10.92 1.31l-1.64-1.91c6.79-.79 13.57-1.62 20.38-2.29-.31 5.82-.66 11.64-.97 17.46-1.92.26-3.83.53-5.76.72l-11.62-13.54c3.52-.5 7.06-.92 10.58-1.4-.02-.12-.03-.24-.05-.35zm6.73 16.81c-.04 1.51-1.97 1.32-3.06 1.46-.3-.3-.56-.64-.84-.96 1.3-.17 2.6-.33 3.9-.5zm3.72-18.71c-.02-.6.51-1.51 0-1.94.07-.67.2-1.33.31-2 .77-.65.14-1.99.74-2.8l.16.02c.51 1.3.38 2.73.54 4.1-.66.93-.34 2.4-.6 3.51-.03.27 0 .43.2.51-.25.81-.19 1.72-.27 2.56-1.07 1.85-.97 4.42-1.74 6.59-.34-3.02.33-6.09.37-9.13.02-.02 0-.39 0-.54.29-.17.32-.56.29-.89zm-23.56-.96c6.29-5.49 13.5-9.49 21.49-12 0 3.53-.35 7.01-.49 10.54-7.14.55-14.22 1.9-21.35 2.65-.35-.48-.25-.68.35-1.2zm-7.98 8.92c.95-.77 1.81-3.35 3.01-1.55 3.04 3.24 6.32 6.23 9.7 9.1-3.08-3.8-5.8-7.89-9.92-10.85 1.12-.66 3.3-4.52 4.25-3.03 6.39 7.51 12.91 14.91 19.23 22.47h.05c1.17 1.21 1.39 1.51-.11 2.52-1.38-1.62-3.99-3.97-4.9-4.36 1.46 1.72 2.82 3.33 4.23 4.99-.86.91-1.72 1.82-2.67 2.82-3.29-4.41-7.35-7.91-11.19-11.63 3.06 4.22 6.49 8.36 10.11 12.18.6.82-.65 1.55-.99 2.36-6.98-7.94-13.77-16.02-20.7-24-.29-.33-.47-.6-.09-1.01zm16.06 41.39c-.06.93-.06.89-1.01.97-4.84.42-9.68.87-14.51 1.32v.15c4.91-.09 9.84.68 14.74-.29.7-.14.74-.06.81.69.07.78.07.79-.67.82-10.11.41-20.22.74-30.33 1.1-1.34-.15-.3-2.83-.57-3.87 5.82.34 11.4.35 17.18.02v-.16c-5.72-.51-11.37-1.42-17.12-.71.19-.91-.5-3.81 1.01-3.5 3.17.09 6.33.24 9.5.25 2-.39 9.93.74 10.35-.88-.04-.56-.4-.49-.76-.48l-18.87.93c-1.04.05-1.04.07-.94-.99.08-.83.08-.84.93-.87 6.72-.41 13.64.03 20.26-.7 3.47-.06 6.99-.35 10.44-.27-.16 2.21-.31 4.34-.45 6.47zm2.47 11.03c.15.36.19.66-.16.91-5.1-5.84-3.19-11.51.16-.91zm-25.96-41.83c2.56-.3 5.09-.81 7.66-.97-.01-.14-.03-.29-.04-.43.69.8 1.38 1.6 2.06 2.41-3.71.58-7.43 1.18-11.12 1.85.44-.98.92-1.93 1.45-2.86zm3.12-5.36c.13-.22.3-.4.51-.67 1.36 1.54 2.61 3.03 3.94 4.57-2.39.25-4.78.5-7.17.74.88-1.56 1.82-3.09 2.72-4.65zm-5.53 10.36 13.98-1.8 1.42 1.66-1.4.06c0 .16.01.33.02.49l1.81-.06c.95 1.11 1.9 2.21 2.85 3.32-2.26.2-4.5.47-6.71 1.04l.06.47c2.39-.3 4.78-.61 7.17-.91l1.65 1.92c-4.24.54-8.47 1.09-12.71 1.63.02.18.05.36.07.54 4.36-.55 8.73-1.09 13.09-1.64.66.61.94 1.42 1.45 2.13-.34.45-.62.93-.87 1.43l-.02-.02c-.16.34-.31.66-.45.97-.12.01-.24.03-.36.04l.06.51h.07c-.77 1.25-.47 3.77-2.45 3.54.01.05.03.09.04.13-4.09.47-8.31-.29-12.33.48l-.44-.03c.02-.04.03-.07.05-.11-.49 0-.89.01-1.4.02l.04.04c-1.32-.02-2.71.02-4 .2.01-.02.02-.05.04-.07-.5.06-.97-.22-1.22.24-.15.03-.31.05-.46.08-1.25-.5-2.61-.12-3.91-.2-.1-1.02.19-1.69.39-2.62 2.24-.33 4.45-.84 6.68-1.28-.01-.12-.03-.23-.04-.35-2.14.25-4.29.51-6.43.76.23-.85.39-1.68.62-2.5 2.54-.45 5.08-.91 7.62-1.36-2.49-.06-4.94.16-7.36.55.43-1.37.89-2.73 1.39-4.08 4.09-.49 8.11-1.47 12.17-2.17-.04-.13-.08-.26-.12-.38-3.93.62-7.86 1.25-11.79 1.87.29-.77.6-1.54.91-2.3l4.89-.62c-.01-.12-.03-.24-.04-.37-1.53 0-3.05.09-4.56.21.05-.52.39-.98.56-1.47zm-5.94 32.85c-.02-.43 0-.66.13-.79-.02.3-.06.6-.12.89v-.1zm.07.96c1.31 1.4 2.08 2.03.35 3.53-.15-1.17-.27-2.35-.35-3.53zm2.98 15.06c3.45-3.8 6.55-7.96 8.92-12.6l-.18-.12c-3.15 3.72-5.76 7.9-9.17 11.4a65.02 65.02 0 0 1-1.01-3.7c3.75-3.6 7.09-7.61 10.01-12.03-.06-.06-.12-.13-.17-.19-3.54 3.4-6.67 7.25-10.17 10.72-.2-.91-.37-1.82-.52-2.74 2.22-2.44 4.16-5.14 5.94-7.9 3.93-.12 7.86-.24 11.79-.41-3.92 7.38-8.77 14.02-14.65 19.82-.28-.75-.54-1.5-.79-2.25zm3.65 8.59c-.92-1.65-1.61-3.25-2.32-4.97 6.24-6.13 11.67-13.4 15.69-21.24 1.68.3 5.08-1.05 6.03.45.12 1.27 1.7 2.69.67 3.82-6.72 7.33-13.32 14.6-20.07 21.94zm19.29-18.27c-2.89 5.33-7.57 9.91-11.86 14.24 2.82-5.68 7.49-9.79 11.58-14.38l.27.14zm13.91 27.27c-.37 4.3-1.07 10.22-1.01 14.46-.31 1.8-7.59-.49-9.06-.9-3.98-1.73-7.56-4.13-10.85-6.95-.98-.98.45-2.24 1.16-2.94.81-.24 2.31-1.8 2.43-2.62.39-.42.78-.84 1.16-1.26.05.06.1.11.16.17.82-.9 1.64-1.79 2.44-2.67-.05-.06-.11-.09-.16-.13l1.2-1.29c4.64-4.21 8.65-9.52 13.14-14 .05.02.1.04.15.07-.31 6.01-.62 12.02-.94 18.04l.17.04zm-13.4-4.66s.03.03.05.04c-1.13 1.26-2.4 2.41-3.5 3.7.01.01.02.02.03.04-.37.4-.74.79-1.1 1.19l-.01-.01c-1.47 1.56-2.84 3.24-4.55 4.55-.03-.03-.07-.06-.1-.09l.15-.18c-.73-.52-1.31-1.18-1.91-1.78.04-.01.09-.03.13-.05-.82-1.03-3.64-2.48-1.78-3.72.17-.14.23-.4.33-.61l-.19-.16c1.21-.42 5.04-2.86 3.32-4.13-.88.55-6.38 7.57-5.25 3.39 7.65-8.26 15.09-16.72 22.84-24.87.5.8 1.1 1.17.2 1.91-1.77 1.92-3.49 3.88-5.24 5.82l.15.15c1.95-1.8 3.9-3.59 5.82-5.41.98-.8 1.58 1.36 2.32 1.83.22.26.2.43-.05.64-2.38 2.23-4.19 5.03-6.29 7.53 2.56-1.82 4.65-4.44 6.97-6.62.82-.68 1.4.61 2.1 1.03-4.86 5.32-9.65 10.58-14.45 15.83zm14.39-18.53c-8.13-7.37-9.29-19.5-4.85-29.16 1.16-1.28 6.8 2.2 8.83 2.3.02-.06.05-.11.07-.17-2.38-1.4-4.76-2.82-7.16-4.2-1.05-.59.61-1.77.86-2.5 5.76-8.6 17.42-13.58 27.07-8.48.48.24.52.47.2.91-2.13 2.89-3.59 6.2-5.33 9.32-.26.49-.46.61-.98.28-3.39-2.29-8.4-1.14-10.86 1.64 4.16-1.29 8.52-2.63 12.3.32.06-.06.13-.11.19-.17-.21-.62-1.15-1.12-.57-1.77 2.25-2.84 4.42-5.74 6.29-8.85.43-.69.41-.74 1.08-.27 7.63 5.1 9.38 14.77 9 23.09-.24 3.32-2.37 6.15-3.44 9.24-.48.59-.99 1.44-1.29 2.14-5.25 7.49-14.33 12.98-23.78 10.39-8.5-2.62-4.93-2.86-1.51-8.62-1.81 1.39-3.77 2.64-5.15 4.45-.33.49-.57.45-.97.09zm2.83 13.58c-.45 3.53-.46 7.15-1.33 10.61-.23-1.45-.31-2.96-.63-4.38.57-3.59.88-7.31 1.87-10.8.07 0 .13.01.19.02.28 1.48-.06 3.05-.12 4.55zm13.43 15.14c-.62 1.87.64 12.45-1.92 11.4l.09-7.48c-.08 0-.17-.01-.25-.02-.3 2.54-.6 5.08-.91 7.76-.83-.25-3.59.94-3.57-.52.23-3.46.65-6.92.74-10.38-1.65 3.34-2.21 6.84-2.06 10.53 0 .37-.09.54-.49.56-1.28.07-1.31.05-1.23-1.22.17-3.87.47-7.76.64-11.63h-.05c.16-1.51.24-3.03.22-4.55h.02c.36-5.37.62-10.72.92-16.09.23-1.48 4.43-.21 5.77-.59.8 0 .79-.03.72.76-.83 6.08-.59 12.12-.19 18.23 1.07-2.53.17-20.38 2.46-19.4.58 7.01-.81 15.23-.91 22.64zm6.13 5.15c-1.67.75-3.4 1.38-5.24 2.12.35-10.08 1.08-20.12 1.61-30.2-.18-.85 2.61-1.92 2.97-1.22 5.21 6.09 10.44 12.16 15.66 18.24 1.77 2.27-12.64 10.07-15 11.06zm3.01-28.86c4.39 3.16 7.22 7.73 10.75 11.68-4.1-2.52-7.69-7.79-10.75-11.68zm2.67 29.84c4.72-2.47 9.36-5.06 13.71-8.16.07.12.14.24.22.36-4.12 3.49-8.27 6.93-13.93 7.8zm24.38-16.91c-1.44 1.69-2.95 3.52-4.49 5.07-2.45-2.03-4.81-3.99-7.18-5.95l-.12.12c1.94 2.18 4.08 4.19 6.08 6.31.56.5-.24.86-.59 1.17-6.77-7.36-13.21-15.28-19.78-22.89.54-.64.65-.67 1.13-.1 2.37 2.93 5.52 5 8.42 7.35-9.76-11.92-9.61-5.01-3.07-14.59 6.61 7.34 13.18 14.79 19.59 22.34.37.43.4.74.02 1.16zm2.29-17.7c-.18.42-.26.79-.46 1.19 0 0-.02 0-.02-.01-.34.72-.67 1.4-.99 2.08.03.01.05.03.08.04-.09.19-.17.38-.26.57-1.55 2.05-2.49 4.47-4.05 6.62-3.52-3.86-6.75-7.94-10.25-11.79-1.05-2.24-3.79-3.81-5.04-6.13.35-2.08 1.71-4.15 2.38-6.22 7.09-1.88 15.78-.66 23.41-1.36-.38 1.66-.74 3.23-1.09 4.79h.03c-1.09 3.45-2.23 6.92-3.72 10.22zm7.43-8.51c-.46 1.3-.93 2.6-1.39 3.9-.98.6-1.11 1.77-1.6 2.76.27-.03.47-.06.64-.07-.03.08-.06.17-.09.25-.29.09-1.01 1.55-1.2 1.78-.73.39-1.31 1.53-1.38 2.29l-.36.6c-.03-.01-.07-.03-.1-.04 1.38-3.47 2.74-7.26 3.61-10.72.2-.64.41-1.27.61-1.91 1.12-.51.94-2.75 1.58-3.84h.18c.36 1.66-.86 3.36-.51 4.99zm4.85-18.4c.25 0 .5 0 .77.01-.01.77.4 1.64-.7 1.46-5.25.01-10.45 1.16-15.65 1.78 5.19.17 10.55 0 15.76-.6.38-.05.63 0 .59.47-.55 1.58.44 7.4-1.7 7.12-9.42.31-18.84.66-28.26.95-.2 0-.57-.1-.57-.15.06-.64-.07-1.48.85-1.4 4.87-.04 9.62-.97 14.38-1.9v-.12c-4.74.13-9.5.12-14.22.78-.49.07-.69-.04-.63-.58.46-1.32-.73-4.28 1.55-3.7 2.99.04 5.99.13 8.97.05-3.24-.66-6.45-1.56-9.78-1.59-.88.02-.55-.63-.64-1.04-.12-.52.26-.51.61-.53 9.55-.39 19.11-.68 28.67-1.02zm-150.83 11.41c.04-.2.02-.12 0 0zM87.47 150.54c1.97-2.5 4.01-4.93 6.38-7.03 2.54-1.75 7.24-2.4 7.84-5.88 0-.6-.72-.91-1.12-.45-2.69 3.53-7.52 4.09-10.97 6.63-3.8 2.01-5.69 5.88-7.63 9.4-3.85 4.52-8.18 8.77-13.97 10.68-1.86 1.32-5.48 1.76-5.92 4.24.04.91-.25 1.72-.87 2.39-.87 1.45-3.46 1.99-3.58 3.72.91 1.17 2.36-.45 3.24-.94 6.02-5.17 1.23-4.81 10.89-8.06 4.1-2.15 7.57-5.11 11.33-7.75 2.71-1.68 5.77-3.03 8.02-5.31.86-2.32-2.19-.29-3.03.07-1.2.35-1.34-1.08-.6-1.72zm-52.01 53.61c.66.68 1.62 1.16 1.19 2.28-.03.58.31.97.9.92 1.36-.11 1.57-1.89 2.97-2.01 2-.39 2.73-2.03 3.55-3.66 1.69-2.01-1.71-3.86-.82-5.66.67-1.2 2.31-2.79 1.19-4.15-1.77-1.66-2.13 1.53-2.96 2.49-1.52 1.77-4.43 1.24-5.83 3.41-.38.41-.59.9-.5 1.44.35 1.75-1.44 3.56.31 4.94zm3.79-5.97c.78-.91 3.49.21 2.24 1.18-.6.16-.99.52-1.31 1.02-.66 1.16-1.93-1.91-.93-2.2zm49.6 17.5c-.02-1.12-.85-2.26-1.89-2.63-.98-.32-1.83.51-.8 1.31 1.49 3.21.88 7.56-.06 10.96-.22.53-.1 1.01.34 1.28.48.3.67.67.71 1.23 2.14 3.37 4.75-6.69 4.85-8.26.15-1-.2-2.9-1.49-2.74-1.11.99.05 3.63-1.34 4.4-.8-1.51-.1-3.88-.31-5.56zm-67.56 10.69c-1.63-.48-21.2 7.85-13.45 7.87 3.3-1.12 5.75-4.08 9.3-4.52 1.79-.01 3.32-1.07 5.04-1.45 1.21-.54.33-2.36-.89-1.9zm156.02 82.14c.25-1.91-2.13-1.85-3.1-2.94-.99-.68-1.62.72-.84 1.39.39.46.88.73 1.47.79.87.14 2.01 1.1 1.76 1.97-.17 1.96-3.1 2.14-3.23 3.74.92 1.08 4.2-1.45 4.34-2.62.45-.87-.63-1.49-.4-2.32zm-87.75-80.1c-.15 1.07-1.47 2.75-.02 3.41 1.58.25 2.22-2.07 2.36-3.43.04-1.6-2.13-1.51-2.34.02zm-59.41-24.56c.59.85.03 2.14 1.6 2.01.7.05 1.88-.42 1.36-1.31-.53-.52-.94-.97-1.08-1.74-.47-1.21-2.96-.17-1.88 1.05zM60 227.58c-1.15.62-3.1-1.47-3.18.89.11 1.05 2.1 2.5 2.87 1.1.36-.63 2.1-2.06.31-1.99zm3.92-22.21c-1.1-.19-3.84-.58-4.46.42-.24 1.87 6.8 1.6 4.46-.42zm-4.23 6.4c.97.38 2.08-.12 3.09.35.83.48 2.79-.87 1.44-1.48-.99-.17-6.19-.91-4.53 1.13zm-18.57-27.78c1.19.61 2.76-1.07 1.52-1.95-.75-.28-.45-2.51-1.43-1.5-.24 1.24-2.02 2.92-.09 3.45zm-4.66-.82c.69-1.04 1.09-2.64.72-3.76-.46-.65-1.43-.38-1.56.37-.35.84-.73 4.23.84 3.39zm3.74-4.15c-.36-1.66-2-.42-1.9.76.02.84-.46 1.67-.04 2.47.12.53.79.59.99.07.55-1.02.82-2.18.95-3.3zm18.74 34.47c.64.93 2.37.67 3.4 1.08 1.22.21 1.68-1.39.4-1.76-.53-.15-1.09-.05-1.64-.08v-.04c-.74.05-2.1-.27-2.17.8zm4.25-5.57c-5.68.38-2.25 1.59.99 1.6 2.01-.13.39-2.17-.99-1.6zM34.4 181.63c-.04-.5-.21-.68-.64-.71-1.4.04-1.02 2.4-.6 3.28.28.84 1.39.63 1.62-.15.05-.81-.35-1.59-.38-2.41zm-2.48 1.69c-.59-1.5-2.27.28-1.35 1.26 1.44 1.8 2.2.32 1.35-1.26zm15.23 21.57c.58 0 .88-.25 1.16-.96.41-.82-.56-1.52-1.25-1.13-.9.39-1.19 2.1.09 2.09zm-2.25 3.93c.09-.99-1.71-1.48-2.1-.56-.46 1.13 2.17 2.01 2.1.56zm-.19-1.72c.22 1.44 2.17.13 2.02-.8-.35-1.27-2.19-.09-2.02.8zm-14.28-5.96c.94.6 2.73-.69 1.37-1.41-.83-.43-2.47.62-1.37 1.41zm11.64 8.57c-1.29.06-.74 1.77.32 1.83 1.32-.02.78-1.83-.32-1.83zm-9.66-14.86c.03.73.58 1.09 1.01 1.54 2.28.55-.98-3.91-1.01-1.54zm-.98 3.13c-.09 1.12 1.85 1.32 1.87.15.15-1.05-1.86-1.12-1.87-.15zm175.79 50.75c-5.15.62-10.01 1.2-14.87 1.78.04.11.09.22.13.33 1.99.3 12.83-1.19 14.74-2.11z"/>
</svg>
